<svg width="42" height="42" viewBox="0 0 42 42" fill="none" xmlns="http://www.w3.org/2000/svg">
<rect width="42" height="42" rx="8" fill="#EB5757"/>
<path d="M29 15V14C29 13.7348 28.8946 13.4804 28.7071 13.2929C28.5196 13.1054 28.2652 13 28 13H18V12H15V13H14V15H15V24H14V22H12V24H11L11 29.5H12H14H19H21H22V24H21V22H19V24H18V15H26V19.62C25.53 19.79 25.19 20.23 25.19 20.76C25.19 21.2 25.43 21.6 25.8 21.82V23H26.42C26.76 23 27.03 23.28 27.03 23.62C27.03 23.96 26.76 24.24 26.42 24.24C26.2 24.24 26 24.12 25.89 23.93C25.8067 23.7906 25.672 23.6895 25.5149 23.6484C25.3579 23.6073 25.1909 23.6294 25.05 23.71C24.75 23.87 24.65 24.25 24.82 24.55C25.15 25.11 25.76 25.47 26.42 25.47C27.43 25.47 28.26 24.64 28.26 23.62C28.26 22.84 27.76 22.14 27.03 21.88V21.82C27.41 21.6 27.65 21.2 27.65 20.76C27.65 20.3 27.38 19.91 27 19.7V15H29ZM17 22.66L16 23.66V22.24L17 21.24V22.66ZM17 19.71L16 20.71V19.29L17 18.29V19.71ZM16 17.71V16.29L17 15.29V16.71L16 17.71Z" fill="white"/>
</svg>
