<svg width="42" height="42" viewBox="0 0 42 42" fill="none" xmlns="http://www.w3.org/2000/svg">
<rect width="42" height="42" rx="8" fill="#EB5757"/>
<path fill-rule="evenodd" clip-rule="evenodd" d="M12.1029 8.10297C12.0261 8.17985 12 9.13542 12 11.8737V15.5415L12.1905 15.675C12.3598 15.7937 13.3378 15.8086 21 15.8086C28.6622 15.8086 29.6402 15.7937 29.8095 15.675L30 15.5415V11.8737C30 9.13542 29.9739 8.17985 29.8971 8.10297C29.8185 8.0242 27.7257 8 21 8C14.2743 8 12.1815 8.0242 12.1029 8.10297ZM28.8857 9.71617V10.231H21H13.1143V9.71617V9.20132H21H28.8857V9.71617ZM28.8857 12.2475V13.0627H21H13.1143V12.2475V11.4323H21H28.8857V12.2475ZM12.551 16.7806C12.527 16.8433 12.5451 16.9939 12.5912 17.1154C12.6443 17.2554 12.7791 17.3687 12.959 17.4245C13.1151 17.4731 13.6864 17.6487 14.2286 17.8149C14.7707 17.9809 15.9086 18.3097 16.7571 18.5455C17.6057 18.7812 18.8979 19.1467 19.6286 19.3576C20.3593 19.5685 21.4393 19.8799 22.0286 20.0496C22.6179 20.2193 23.7649 20.5412 24.5775 20.7649C25.3901 20.9886 26.0549 21.1909 26.0548 21.2145C26.0548 21.2381 25.3321 21.4568 24.4488 21.7005C23.5655 21.9442 22.3607 22.2817 21.7714 22.4506L20.7 22.7576L19.5429 22.4171C18.9064 22.2299 17.7207 21.8923 16.9079 21.667C16.0951 21.4417 15.4299 21.2381 15.4295 21.2145C15.4293 21.1909 15.8955 21.0461 16.4655 20.8927C17.0356 20.7393 17.8937 20.4918 18.3724 20.3426C18.8511 20.1934 19.2043 20.0593 19.1571 20.0446C19.11 20.0298 18.6362 19.8822 18.1042 19.7164L17.1369 19.4151L16.3471 19.6655C15.9126 19.8032 14.9835 20.0716 14.2825 20.2618C13.5814 20.4521 12.9166 20.6676 12.8053 20.7406C12.6939 20.8137 12.5786 20.9698 12.5491 21.0875C12.5157 21.2205 12.5477 21.3816 12.6336 21.5128C12.7347 21.6672 12.9619 21.7804 13.4787 21.934C13.8676 22.0495 14.8221 22.3251 15.6 22.5464C16.3779 22.7678 17.94 23.2116 19.0714 23.5327C20.2029 23.8538 22.1507 24.4063 23.4 24.7606C24.6493 25.115 25.78 25.4466 25.9127 25.4977C26.0497 25.5505 26.7446 25.5908 27.5199 25.5908C28.6284 25.5908 28.8857 25.5683 28.8857 25.4716C28.8857 25.406 28.8182 25.2755 28.7357 25.1816C28.6532 25.0877 28.2386 24.9051 27.8143 24.7759C27.39 24.6467 26.1616 24.2972 25.0846 23.9993C24.0075 23.7013 23.1052 23.4365 23.0794 23.4107C23.0537 23.3849 23.0864 23.3452 23.152 23.3227C23.2177 23.3 23.6186 23.1803 24.0429 23.0565C24.4671 22.9328 25.6791 22.5882 26.7363 22.291C28.036 21.9255 28.6951 21.7001 28.772 21.5948C28.8345 21.5092 28.8857 21.3307 28.8857 21.1981C28.8857 21.0656 28.8152 20.8865 28.729 20.8002C28.6429 20.714 28.1125 20.5186 27.5505 20.366C26.9884 20.2135 25.8921 19.9007 25.1143 19.6711C24.3364 19.4415 23.5322 19.2095 23.3271 19.1558C23.1219 19.102 22.9694 19.0427 22.9881 19.024C23.0067 19.0053 23.7339 18.7972 24.6039 18.5616C25.4739 18.3259 26.745 17.9641 27.4286 17.7576C28.4607 17.4459 28.692 17.3457 28.7929 17.1666C28.8597 17.048 28.8898 16.887 28.8599 16.8089C28.8135 16.688 28.6591 16.6667 27.8319 16.6667C27.0044 16.6667 26.7245 16.7054 25.9649 16.9251C25.4735 17.0672 24.165 17.4391 23.0571 17.7515C21.9493 18.0638 20.9655 18.3363 20.871 18.3571C20.7765 18.3779 19.9086 18.176 18.9424 17.9087C17.9763 17.6413 16.6131 17.2525 15.9132 17.0446C14.7198 16.6902 14.5771 16.6667 13.6176 16.6667C12.8464 16.6667 12.5839 16.6947 12.551 16.7806ZM15.7286 24.1656C15.0214 24.3678 14.0457 24.6572 13.5601 24.8084C12.8689 25.0238 12.6619 25.1246 12.6059 25.2728C12.5666 25.3768 12.5515 25.4911 12.5722 25.5264C12.5931 25.5618 13.2037 25.5908 13.9292 25.5908C15.0876 25.5908 15.3297 25.5653 15.917 25.3815C16.2848 25.2663 16.9521 25.0715 17.4 24.9487C17.8479 24.8258 18.4167 24.6679 18.6643 24.5978C18.9118 24.5278 19.1143 24.4414 19.1143 24.406C19.1143 24.3705 18.719 24.2352 18.2357 24.1053C17.7525 23.9754 17.28 23.8531 17.1857 23.8334C17.0914 23.8138 16.4357 23.9632 15.7286 24.1656ZM12.15 26.6273C12.0121 26.7077 12 26.9357 12 29.4534C12 32.0732 12.0072 32.1959 12.1658 32.2808C12.257 32.3297 12.4076 32.3696 12.5005 32.3696C12.6097 32.3696 12.7481 32.504 12.8918 32.7494C13.0141 32.9584 13.2588 33.2487 13.4356 33.3948C13.6125 33.5408 13.9611 33.7367 14.2104 33.8301C14.4597 33.9235 14.8672 34 15.1162 34C15.3652 34 15.7624 33.9424 15.999 33.8721C16.2356 33.8018 16.5825 33.6331 16.7699 33.4971C16.9574 33.3612 17.2377 33.0519 17.3929 32.8097L17.675 32.3696H21H24.325L24.6071 32.8097C24.7623 33.0519 25.0426 33.3612 25.2301 33.4971C25.4175 33.6331 25.7644 33.8018 26.001 33.8721C26.2376 33.9424 26.6348 34 26.8838 34C27.1328 34 27.5403 33.9235 27.7896 33.8301C28.0389 33.7367 28.3875 33.5408 28.5644 33.3948C28.7412 33.2487 28.9859 32.9584 29.1082 32.7494C29.2705 32.4723 29.3847 32.3696 29.5306 32.3696C29.6406 32.3696 29.7912 32.309 29.8653 32.2348C29.982 32.118 30 31.7407 30 29.4062C30 26.8306 29.9927 26.7084 29.8342 26.6235C29.723 26.5639 26.8114 26.5355 20.9842 26.5372C15.2451 26.539 12.2492 26.5695 12.15 26.6273ZM15.857 30.0098C15.9936 30.0805 16.2113 30.2774 16.3407 30.4473C16.5187 30.6808 16.5832 30.8743 16.6059 31.2411C16.6296 31.6279 16.5959 31.7939 16.4392 32.0612C16.3312 32.2456 16.1384 32.474 16.0107 32.5687C15.8709 32.6725 15.5943 32.7564 15.3153 32.7795C14.9865 32.8068 14.7604 32.7744 14.5356 32.6676C14.3614 32.5848 14.1282 32.397 14.0174 32.2503C13.9065 32.1035 13.7736 31.8245 13.722 31.6302C13.6472 31.3488 13.6547 31.2014 13.7592 30.9051C13.8313 30.7006 13.9567 30.4583 14.0379 30.3665C14.1192 30.2749 14.3014 30.1283 14.4429 30.0409C14.6082 29.9386 14.8622 29.8817 15.1543 29.8815C15.4041 29.8814 15.7203 29.9391 15.857 30.0098ZM27.5141 30.0098C27.6507 30.0805 27.8572 30.264 27.9729 30.4174C28.0886 30.5708 28.2225 30.8412 28.2704 31.0182C28.3295 31.2364 28.3295 31.4435 28.2704 31.6617C28.2225 31.8387 28.0854 32.1131 27.966 32.2715C27.8465 32.4299 27.6104 32.6174 27.4413 32.6882C27.2449 32.7703 26.9687 32.8031 26.6775 32.7789C26.4108 32.7568 26.1251 32.6708 25.9893 32.5718C25.8616 32.4787 25.6704 32.2324 25.5643 32.0247C25.457 31.8145 25.372 31.493 25.3728 31.3003C25.3737 31.1016 25.4565 30.8085 25.567 30.6131C25.6731 30.4257 25.8903 30.1844 26.0497 30.0768C26.2626 29.9332 26.4627 29.8812 26.8027 29.8812C27.0573 29.8812 27.3775 29.9391 27.5141 30.0098ZM24.3429 30.2545C24.3429 30.2711 24.3005 30.4063 24.2487 30.5549L24.1546 30.8251H21H17.8454L17.7513 30.5549C17.6995 30.4063 17.6571 30.2711 17.6571 30.2545C17.6571 30.238 19.1614 30.2244 21 30.2244C22.8386 30.2244 24.3429 30.238 24.3429 30.2545Z" fill="white"/>
</svg>
