<svg width="24" height="24" viewBox="0 0 24 24" fill="none" xmlns="http://www.w3.org/2000/svg">
<g clip-path="url(#clip0_12723_53964)">
<path d="M21.1429 12.5703H17.7143M7.42861 4.57031C7.73171 4.57031 8.0224 4.69072 8.23673 4.90505C8.45106 5.11938 8.57146 5.41007 8.57146 5.71317V7.99888C8.57146 8.30199 8.45106 8.59268 8.23673 8.80701C8.0224 9.02133 7.73171 9.14174 7.42861 9.14174C7.1255 9.14174 6.83481 9.02133 6.62048 8.80701C6.40616 8.59268 6.28575 8.30199 6.28575 7.99888V5.71317C6.28575 5.41007 6.40616 5.11938 6.62048 4.90505C6.83481 4.69072 7.1255 4.57031 7.42861 4.57031V4.57031ZM21.1429 6.85603H8.57146H21.1429ZM6.28575 6.85603H2.85718H6.28575ZM7.42861 15.9989C7.73171 15.9989 8.0224 16.1193 8.23673 16.3336C8.45106 16.5479 8.57146 16.8386 8.57146 17.1417V19.4275C8.57146 19.7306 8.45106 20.0213 8.23673 20.2356C8.0224 20.4499 7.73171 20.5703 7.42861 20.5703C7.1255 20.5703 6.83481 20.4499 6.62048 20.2356C6.40616 20.0213 6.28575 19.7306 6.28575 19.4275V17.1417C6.28575 16.8386 6.40616 16.5479 6.62048 16.3336C6.83481 16.1193 7.1255 15.9989 7.42861 15.9989ZM21.1429 18.2846H8.57146H21.1429ZM6.28575 18.2846H2.85718H6.28575ZM16.5715 10.2846C16.8746 10.2846 17.1653 10.405 17.3796 10.6193C17.5939 10.8337 17.7143 11.1244 17.7143 11.4275V13.7132C17.7143 14.0163 17.5939 14.307 17.3796 14.5213C17.1653 14.7356 16.8746 14.856 16.5715 14.856C16.2684 14.856 15.9777 14.7356 15.7633 14.5213C15.549 14.307 15.4286 14.0163 15.4286 13.7132V11.4275C15.4286 11.1244 15.549 10.8337 15.7633 10.6193C15.9777 10.405 16.2684 10.2846 16.5715 10.2846V10.2846ZM15.4286 12.5703H2.85718H15.4286Z" stroke="#828282" stroke-width="1.5" stroke-linecap="round" stroke-linejoin="round"/>
</g>
<defs>
<clipPath id="clip0_12723_53964">
<rect width="24" height="24" fill="white"/>
</clipPath>
</defs>
</svg>
