<svg width="80" height="80" viewBox="0 0 80 80" fill="none" xmlns="http://www.w3.org/2000/svg">
<path d="M52 28H28V52H52V28Z" fill="url(#paint0_linear_18068_122680)"/>
<path fill-rule="evenodd" clip-rule="evenodd" d="M28 8C28 6.93913 28.4214 5.92172 29.1716 5.17157C29.9217 4.42143 30.9391 4 32 4C33.0609 4 34.0783 4.42143 34.8284 5.17157C35.5786 5.92172 36 6.93913 36 8V12H44V8C44 6.93913 44.4214 5.92172 45.1716 5.17157C45.9217 4.42143 46.9391 4 48 4C49.0609 4 50.0783 4.42143 50.8284 5.17157C51.5786 5.92172 52 6.93913 52 8V12H60C62.1217 12 64.1566 12.8429 65.6569 14.3431C67.1571 15.8434 68 17.8783 68 20V28H72C73.0609 28 74.0783 28.4214 74.8284 29.1716C75.5786 29.9217 76 30.9391 76 32C76 33.0609 75.5786 34.0783 74.8284 34.8284C74.0783 35.5786 73.0609 36 72 36H68V44H72C73.0609 44 74.0783 44.4214 74.8284 45.1716C75.5786 45.9217 76 46.9391 76 48C76 49.0609 75.5786 50.0783 74.8284 50.8284C74.0783 51.5786 73.0609 52 72 52H68V60C68 62.1217 67.1571 64.1566 65.6569 65.6569C64.1566 67.1571 62.1217 68 60 68H52V72C52 73.0609 51.5786 74.0783 50.8284 74.8284C50.0783 75.5786 49.0609 76 48 76C46.9391 76 45.9217 75.5786 45.1716 74.8284C44.4214 74.0783 44 73.0609 44 72V68H36V72C36 73.0609 35.5786 74.0783 34.8284 74.8284C34.0783 75.5786 33.0609 76 32 76C30.9391 76 29.9217 75.5786 29.1716 74.8284C28.4214 74.0783 28 73.0609 28 72V68H20C17.8783 68 15.8434 67.1571 14.3431 65.6569C12.8429 64.1566 12 62.1217 12 60V52H8C6.93913 52 5.92172 51.5786 5.17157 50.8284C4.42143 50.0783 4 49.0609 4 48C4 46.9391 4.42143 45.9217 5.17157 45.1716C5.92172 44.4214 6.93913 44 8 44H12V36H8C6.93913 36 5.92172 35.5786 5.17157 34.8284C4.42143 34.0783 4 33.0609 4 32C4 30.9391 4.42143 29.9217 5.17157 29.1716C5.92172 28.4214 6.93913 28 8 28H12V20C12 17.8783 12.8429 15.8434 14.3431 14.3431C15.8434 12.8429 17.8783 12 20 12H28V8ZM20 20H60V60H20V20Z" fill="url(#paint1_linear_18068_122680)"/>
<defs>
<linearGradient id="paint0_linear_18068_122680" x1="52" y1="28" x2="40" y2="41.0833" gradientUnits="userSpaceOnUse">
<stop stop-color="#F1F1F5"/>
<stop offset="1" stop-color="#CFCED8"/>
</linearGradient>
<linearGradient id="paint1_linear_18068_122680" x1="76" y1="4" x2="40" y2="43.25" gradientUnits="userSpaceOnUse">
<stop stop-color="#F1F1F5"/>
<stop offset="1" stop-color="#CFCED8"/>
</linearGradient>
</defs>
</svg>
