<svg width="150" height="165" viewBox="0 0 150 165" fill="none" xmlns="http://www.w3.org/2000/svg">
<path d="M59.9996 52.98C69.7327 52.9672 79.0884 56.7442 86.0846 63.5108C93.0808 70.2774 97.1677 79.5019 97.4796 89.23L97.4996 90.48V110.965L104.4 126.745C104.816 127.696 104.989 128.735 104.902 129.77C104.816 130.804 104.473 131.801 103.905 132.669C103.337 133.538 102.561 134.251 101.648 134.744C100.734 135.238 99.7126 135.496 98.6746 135.495L74.9996 135.51C75.0047 139.415 73.4868 143.168 70.7684 145.971C68.05 148.775 64.3456 150.408 60.4423 150.523C56.539 150.638 52.7447 149.227 49.8656 146.589C46.9866 143.95 45.2499 140.293 45.0246 136.395L44.9996 135.495H21.3746C20.3387 135.494 19.3192 135.235 18.4079 134.743C17.4965 134.25 16.7218 133.539 16.1532 132.673C15.5846 131.807 15.2401 130.813 15.1504 129.781C15.0608 128.749 15.2289 127.711 15.6396 126.76L22.4996 110.97V90.48C22.4996 69.705 39.2596 52.98 59.9996 52.98ZM67.4996 135.5L52.4996 135.51C52.4993 137.437 53.2403 139.289 54.5691 140.684C55.8978 142.079 57.7124 142.909 59.6367 143.003C61.5609 143.096 63.4473 142.445 64.9047 141.185C66.362 139.925 67.2787 138.153 67.4646 136.235L67.4996 135.5ZM59.9996 60.48C43.3996 60.48 29.9996 73.85 29.9996 90.48V112.53L23.2796 128H96.7646L89.9996 112.535V90.545L89.9846 89.42C89.7248 81.6462 86.45 74.2787 80.8534 68.8771C75.2567 63.4755 67.7777 60.464 59.9996 60.48Z" fill="#4F4F4F"/>
<g filter="url(#filter0_d_3893_20037)">
<rect x="78" y="105" width="50" height="48" rx="24" fill="#2B2C2E"/>
<rect x="75.5" y="102.5" width="55" height="53" rx="26.5" stroke="#4F4F4F" stroke-width="5"/>
</g>
<path fill-rule="evenodd" clip-rule="evenodd" d="M94.5322 136.611C95.179 137.231 96.2277 137.231 96.8745 136.611L102.73 130.99L108.585 136.61C109.231 137.231 110.28 137.231 110.927 136.61C111.574 135.99 111.574 134.983 110.927 134.362L105.072 128.741L110.928 123.119C111.575 122.498 111.575 121.491 110.928 120.87C110.281 120.249 109.233 120.249 108.586 120.87L102.73 126.493L96.8731 120.87C96.2262 120.249 95.1776 120.249 94.5308 120.87C93.884 121.491 93.884 122.498 94.5308 123.119L100.387 128.741L94.5322 134.362C93.8854 134.983 93.8854 135.99 94.5322 136.611Z" fill="#4F4F4F"/>
<path d="M114.95 53.3063L114.185 57.9903L95.8999 55.0027L96.6653 50.3187L114.95 53.3063ZM117.68 35.8343L98.9185 55.4959L94.5121 54.7759L95.0365 51.5665L113.958 32.02L118.191 32.7117L117.68 35.8343ZM116.23 32.3914L115.462 37.0927L97.7843 34.2043L98.5525 29.503L116.23 32.3914Z" fill="#4F4F4F"/>
<path d="M146.661 28.5677L147.583 33.2232L129.41 36.8257L128.487 32.1702L146.661 28.5677ZM143.101 11.2455L132.41 36.231L128.03 37.0992L127.398 33.9093L138.279 8.97584L142.486 8.14186L143.101 11.2455ZM140.538 8.52809L141.464 13.2008L123.894 16.6837L122.968 12.011L140.538 8.52809Z" fill="#4F4F4F"/>
<defs>
<filter id="filter0_d_3893_20037" x="9" y="60" width="188" height="186" filterUnits="userSpaceOnUse" color-interpolation-filters="sRGB">
<feFlood flood-opacity="0" result="BackgroundImageFix"/>
<feColorMatrix in="SourceAlpha" type="matrix" values="0 0 0 0 0 0 0 0 0 0 0 0 0 0 0 0 0 0 127 0" result="hardAlpha"/>
<feOffset dy="24"/>
<feGaussianBlur stdDeviation="32"/>
<feComposite in2="hardAlpha" operator="out"/>
<feColorMatrix type="matrix" values="0 0 0 0 0.00784314 0 0 0 0 0.333333 0 0 0 0 0.533333 0 0 0 0.12 0"/>
<feBlend mode="normal" in2="BackgroundImageFix" result="effect1_dropShadow_3893_20037"/>
<feBlend mode="normal" in="SourceGraphic" in2="effect1_dropShadow_3893_20037" result="shape"/>
</filter>
</defs>
</svg>
