<svg width="24" height="24" viewBox="0 0 24 24" fill="none" xmlns="http://www.w3.org/2000/svg">
<path d="M4.52345 18.6562C4.52345 19.0711 4.8586 19.4062 5.27345 19.4062H18.7266C19.1414 19.4062 19.4766 19.0711 19.4766 18.6562V13.1953C19.4766 9.06563 16.1297 5.71875 12 5.71875C7.87032 5.71875 4.52345 9.06563 4.52345 13.1953V18.6562ZM6.21095 13.1953C6.21095 9.99844 8.80314 7.40625 12 7.40625C15.1969 7.40625 17.7891 9.99844 17.7891 13.1953V17.7188H9.46876V13.7109C9.46876 13.582 9.36329 13.4766 9.23439 13.4766H8.20314C8.07423 13.4766 7.96876 13.582 7.96876 13.7109V17.7188H6.21095V13.1953ZM5.0836 7.27734L6.01173 6.34922C6.08438 6.27656 6.08438 6.15703 6.01173 6.08438L4.42032 4.49297C4.38508 4.45807 4.33749 4.4385 4.2879 4.4385C4.23831 4.4385 4.19072 4.45807 4.15548 4.49297L3.22735 5.42109C3.19246 5.45633 3.17288 5.50392 3.17288 5.55352C3.17288 5.60311 3.19246 5.6507 3.22735 5.68594L4.81876 7.27734C4.89142 7.35 5.0086 7.35 5.0836 7.27734ZM20.7774 5.42109L19.8492 4.49297C19.814 4.45807 19.7664 4.4385 19.7168 4.4385C19.6672 4.4385 19.6196 4.45807 19.5844 4.49297L17.993 6.08438C17.9581 6.11962 17.9385 6.1672 17.9385 6.2168C17.9385 6.26639 17.9581 6.31398 17.993 6.34922L18.9211 7.27734C18.9938 7.35 19.1133 7.35 19.186 7.27734L20.7774 5.68594C20.85 5.61094 20.85 5.49375 20.7774 5.42109ZM19.5 20.9062H4.50001C4.08516 20.9062 3.75001 21.2414 3.75001 21.6562V22.2188C3.75001 22.3219 3.83438 22.4062 3.93751 22.4062H20.0625C20.1656 22.4062 20.25 22.3219 20.25 22.2188V21.6562C20.25 21.2414 19.9149 20.9062 19.5 20.9062ZM11.3438 4.21875H12.6563C12.7594 4.21875 12.8438 4.13438 12.8438 4.03125V1.78125C12.8438 1.67812 12.7594 1.59375 12.6563 1.59375H11.3438C11.2406 1.59375 11.1563 1.67812 11.1563 1.78125V4.03125C11.1563 4.13438 11.2406 4.21875 11.3438 4.21875Z" fill="#4F4F4F"/>
</svg>
