<svg width="24" height="24" viewBox="0 0 24 24" fill="none" xmlns="http://www.w3.org/2000/svg">
<path fill-rule="evenodd" clip-rule="evenodd" d="M3.75 22.5C3.55109 22.5 3.36032 22.421 3.21967 22.2803C3.07902 22.1397 3 21.9489 3 21.75V2.25C3 2.05109 3.07902 1.86032 3.21967 1.71967C3.36032 1.57902 3.55109 1.5 3.75 1.5C3.94891 1.5 4.13968 1.57902 4.28033 1.71967C4.42098 1.86032 4.5 2.05109 4.5 2.25V21.75C4.5 21.9489 4.42098 22.1397 4.28033 22.2803C4.13968 22.421 3.94891 22.5 3.75 22.5Z" fill="#4F4F4F"/>
<path d="M19.2817 12.5313C19.4223 12.3906 19.5013 12.1999 19.5013 12.0009C19.5013 11.802 19.4223 11.6113 19.2817 11.4706C19.141 11.33 18.9503 11.2509 18.7513 11.2509H10.0618L13.2823 8.03195C13.4232 7.89112 13.5023 7.70011 13.5023 7.50095C13.5023 7.30178 13.4232 7.11078 13.2823 6.96995C13.1415 6.82912 12.9505 6.75 12.7513 6.75C12.5522 6.75 12.3612 6.82912 12.2203 6.96995L7.72034 11.4699C7.6505 11.5396 7.59508 11.6224 7.55727 11.7135C7.51946 11.8046 7.5 11.9023 7.5 12.0009C7.5 12.0996 7.51946 12.1973 7.55727 12.2884C7.59508 12.3795 7.6505 12.4623 7.72034 12.5319L12.2203 17.0319C12.2901 17.1017 12.3729 17.157 12.464 17.1947C12.5551 17.2325 12.6527 17.2519 12.7513 17.2519C12.85 17.2519 12.9476 17.2325 13.0387 17.1947C13.1298 17.157 13.2126 17.1017 13.2823 17.0319C13.3521 16.9622 13.4074 16.8794 13.4451 16.7883C13.4829 16.6972 13.5023 16.5996 13.5023 16.5009C13.5023 16.4023 13.4829 16.3047 13.4451 16.2136C13.4074 16.1225 13.3521 16.0397 13.2823 15.9699L10.0618 12.7509H18.7513C18.9503 12.7509 19.141 12.6719 19.2817 12.5313Z" fill="#4F4F4F"/>
</svg>
