<svg width="24" height="24" viewBox="0 0 24 24" fill="none" xmlns="http://www.w3.org/2000/svg">
<rect x="1" y="1" width="22" height="22" rx="3" stroke="#BDBDBD" stroke-width="2"/>
<path d="M16.2188 10.7393C16.0521 10.9059 15.8507 10.9859 15.6146 10.9793C15.3785 10.972 15.1771 10.8851 15.0104 10.7184L12.6563 8.36426V17.6559C12.6563 17.892 12.5763 18.0901 12.4163 18.2501C12.2568 18.4095 12.059 18.4893 11.8229 18.4893C11.5868 18.4893 11.3888 18.4095 11.2288 18.2501C11.0693 18.0901 10.9896 17.892 10.9896 17.6559V8.36426L8.61459 10.7393C8.44793 10.9059 8.24987 10.9893 8.02043 10.9893C7.79154 10.9893 7.59376 10.9059 7.42709 10.7393C7.26043 10.5726 7.17709 10.3745 7.17709 10.1451C7.17709 9.9162 7.26043 9.71842 7.42709 9.55176L11.2396 5.73926C11.3229 5.65593 11.4132 5.59676 11.5104 5.56176C11.6076 5.52731 11.7118 5.51009 11.8229 5.51009C11.934 5.51009 12.0382 5.52731 12.1354 5.56176C12.2326 5.59676 12.3229 5.65593 12.4063 5.73926L16.2396 9.57259C16.3924 9.72537 16.4688 9.9162 16.4688 10.1451C16.4688 10.3745 16.3854 10.5726 16.2188 10.7393Z" fill="#BDBDBD"/>
</svg>
