<svg width="24" height="24" viewBox="0 0 24 24" fill="none" xmlns="http://www.w3.org/2000/svg">
<path fill-rule="evenodd" clip-rule="evenodd" d="M20.25 22.5C20.4489 22.5 20.6397 22.421 20.7803 22.2803C20.921 22.1397 21 21.9489 21 21.75V2.25C21 2.05109 20.921 1.86032 20.7803 1.71967C20.6397 1.57902 20.4489 1.5 20.25 1.5C20.0511 1.5 19.8603 1.57902 19.7197 1.71967C19.579 1.86032 19.5 2.05109 19.5 2.25V21.75C19.5 21.9489 19.579 22.1397 19.7197 22.2803C19.8603 22.421 20.0511 22.5 20.25 22.5Z" fill="#4F4F4F"/>
<path d="M4.71833 12.5313C4.57768 12.3906 4.49866 12.1999 4.49866 12.0009C4.49866 11.802 4.57768 11.6113 4.71833 11.4706C4.85898 11.33 5.04975 11.2509 5.24866 11.2509H13.9382L10.7177 8.03195C10.5768 7.89112 10.4977 7.70011 10.4977 7.50095C10.4977 7.30178 10.5768 7.11078 10.7177 6.96995C10.8585 6.82912 11.0495 6.75 11.2487 6.75C11.4478 6.75 11.6388 6.82912 11.7797 6.96995L16.2797 11.4699C16.3495 11.5396 16.4049 11.6224 16.4427 11.7135C16.4805 11.8046 16.5 11.9023 16.5 12.0009C16.5 12.0996 16.4805 12.1973 16.4427 12.2884C16.4049 12.3795 16.3495 12.4623 16.2797 12.5319L11.7797 17.0319C11.7099 17.1017 11.6271 17.157 11.536 17.1947C11.4449 17.2325 11.3473 17.2519 11.2487 17.2519C11.15 17.2519 11.0524 17.2325 10.9613 17.1947C10.8702 17.157 10.7874 17.1017 10.7177 17.0319C10.6479 16.9622 10.5926 16.8794 10.5549 16.7883C10.5171 16.6972 10.4977 16.5996 10.4977 16.5009C10.4977 16.4023 10.5171 16.3047 10.5549 16.2136C10.5926 16.1225 10.6479 16.0397 10.7177 15.9699L13.9382 12.7509H5.24866C5.04975 12.7509 4.85898 12.6719 4.71833 12.5313Z" fill="#4F4F4F"/>
</svg>
