<svg width="25" height="24" viewBox="0 0 25 24" fill="none" xmlns="http://www.w3.org/2000/svg">
<path fill-rule="evenodd" clip-rule="evenodd" d="M15.6819 4.78093C17.244 3.21887 19.7767 3.21884 21.3388 4.78094L21.3388 4.78095C22.9008 6.34307 22.9008 8.87572 21.3388 10.4378L12.4999 19.2767C10.352 21.4245 6.86962 21.4245 4.72176 19.2767C2.57387 17.1288 2.57387 13.6464 4.72175 11.4985L5.42886 12.2056L4.72175 11.4985L12.1464 4.07384C12.5369 3.68332 13.1701 3.68332 13.5606 4.07384C13.9511 4.46437 13.9511 5.09753 13.5606 5.48806L6.13597 12.9127L5.4801 12.2568L6.13596 12.9127C4.76913 14.2795 4.76913 16.4956 6.13596 17.8624L5.43238 18.566L6.13597 17.8624C7.50279 19.2293 9.71887 19.2293 11.0857 17.8624L19.9245 9.02359C20.7056 8.24257 20.7056 6.97622 19.9245 6.19514C19.1435 5.41413 17.8772 5.41411 17.0961 6.19516L8.25731 15.034L7.5502 14.3269L8.25731 15.034C8.06202 15.2293 8.06206 15.5459 8.25728 15.7411L8.25734 15.7411C8.45254 15.9363 8.76911 15.9364 8.9644 15.7411L16.389 8.31649C16.7795 7.92596 17.4127 7.92596 17.8032 8.31649C18.1937 8.70701 18.1937 9.34018 17.8032 9.7307L10.3786 17.1553C9.40232 18.1316 7.81943 18.1317 6.84313 17.1553C6.84311 17.1553 6.84309 17.1553 6.84307 17.1553M6.84307 17.1553C5.86675 16.179 5.86681 14.5961 6.8431 13.6198L15.6819 4.78094L15.6819 4.78093" fill="#333333"/>
</svg>
