<svg width="42" height="42" viewBox="0 0 42 42" fill="none" xmlns="http://www.w3.org/2000/svg">
<rect width="42" height="42" rx="8" fill="#333333"/>
<path fill-rule="evenodd" clip-rule="evenodd" d="M16.7631 17.8495L11 21.6989V24.8494V28L11.5994 27.6202C11.9289 27.4113 14.5429 25.6746 17.408 23.7611L22.6171 20.2818H25.8452C28.3068 20.2818 29.072 20.3403 29.0687 20.5279C29.0663 20.6634 27.8104 21.567 26.2779 22.5359C24.7452 23.5049 23.339 24.4353 23.1529 24.6034C22.9037 24.8283 22.782 25.3117 22.6911 26.435L22.5675 27.961H26.2838H30L29.9515 21.0202L29.903 14.0794L26.2146 14.0396L22.5262 14L16.7631 17.8495Z" fill="white"/>
</svg>
