<svg width="42" height="42" viewBox="0 0 42 42" fill="none" xmlns="http://www.w3.org/2000/svg">
<rect width="42" height="42" rx="8" fill="#F2C94C"/>
<path d="M14 11.2002H28C28.7426 11.2002 29.4548 11.4952 29.9799 12.0203C30.505 12.5454 30.8 13.2576 30.8 14.0002V28.0002C30.8 28.7428 30.505 29.455 29.9799 29.9801C29.4548 30.5052 28.7426 30.8002 28 30.8002H14C13.2574 30.8002 12.5452 30.5052 12.0201 29.9801C11.495 29.455 11.2 28.7428 11.2 28.0002V14.0002C11.2 13.2576 11.495 12.5454 12.0201 12.0203C12.5452 11.4952 13.2574 11.2002 14 11.2002ZM16.1 14.0002C15.5431 14.0002 15.0089 14.2214 14.6151 14.6153C14.2213 15.0091 14 15.5432 14 16.1002V18.9002C14 19.0858 14.0738 19.2639 14.205 19.3952C14.3363 19.5264 14.5144 19.6002 14.7 19.6002C14.8857 19.6002 15.0637 19.5264 15.195 19.3952C15.3263 19.2639 15.4 19.0858 15.4 18.9002V16.1002C15.4 15.9145 15.4738 15.7365 15.605 15.6052C15.7363 15.4739 15.9144 15.4002 16.1 15.4002H18.9C19.0857 15.4002 19.2637 15.3264 19.395 15.1952C19.5263 15.0639 19.6 14.8858 19.6 14.7002C19.6 14.5145 19.5263 14.3365 19.395 14.2052C19.2637 14.0739 19.0857 14.0002 18.9 14.0002H16.1ZM23.1 14.0002C22.9144 14.0002 22.7363 14.0739 22.605 14.2052C22.4738 14.3365 22.4 14.5145 22.4 14.7002C22.4 14.8858 22.4738 15.0639 22.605 15.1952C22.7363 15.3264 22.9144 15.4002 23.1 15.4002H25.9C26.0857 15.4002 26.2637 15.4739 26.395 15.6052C26.5263 15.7365 26.6 15.9145 26.6 16.1002V18.9002C26.6 19.0858 26.6738 19.2639 26.805 19.3952C26.9363 19.5264 27.1144 19.6002 27.3 19.6002C27.4857 19.6002 27.6637 19.5264 27.795 19.3952C27.9263 19.2639 28 19.0858 28 18.9002V16.1002C28 15.5432 27.7788 15.0091 27.3849 14.6153C26.9911 14.2214 26.457 14.0002 25.9 14.0002H23.1ZM15.4 23.1002C15.4 22.9145 15.3263 22.7365 15.195 22.6052C15.0637 22.4739 14.8857 22.4002 14.7 22.4002C14.5144 22.4002 14.3363 22.4739 14.205 22.6052C14.0738 22.7365 14 22.9145 14 23.1002V25.9002C14 26.4571 14.2213 26.9913 14.6151 27.3851C15.0089 27.7789 15.5431 28.0002 16.1 28.0002H18.9C19.0857 28.0002 19.2637 27.9264 19.395 27.7952C19.5263 27.6639 19.6 27.4858 19.6 27.3002C19.6 27.1145 19.5263 26.9365 19.395 26.8052C19.2637 26.6739 19.0857 26.6002 18.9 26.6002H16.1C15.9144 26.6002 15.7363 26.5264 15.605 26.3952C15.4738 26.2639 15.4 26.0858 15.4 25.9002V23.1002ZM28 23.1002C28 22.9145 27.9263 22.7365 27.795 22.6052C27.6637 22.4739 27.4857 22.4002 27.3 22.4002C27.1144 22.4002 26.9363 22.4739 26.805 22.6052C26.6738 22.7365 26.6 22.9145 26.6 23.1002V25.9002C26.6 26.0858 26.5263 26.2639 26.395 26.3952C26.2637 26.5264 26.0857 26.6002 25.9 26.6002H23.1C22.9144 26.6002 22.7363 26.6739 22.605 26.8052C22.4738 26.9365 22.4 27.1145 22.4 27.3002C22.4 27.4858 22.4738 27.6639 22.605 27.7952C22.7363 27.9264 22.9144 28.0002 23.1 28.0002H25.9C26.457 28.0002 26.9911 27.7789 27.3849 27.3851C27.7788 26.9913 28 26.4571 28 25.9002V23.1002Z" fill="white"/>
</svg>
