<svg width="42" height="42" viewBox="0 0 42 42" fill="none" xmlns="http://www.w3.org/2000/svg">
<rect width="42" height="42" rx="8" fill="#F2C94C"/>
<path d="M30 15H28V12H26V15H16V12H14V15H12C11.7348 15 11.4804 15.1054 11.2929 15.2929C11.1054 15.4804 11 15.7348 11 16V23C11 23.2652 11.1054 23.5196 11.2929 23.7071C11.4804 23.8946 11.7348 24 12 24H14V30H16V24H26V30H28V24H30C30.2652 24 30.5196 23.8946 30.7071 23.7071C30.8946 23.5196 31 23.2652 31 23V16C31 15.7348 30.8946 15.4804 30.7071 15.2929C30.5196 15.1054 30.2652 15 30 15ZM13.42 22L16.277 17H18.58L15.723 22H13.42ZM21.277 17H23.58L20.723 22H18.42L21.277 17ZM26.277 17H28.58L25.723 22H23.42L26.277 17Z" fill="white"/>
</svg>
