 <svg
      width="12"
      height="14"
      viewBox="0 0 12 14"
      fill="none"
      xmlns="http://www.w3.org/2000/svg">
      <path
        d="M11.9125 9.89278L10.593 7.37328V4.75C10.593 2.13084 8.53262 0 6.00008 0C3.46755 0 1.40717 2.13084 1.40717 4.75V7.37328L0.0875569 9.89275C0.0277136 10.007 -0.00240582 10.1354 0.000150127 10.2653C0.00270608 10.3952 0.0378496 10.5222 0.102137 10.6338C0.166425 10.7454 0.257651 10.8379 0.366877 10.9021C0.476104 10.9663 0.599583 11 0.725216 11H3.35209C3.34476 11.0831 3.34106 11.1665 3.341 11.25C3.341 11.9793 3.62115 12.6788 4.11982 13.1945C4.61849 13.7103 5.29483 14 6.00005 14C6.70528 14 7.38162 13.7103 7.88029 13.1945C8.37896 12.6788 8.65911 11.9793 8.65911 11.25C8.65911 11.1656 8.65521 11.0824 8.64802 11H11.2749C11.4005 11 11.524 10.9662 11.6332 10.902C11.7424 10.8378 11.8336 10.7454 11.8979 10.6337C11.9622 10.5221 11.9973 10.3951 11.9998 10.2653C12.0024 10.1354 11.9723 10.007 11.9125 9.89278H11.9125ZM7.69221 11.25C7.6924 11.4905 7.64466 11.7284 7.55196 11.949C7.45927 12.1696 7.32361 12.368 7.15346 12.5319C6.98331 12.6958 6.78231 12.8217 6.56302 12.9017C6.34373 12.9818 6.11084 13.0142 5.8789 12.9969C5.64696 12.9797 5.42094 12.9132 5.21495 12.8016C5.00895 12.6901 4.82741 12.5358 4.68165 12.3484C4.53589 12.161 4.42904 11.9445 4.36776 11.7126C4.30649 11.4806 4.2921 11.238 4.32551 11H7.67462C7.68624 11.0828 7.69212 11.1663 7.69221 11.25ZM1.13105 10L2.3741 7.62672V4.75C2.3741 3.75544 2.75612 2.80161 3.43613 2.09835C4.11613 1.39509 5.03841 1 6.00008 1C6.96175 1 7.88404 1.39509 8.56404 2.09835C9.24404 2.80161 9.62607 3.75544 9.62607 4.75V7.62672L10.8691 10H1.13105Z"
        fill="currentColor"
      />
    </svg>