<svg width="24" height="24" viewBox="0 0 24 24" fill="none" xmlns="http://www.w3.org/2000/svg">
<path opacity="0.958" fill-rule="evenodd" clip-rule="evenodd" d="M10.7572 -0.0234375C10.976 -0.0234375 11.1947 -0.0234375 11.4135 -0.0234375C13.7935 0.504211 16.1841 1.01202 18.5854 1.5C18.8892 1.50721 19.1158 1.64003 19.265 1.89844C19.2729 3.86738 19.2963 5.83612 19.3354 7.80469C20.2378 8.01488 21.1441 8.2102 22.0541 8.39062C22.2761 8.44069 22.4245 8.57348 22.4994 8.78906C22.5229 13.4765 22.5307 18.164 22.5229 22.8516C22.9635 22.9025 23.1432 23.1525 23.0619 23.6016C23.0007 23.7638 22.8992 23.8888 22.7572 23.9766C15.6166 23.9766 8.47596 23.9766 1.33535 23.9766C0.860103 23.6298 0.844475 23.2627 1.28848 22.875C1.36507 22.8518 1.4432 22.8441 1.52285 22.8516C1.49969 17.5364 1.52313 12.2239 1.59316 6.91406C1.68172 6.74742 1.81454 6.63023 1.9916 6.5625C2.72125 6.41972 3.44781 6.27127 4.17129 6.11719C4.18691 4.60156 4.20254 3.08594 4.21816 1.57031C4.31503 1.33003 4.49471 1.19722 4.75723 1.17188C6.76648 0.78772 8.76649 0.389284 10.7572 -0.0234375ZM10.3822 1.24219C10.4756 2.78828 10.5069 4.35078 10.476 5.92969C9.60874 5.76173 8.74155 5.58989 7.87441 5.41406C7.03962 5.57948 6.20369 5.73572 5.3666 5.88281C5.3666 4.66406 5.3666 3.44531 5.3666 2.22656C7.04984 1.92739 8.72173 1.59927 10.3822 1.24219ZM11.6479 1.24219C13.8003 1.70707 15.9566 2.16019 18.1166 2.60156C18.1244 4.25789 18.1166 5.91412 18.0932 7.57031C15.9515 7.09041 13.8031 6.63727 11.6479 6.21094C11.6479 4.55469 11.6479 2.89844 11.6479 1.24219ZM7.14785 6.72656C7.19473 6.72656 7.2416 6.72656 7.28848 6.72656C7.30404 7.33673 7.28843 7.94611 7.2416 8.55469C6.00968 8.82141 4.77532 9.07922 3.53848 9.32812C3.15121 9.45755 3.03403 9.71536 3.18691 10.1016C3.29941 10.2476 3.44785 10.3101 3.63223 10.2891C4.8514 10.0718 6.06232 9.82181 7.26504 9.53906C7.28848 10.1951 7.2963 10.8514 7.28848 11.5078C6.00499 11.7505 4.72371 12.0083 3.44473 12.2812C3.04838 12.54 3.01713 12.8369 3.35098 13.1719C3.43434 13.2049 3.52028 13.2283 3.60879 13.2422C4.83537 12.9891 6.06194 12.7391 7.28848 12.4922C7.30409 13.1336 7.28843 13.7742 7.2416 14.4141C5.96083 14.6873 4.67959 14.9608 3.39785 15.2344C3.15716 15.3776 3.07122 15.5885 3.14004 15.8672C3.23712 16.0759 3.40118 16.1697 3.63223 16.1484C4.85135 15.914 6.0701 15.6796 7.28848 15.4453C7.28848 16.086 7.28848 16.7265 7.28848 17.3672C6.00607 17.6159 4.72479 17.8737 3.44473 18.1406C3.12021 18.316 3.03427 18.5738 3.18691 18.9141C3.30469 19.0276 3.44531 19.0901 3.60879 19.1016C4.83663 18.8551 6.06321 18.6051 7.28848 18.3516C7.28848 19.836 7.28848 21.3203 7.28848 22.8047C5.75721 22.8047 4.22598 22.8047 2.69473 22.8047C2.69473 17.7422 2.69473 12.6797 2.69473 7.61719C4.18823 7.33725 5.6726 7.04034 7.14785 6.72656ZM8.46035 6.72656C12.7245 7.62783 16.9901 8.52628 21.2572 9.42188C21.3187 9.72319 21.35 10.0357 21.351 10.3594C21.3354 10.6641 21.3197 10.9688 21.3041 11.2734C17.0566 10.3661 12.8066 9.46767 8.5541 8.57812C8.46176 7.97255 8.43049 7.35534 8.46035 6.72656ZM8.46035 9.58594C12.7583 10.4705 17.0552 11.3611 21.351 12.2578C21.351 12.8985 21.351 13.539 21.351 14.1797C17.0528 13.2951 12.7559 12.4044 8.46035 11.5078C8.46035 10.8672 8.46035 10.2266 8.46035 9.58594ZM8.46035 12.4922C12.7407 13.3904 17.022 14.2888 21.3041 15.1875C21.3505 15.8166 21.3661 16.4494 21.351 17.0859C17.0687 16.2123 12.7875 15.3295 8.50723 14.4375C8.46082 13.7928 8.44521 13.1443 8.46035 12.4922ZM8.46035 15.4453C12.7283 16.313 16.9939 17.1958 21.2572 18.0938C21.3497 18.7307 21.3809 19.3791 21.351 20.0391C17.0553 19.1424 12.7585 18.2518 8.46035 17.3672C8.46035 16.7265 8.46035 16.086 8.46035 15.4453ZM8.46035 18.3516C12.7532 19.2601 17.0501 20.1508 21.351 21.0234C21.351 21.6172 21.351 22.2109 21.351 22.8047C17.0541 22.8047 12.7572 22.8047 8.46035 22.8047C8.46035 21.3203 8.46035 19.836 8.46035 18.3516Z" fill="#FF6A3D"/>
</svg>
