<svg width="24" height="24" viewBox="0 0 24 24" fill="none" xmlns="http://www.w3.org/2000/svg">
<g clip-path="url(#clip0_9899_46990)">
<path d="M7.55556 11.1H9.33333V12.9H7.55556V11.1ZM20 6.6V19.2C20 20.19 19.2 21 18.2222 21H5.77778C5.30628 21 4.8541 20.8104 4.5207 20.4728C4.1873 20.1352 4 19.6774 4 19.2L4.00889 6.6C4.00889 5.61 4.79111 4.8 5.77778 4.8H6.66667V3H8.44444V4.8H15.5556V3H17.3333V4.8H18.2222C19.2 4.8 20 5.61 20 6.6ZM5.77778 8.4H18.2222V6.6H5.77778V8.4ZM18.2222 19.2V10.2H5.77778V19.2H18.2222ZM14.6667 12.9H16.4444V11.1H14.6667V12.9ZM11.1111 12.9H12.8889V11.1H11.1111V12.9Z" fill="#828282"/>
</g>
<defs>
<clipPath id="clip0_9899_46990">
<rect width="24" height="24" fill="white"/>
</clipPath>
</defs>
</svg>
