<svg width="24" height="24" viewBox="0 0 24 24" fill="none" xmlns="http://www.w3.org/2000/svg">
<path d="M21.8239 9.00093L21.8436 9.05708L21.9169 9.29965L21.9782 9.51736L22.0043 9.61679L22.0472 9.79679C22.6029 12.3051 22.1972 14.9306 20.9102 17.1541C19.6258 19.3844 17.5499 21.0503 15.0944 21.8212L14.9213 21.8726L14.7087 21.9275L14.4014 22.0004C14.2929 22.0251 14.1804 22.0271 14.071 22.0065C13.9617 21.9858 13.8577 21.9427 13.7657 21.8801C13.6737 21.8174 13.5956 21.7365 13.5363 21.6423C13.4769 21.5481 13.4376 21.4427 13.4209 21.3326C13.3864 21.1068 13.438 20.8762 13.5655 20.6866C13.693 20.497 13.887 20.3621 14.1092 20.3088L14.3564 20.2466C14.5107 20.2064 14.6436 20.1669 14.7546 20.1296C16.7265 19.4637 18.3875 18.1009 19.4256 16.2969C20.4696 14.4942 20.8189 12.3722 20.4079 10.3299L20.3783 10.1958L20.3389 10.0394L20.2896 9.86022L20.2304 9.65879C20.1642 9.43906 20.183 9.20247 20.283 8.99591C20.383 8.78936 20.557 8.62794 20.7704 8.54365C20.8696 8.50446 20.9756 8.4852 21.0822 8.48698C21.1888 8.48875 21.2941 8.51153 21.3919 8.55399C21.4897 8.59646 21.5782 8.65779 21.6524 8.73448C21.7265 8.81117 21.7848 8.90171 21.8239 9.00093ZM3.16472 8.53722C3.39195 8.60961 3.58177 8.76816 3.69345 8.97887C3.80514 9.18959 3.8298 9.43568 3.76215 9.66436C3.68501 9.92408 3.6293 10.1401 3.59501 10.3128C3.18573 12.3534 3.53548 14.4732 4.57858 16.2742C5.61767 18.0797 7.28065 19.4434 9.25472 20.1086L9.38587 20.1502L9.46044 20.1716L9.62758 20.2171L9.92501 20.2904C10.1485 20.3429 10.344 20.4775 10.4728 20.6675C10.6017 20.8574 10.6544 21.0889 10.6206 21.3159C10.5888 21.5288 10.4738 21.7204 10.3009 21.8485C10.1279 21.9766 9.91118 22.0307 9.6983 21.9991L9.63915 21.9884L9.3923 21.9305L9.17372 21.8748L8.98258 21.8212L8.89687 21.7955C6.44663 21.0223 4.3758 19.3577 3.09401 17.1309C1.80457 14.9036 1.39964 12.2728 1.95958 9.76079L1.99258 9.62365L2.03544 9.46293L2.11858 9.17793L2.15115 9.07079C2.18263 8.96917 2.23382 8.87474 2.3018 8.79291C2.36977 8.71107 2.45321 8.64343 2.54733 8.59384C2.64145 8.54425 2.74442 8.51369 2.85035 8.5039C2.95629 8.49411 3.06311 8.50572 3.16472 8.53722ZM12.0216 5.14293C15.8089 5.14293 18.8787 8.21279 18.8787 12.0001C18.8787 15.7874 15.8089 18.8572 12.0216 18.8572C8.23472 18.8572 5.16444 15.7874 5.16444 12.0001C5.16444 8.21279 8.23472 5.14293 12.0216 5.14293ZM12.0216 6.85722C9.18144 6.85722 6.87873 9.15993 6.87873 12.0001C6.87873 14.8402 9.18144 17.1429 12.0216 17.1429C14.8622 17.1429 17.1644 14.8402 17.1644 12.0001C17.1644 9.15993 14.8622 6.85722 12.0216 6.85722ZM12.0216 1.71436C14.5953 1.71129 17.0762 2.67596 18.9717 4.41693L19.0742 4.51422L19.192 4.63165L19.3249 4.76965L19.4732 4.92779C19.5488 5.00942 19.6068 5.10577 19.6436 5.21082C19.6803 5.31587 19.695 5.42736 19.6868 5.53835C19.6786 5.64934 19.6475 5.75744 19.5957 5.8559C19.5438 5.95437 19.4722 6.04109 19.3853 6.11065C19.2069 6.25357 18.9813 6.32426 18.7533 6.30871C18.5252 6.29315 18.3113 6.19248 18.154 6.02665C18.061 5.92808 17.9744 5.84022 17.8947 5.76222L17.7447 5.61908L17.6762 5.55779C16.1136 4.18295 14.1029 3.42584 12.0216 3.42865C9.93838 3.42579 7.92591 4.1842 6.36272 5.56122L6.31387 5.60493L6.20544 5.70779L6.08244 5.82993L5.8703 6.05065C5.54458 6.39736 5.00715 6.43636 4.63472 6.14065C4.5512 6.07434 4.48156 5.99223 4.42979 5.899C4.37801 5.80577 4.34512 5.70325 4.33298 5.5973C4.32084 5.49136 4.32969 5.38405 4.35904 5.28153C4.38839 5.17901 4.43765 5.08327 4.50401 4.99979L4.54258 4.95436L4.71615 4.76965L4.87387 4.60765C4.94887 4.53265 5.01787 4.46622 5.0813 4.40836C6.97557 2.67295 9.45212 1.71157 12.0212 1.71436" fill="#4F4F4F"/>
</svg>
