<svg width="24" height="24" viewBox="0 0 24 24" fill="none" xmlns="http://www.w3.org/2000/svg">
<mask id="mask0_8672_40469" style="mask-type:alpha" maskUnits="userSpaceOnUse" x="2" y="1" width="22" height="21">
<path d="M3.5 10L16.737 18.8245C16.8158 18.877 16.9078 18.906 17.0024 18.9082C17.0971 18.9104 17.1904 18.8857 17.2715 18.837L22 16M3 13V21V13ZM3 16.5H6.5L8.5 13.5L3 16.5Z" stroke="currentColor" stroke-width="2" stroke-linecap="round" stroke-linejoin="round"/>
<path d="M3.53933 6.35943C3.47565 6.31704 3.42255 6.2606 3.38411 6.19446C3.34568 6.12833 3.32293 6.05426 3.31761 5.97795C3.3123 5.90164 3.32457 5.82513 3.35347 5.7543C3.38237 5.68348 3.42714 5.62023 3.48433 5.56943L7.21433 2.25443C7.29637 2.18141 7.40018 2.13744 7.50971 2.1293C7.61924 2.12117 7.7284 2.14933 7.82033 2.20943L21.3528 11.0754C21.4227 11.1212 21.48 11.1838 21.5195 11.2574C21.5589 11.331 21.5793 11.4134 21.5788 11.4969C21.5782 11.5805 21.5568 11.6625 21.5163 11.7356C21.4759 11.8088 21.4178 11.8706 21.3473 11.9154L16.7753 14.8254C16.6935 14.8775 16.5984 14.9046 16.5014 14.9035C16.4045 14.9025 16.31 14.8733 16.2293 14.8194L3.53933 6.35943Z" fill="currentColor" stroke="currentColor" stroke-width="2"/>
</mask>
<g mask="url(#mask0_8672_40469)">
<path d="M0 0H24V24H0V0Z" fill="currentColor"/>
</g>
</svg>
