<svg width="24" height="24" viewBox="0 0 24 24" fill="none" xmlns="http://www.w3.org/2000/svg">
<path d="M2.39999 5.4001C2.39999 4.92271 2.58964 4.46487 2.9272 4.12731C3.26477 3.78974 3.7226 3.6001 4.19999 3.6001H19.8C20.2774 3.6001 20.7352 3.78974 21.0728 4.12731C21.4104 4.46487 21.6 4.92271 21.6 5.4001C21.6 5.87749 21.4104 6.33532 21.0728 6.67289C20.7352 7.01046 20.2774 7.2001 19.8 7.2001H4.19999C3.7226 7.2001 3.26477 7.01046 2.9272 6.67289C2.58964 6.33532 2.39999 5.87749 2.39999 5.4001ZM12 10.8001C11.0452 10.8001 10.1295 11.1794 9.45441 11.8545C8.77928 12.5296 8.39999 13.4453 8.39999 14.4001C8.39999 15.3549 8.77928 16.2706 9.45441 16.9457C10.1295 17.6208 11.0452 18.0001 12 18.0001C12.9548 18.0001 13.8704 17.6208 14.5456 16.9457C15.2207 16.2706 15.6 15.3549 15.6 14.4001C15.6 13.4453 15.2207 12.5296 14.5456 11.8545C13.8704 11.1794 12.9548 10.8001 12 10.8001ZM9.59999 14.4001C9.59999 13.7636 9.85285 13.1531 10.3029 12.703C10.753 12.253 11.3635 12.0001 12 12.0001C12.6365 12.0001 13.247 12.253 13.6971 12.703C14.1471 13.1531 14.4 13.7636 14.4 14.4001C14.4 15.0366 14.1471 15.6471 13.6971 16.0972C13.247 16.5472 12.6365 16.8001 12 16.8001C11.3635 16.8001 10.753 16.5472 10.3029 16.0972C9.85285 15.6471 9.59999 15.0366 9.59999 14.4001ZM3.59999 8.4001H20.4V13.2001C20.4 14.3032 20.1827 15.3955 19.7606 16.4146C19.3384 17.4338 18.7197 18.3598 17.9397 19.1398C17.1597 19.9198 16.2337 20.5385 15.2145 20.9607C14.1954 21.3828 13.1031 21.6001 12 21.6001C10.8969 21.6001 9.80459 21.3828 8.78545 20.9607C7.76632 20.5385 6.84031 19.9198 6.0603 19.1398C5.28028 18.3598 4.66155 17.4338 4.23941 16.4146C3.81727 15.3955 3.59999 14.3032 3.59999 13.2001V8.4001ZM12 9.6001C10.727 9.6001 9.50606 10.1058 8.60588 11.006C7.70571 11.9062 7.19999 13.1271 7.19999 14.4001C7.19999 15.6731 7.70571 16.894 8.60588 17.7942C9.50606 18.6944 10.727 19.2001 12 19.2001C13.273 19.2001 14.4939 18.6944 15.3941 17.7942C16.2943 16.894 16.8 15.6731 16.8 14.4001C16.8 13.1271 16.2943 11.9062 15.3941 11.006C14.4939 10.1058 13.273 9.6001 12 9.6001Z" fill="#828282"/>
</svg>
