<svg width="52" height="51" viewBox="0 0 52 51" fill="none" xmlns="http://www.w3.org/2000/svg">
<path d="M49.0333 18.7056C49.1698 18.3954 49.2438 18.0614 49.251 17.7225C49.2583 17.3837 49.1986 17.0468 49.0756 16.731C48.9525 16.4153 48.7683 16.1269 48.5337 15.8824C48.299 15.6378 48.0185 15.442 47.7081 15.306L13.931 0.436298C11.3606 -0.695202 8.19599 0.568048 7.09808 3.12813L1.38891 16.4426C0.851803 17.7021 0.836302 19.1232 1.34581 20.394C1.85531 21.6649 2.8482 22.6817 4.10658 23.2213L19.7047 29.907L16.5014 37.9153H5.33366V30.1653H0.166992V50.832H5.33366V43.082H16.5014C18.6275 43.082 20.5107 41.8058 21.2961 39.8321L24.4529 31.9426L37.8992 37.7035C38.5254 37.9722 39.2324 37.9826 39.8662 37.7324C40.5001 37.4823 41.0094 36.9918 41.2833 36.3679L42.0893 34.5337L46.4836 36.2904L51.6502 23.3737L47.6822 21.7901L49.0333 18.7056ZM37.5788 31.9478L6.14224 18.4757L11.8462 5.16638L43.2647 18.9975L37.5788 31.9478V31.9478Z" fill="#828282"/>
</svg>
