<svg
  width="26"
  height="26"
  viewBox="0 0 26 26"
  fill="none"
  xmlns="http://www.w3.org/2000/svg">
  <path
    d="M22.75 1.625H13C12.5692 1.62543 12.1561 1.79677 11.8514 2.10143C11.5468 2.40608 11.3754 2.81916 11.375 3.25V11.375H3.25C2.81916 11.3754 2.40608 11.5468 2.10143 11.8514C1.79677 12.1561 1.62543 12.5692 1.625 13V24.375H24.375V3.25C24.3746 2.81916 24.2032 2.40608 23.8986 2.10143C23.5939 1.79677 23.1808 1.62543 22.75 1.625ZM7.3125 22.75V17.0625H10.5625V22.75H7.3125ZM22.75 22.75H12.1875V16.25C12.1875 16.0345 12.1019 15.8278 11.9495 15.6755C11.7972 15.5231 11.5905 15.4375 11.375 15.4375H6.5C6.28451 15.4375 6.07785 15.5231 5.92548 15.6755C5.7731 15.8278 5.6875 16.0345 5.6875 16.25V22.75H3.25V13H13V3.25H22.75V22.75Z"
    fill="currentColor"
  />
  <path
    d="M14.625 6.5H16.25V8.125H14.625V6.5ZM19.5 6.5H21.125V8.125H19.5V6.5ZM14.625 11.375H16.25V13H14.625V11.375ZM19.5 11.375H21.125V13H19.5V11.375ZM14.625 16.25H16.25V17.875H14.625V16.25ZM19.5 16.25H21.125V17.875H19.5V16.25ZM7.3125 9.75H5.6875C5.68879 8.67295 6.11722 7.64039 6.8788 6.8788C7.64039 6.11722 8.67295 5.68879 9.75 5.6875V7.3125C9.10373 7.31315 8.48412 7.57016 8.02714 8.02714C7.57016 8.48412 7.31315 9.10373 7.3125 9.75ZM3.25 9.75H1.625C1.62737 7.59584 2.48415 5.53059 4.00737 4.00737C5.53059 2.48415 7.59584 1.62737 9.75 1.625V3.25C8.02675 3.25215 6.3747 3.93766 5.15618 5.15618C3.93766 6.3747 3.25215 8.02675 3.25 9.75Z"
    fill="currentColor"
  />
</svg>