<svg width="24" height="24" viewBox="0 0 24 24" fill="none" xmlns="http://www.w3.org/2000/svg">
<path d="M19.7951 7.95849L15.0146 3.20377C14.878 3.06792 14.7415 3 14.5366 3H5.36585C4.61463 3 4 3.61132 4 4.35849V19.6415C4 20.3887 4.61463 21 5.36585 21H18.6341C19.3854 21 20 20.3887 20 19.6415V8.43396C20 8.23019 19.9317 8.09434 19.7951 7.95849ZM14.5366 4.63019L18.361 8.43396H14.5366V4.63019ZM18.6341 19.6415H5.36585V4.35849H13.1707V8.43396C13.1707 9.18113 13.7854 9.79245 14.5366 9.79245H18.6341V19.6415Z" fill="#4F4F4F"/>
<path d="M8 15.75H16V17H8V15.75ZM8 12H16V13.25H8V12Z" fill="#4F4F4F"/>
</svg>
