<svg width="32" height="32" viewBox="0 0 32 32" fill="none" xmlns="http://www.w3.org/2000/svg">
<g clip-path="url(#clip0_9531_45059)">
<path d="M17.7961 15.9394L26.7061 7.02945C26.9063 6.79563 27.011 6.49487 26.9991 6.18727C26.9872 5.87967 26.8597 5.58787 26.642 5.3702C26.4244 5.15253 26.1326 5.02501 25.825 5.01313C25.5173 5.00125 25.2166 5.10588 24.9828 5.30611L16.0728 14.2161L7.16278 5.29389C6.92896 5.09366 6.6282 4.98903 6.3206 5.00091C6.013 5.01279 5.7212 5.14031 5.50353 5.35798C5.28586 5.57565 5.15834 5.86744 5.14646 6.17505C5.13458 6.48265 5.23921 6.78341 5.43944 7.01722L14.3494 15.9394L5.42722 24.8494C5.29928 24.959 5.19536 25.0938 5.122 25.2455C5.04864 25.3971 5.00741 25.5623 5.00091 25.7306C4.99441 25.8989 5.02277 26.0668 5.08422 26.2236C5.14567 26.3805 5.23887 26.5229 5.35798 26.642C5.47709 26.7611 5.61954 26.8543 5.77638 26.9158C5.93322 26.9772 6.10107 27.0056 6.2694 26.9991C6.43772 26.9926 6.60288 26.9514 6.75452 26.878C6.90615 26.8046 7.04098 26.7007 7.15055 26.5728L16.0728 17.6628L24.9828 26.5728C25.2166 26.773 25.5173 26.8776 25.825 26.8658C26.1326 26.8539 26.4244 26.7264 26.642 26.5087C26.8597 26.291 26.9872 25.9992 26.9991 25.6916C27.011 25.384 26.9063 25.0833 26.7061 24.8494L17.7961 15.9394Z" fill="currentColor"/>
</g>
<defs>
<clipPath id="clip0_9531_45059">
<rect width="32" height="32" rx="16" fill="currentColor"/>
</clipPath>
</defs>
</svg>
