<svg
  width="18"
  height="18"
  viewBox="0 0 18 18"
  fill="none"
  xmlns="http://www.w3.org/2000/svg">
  <path
    d="M9 0.875C4.51992 0.875 0.875 4.51992 0.875 9C0.875 13.4801 4.51992 17.125 9 17.125C13.4801 17.125 17.125 13.4801 17.125 9C17.125 4.51992 13.4801 0.875 9 0.875ZM11.9418 11.0582C12.0023 11.1157 12.0506 11.1846 12.084 11.2611C12.1174 11.3375 12.1352 11.4199 12.1363 11.5033C12.1373 11.5867 12.1217 11.6695 12.0903 11.7468C12.0588 11.8241 12.0122 11.8943 11.9533 11.9533C11.8943 12.0122 11.8241 12.0588 11.7468 12.0903C11.6695 12.1217 11.5867 12.1373 11.5033 12.1363C11.4199 12.1352 11.3375 12.1174 11.2611 12.084C11.1846 12.0506 11.1157 12.0023 11.0582 11.9418L9 9.88398L6.9418 11.9418C6.82363 12.0541 6.66629 12.1157 6.50331 12.1136C6.34034 12.1115 6.18462 12.0459 6.06937 11.9306C5.95412 11.8154 5.88845 11.6597 5.88637 11.4967C5.88428 11.3337 5.94594 11.1764 6.0582 11.0582L8.11602 9L6.0582 6.9418C5.94594 6.82363 5.88428 6.66629 5.88637 6.50331C5.88845 6.34034 5.95412 6.18462 6.06937 6.06937C6.18462 5.95412 6.34034 5.88845 6.50331 5.88637C6.66629 5.88428 6.82363 5.94594 6.9418 6.0582L9 8.11602L11.0582 6.0582C11.1764 5.94594 11.3337 5.88428 11.4967 5.88637C11.6597 5.88845 11.8154 5.95412 11.9306 6.06937C12.0459 6.18462 12.1115 6.34034 12.1136 6.50331C12.1157 6.66629 12.0541 6.82363 11.9418 6.9418L9.88398 9L11.9418 11.0582Z"
    fill="currentColor"
  />
</svg>