<svg width="20" height="20" viewBox="0 0 20 20" fill="none" xmlns="http://www.w3.org/2000/svg">
<g clip-path="url(#clip0_19315_6185)">
<g clip-path="url(#clip1_19315_6185)">
<path opacity="0.965" fill-rule="evenodd" clip-rule="evenodd" d="M19.9805 11.0359C19.9805 11.4004 19.9805 11.7651 19.9805 12.1296C19.5838 14.2776 18.3078 15.5471 16.1523 15.9382C15.1368 15.9578 14.1212 15.9643 13.1055 15.9578C13.1055 15.5281 13.1055 15.0984 13.1055 14.6687C14.0952 14.6752 15.0847 14.6687 16.0742 14.6492C17.513 14.3562 18.3789 13.4903 18.6719 12.0515C18.8031 10.4969 18.1716 9.38357 16.7773 8.71166C16.4568 8.60224 16.1313 8.51111 15.8008 8.43822C15.6881 8.36463 15.6035 8.26697 15.5469 8.14525C14.9786 5.64986 13.4486 4.11994 10.957 3.55541C8.64371 3.25092 6.78824 4.02564 5.39062 5.87963C4.71375 6.89377 4.37523 8.01357 4.375 9.239C4.30691 9.45033 4.1702 9.60009 3.96484 9.68822C2.68649 9.71822 1.8206 10.3237 1.36719 11.5046C1.08083 12.9699 1.62119 13.992 2.98828 14.571C3.10436 14.602 3.22154 14.6281 3.33984 14.6492C4.52469 14.6687 5.70957 14.6752 6.89453 14.6687C6.89453 15.0984 6.89453 15.5281 6.89453 15.9578C5.67051 15.9643 4.44656 15.9578 3.22266 15.9382C1.41877 15.5861 0.338044 14.5119 -0.0195312 12.7156C-0.0195312 12.364 -0.0195312 12.0124 -0.0195312 11.6609C0.339143 9.93498 1.38081 8.88029 3.10547 8.49681C3.368 5.91162 4.64402 4.01709 6.93359 2.81322C9.68348 1.62701 12.2225 1.96555 14.5508 3.82884C15.5871 4.77486 16.2903 5.9272 16.6602 7.28588C18.5263 7.86927 19.6331 9.11927 19.9805 11.0359Z" fill="#2F80ED"/>
<path opacity="0.965" fill-rule="evenodd" clip-rule="evenodd" d="M9.98047 9.66797C10.1171 9.69156 10.2473 9.73711 10.3711 9.80469C11.2375 10.6646 12.0969 11.5305 12.9492 12.4023C12.6628 12.7148 12.3633 13.0143 12.0508 13.3008C11.5826 12.8521 11.1204 12.3964 10.6641 11.9336C10.6445 13.8997 10.638 15.8659 10.6445 17.832C10.2148 17.832 9.78516 17.832 9.35547 17.832C9.36199 15.8528 9.35547 13.8737 9.33594 11.8945C8.86719 12.3633 8.39844 12.832 7.92969 13.3008C7.62199 13.0062 7.32902 12.7002 7.05078 12.3828C7.86949 11.525 8.70281 10.6787 9.55078 9.84375C9.68203 9.74465 9.82527 9.68605 9.98047 9.66797Z" fill="#2F80ED"/>
</g>
</g>
<defs>
<clipPath id="clip0_19315_6185">
<rect width="20" height="20" fill="white"/>
</clipPath>
<clipPath id="clip1_19315_6185">
<rect width="20" height="20" fill="white"/>
</clipPath>
</defs>
</svg>
