<svg width="20" height="20" viewBox="0 0 20 20" fill="none" xmlns="http://www.w3.org/2000/svg">
<g clip-path="url(#clip0_19912_1690)">
<path opacity="0.965" fill-rule="evenodd" clip-rule="evenodd" d="M20 11.0351C20 11.3997 20 11.7643 20 12.1289C19.6034 14.2768 18.3273 15.5464 16.1719 15.9375C15.1563 15.957 16.2223 15.944 15.2066 15.9375C15.2066 15.5078 15.2066 15.0976 15.2066 14.668C16.1963 14.6745 15.1043 14.668 16.0938 14.6484C17.5325 14.3555 18.3984 13.4896 18.6914 12.0508C18.8227 10.4961 18.1911 9.38284 16.7969 8.71092C16.4764 8.60151 16.1509 8.51038 15.8203 8.43749C15.7077 8.36389 15.623 8.26624 15.5664 8.14452C14.9981 5.64913 13.4682 4.11921 10.9766 3.55467C8.66324 3.25019 6.80777 4.02491 5.41016 5.87889C4.73328 6.89303 4.39477 8.01284 4.39453 9.23827C4.32645 9.4496 4.18973 9.59936 3.98438 9.68749C2.70602 9.71749 1.84013 10.323 1.38672 11.5039C1.10036 12.9691 1.64072 13.9913 3.00781 14.5703C3.12389 14.6013 3.24107 14.6274 3.35938 14.6484C4.54422 14.668 10.065 14.6745 11.25 14.668C12.3193 14.668 12.2899 15.9515 11.25 15.957C10.026 15.9635 4.46609 15.957 3.24219 15.9375C1.4383 15.5854 0.357575 14.5112 0 12.7148C0 12.3633 0 12.0117 0 11.6601C0.358674 9.93425 1.40034 8.87956 3.125 8.49608C3.21308 7.62873 3.41525 6.83912 3.7315 6.12725C4.35786 4.71737 5.43173 3.61245 6.95312 2.81249C9.70301 1.62628 12.2421 1.96482 14.5703 3.82811C15.6067 4.77413 16.3098 5.92647 16.6797 7.28514C18.5459 7.86854 19.6526 9.11854 20 11.0351Z" fill="#2F80ED"/>
<path d="M2.5 4.16669L15.8333 17.5" stroke="white" stroke-width="1.5" stroke-linecap="round"/>
<path d="M2.5 2.5L17.5 17.5" stroke="#2F80ED" stroke-width="1.5" stroke-linecap="round"/>
</g>
<defs>
<clipPath id="clip0_19912_1690">
<rect width="20" height="20" fill="white"/>
</clipPath>
</defs>
</svg>
