<svg width="13" height="11" viewBox="0 0 13 11" fill="none" xmlns="http://www.w3.org/2000/svg">
<path fill-rule="evenodd" clip-rule="evenodd" d="M0.875 4.5C0.875 3.1 0.875 2.4 1.1475 1.865C1.38718 1.39462 1.76962 1.01218 2.24 0.7725C2.775 0.5 3.475 0.5 4.875 0.5H8.125C9.525 0.5 10.225 0.5 10.76 0.7725C11.2304 1.01218 11.6128 1.39462 11.8525 1.865C12.125 2.4 12.125 3.1 12.125 4.5V5.25C12.125 6.65 12.125 7.35 11.8525 7.885C11.6128 8.35538 11.2304 8.73782 10.76 8.9775C10.225 9.25 9.525 9.25 8.125 9.25H3.63375C3.468 9.25004 3.30906 9.31591 3.19187 9.43312L1.94187 10.6831C1.54812 11.0769 0.875 10.7981 0.875 10.2413V6.125V4.5ZM4.625 3C4.45924 3 4.30027 3.06585 4.18306 3.18306C4.06585 3.30027 4 3.45924 4 3.625C4 3.79076 4.06585 3.94973 4.18306 4.06694C4.30027 4.18415 4.45924 4.25 4.625 4.25H8.375C8.54076 4.25 8.69973 4.18415 8.81694 4.06694C8.93415 3.94973 9 3.79076 9 3.625C9 3.45924 8.93415 3.30027 8.81694 3.18306C8.69973 3.06585 8.54076 3 8.375 3H4.625ZM4.625 5.5C4.45924 5.5 4.30027 5.56585 4.18306 5.68306C4.06585 5.80027 4 5.95924 4 6.125C4 6.29076 4.06585 6.44973 4.18306 6.56694C4.30027 6.68415 4.45924 6.75 4.625 6.75H6.5C6.66576 6.75 6.82473 6.68415 6.94194 6.56694C7.05915 6.44973 7.125 6.29076 7.125 6.125C7.125 5.95924 7.05915 5.80027 6.94194 5.68306C6.82473 5.56585 6.66576 5.5 6.5 5.5H4.625Z" fill="#4F4F4F"/>
</svg>
