<svg width="36" height="36" viewBox="0 0 36 36" fill="none" xmlns="http://www.w3.org/2000/svg">
<circle cx="17.6479" cy="17.6479" r="14.809" transform="rotate(85.0788 17.6479 17.6479)" fill="white" stroke="#EB5757" stroke-width="3"/>
<path d="M14.5703 12.5586V22.5117H13.251V12.5586H14.5703ZM18.043 16.6943V22.5117H16.7783V15.1152H17.9746L18.043 16.6943ZM17.7422 18.5332L17.2158 18.5127C17.2204 18.0068 17.2956 17.5397 17.4414 17.1113C17.5872 16.6784 17.7923 16.3024 18.0566 15.9834C18.321 15.6644 18.6354 15.4183 19 15.2451C19.3691 15.0674 19.777 14.9785 20.2236 14.9785C20.5882 14.9785 20.9163 15.0286 21.208 15.1289C21.4997 15.2246 21.748 15.3796 21.9531 15.5938C22.1628 15.8079 22.3223 16.0859 22.4316 16.4277C22.541 16.765 22.5957 17.1774 22.5957 17.665V22.5117H21.3242V17.6514C21.3242 17.264 21.2673 16.9541 21.1533 16.7217C21.0394 16.4847 20.873 16.3138 20.6543 16.209C20.4355 16.0996 20.1667 16.0449 19.8477 16.0449C19.5332 16.0449 19.2461 16.111 18.9863 16.2432C18.7311 16.3753 18.5101 16.5576 18.3232 16.79C18.141 17.0225 17.9974 17.2891 17.8926 17.5898C17.7923 17.8861 17.7422 18.2005 17.7422 18.5332Z" fill="#333333"/>
</svg>
