<svg width="60" height="40" viewBox="0 0 60 40" fill="none" xmlns="http://www.w3.org/2000/svg">
<circle cx="19.6479" cy="19.6479" r="14.809" transform="rotate(85.0788 19.6479 19.6479)" fill="white" stroke="#EB5757" stroke-width="3"/>
<path d="M16.5703 14.5586V24.5117H15.251V14.5586H16.5703ZM20.043 18.6943V24.5117H18.7783V17.1152H19.9746L20.043 18.6943ZM19.7422 20.5332L19.2158 20.5127C19.2204 20.0068 19.2956 19.5397 19.4414 19.1113C19.5872 18.6784 19.7923 18.3024 20.0566 17.9834C20.321 17.6644 20.6354 17.4183 21 17.2451C21.3691 17.0674 21.777 16.9785 22.2236 16.9785C22.5882 16.9785 22.9163 17.0286 23.208 17.1289C23.4997 17.2246 23.748 17.3796 23.9531 17.5938C24.1628 17.8079 24.3223 18.0859 24.4316 18.4277C24.541 18.765 24.5957 19.1774 24.5957 19.665V24.5117H23.3242V19.6514C23.3242 19.264 23.2673 18.9541 23.1533 18.7217C23.0394 18.4847 22.873 18.3138 22.6543 18.209C22.4355 18.0996 22.1667 18.0449 21.8477 18.0449C21.5332 18.0449 21.2461 18.111 20.9863 18.2432C20.7311 18.3753 20.5101 18.5576 20.3232 18.79C20.141 19.0225 19.9974 19.2891 19.8926 19.5898C19.7923 19.8861 19.7422 20.2005 19.7422 20.5332Z" fill="#333333"/>
<circle cx="40.3876" cy="20.3876" r="14.5684" transform="rotate(85.0788 40.3876 20.3876)" fill="white" stroke="#EB5757" stroke-width="3"/>
<path d="M37.854 19.2559V19.8848C37.854 20.6322 37.7606 21.3021 37.5737 21.8945C37.3869 22.487 37.118 22.9906 36.7671 23.4053C36.4162 23.82 35.9946 24.1367 35.5024 24.3555C35.0148 24.5742 34.4679 24.6836 33.8618 24.6836C33.2739 24.6836 32.7339 24.5742 32.2417 24.3555C31.7541 24.1367 31.3302 23.82 30.9702 23.4053C30.6147 22.9906 30.339 22.487 30.1431 21.8945C29.9471 21.3021 29.8491 20.6322 29.8491 19.8848V19.2559C29.8491 18.5085 29.9448 17.8408 30.1362 17.2529C30.3322 16.6605 30.6079 16.1569 30.9634 15.7422C31.3188 15.3229 31.7404 15.0039 32.228 14.7852C32.7202 14.5664 33.2603 14.457 33.8481 14.457C34.4543 14.457 35.0011 14.5664 35.4888 14.7852C35.981 15.0039 36.4025 15.3229 36.7534 15.7422C37.1089 16.1569 37.38 16.6605 37.5669 17.2529C37.7583 17.8408 37.854 18.5085 37.854 19.2559ZM36.5483 19.8848V19.2422C36.5483 18.6497 36.4868 18.1257 36.3638 17.6699C36.2453 17.2142 36.0698 16.8314 35.8374 16.5215C35.605 16.2116 35.3201 15.9769 34.9829 15.8174C34.6502 15.6579 34.272 15.5781 33.8481 15.5781C33.438 15.5781 33.0666 15.6579 32.7339 15.8174C32.4058 15.9769 32.1232 16.2116 31.8862 16.5215C31.6538 16.8314 31.4738 17.2142 31.3462 17.6699C31.2186 18.1257 31.1548 18.6497 31.1548 19.2422V19.8848C31.1548 20.4818 31.2186 21.0104 31.3462 21.4707C31.4738 21.9264 31.6561 22.3115 31.8931 22.626C32.1346 22.9359 32.4194 23.1706 32.7476 23.3301C33.0802 23.4896 33.4517 23.5693 33.8618 23.5693C34.2902 23.5693 34.6707 23.4896 35.0034 23.3301C35.3361 23.1706 35.6164 22.9359 35.8442 22.626C36.0767 22.3115 36.2521 21.9264 36.3706 21.4707C36.4891 21.0104 36.5483 20.4818 36.5483 19.8848ZM44.1636 22.8379V17.1504H45.4351V24.5469H44.2251L44.1636 22.8379ZM44.4028 21.2793L44.9292 21.2656C44.9292 21.7578 44.8768 22.2135 44.772 22.6328C44.6717 23.0475 44.5076 23.4076 44.2798 23.7129C44.0519 24.0182 43.7534 24.2575 43.3843 24.4307C43.0151 24.5993 42.5662 24.6836 42.0376 24.6836C41.6776 24.6836 41.3472 24.6312 41.0464 24.5264C40.7502 24.4215 40.495 24.2598 40.2808 24.041C40.0666 23.8223 39.9002 23.5374 39.7817 23.1865C39.6678 22.8356 39.6108 22.4141 39.6108 21.9219V17.1504H40.8755V21.9355C40.8755 22.2682 40.9119 22.5439 40.9849 22.7627C41.0623 22.9769 41.1649 23.1478 41.2925 23.2754C41.4246 23.3984 41.5705 23.485 41.73 23.5352C41.894 23.5853 42.0627 23.6104 42.2358 23.6104C42.7736 23.6104 43.1997 23.5078 43.5142 23.3027C43.8286 23.0931 44.0542 22.8128 44.1909 22.4619C44.3322 22.1064 44.4028 21.7122 44.4028 21.2793ZM50.4595 17.1504V18.1211H46.4604V17.1504H50.4595ZM47.814 15.3525H49.0786V22.7148C49.0786 22.9655 49.1174 23.1546 49.1948 23.2822C49.2723 23.4098 49.3726 23.4941 49.4956 23.5352C49.6187 23.5762 49.7508 23.5967 49.8921 23.5967C49.9969 23.5967 50.1063 23.5876 50.2202 23.5693C50.3387 23.5465 50.4276 23.5283 50.4868 23.5146L50.4937 24.5469C50.3934 24.5788 50.2612 24.6084 50.0972 24.6357C49.9377 24.6676 49.744 24.6836 49.5161 24.6836C49.2062 24.6836 48.9214 24.6221 48.6616 24.499C48.4019 24.376 48.1945 24.1709 48.0396 23.8838C47.8892 23.5921 47.814 23.2002 47.814 22.708V15.3525Z" fill="#333333"/>
</svg>
