<svg width="42" height="42" viewBox="0 0 42 42" fill="none" xmlns="http://www.w3.org/2000/svg">
<rect width="42" height="42" rx="8" fill="#219653"/>
<path d="M15.6125 16.0957C15.6125 17.182 14.7105 18.0645 13.6 18.0645C12.4885 18.0645 11.5875 17.182 11.5875 16.0957C11.5875 15.0083 12.4885 14.127 13.6 14.127C14.7105 14.127 15.6125 15.0083 15.6125 16.0957ZM16.4894 19.9031C15.422 20.8313 14.75 22.1848 14.75 23.6895C14.75 24.8953 15.1489 26.0027 15.9 26.8711V27.627C15.9 28.2492 15.3861 28.752 14.75 28.752H12.45C11.815 28.752 11.3 28.2492 11.3 27.627V26.6848C9.94012 26.052 9 24.6984 9 23.127C9 20.9508 10.8019 19.1895 13.025 19.1895H14.175C15.0052 19.1895 15.8353 19.4531 16.4894 19.9031ZM11.3 21.6398C10.9421 22.0336 10.725 22.5574 10.725 23.127C10.725 23.6965 10.9421 24.2203 11.3 24.6141V21.6398ZM25.1 27.627V26.8711C25.8188 26.0027 26.25 24.8953 26.25 23.6895C26.25 22.1848 25.578 20.8313 24.5106 19.9031C25.1647 19.4531 25.9625 19.1895 26.825 19.1895H27.975C30.1995 19.1895 32 20.9508 32 23.127C32 24.6984 31.0584 26.052 29.7 26.6848V27.627C29.7 28.2492 29.1861 28.752 28.55 28.752H26.25C25.6139 28.752 25.1 28.2492 25.1 27.627ZM29.7 24.6141C30.027 24.2203 30.275 23.6965 30.275 23.127C30.275 22.5574 30.027 22.0336 29.7 21.6398V24.6141ZM29.4125 16.0957C29.4125 17.182 28.5105 18.0645 27.4 18.0645C26.2895 18.0645 25.3875 17.182 25.3875 16.0957C25.3875 15.0083 26.2895 14.127 27.4 14.127C28.5105 14.127 29.4125 15.0083 29.4125 16.0957ZM18.2 16.377C18.2 15.1342 19.2314 14.127 20.5 14.127C21.7686 14.127 22.8 15.1342 22.8 16.377C22.8 17.618 21.7686 18.627 20.5 18.627C19.2314 18.627 18.2 17.618 18.2 16.377ZM25.1 23.6895C25.1 25.2609 24.1584 26.6145 22.8 27.2473V28.752C22.8 29.3742 22.2861 29.877 21.65 29.877H19.35C18.7139 29.877 18.2 29.3742 18.2 28.752V27.2473C16.8416 26.6145 15.9 25.2609 15.9 23.6895C15.9 21.5133 17.7005 19.752 19.925 19.752H21.075C23.2995 19.752 25.1 21.5133 25.1 23.6895ZM18.2 25.1766V22.2023C17.8406 22.5961 17.625 23.1199 17.625 23.6895C17.625 24.259 17.8406 24.7828 18.2 25.1766ZM22.8 22.2023V25.1766C23.127 24.7793 23.375 24.259 23.375 23.6895C23.375 23.1199 23.127 22.5961 22.8 22.2023Z" fill="white"/>
</svg>
