<svg width="35" height="35" viewBox="0 0 35 35" fill="none" xmlns="http://www.w3.org/2000/svg">
<circle cx="17.3876" cy="17.3876" r="14.5684" transform="rotate(85.0788 17.3876 17.3876)" fill="white" stroke="#EB5757" stroke-width="3"/>
<path d="M14.854 16.2559V16.8848C14.854 17.6322 14.7606 18.3021 14.5737 18.8945C14.3869 19.487 14.118 19.9906 13.7671 20.4053C13.4162 20.82 12.9946 21.1367 12.5024 21.3555C12.0148 21.5742 11.4679 21.6836 10.8618 21.6836C10.2739 21.6836 9.73389 21.5742 9.2417 21.3555C8.75407 21.1367 8.33024 20.82 7.97021 20.4053C7.61475 19.9906 7.33903 19.487 7.14307 18.8945C6.9471 18.3021 6.84912 17.6322 6.84912 16.8848V16.2559C6.84912 15.5085 6.94482 14.8408 7.13623 14.2529C7.33219 13.6605 7.60791 13.1569 7.96338 12.7422C8.31885 12.3229 8.7404 12.0039 9.22803 11.7852C9.72021 11.5664 10.2603 11.457 10.8481 11.457C11.4543 11.457 12.0011 11.5664 12.4888 11.7852C12.981 12.0039 13.4025 12.3229 13.7534 12.7422C14.1089 13.1569 14.38 13.6605 14.5669 14.2529C14.7583 14.8408 14.854 15.5085 14.854 16.2559ZM13.5483 16.8848V16.2422C13.5483 15.6497 13.4868 15.1257 13.3638 14.6699C13.2453 14.2142 13.0698 13.8314 12.8374 13.5215C12.605 13.2116 12.3201 12.9769 11.9829 12.8174C11.6502 12.6579 11.272 12.5781 10.8481 12.5781C10.438 12.5781 10.0666 12.6579 9.73389 12.8174C9.40576 12.9769 9.12321 13.2116 8.88623 13.5215C8.65381 13.8314 8.4738 14.2142 8.34619 14.6699C8.21859 15.1257 8.15479 15.6497 8.15479 16.2422V16.8848C8.15479 17.4818 8.21859 18.0104 8.34619 18.4707C8.4738 18.9264 8.65609 19.3115 8.89307 19.626C9.1346 19.9359 9.41943 20.1706 9.74756 20.3301C10.0802 20.4896 10.4517 20.5693 10.8618 20.5693C11.2902 20.5693 11.6707 20.4896 12.0034 20.3301C12.3361 20.1706 12.6164 19.9359 12.8442 19.626C13.0767 19.3115 13.2521 18.9264 13.3706 18.4707C13.4891 18.0104 13.5483 17.4818 13.5483 16.8848ZM21.1636 19.8379V14.1504H22.4351V21.5469H21.2251L21.1636 19.8379ZM21.4028 18.2793L21.9292 18.2656C21.9292 18.7578 21.8768 19.2135 21.772 19.6328C21.6717 20.0475 21.5076 20.4076 21.2798 20.7129C21.0519 21.0182 20.7534 21.2575 20.3843 21.4307C20.0151 21.5993 19.5662 21.6836 19.0376 21.6836C18.6776 21.6836 18.3472 21.6312 18.0464 21.5264C17.7502 21.4215 17.495 21.2598 17.2808 21.041C17.0666 20.8223 16.9002 20.5374 16.7817 20.1865C16.6678 19.8356 16.6108 19.4141 16.6108 18.9219V14.1504H17.8755V18.9355C17.8755 19.2682 17.9119 19.5439 17.9849 19.7627C18.0623 19.9769 18.1649 20.1478 18.2925 20.2754C18.4246 20.3984 18.5705 20.485 18.73 20.5352C18.894 20.5853 19.0627 20.6104 19.2358 20.6104C19.7736 20.6104 20.1997 20.5078 20.5142 20.3027C20.8286 20.0931 21.0542 19.8128 21.1909 19.4619C21.3322 19.1064 21.4028 18.7122 21.4028 18.2793ZM27.4595 14.1504V15.1211H23.4604V14.1504H27.4595ZM24.814 12.3525H26.0786V19.7148C26.0786 19.9655 26.1174 20.1546 26.1948 20.2822C26.2723 20.4098 26.3726 20.4941 26.4956 20.5352C26.6187 20.5762 26.7508 20.5967 26.8921 20.5967C26.9969 20.5967 27.1063 20.5876 27.2202 20.5693C27.3387 20.5465 27.4276 20.5283 27.4868 20.5146L27.4937 21.5469C27.3934 21.5788 27.2612 21.6084 27.0972 21.6357C26.9377 21.6676 26.744 21.6836 26.5161 21.6836C26.2062 21.6836 25.9214 21.6221 25.6616 21.499C25.4019 21.376 25.1945 21.1709 25.0396 20.8838C24.8892 20.5921 24.814 20.2002 24.814 19.708V12.3525Z" fill="#333333"/>
</svg>
