<svg width="42" height="42" viewBox="0 0 42 42" fill="none" xmlns="http://www.w3.org/2000/svg">
<rect x="0.806458" y="0.884277" width="41.0081" height="41.1054" rx="8" fill="#EB5757"/>
<g clip-path="url(#clip0_9531_44949)">
<path d="M29.2013 21.6323C29.2013 20.0245 28.7679 18.5514 27.9011 17.2132L16.6329 28.4932C17.9978 29.382 19.4773 29.8264 21.0714 29.8264C22.1773 29.8264 23.2309 29.6092 24.2322 29.1748C25.2335 28.7404 26.0978 28.1586 26.8251 27.4296C27.5524 26.7006 28.1303 25.8292 28.5587 24.8156C28.9871 23.8019 29.2013 22.7408 29.2013 21.6323ZM14.2716 26.1114L25.5548 14.8164C24.2098 13.9076 22.7153 13.4532 21.0714 13.4532C19.5969 13.4532 18.2369 13.8177 16.9915 14.5467C15.7461 15.2758 14.7598 16.2695 14.0325 17.5278C13.3052 18.7861 12.9415 20.1543 12.9415 21.6323C12.9415 23.2502 13.3849 24.7432 14.2716 26.1114ZM32.5489 21.6323C32.5489 23.2002 32.245 24.6982 31.6373 26.1263C31.0295 27.5545 30.215 28.7828 29.1938 29.8115C28.1726 30.8401 26.9521 31.659 25.5324 32.2682C24.1127 32.8774 22.6257 33.182 21.0714 33.182C19.5172 33.182 18.0302 32.8774 16.6104 32.2682C15.1907 31.659 13.9702 30.8401 12.949 29.8115C11.9278 28.7828 11.1133 27.5545 10.5056 26.1263C9.89781 24.6982 9.59393 23.2002 9.59393 21.6323C9.59393 20.0644 9.89781 18.5689 10.5056 17.1458C11.1133 15.7227 11.9278 14.4968 12.949 13.4682C13.9702 12.4395 15.1907 11.6206 16.6104 11.0114C18.0302 10.4023 19.5172 10.0977 21.0714 10.0977C22.6257 10.0977 24.1127 10.4023 25.5324 11.0114C26.9521 11.6206 28.1726 12.4395 29.1938 13.4682C30.215 14.4968 31.0295 15.7227 31.6373 17.1458C32.245 18.5689 32.5489 20.0644 32.5489 21.6323Z" fill="white"/>
</g>
<defs>
<clipPath id="clip0_9531_44949">
<rect width="22.955" height="23.4888" fill="white" transform="translate(9.59393 9.69238)"/>
</clipPath>
</defs>
</svg>
