<svg width="42" height="42" viewBox="0 0 42 42" fill="none" xmlns="http://www.w3.org/2000/svg">
<rect width="42" height="42" rx="8" fill="#EB5757"/>
<g clip-path="url(#clip0_9432_44019)">
<path d="M29.0816 21.2017C29.0816 19.5589 28.6378 18.0538 27.75 16.6864L16.2092 28.2119C17.6071 29.1201 19.1224 29.5742 20.7551 29.5742C21.8878 29.5742 22.9668 29.3522 23.9923 28.9084C25.0179 28.4645 25.9031 27.8701 26.648 27.1252C27.3929 26.3803 27.9847 25.49 28.4235 24.4543C28.8622 23.4186 29.0816 22.3344 29.0816 21.2017ZM13.7908 25.7783L25.3469 14.2374C23.9694 13.3089 22.4388 12.8446 20.7551 12.8446C19.2449 12.8446 17.852 13.217 16.5765 13.9619C15.301 14.7068 14.2908 15.7221 13.5459 17.0079C12.801 18.2936 12.4286 19.6915 12.4286 21.2017C12.4286 22.8548 12.8827 24.3803 13.7908 25.7783ZM32.5102 21.2017C32.5102 22.8038 32.199 24.3344 31.5765 25.7936C30.9541 27.2528 30.1199 28.5079 29.074 29.5589C28.0281 30.6099 26.7781 31.4466 25.324 32.0691C23.8699 32.6915 22.3469 33.0028 20.7551 33.0028C19.1633 33.0028 17.6403 32.6915 16.1862 32.0691C14.7321 31.4466 13.4821 30.6099 12.4362 29.5589C11.3903 28.5079 10.5561 27.2528 9.93367 25.7936C9.31122 24.3344 9 22.8038 9 21.2017C9 19.5997 9.31122 18.0716 9.93367 16.6175C10.5561 15.1635 11.3903 13.9109 12.4362 12.8599C13.4821 11.8089 14.7321 10.9721 16.1862 10.3497C17.6403 9.72724 19.1633 9.41602 20.7551 9.41602C22.3469 9.41602 23.8699 9.72724 25.324 10.3497C26.7781 10.9721 28.0281 11.8089 29.074 12.8599C30.1199 13.9109 30.9541 15.1635 31.5765 16.6175C32.199 18.0716 32.5102 19.5997 32.5102 21.2017Z" fill="white"/>
</g>
<defs>
<clipPath id="clip0_9432_44019">
<rect width="23.5102" height="24" fill="white" transform="translate(9 9)"/>
</clipPath>
</defs>
</svg>
