<svg width="42" height="42" viewBox="0 0 42 42" fill="none" xmlns="http://www.w3.org/2000/svg">
<rect width="42" height="42" rx="8" fill="#EB5757"/>
<path d="M19.7 21.5C19.7 21.8 18.4 22.2 17.4 22.2C16.4 22.2 15.3 21.5 15.3 21.3C15.3 21 16 20.1 17.6 20C18.5 19.9 19.5 20.5 19.7 21.5ZM24.4 20C23.4 19.9 22.5 20.5 22.3 21.5C22.3 21.8 23.5 22.2 24.6 22.2C25.7 22.2 26.7 21.5 26.7 21.3C26.7 21.1 26 20.1 24.4 20ZM31 21C31 26.5 26.5 31 21 31C15.5 31 11 26.5 11 21C11 15.5 15.5 11 21 11C26.5 11 31 15.5 31 21ZM29 20.2C29 18.2 28.3 17.5 25.7 17.5C23.1 17.5 22.3 18.6 21 18.6C19.7 18.6 19 17.5 16.3 17.5C13.6 17.5 13 18.1 13 20.2C13 23.6 14.5 25.5 16.6 25.5C18.2 25.5 19.4 23.5 21 23.5C22.6 23.5 23.7 25.5 25.4 25.5C27.5 25.5 29 23.6 29 20.2Z" fill="white"/>
</svg>
