<svg width="24" height="24" viewBox="0 0 24 24" fill="none" xmlns="http://www.w3.org/2000/svg">
<path d="M20.4 18.7407V12.2476C20.4001 11.7959 20.3067 11.3489 20.1257 10.934C19.9448 10.5191 19.6799 10.1451 19.3475 9.83491L13.1542 4.05367C12.8422 3.76239 12.4293 3.6001 12 3.6001C11.5707 3.6001 11.1578 3.76239 10.8458 4.05367L4.65253 9.83491C4.32007 10.1451 4.05525 10.5191 3.87426 10.934C3.69328 11.3489 3.59996 11.7959 3.60001 12.2476V18.7407C3.60001 19.1808 3.77701 19.6029 4.09207 19.9141C4.40713 20.2253 4.83444 20.4001 5.28001 20.4001H18.72C19.1656 20.4001 19.5929 20.2253 19.9079 19.9141C20.223 19.6029 20.4 19.1808 20.4 18.7407Z" stroke="#4F4F4F" stroke-width="1.5" stroke-linecap="round" stroke-linejoin="round"/>
</svg>
