<svg width="12" height="13" viewBox="0 0 12 13" fill="none" xmlns="http://www.w3.org/2000/svg">
<g clip-path="url(#clip0_35318_34221)">
<path d="M3.75 6.75H2.75V7.25H3.75V6.75Z" stroke="#212121" stroke-miterlimit="10" stroke-linecap="square"/>
<path d="M6.75 6.75H5.75V7.25H6.75V6.75Z" stroke="#212121" stroke-miterlimit="10" stroke-linecap="square"/>
<path d="M3.75 9.25H2.75V9.75H3.75V9.25Z" stroke="#212121" stroke-miterlimit="10" stroke-linecap="square"/>
<path d="M6.75 9.25H5.75V9.75H6.75V9.25Z" stroke="#212121" stroke-miterlimit="10" stroke-linecap="square"/>
<path d="M9.75 6.75H8.75V7.25H9.75V6.75Z" stroke="#212121" stroke-miterlimit="10" stroke-linecap="square"/>
<path d="M3.75 6.75H2.75V7.25H3.75V6.75Z" fill="#212121"/>
<path d="M6.75 6.75H5.75V7.25H6.75V6.75Z" fill="#212121"/>
<path d="M3.75 9.25H2.75V9.75H3.75V9.25Z" fill="#212121"/>
<path d="M6.75 9.25H5.75V9.75H6.75V9.25Z" fill="#212121"/>
<path d="M9.75 6.75H8.75V7.25H9.75V6.75Z" fill="#212121"/>
<path d="M10.75 2.25H1.75C1.19772 2.25 0.75 2.69772 0.75 3.25V10.75C0.75 11.3023 1.19772 11.75 1.75 11.75H10.75C11.3023 11.75 11.75 11.3023 11.75 10.75V3.25C11.75 2.69772 11.3023 2.25 10.75 2.25Z" stroke="#212121" stroke-miterlimit="10" stroke-linecap="square"/>
<path d="M3.25 1.25V2.75" stroke="#212121" stroke-miterlimit="10" stroke-linecap="square"/>
<path d="M9.25 1.25V2.75" stroke="#212121" stroke-miterlimit="10" stroke-linecap="square"/>
<path d="M0.75 4.75H11.75" stroke="#212121" stroke-miterlimit="10" stroke-linecap="square"/>
</g>
<defs>
<clipPath id="clip0_35318_34221">
<rect width="12" height="12" fill="white" transform="translate(0 0.5)"/>
</clipPath>
</defs>
</svg>
