<svg width="24" height="24" viewBox="0 0 24 24" fill="none" xmlns="http://www.w3.org/2000/svg">
<g clip-path="url(#clip0_9899_47008)">
<path fill-rule="evenodd" clip-rule="evenodd" d="M12 21C16.9707 21 21 16.9707 21 12C21 7.0293 16.9707 3 12 3C7.0293 3 3 7.0293 3 12C3 16.9707 7.0293 21 12 21ZM7.5846 17.688L17.688 7.5846C18.7649 8.96985 19.2989 10.7007 19.1896 12.4519C19.0804 14.203 18.3354 15.8541 17.0948 17.0948C15.8541 18.3354 14.203 19.0804 12.4519 19.1896C10.7007 19.2989 8.96985 18.7649 7.5846 17.688V17.688ZM6.312 16.4154C5.23512 15.0301 4.70114 13.2993 4.81038 11.5481C4.91962 9.79696 5.66456 8.14593 6.90525 6.90525C8.14593 5.66456 9.79696 4.91962 11.5481 4.81038C13.2993 4.70114 15.0301 5.23512 16.4154 6.312L6.312 16.4154Z" fill="#828282"/>
</g>
<defs>
<clipPath id="clip0_9899_47008">
<rect width="24" height="24" fill="white"/>
</clipPath>
</defs>
</svg>
