<svg width="24" height="24" viewBox="0 0 24 24" fill="none" xmlns="http://www.w3.org/2000/svg">
<path d="M20.0625 3.625H4.3125C3.9644 3.625 3.63056 3.76328 3.38442 4.00942C3.13828 4.25556 3 4.5894 3 4.9375V15.4375C3 15.7856 3.13828 16.1194 3.38442 16.3656C3.63056 16.6117 3.9644 16.75 4.3125 16.75H9.5625V19.375H6.9375V20.6875H17.4375V19.375H14.8125V16.75H20.0625C20.4106 16.75 20.7444 16.6117 20.9906 16.3656C21.2367 16.1194 21.375 15.7856 21.375 15.4375V4.9375C21.375 4.5894 21.2367 4.25556 20.9906 4.00942C20.7444 3.76328 20.4106 3.625 20.0625 3.625ZM13.5 19.375H10.875V16.75H13.5V19.375ZM20.0625 15.4375H4.3125V4.9375H20.0625V15.4375Z" fill="#4F4F4F"/>
<line x1="12.2812" y1="4.28125" x2="12.2812" y2="16.0938" stroke="#4F4F4F" stroke-width="1.5"/>
<line x1="20.7187" y1="10.2812" x2="3.65625" y2="10.2812" stroke="#4F4F4F" stroke-width="1.5"/>
</svg>
