<svg width="42" height="42" viewBox="0 0 42 42" fill="none" xmlns="http://www.w3.org/2000/svg">
<rect width="42" height="42" rx="8" fill="#219653"/>
<path d="M28.9998 16.998H23.9998V22.998H10.9998V25.998H11.9998C11.9998 26.7937 12.3158 27.5568 12.8784 28.1194C13.441 28.682 14.2041 28.998 14.9998 28.998C15.7954 28.998 16.5585 28.682 17.1211 28.1194C17.6837 27.5568 17.9998 26.7937 17.9998 25.998H23.9998C23.9998 26.7937 24.3158 27.5568 24.8784 28.1194C25.441 28.682 26.2041 28.998 26.9998 28.998C27.7954 28.998 28.5585 28.682 29.1211 28.1194C29.6837 27.5568 29.9998 26.7937 29.9998 25.998H31.9998V20.998L28.9998 16.998ZM14.9998 27.498C14.6019 27.498 14.2204 27.34 13.9391 27.0587C13.6578 26.7774 13.4998 26.3959 13.4998 25.998C13.4998 25.6002 13.6578 25.2187 13.9391 24.9374C14.2204 24.6561 14.6019 24.498 14.9998 24.498C15.3976 24.498 15.7791 24.6561 16.0604 24.9374C16.3417 25.2187 16.4998 25.6002 16.4998 25.998C16.4998 26.3959 16.3417 26.7774 16.0604 27.0587C15.7791 27.34 15.3976 27.498 14.9998 27.498ZM26.9998 27.498C26.6019 27.498 26.2204 27.34 25.9391 27.0587C25.6578 26.7774 25.4998 26.3959 25.4998 25.998C25.4998 25.6002 25.6578 25.2187 25.9391 24.9374C26.2204 24.6561 26.6019 24.498 26.9998 24.498C27.3976 24.498 27.7791 24.6561 28.0604 24.9374C28.3417 25.2187 28.4998 25.6002 28.4998 25.998C28.4998 26.3959 28.3417 26.7774 28.0604 27.0587C27.7791 27.34 27.3976 27.498 26.9998 27.498ZM25.9998 20.998V18.498H28.4998L30.4598 20.998H25.9998ZM26.9998 15.998H22.9998V21.998H11.9998L10.5698 16.998H9.99976V14.998H21.9998L22.9998 13.998H26.9998V15.998Z" fill="white"/>
</svg>
