<svg width="24" height="24" viewBox="0 0 24 24" fill="none" xmlns="http://www.w3.org/2000/svg">
<g clip-path="url(#clip0_10352_60854)">
<path opacity="0.974" fill-rule="evenodd" clip-rule="evenodd" d="M12.9029 21.8275C12.3607 21.8275 11.8186 21.8275 11.2764 21.8275C8.00499 21.4027 5.59754 19.7375 4.05409 16.8319C3.41395 15.5106 3.12998 14.1165 3.20212 12.6496C3.4181 12.1382 3.79889 11.951 4.34453 12.088C4.65867 12.2085 4.84583 12.4345 4.90605 12.7657C4.97386 15.5913 6.20665 17.7277 8.60435 19.1748C10.9279 20.3882 13.2514 20.3882 15.575 19.1748C17.9301 17.7512 19.1565 15.6536 19.2539 12.8819C19.1335 10.1416 17.9072 8.06982 15.575 6.66644C14.9211 6.28933 14.2241 6.04408 13.4838 5.93065C13.4128 5.95002 13.3676 5.99521 13.3482 6.06619C13.3353 6.56963 13.3224 7.07306 13.3095 7.57649C13.3174 7.7367 13.2464 7.79479 13.0965 7.75076C12.0955 6.95971 11.1015 6.15941 10.1147 5.34977C9.97745 5.23971 9.8548 5.11708 9.74676 4.98187C9.71942 4.88618 9.73231 4.79581 9.78548 4.71079C10.8723 3.79784 11.9631 2.89424 13.0578 2C13.1224 2 13.1869 2 13.2514 2C13.2743 2.04903 13.2936 2.10066 13.3095 2.1549C13.3224 2.73579 13.3353 3.31667 13.3482 3.89756C13.3853 3.93933 13.4175 3.98451 13.4451 4.0331C16.2455 4.58975 18.3819 6.08068 19.8542 8.50591C21.207 11.0681 21.3619 13.7015 20.3189 16.4059C18.8351 19.5591 16.3631 21.3662 12.9029 21.8275Z" fill="#828282"/>
</g>
<defs>
<clipPath id="clip0_10352_60854">
<rect width="24" height="24" fill="white"/>
</clipPath>
</defs>
</svg>
