<svg width="36" height="37" viewBox="0 0 36 37" fill="none" xmlns="http://www.w3.org/2000/svg">
<g clip-path="url(#clip0_30459_20038)">
<path opacity="0.997" fill-rule="evenodd" clip-rule="evenodd" d="M8.33205 0.464844C12.6211 0.464844 16.9102 0.464844 21.1992 0.464844C21.1992 3.98047 21.1992 7.49609 21.1992 11.0117C24.5742 11.0117 27.9492 11.0117 31.3242 11.0117C31.3711 11.0117 31.418 11.0117 31.4649 11.0117C31.4766 18.1368 31.4649 25.2617 31.4297 32.3867C31.0291 34.58 29.7517 35.9395 27.5977 36.4648C21.1758 36.4648 14.7539 36.4648 8.33205 36.4648C6.35387 35.9985 5.09996 34.7797 4.57033 32.8086C4.48901 28.0295 4.45385 23.2482 4.46486 18.4648C4.45385 13.6815 4.48901 8.90023 4.57033 4.12109C5.09996 2.14997 6.35387 0.931217 8.33205 0.464844Z" fill="#2B518E"/>
<path fill-rule="evenodd" clip-rule="evenodd" d="M21.1992 0.464844C21.2461 0.464844 21.2929 0.464844 21.3398 0.464844C23.2829 2.54865 25.2517 4.61114 27.2461 6.65234C27.4054 6.92907 27.6164 7.16344 27.8789 7.35547C28.2305 7.66013 28.5586 7.98828 28.8633 8.33984C29.1872 8.78113 29.5623 9.17959 29.9883 9.53516C30.1523 9.65237 30.2929 9.79299 30.4102 9.95703C30.687 10.328 30.9917 10.6796 31.3242 11.0117C27.9492 11.0117 24.5742 11.0117 21.1992 11.0117C21.1992 7.49609 21.1992 3.98047 21.1992 0.464844Z" fill="#B4C3F5"/>
<path opacity="0.471" fill-rule="evenodd" clip-rule="evenodd" d="M27.2461 6.65234C27.5086 6.84437 27.7196 7.07875 27.8789 7.35547C27.6164 7.16344 27.4054 6.92907 27.2461 6.65234Z" fill="#CADDF5"/>
<path opacity="0.498" fill-rule="evenodd" clip-rule="evenodd" d="M28.8633 8.33984C29.2893 8.69541 29.6644 9.09387 29.9883 9.53516C29.5623 9.17959 29.1872 8.78113 28.8633 8.33984Z" fill="#DAE7F8"/>
<path opacity="0.545" fill-rule="evenodd" clip-rule="evenodd" d="M30.4102 9.95703C30.7851 10.2852 31.1367 10.6367 31.4648 11.0117C31.4179 11.0117 31.3711 11.0117 31.3242 11.0117C30.9917 10.6796 30.687 10.328 30.4102 9.95703Z" fill="#D8E6F7"/>
<path fill-rule="evenodd" clip-rule="evenodd" d="M12.9024 17.6216C16.2307 17.6098 19.5588 17.6216 22.8868 17.6567C23.5019 17.8914 23.6542 18.3016 23.3438 18.8872C23.2585 18.9961 23.153 19.0781 23.0274 19.1333C19.6524 19.1802 16.2774 19.1802 12.9024 19.1333C12.25 18.6296 12.25 18.1257 12.9024 17.6216Z" fill="#FEFEFE"/>
<path fill-rule="evenodd" clip-rule="evenodd" d="M12.9024 20.7857C16.2307 20.7739 19.5588 20.7857 22.8868 20.8208C23.5019 21.0554 23.6542 21.4656 23.3438 22.0513C23.2585 22.1602 23.153 22.2422 23.0274 22.2974C19.6524 22.3443 16.2774 22.3443 12.9024 22.2974C12.25 21.7937 12.25 21.2898 12.9024 20.7857Z" fill="#FEFEFE"/>
<path fill-rule="evenodd" clip-rule="evenodd" d="M12.9024 23.9497C16.2307 23.938 19.5588 23.9497 22.8868 23.9849C23.5019 24.2195 23.6542 24.6297 23.3438 25.2153C23.2585 25.3243 23.153 25.4062 23.0274 25.4614C19.6524 25.5083 16.2774 25.5083 12.9024 25.4614C12.25 24.9577 12.25 24.4539 12.9024 23.9497Z" fill="#FEFEFE"/>
<path fill-rule="evenodd" clip-rule="evenodd" d="M12.9024 27.1138C15.176 27.102 17.4494 27.1138 19.7227 27.1489C20.3379 27.3836 20.4902 27.7938 20.1798 28.3794C20.0944 28.4883 19.9889 28.5703 19.8633 28.6255C17.543 28.6724 15.2227 28.6724 12.9024 28.6255C12.25 28.1218 12.25 27.6179 12.9024 27.1138Z" fill="#FDFEFE"/>
</g>
<defs>
<clipPath id="clip0_30459_20038">
<rect width="36" height="36" fill="white" transform="translate(0 0.5)"/>
</clipPath>
</defs>
</svg>
