<svg width="24" height="24" viewBox="0 0 24 24" fill="none" xmlns="http://www.w3.org/2000/svg">
<path d="M4.3501 9.63117C4.3501 6.50548 4.3501 4.94219 5.27259 3.9711C6.19509 3 7.68008 3 10.6501 3H13.3501C16.32 3 17.805 3 18.7275 3.972C19.65 4.94129 19.65 6.50458 19.65 9.63027V14.3678C19.65 17.4935 19.65 19.0568 18.7275 20.0279C17.805 20.999 16.32 20.9999 13.3501 20.9999H10.6501C7.68008 20.9999 6.19509 20.9999 5.27259 20.0279C4.3501 19.0586 4.3501 17.4953 4.3501 14.3696V9.63117Z" stroke="black" stroke-width="1.5" stroke-linecap="round" stroke-linejoin="round"/>
<path d="M8.40002 3L8.47382 3.4437C8.65382 4.52099 8.74382 5.06009 9.12182 5.38049C9.49802 5.69999 10.0443 5.69999 11.1369 5.69999H12.8622C13.9539 5.69999 14.5002 5.69999 14.8782 5.38049C15.2562 5.06009 15.3462 4.52099 15.5253 3.4437L15.6 3M8.40002 15.5999H12M8.40002 11.1H15.6" stroke="#4F4F4F" stroke-width="1.5" stroke-linecap="round" stroke-linejoin="round"/>
</svg>
