<svg width="16" height="16" viewBox="0 0 16 16" fill="none" xmlns="http://www.w3.org/2000/svg">
<g clip-path="url(#clip0_4130_22644)">
<path opacity="0.986" fill-rule="evenodd" clip-rule="evenodd" d="M16.0156 7.76571C16.0156 7.93237 16.0156 8.09905 16.0156 8.26571C15.9622 8.43018 15.884 8.58643 15.7813 8.73446C13.4427 11.073 11.1042 13.4115 8.76563 15.7501C8.19359 16.1053 7.66756 16.048 7.1875 15.5782C6.85959 15.1159 6.84919 14.6471 7.15625 14.172C9.20875 12.1246 11.2556 10.0726 13.2969 8.01571C11.2556 5.95883 9.20875 3.90677 7.15625 1.85946C6.82181 1.30062 6.8791 0.78499 7.32813 0.312584C7.79938 -0.0285099 8.27853 -0.0389163 8.76563 0.281334C11.1042 2.61987 13.4427 4.95843 15.7813 7.29696C15.884 7.44499 15.9622 7.60124 16.0156 7.76571Z" fill="currentColor"/>
<path opacity="0.986" fill-rule="evenodd" clip-rule="evenodd" d="M0.0156251 15.1092C0.0156251 14.9426 0.0156251 14.7759 0.0156251 14.6092C0.0565006 14.4544 0.124219 14.3085 0.21875 14.1717C2.27125 12.1244 4.31813 10.0724 6.35938 8.01548C4.31813 5.95861 2.27125 3.90654 0.218751 1.85923C0.12422 1.72245 0.0565017 1.57661 0.0156263 1.42173C0.0156263 1.25507 0.0156263 1.08839 0.0156263 0.921731C0.280064 0.1957 0.790471 -0.0699241 1.54688 0.124856C1.64566 0.169012 1.73941 0.221106 1.82813 0.281106C4.17709 2.63008 6.52603 4.97901 8.875 7.32798C9.1875 7.78633 9.1875 8.24464 8.875 8.70298C6.52603 11.052 4.17709 13.4009 1.82813 15.7499C1.27544 16.0973 0.759812 16.0505 0.28125 15.6092C0.166843 15.4532 0.0783129 15.2865 0.0156251 15.1092Z" fill="currentColor"/>
</g>
<defs>
<clipPath id="clip0_4130_22644">
<rect width="16" height="16" fill="white" transform="translate(16 16) rotate(-180)"/>
</clipPath>
</defs>
</svg>
