<svg width="20" height="21" viewBox="0 0 20 21" fill="none" xmlns="http://www.w3.org/2000/svg">
<path d="M9.99968 13.4779C9.88856 13.4779 9.7844 13.4606 9.68718 13.4262C9.58995 13.3918 9.49968 13.3326 9.41634 13.2487L6.41634 10.2487C6.26356 10.0959 6.18718 9.90148 6.18718 9.66537C6.18718 9.42926 6.26356 9.23481 6.41634 9.08203C6.56912 8.92926 6.76718 8.84953 7.01051 8.84287C7.25384 8.8362 7.45162 8.90898 7.60384 9.0612L9.16634 10.6237V4.66537C9.16634 4.42926 9.24634 4.2312 9.40634 4.0712C9.56634 3.9112 9.76412 3.83148 9.99968 3.83203C10.2358 3.83203 10.4338 3.91203 10.5938 4.07203C10.7538 4.23203 10.8336 4.42981 10.833 4.66537V10.6237L12.3955 9.0612C12.5483 8.90842 12.7463 8.83537 12.9897 8.84203C13.233 8.8487 13.4308 8.9287 13.583 9.08203C13.7358 9.23481 13.8122 9.42926 13.8122 9.66537C13.8122 9.90148 13.7358 10.0959 13.583 10.2487L10.583 13.2487C10.4997 13.332 10.4094 13.3912 10.3122 13.4262C10.215 13.4612 10.1108 13.4784 9.99968 13.4779ZM4.99968 17.1654C4.54134 17.1654 4.14884 17.002 3.82218 16.6754C3.49551 16.3487 3.33245 15.9565 3.33301 15.4987V13.832C3.33301 13.5959 3.41301 13.3979 3.57301 13.2379C3.73301 13.0779 3.93079 12.9981 4.16634 12.9987C4.40245 12.9987 4.60051 13.0787 4.76051 13.2387C4.92051 13.3987 5.00023 13.5965 4.99968 13.832V15.4987H14.9997V13.832C14.9997 13.5959 15.0797 13.3979 15.2397 13.2379C15.3997 13.0779 15.5975 12.9981 15.833 12.9987C16.0691 12.9987 16.2672 13.0787 16.4272 13.2387C16.5872 13.3987 16.6669 13.5965 16.6663 13.832V15.4987C16.6663 15.957 16.503 16.3495 16.1763 16.6762C15.8497 17.0029 15.4575 17.1659 14.9997 17.1654H4.99968Z" fill="#7B7B7B"/>
</svg>
