<svg width="20" height="20" viewBox="0 0 20 20" fill="none" xmlns="http://www.w3.org/2000/svg">
<g clip-path="url(#clip0_10079_58290)">
<g clip-path="url(#clip1_10079_58290)">
<path opacity="0.984" fill-rule="evenodd" clip-rule="evenodd" d="M8.79685 2.64063C11.1406 2.63542 13.4844 2.64063 15.8281 2.65625C16.6562 2.81771 17.151 3.3125 17.3125 4.14063C17.3333 7.15103 17.3333 10.1615 17.3125 13.1719C17.1313 14.0151 16.6157 14.5099 15.7656 14.6563C15.1302 14.6771 14.4948 14.6771 13.8594 14.6563C13.4 14.514 13.2282 14.2067 13.3437 13.7344C13.4114 13.5417 13.5416 13.4115 13.7344 13.3438C14.3786 13.3035 15.0244 13.2827 15.6719 13.2813C15.7898 13.2362 15.8784 13.1581 15.9375 13.0469C15.9735 11.5845 15.9892 10.1209 15.9844 8.65625C15.9791 7.24478 15.9739 5.83334 15.9687 4.42188C15.9427 4.16667 15.8021 4.02604 15.5469 4C13.3906 3.97917 11.2344 3.97917 9.0781 4C9.00148 4.00905 8.92857 4.02988 8.85935 4.0625C8.73576 4.23823 8.60035 4.40489 8.4531 4.5625C8.05966 4.75189 7.73154 4.67376 7.46873 4.32813C7.33448 3.95946 7.39698 3.62613 7.65623 3.32813C7.95616 2.95944 8.33635 2.73027 8.79685 2.64063Z" fill="#828282"/>
<path opacity="0.979" fill-rule="evenodd" clip-rule="evenodd" d="M4.20313 5.29688C6.50522 5.29166 8.80731 5.29688 11.1094 5.3125C11.9792 5.47397 12.4948 5.9896 12.6563 6.85938C12.6771 9.82813 12.6771 12.7969 12.6563 15.7656C12.5099 16.6157 12.0151 17.1313 11.1719 17.3125C8.82813 17.3333 6.48438 17.3333 4.14063 17.3125C3.31165 17.1502 2.81686 16.6554 2.65625 15.8281C2.63542 12.8177 2.63542 9.80729 2.65625 6.79688C2.84364 5.95619 3.35927 5.45619 4.20313 5.29688ZM4.29688 6.67188C6.53647 6.66666 8.77606 6.67188 11.0156 6.6875C11.1458 6.73438 11.2344 6.82291 11.2813 6.95313C11.3021 9.85938 11.3021 12.7656 11.2813 15.6719C11.2143 15.8533 11.0841 15.9523 10.8906 15.9688C8.72397 15.9896 6.55728 15.9896 4.39063 15.9688C4.14169 15.9386 4.01149 15.7979 4 15.5469C3.97917 12.724 3.97917 9.90104 4 7.07813C4.02276 6.88394 4.12172 6.74854 4.29688 6.67188Z" fill="#828282"/>
</g>
</g>
<defs>
<clipPath id="clip0_10079_58290">
<rect width="20" height="20" fill="white"/>
</clipPath>
<clipPath id="clip1_10079_58290">
<rect width="16" height="16" fill="white" transform="translate(2 2)"/>
</clipPath>
</defs>
</svg>
