<svg width="24" height="24" viewBox="0 0 24 24" fill="none" xmlns="http://www.w3.org/2000/svg">
<g clip-path="url(#clip0_9899_46966)">
<path d="M18.8 5.4166C18.5778 5.18514 18.3141 5.00153 18.0238 4.87626C17.7335 4.751 17.4223 4.68652 17.1081 4.68652C16.7939 4.68652 16.4828 4.751 16.1925 4.87626C15.9022 5.00153 15.6384 5.18514 15.4163 5.4166L6.17251 15.0455C5.94652 15.2811 5.77621 15.5681 5.67501 15.884L4.53251 19.4557C4.49601 19.5703 4.49083 19.6932 4.51754 19.8107C4.54425 19.9282 4.60181 20.0356 4.68378 20.121C4.76574 20.2064 4.86889 20.2663 4.98168 20.2942C5.09448 20.322 5.21249 20.3166 5.32251 20.2786L8.75126 19.0885C9.05501 18.9843 9.33001 18.8059 9.55626 18.5702L18.8 8.94264C19.0224 8.71119 19.1988 8.43635 19.3192 8.13384C19.4395 7.83133 19.5015 7.50708 19.5015 7.17962C19.5015 6.85215 19.4395 6.5279 19.3192 6.22539C19.1988 5.92288 19.0224 5.64805 18.8 5.4166ZM16.3 6.33847C16.4056 6.22576 16.5316 6.136 16.6707 6.07439C16.8098 6.01278 16.9593 5.98054 17.1105 5.97954C17.2617 5.97855 17.4115 6.00881 17.5514 6.06859C17.6913 6.12836 17.8183 6.21646 17.9253 6.32777C18.0322 6.43907 18.1169 6.57138 18.1744 6.71703C18.2319 6.86267 18.261 7.01875 18.2602 7.17623C18.2594 7.3337 18.2285 7.48943 18.1695 7.6344C18.1104 7.77937 18.0244 7.9107 17.9163 8.02076L17 8.97649L15.3838 7.2929L16.3013 6.33847H16.3ZM14.5 8.21347L16.115 9.89706L8.67251 17.6497C8.58362 17.742 8.47536 17.8115 8.35626 17.8528L6.11376 18.6314L6.86126 16.2968C6.90074 16.1723 6.9675 16.0591 7.05626 15.9661L14.5 8.21347Z" fill="#828282"/>
</g>
<defs>
<clipPath id="clip0_9899_46966">
<rect width="24" height="24" fill="white"/>
</clipPath>
</defs>
</svg>
