<svg width="64" height="64" viewBox="0 0 64 64" fill="none" xmlns="http://www.w3.org/2000/svg">
<path d="M12 0C8.8174 0 5.76516 1.26428 3.51472 3.51472C1.26428 5.76516 0 8.8174 0 12V44C0 47.1826 1.26428 50.2348 3.51472 52.4853C5.76516 54.7357 8.8174 56 12 56H24.204C24.0678 55.3421 23.9995 54.6719 24 54V37.828L18.416 43.412C18.0522 43.7765 17.5617 43.9866 17.0468 43.9985C16.532 44.0104 16.0323 43.8233 15.652 43.476L12.652 40.736C12.2804 40.3736 12.0643 39.8809 12.0494 39.362C12.0344 38.8432 12.2217 38.3389 12.5717 37.9556C12.9218 37.5723 13.4071 37.3402 13.9252 37.3081C14.4432 37.2761 14.9534 37.4468 15.348 37.784L16.936 39.236L22.584 33.584C22.7698 33.398 22.9906 33.2507 23.2336 33.1505C23.4767 33.0502 23.7371 32.9991 24 33V30C24 25.128 27.508 21.556 31.328 19.432C35.288 17.232 40.48 16 46 16C49.548 16 52.96 16.512 56 17.46V12C56 8.8174 54.7357 5.76516 52.4853 3.51472C50.2348 1.26428 47.1826 0 44 0H12ZM56 21.684C53.14 20.62 49.7 20 46 20C36.06 20 28 24.48 28 30C28 35.52 36.06 40 46 40C55.94 40 64 35.52 64 30C64 26.532 60.824 23.48 56 21.684ZM25.416 13.584C25.6023 13.7698 25.75 13.9905 25.8508 14.2335C25.9517 14.4764 26.0036 14.7369 26.0036 15C26.0036 15.2631 25.9517 15.5236 25.8508 15.7665C25.75 16.0095 25.6023 16.2302 25.416 16.416L18.416 23.416C18.0516 23.7799 17.5609 23.9893 17.046 24.0005C16.5312 24.0117 16.0318 23.8238 15.652 23.476L12.652 20.736C12.4481 20.5618 12.2814 20.3483 12.1617 20.1083C12.042 19.8683 11.9718 19.6067 11.9553 19.3391C11.9387 19.0714 11.9762 18.8031 12.0654 18.5502C12.1546 18.2973 12.2938 18.065 12.4747 17.8669C12.6555 17.6689 12.8743 17.5093 13.1181 17.3976C13.3619 17.2858 13.6257 17.2242 13.8938 17.2165C14.1618 17.2088 14.4287 17.255 14.6785 17.3525C14.9284 17.45 15.156 17.5967 15.348 17.784L16.936 19.232L22.584 13.584C22.7698 13.3977 22.9905 13.25 23.2335 13.1491C23.4764 13.0483 23.7369 12.9964 24 12.9964C24.2631 12.9964 24.5236 13.0483 24.7665 13.1491C25.0095 13.25 25.2302 13.3977 25.416 13.584ZM46 44C51.52 44 56.712 42.764 60.672 40.568C61.844 39.916 62.984 39.128 64.004 38.208L64 54C64 59.524 55.94 64 46 64C36.06 64 28 59.52 28 54V38.22C29.02 39.14 30.16 39.92 31.328 40.572C35.288 42.772 40.48 44.004 46 44.004V44Z" fill="url(#paint0_linear_36521_2427)"/>
<defs>
<linearGradient id="paint0_linear_36521_2427" x1="64.004" y1="-1.90735e-06" x2="32.0042" y2="34.8909" gradientUnits="userSpaceOnUse">
<stop stop-color="#F1F1F5"/>
<stop offset="1" stop-color="#CFCED8"/>
</linearGradient>
</defs>
</svg>
