<svg width="101" height="101" viewBox="0 0 101 101" fill="none" xmlns="http://www.w3.org/2000/svg">
<g clip-path="url(#clip0_12678_49956)">
<path opacity="0.981" fill-rule="evenodd" clip-rule="evenodd" d="M35.4092 -0.0986328C45.3382 -0.0986328 55.2673 -0.0986328 65.1963 -0.0986328C65.1963 9.6989 65.1963 19.4964 65.1963 29.2939C55.2673 29.2939 45.3382 29.2939 35.4092 29.2939C35.4092 19.4964 35.4092 9.6989 35.4092 -0.0986328ZM41.5244 5.81934C47.3767 5.81934 53.2288 5.81934 59.0811 5.81934C59.0811 11.6716 59.0811 17.5238 59.0811 23.376C53.2288 23.376 47.3767 23.376 41.5244 23.376C41.5244 17.5238 41.5244 11.6716 41.5244 5.81934Z" fill="url(#paint0_linear_12678_49956)"/>
<path opacity="0.958" fill-rule="evenodd" clip-rule="evenodd" d="M100.901 32.8447C100.901 34.6858 100.901 36.5271 100.901 38.3682C98.3211 48.5134 91.7455 53.6093 81.1748 53.6563C82.46 54.9085 83.7093 56.1907 84.9228 57.5029C83.6436 58.881 82.3284 60.229 80.9775 61.5469C80.7803 61.6785 80.583 61.6785 80.3857 61.5469C76.8679 58.0291 73.3499 54.511 69.832 50.9932C69.7004 50.8616 69.7004 50.7302 69.832 50.5986C73.3856 47.0122 76.9693 43.4614 80.583 39.9463C82.0954 41.3272 83.542 42.7737 84.9228 44.2861C83.9724 45.3354 82.9861 46.3545 81.9639 47.3438C88.7745 47.4377 93.0157 44.1828 94.6875 37.5791C95.3166 31.7696 93.048 27.5284 87.8818 24.8555C86.675 24.373 85.4255 24.0441 84.1338 23.8691C80.7152 23.7705 77.296 23.7376 73.876 23.7705C73.876 21.7322 73.876 19.6937 73.876 17.6553C77.9588 17.5791 82.0357 17.6777 86.1064 17.9512C94.2523 19.7516 99.184 24.7162 100.901 32.8447Z" fill="url(#paint1_linear_12678_49956)"/>
<path opacity="0.965" fill-rule="evenodd" clip-rule="evenodd" d="M35.4092 35.6064C45.3382 35.6064 55.2673 35.6064 65.1963 35.6064C65.1963 45.4697 65.1963 55.333 65.1963 65.1963C55.2673 65.1963 45.3382 65.1963 35.4092 65.1963C35.4092 55.333 35.4092 45.4697 35.4092 35.6064ZM41.5244 41.7217C47.3767 41.7217 53.2288 41.7217 59.0811 41.7217C59.0811 47.5081 59.0811 53.2947 59.0811 59.0811C53.2288 59.0811 47.3767 59.0811 41.5244 59.0811C41.5244 53.2947 41.5244 47.5081 41.5244 41.7217Z" fill="url(#paint2_linear_12678_49956)"/>
<path opacity="0.959" fill-rule="evenodd" clip-rule="evenodd" d="M-0.0986328 73.4816C-0.0986328 71.7062 -0.0986328 69.9308 -0.0986328 68.1554C1.75352 59.6951 6.94819 54.6648 15.4854 53.0646C19.2986 52.966 23.1124 52.933 26.9268 52.966C26.9268 55.0043 26.9268 57.0429 26.9268 59.0812C23.3097 59.0483 19.6931 59.0812 16.0771 59.1798C8.88735 60.915 5.5667 65.485 6.11523 72.8898C7.2073 77.7299 10.1334 80.8534 14.8936 82.2599C16.1974 82.5442 17.5125 82.6099 18.8389 82.4572C17.8167 81.4679 16.8303 80.4488 15.8799 79.3996C17.2006 77.9144 18.6144 76.5335 20.1211 75.257C23.8638 78.7695 27.5132 82.3862 31.0693 86.1066C27.5156 89.8247 23.8662 93.4411 20.1211 96.9562C18.6716 95.5396 17.2579 94.0931 15.8799 92.6164C17.0934 91.3042 18.3428 90.0219 19.6279 88.7697C11.1066 89.0494 4.95851 85.4 1.18359 77.8214C0.647187 76.3794 0.219778 74.9329 -0.0986328 73.4816Z" fill="url(#paint3_linear_12678_49956)"/>
<path opacity="0.981" fill-rule="evenodd" clip-rule="evenodd" d="M65.1963 100.901C55.2673 100.901 45.3382 100.901 35.4092 100.901C35.4092 91.1038 35.4092 81.3064 35.4092 71.5088C45.3382 71.5088 55.2673 71.5088 65.1963 71.5088C65.1963 81.3064 65.1963 91.1038 65.1963 100.901ZM41.5244 77.4268C47.3767 77.4268 53.2288 77.4268 59.0811 77.4268C59.0811 83.279 59.0811 89.1311 59.0811 94.9834C53.2288 94.9834 47.3767 94.9834 41.5244 94.9834C41.5244 89.1311 41.5244 83.279 41.5244 77.4268Z" fill="url(#paint4_linear_12678_49956)"/>
</g>
<defs>
<linearGradient id="paint0_linear_12678_49956" x1="65.1963" y1="-0.0986337" x2="50.5182" y2="16.1194" gradientUnits="userSpaceOnUse">
<stop stop-color="#F1F1F5"/>
<stop offset="1" stop-color="#CFCED8"/>
</linearGradient>
<linearGradient id="paint1_linear_12678_49956" x1="100.901" y1="17.6304" x2="79.5307" y2="34.1295" gradientUnits="userSpaceOnUse">
<stop stop-color="#F1F1F5"/>
<stop offset="1" stop-color="#CFCED8"/>
</linearGradient>
<linearGradient id="paint2_linear_12678_49956" x1="65.1963" y1="35.6064" x2="50.4102" y2="51.8349" gradientUnits="userSpaceOnUse">
<stop stop-color="#F1F1F5"/>
<stop offset="1" stop-color="#CFCED8"/>
</linearGradient>
<linearGradient id="paint3_linear_12678_49956" x1="31.0693" y1="52.9536" x2="9.70323" y2="69.4539" gradientUnits="userSpaceOnUse">
<stop stop-color="#F1F1F5"/>
<stop offset="1" stop-color="#CFCED8"/>
</linearGradient>
<linearGradient id="paint4_linear_12678_49956" x1="65.1963" y1="71.5088" x2="50.5182" y2="87.7268" gradientUnits="userSpaceOnUse">
<stop stop-color="#F1F1F5"/>
<stop offset="1" stop-color="#CFCED8"/>
</linearGradient>
<clipPath id="clip0_12678_49956">
<rect width="101" height="101" fill="white"/>
</clipPath>
</defs>
</svg>
