<svg width="90" height="90" viewBox="0 0 90 90" fill="none" xmlns="http://www.w3.org/2000/svg">
<g clip-path="url(#clip0_18429_886)">
<path d="M45 5.25C37.0888 5.25 29.3552 7.59596 22.7772 11.9912C16.1992 16.3865 11.0723 22.6336 8.04484 29.9427C5.01733 37.2517 4.2252 45.2944 5.76861 53.0536C7.31202 60.8129 11.1216 67.9402 16.7157 73.5343C22.3098 79.1284 29.4372 82.938 37.1964 84.4814C44.9556 86.0248 52.9983 85.2327 60.3074 82.2052C67.6164 79.1777 73.8635 74.0508 78.2588 67.4728C82.6541 60.8948 85 53.1613 85 45.25C85 34.6413 80.7857 24.4672 73.2843 16.9657C65.7828 9.46427 55.6087 5.25 45 5.25ZM41.5 22C41.5 21.0717 41.8688 20.1815 42.5251 19.5251C43.1815 18.8687 44.0718 18.5 45 18.5C45.9283 18.5 46.8185 18.8687 47.4749 19.5251C48.1313 20.1815 48.5 21.0717 48.5 22V52C48.5 52.9283 48.1313 53.8185 47.4749 54.4749C46.8185 55.1312 45.9283 55.5 45 55.5C44.0718 55.5 43.1815 55.1312 42.5251 54.4749C41.8688 53.8185 41.5 52.9283 41.5 52V22ZM45 71.5C44.11 71.5 43.24 71.2361 42.5 70.7416C41.7599 70.2471 41.1832 69.5443 40.8426 68.7221C40.502 67.8998 40.4129 66.995 40.5865 66.1221C40.7601 65.2492 41.1887 64.4474 41.818 63.818C42.4474 63.1887 43.2492 62.7601 44.1221 62.5865C44.995 62.4128 45.8998 62.5019 46.7221 62.8425C47.5444 63.1831 48.2472 63.7599 48.7416 64.4999C49.2361 65.24 49.5 66.11 49.5 67C49.5 68.1935 49.0259 69.3381 48.182 70.182C47.3381 71.0259 46.1935 71.5 45 71.5Z" fill="#EB5757"/>
</g>
<defs>
<clipPath id="clip0_18429_886">
<rect width="90" height="90" fill="white"/>
</clipPath>
</defs>
</svg>
