<svg width="36" height="37" viewBox="0 0 36 37" fill="none" xmlns="http://www.w3.org/2000/svg">
<g clip-path="url(#clip0_30459_20068)">
<g clip-path="url(#clip1_30459_20068)">
<path opacity="0.997" fill-rule="evenodd" clip-rule="evenodd" d="M6.92578 0.464844C11.6601 0.464844 16.3946 0.464844 21.1289 0.464844C21.1056 3.10182 21.129 5.72683 21.1992 8.33984C21.3681 9.3342 21.9306 9.99043 22.8867 10.3086C25.5599 12.5128 28.2553 14.6925 30.9727 16.8477C30.9844 22.8008 30.9727 28.754 30.9375 34.707C30.6203 35.6561 29.9757 36.2421 29.0039 36.4648C21.6445 36.4648 14.2852 36.4648 6.92578 36.4648C5.95398 36.2421 5.30945 35.6561 4.99219 34.707C4.94531 23.8789 4.94531 13.0508 4.99219 2.22266C5.30945 1.27356 5.95398 0.687629 6.92578 0.464844Z" fill="#23A566"/>
<path fill-rule="evenodd" clip-rule="evenodd" d="M21.1288 0.464844C21.1523 0.464844 21.1757 0.464844 21.1992 0.464844C22.4414 1.73047 23.6835 2.99609 24.9257 4.26172C23.6661 3.10771 22.4356 1.9124 21.2343 0.675781C21.1992 3.23036 21.1874 5.78505 21.1992 8.33984C21.129 5.72683 21.1055 3.10182 21.1288 0.464844Z" fill="#7AC8A3"/>
<path fill-rule="evenodd" clip-rule="evenodd" d="M24.9258 4.26172C26.9414 6.23047 28.9336 8.22263 30.9024 10.2383C28.3362 10.3085 25.7581 10.3319 23.168 10.3086C23.0743 10.3086 22.9805 10.3086 22.8867 10.3086C21.9306 9.99043 21.3681 9.3342 21.1992 8.33984C21.1875 5.78505 21.1992 3.23036 21.2344 0.675781C22.4357 1.9124 23.6661 3.10771 24.9258 4.26172Z" fill="#8DD0B0"/>
<path fill-rule="evenodd" clip-rule="evenodd" d="M22.8867 10.3086C22.9804 10.3086 23.0742 10.3086 23.168 10.3086C25.7576 10.3788 28.3591 10.4022 30.9727 10.3789C30.9727 12.5352 30.9727 14.6914 30.9727 16.8477C28.2553 14.6925 25.5599 12.5128 22.8867 10.3086Z" fill="#1C8653"/>
<path fill-rule="evenodd" clip-rule="evenodd" d="M30.9023 10.2383C30.9613 10.2623 30.9847 10.3092 30.9727 10.3789C28.3591 10.4022 25.7576 10.3788 23.168 10.3086C25.7581 10.3319 28.3362 10.3085 30.9023 10.2383Z" fill="#58AD84"/>
<path fill-rule="evenodd" clip-rule="evenodd" d="M11.9883 18.395C15.9493 18.3833 19.9103 18.395 23.8711 18.4302C24.0879 18.4855 24.2402 18.6143 24.3281 18.8169C24.375 22.3325 24.375 25.8482 24.3281 29.3638C24.2241 29.5862 24.0483 29.7151 23.8008 29.7505C19.834 29.8202 15.8731 29.7968 11.918 29.6802C11.7859 29.5717 11.6805 29.4428 11.6016 29.2935C11.5547 25.8013 11.5547 22.3091 11.6016 18.8169C11.6972 18.6395 11.8261 18.4989 11.9883 18.395Z" fill="#FDFEFD"/>
<path fill-rule="evenodd" clip-rule="evenodd" d="M13.0432 19.8711C13.0432 20.457 13.0432 21.043 13.0432 21.6289C14.426 21.6289 15.8088 21.6289 17.1916 21.6289C17.1916 21.043 17.1916 20.457 17.1916 19.8711C17.2614 20.4676 17.2848 21.077 17.2619 21.6992C15.8323 21.6992 14.4025 21.6992 12.9729 21.6992C12.9499 21.077 12.9734 20.4676 13.0432 19.8711Z" fill="#91D2B2"/>
<path fill-rule="evenodd" clip-rule="evenodd" d="M13.043 19.8711C14.4258 19.8711 15.8086 19.8711 17.1914 19.8711C17.1914 20.457 17.1914 21.043 17.1914 21.6289C15.8086 21.6289 14.4258 21.6289 13.043 21.6289C13.043 21.043 13.043 20.457 13.043 19.8711Z" fill="#23A565"/>
<path fill-rule="evenodd" clip-rule="evenodd" d="M18.7385 19.8711C18.7385 20.457 18.7385 21.043 18.7385 21.6289C20.1213 21.6289 21.5041 21.6289 22.8869 21.6289C22.8869 21.043 22.8869 20.457 22.8869 19.8711C22.9567 20.4676 22.9802 21.077 22.9572 21.6992C21.5276 21.6992 20.0978 21.6992 18.6682 21.6992C18.6452 21.077 18.6687 20.4676 18.7385 19.8711Z" fill="#91D2B2"/>
<path fill-rule="evenodd" clip-rule="evenodd" d="M18.7383 19.8711C20.1211 19.8711 21.5039 19.8711 22.8867 19.8711C22.8867 20.457 22.8867 21.043 22.8867 21.6289C21.5039 21.6289 20.1211 21.6289 18.7383 21.6289C18.7383 21.043 18.7383 20.457 18.7383 19.8711Z" fill="#23A565"/>
<path fill-rule="evenodd" clip-rule="evenodd" d="M13.043 23.1758C14.4492 23.1758 15.8555 23.1758 17.2617 23.1758C17.2617 23.7852 17.2617 24.3945 17.2617 25.0039C15.8555 25.0039 14.4492 25.0039 13.043 25.0039C13.043 24.3945 13.043 23.7852 13.043 23.1758Z" fill="#26A567"/>
<path fill-rule="evenodd" clip-rule="evenodd" d="M18.668 23.1758C20.0742 23.1758 21.4805 23.1758 22.8867 23.1758C22.8867 23.7852 22.8867 24.3945 22.8867 25.0039C21.4805 25.0039 20.0742 25.0039 18.668 25.0039C18.668 24.3945 18.668 23.7852 18.668 23.1758Z" fill="#26A567"/>
<path fill-rule="evenodd" clip-rule="evenodd" d="M17.1916 28.3086C17.1916 27.7227 17.1916 27.1367 17.1916 26.5508C15.8088 26.5508 14.426 26.5508 13.0432 26.5508C13.0432 27.1367 13.0432 27.7227 13.0432 28.3086C12.9734 27.7121 12.9499 27.1027 12.9729 26.4805C14.4025 26.4805 15.8323 26.4805 17.2619 26.4805C17.2848 27.1027 17.2614 27.7121 17.1916 28.3086Z" fill="#7FCAA6"/>
<path fill-rule="evenodd" clip-rule="evenodd" d="M22.8869 28.3086C22.8869 27.7227 22.8869 27.1367 22.8869 26.5508C21.5041 26.5508 20.1213 26.5508 18.7385 26.5508C18.7385 27.1367 18.7385 27.7227 18.7385 28.3086C18.6687 27.7121 18.6452 27.1027 18.6682 26.4805C20.0978 26.4805 21.5276 26.4805 22.9572 26.4805C22.9802 27.1027 22.9567 27.7121 22.8869 28.3086Z" fill="#7FCAA6"/>
<path fill-rule="evenodd" clip-rule="evenodd" d="M17.1914 28.3086C15.8086 28.3086 14.4258 28.3086 13.043 28.3086C13.043 27.7227 13.043 27.1367 13.043 26.5508C14.4258 26.5508 15.8086 26.5508 17.1914 26.5508C17.1914 27.1367 17.1914 27.7227 17.1914 28.3086Z" fill="#25A567"/>
<path fill-rule="evenodd" clip-rule="evenodd" d="M22.8867 28.3086C21.5039 28.3086 20.1211 28.3086 18.7383 28.3086C18.7383 27.7227 18.7383 27.1367 18.7383 26.5508C20.1211 26.5508 21.5039 26.5508 22.8867 26.5508C22.8867 27.1367 22.8867 27.7227 22.8867 28.3086Z" fill="#25A567"/>
</g>
</g>
<defs>
<clipPath id="clip0_30459_20068">
<rect width="36" height="36" fill="white" transform="translate(0 0.5)"/>
</clipPath>
<clipPath id="clip1_30459_20068">
<rect width="36" height="36" fill="white" transform="translate(0 0.5)"/>
</clipPath>
</defs>
</svg>
