<svg width="24" height="24" viewBox="0 0 24 24" fill="none" xmlns="http://www.w3.org/2000/svg">
<path d="M13.9692 11.0605C13.8327 11.197 13.6475 11.2737 13.4544 11.2737C13.2613 11.2737 13.0761 11.197 12.9395 11.0605C12.803 10.9239 12.7263 10.7387 12.7263 10.5456C12.7263 10.3525 12.803 10.1673 12.9395 10.0308L18.757 4.21326C18.8247 4.14565 18.9049 4.09201 18.9933 4.05542C19.0816 4.01883 19.1763 4 19.2719 4C19.3675 4 19.4622 4.01883 19.5505 4.05542C19.6389 4.09201 19.7191 4.14565 19.7867 4.21326C19.8544 4.28087 19.908 4.36113 19.9446 4.44947C19.9812 4.53781 20 4.63249 20 4.72811C20 4.82372 19.9812 4.91841 19.9446 5.00674C19.908 5.09508 19.8544 5.17535 19.7867 5.24296L13.9692 11.0605ZM5.24296 19.7867C5.17535 19.8544 5.09508 19.908 5.00674 19.9446C4.91841 19.9812 4.82372 20 4.72811 20C4.63249 20 4.53781 19.9812 4.44947 19.9446C4.36113 19.908 4.28087 19.8544 4.21326 19.7867C4.14565 19.7191 4.09201 19.6389 4.05542 19.5505C4.01883 19.4622 4 19.3675 4 19.2719C4 19.1763 4.01883 19.0816 4.05542 18.9933C4.09201 18.9049 4.14565 18.8247 4.21326 18.757L10.0308 12.9395C10.1673 12.803 10.3525 12.7263 10.5456 12.7263C10.7387 12.7263 10.9239 12.803 11.0605 12.9395C11.197 13.0761 11.2737 13.2613 11.2737 13.4544C11.2737 13.6475 11.197 13.8327 11.0605 13.9692L5.24296 19.7867Z" fill="white"/>
<path d="M4.72804 19.9998C4.53518 19.9998 4.35022 19.9232 4.21384 19.7868C4.07747 19.6504 4.00085 19.4655 4.00085 19.2726C4.00085 19.0797 4.07747 18.8948 4.21384 18.7584C4.35022 18.622 4.53518 18.5454 4.72804 18.5454H10.5456C10.7384 18.5454 10.9234 18.622 11.0598 18.7584C11.1961 18.8948 11.2727 19.0797 11.2727 19.2726C11.2727 19.4655 11.1961 19.6504 11.0598 19.7868C10.9234 19.9232 10.7384 19.9998 10.5456 19.9998H4.72804Z" fill="white"/>
<path d="M5.45499 19.2715C5.45499 19.4643 5.37837 19.6493 5.242 19.7857C5.10563 19.922 4.92066 19.9987 4.7278 19.9987C4.53494 19.9987 4.34997 19.922 4.2136 19.7857C4.07722 19.6493 4.00061 19.4643 4.00061 19.2715V13.4539C4.00061 13.2611 4.07722 13.0761 4.2136 12.9397C4.34997 12.8034 4.53494 12.7268 4.7278 12.7268C4.92066 12.7268 5.10563 12.8034 5.242 12.9397C5.37837 13.0761 5.45499 13.2611 5.45499 13.4539V19.2715ZM19.9988 10.5452C19.9988 10.7381 19.9222 10.923 19.7858 11.0594C19.6494 11.1958 19.4644 11.2724 19.2716 11.2724C19.0787 11.2724 18.8938 11.1958 18.7574 11.0594C18.621 10.923 18.5444 10.7381 18.5444 10.5452V4.72768C18.5444 4.53481 18.621 4.34985 18.7574 4.21348C18.8938 4.0771 19.0787 4.00049 19.2716 4.00049C19.4644 4.00049 19.6494 4.0771 19.7858 4.21348C19.9222 4.34985 19.9988 4.53481 19.9988 4.72768V10.5452Z" fill="white"/>
<path d="M13.4545 5.45584C13.2616 5.45584 13.0767 5.37923 12.9403 5.24285C12.8039 5.10648 12.7273 4.92152 12.7273 4.72865C12.7273 4.53579 12.8039 4.35083 12.9403 4.21445C13.0767 4.07808 13.2616 4.00146 13.4545 4.00146H19.272C19.4649 4.00146 19.6498 4.07808 19.7862 4.21445C19.9226 4.35083 19.9992 4.53579 19.9992 4.72865C19.9992 4.92152 19.9226 5.10648 19.7862 5.24285C19.6498 5.37923 19.4649 5.45584 19.272 5.45584H13.4545Z" fill="white"/>
</svg>
