<svg width="20" height="20" viewBox="0 0 20 20" fill="none" xmlns="http://www.w3.org/2000/svg">
<g clip-path="url(#clip0_8672_40385)">
<path opacity="0.962" d="M9.9224 4.24634L9.89871 4.24539L9.87502 4.24668C8.59032 4.31698 7.3653 4.64061 6.20387 5.21585L6.20379 5.2157L6.19233 5.22175C4.10157 6.32565 2.31606 7.80928 0.838915 9.66937L0.588095 9.98521L0.843705 10.2972C2.21112 11.9662 3.8177 13.3519 5.6617 14.4526L5.66163 14.4527L5.67213 14.4587C8.56732 16.0935 11.4902 16.0794 14.371 14.4173L14.371 14.4174L14.3809 14.4114C16.1885 13.3121 17.7677 11.9403 19.1168 10.2977L19.3754 9.9829L19.1194 9.66607C17.8496 8.09464 16.3626 6.77495 14.6599 5.70886L14.6597 5.70876C13.212 4.80317 11.6301 4.3149 9.9224 4.24634ZM19.3461 9.47812L19.4805 9.74678V9.74808V9.74937V9.75067V9.75197V9.75326V9.75456V9.75586V9.75716V9.75845V9.75975V9.76105V9.76234V9.76364V9.76494V9.76623V9.76753V9.76883V9.77013V9.77142V9.77272V9.77402V9.77531V9.77661V9.77791V9.7792V9.7805V9.7818V9.7831V9.78439V9.78569V9.78699V9.78828V9.78958V9.79088V9.79217V9.79347V9.79477V9.79607V9.79736V9.79866V9.79996V9.80125V9.80255V9.80385V9.80514V9.80644V9.80774V9.80904V9.81033V9.81163V9.81293V9.81422V9.81552V9.81682V9.81811V9.81941V9.82071V9.822V9.8233V9.8246V9.8259V9.82719V9.82849V9.82979V9.83108V9.83238V9.83368V9.83497V9.83627V9.83757V9.83887V9.84016V9.84146V9.84276V9.84405V9.84535V9.84665V9.84794V9.84924V9.85054V9.85184V9.85313V9.85443V9.85573V9.85702V9.85832V9.85962V9.86091V9.86221V9.86351V9.8648V9.8661V9.8674V9.8687V9.86999V9.87129V9.87259V9.87388V9.87518V9.87648V9.87777V9.87907V9.88037V9.88167V9.88296V9.88426V9.88556V9.88685V9.88815V9.88945V9.89074V9.89204V9.89334V9.89464V9.89593V9.89723V9.89853V9.89982V9.90112V9.90242V9.90371V9.90501V9.90631V9.9076V9.9089V9.9102V9.9115V9.91279V9.91409V9.91539V9.91668V9.91798V9.91928V9.92057V9.92187V9.92317V9.92447V9.92576V9.92706V9.92836V9.92965V9.93095V9.93225V9.93354V9.93484V9.93614V9.93743V9.93873V9.94003V9.94133V9.94262V9.94392V9.94522V9.94651V9.94781V9.94911V9.9504V9.9517V9.953V9.9543V9.95559V9.95689V9.95819V9.95948V9.96078V9.96208V9.96337V9.96467V9.96597V9.96727V9.96856V9.96986V9.97116V9.97245V9.97375V9.97505V9.97634V9.97764V9.97894V9.98023V9.98153V9.98283V9.98413V9.98542V9.98672V9.98802V9.98931V9.99061V9.99191V9.9932V9.9945V9.9958V9.9971V9.99839V9.99969V10.001V10.0023V10.0036V10.0049V10.0062V10.0075V10.0088V10.0101V10.0114V10.0127V10.014V10.0153V10.0165V10.0178V10.0191V10.0204V10.0217V10.023V10.0243V10.0256V10.0269V10.0282V10.0295V10.0308V10.0321V10.0334V10.0347V10.036V10.0373V10.0386V10.0399V10.0412V10.0425V10.0438V10.0451V10.0464V10.0477V10.049V10.0503V10.0516V10.0529V10.0542V10.0555V10.0568V10.0581V10.0593V10.0606V10.0619V10.0632V10.0645V10.0658V10.0671V10.0684V10.0697V10.071V10.0723V10.0736V10.0749V10.0762V10.0775V10.0788V10.0801V10.0814V10.0827V10.084V10.0853V10.0866V10.0879V10.0892V10.0905V10.0918V10.0931V10.0944V10.0957V10.097V10.0983V10.0996V10.1009V10.1021V10.1034V10.1047V10.106V10.1073V10.1086V10.1099V10.1112V10.1125V10.1138V10.1151V10.1164V10.1177V10.119V10.1203V10.1216V10.1229V10.1242V10.1255V10.1268V10.1281V10.1294V10.1307V10.132V10.1333V10.1346V10.1359V10.1372V10.1385V10.1398V10.1411V10.1424V10.1437V10.1449V10.1462V10.1475V10.1488V10.1501V10.1514V10.1527V10.154V10.1553V10.1566V10.1579V10.1592V10.1605V10.1618V10.1631V10.1644V10.1657V10.167V10.1683V10.1696V10.1709V10.1722V10.1735V10.1748V10.1761V10.1774V10.1787V10.18V10.1813V10.1826V10.1839V10.1852V10.1865V10.1878V10.189V10.1903V10.1916V10.1929V10.1942V10.1955V10.1968V10.1981V10.1994V10.2007V10.2018C19.4229 10.3445 19.3474 10.481 19.2529 10.6116C17.7366 12.4557 15.9258 13.925 13.8175 15.0223C11.2519 16.2788 8.70956 16.2788 6.14341 15.0223C4.03633 13.9256 2.22636 12.4574 0.710557 10.6147C0.621962 10.4881 0.545386 10.3575 0.480469 10.2228V10.222V10.2206V10.2193V10.2179V10.2165V10.2151V10.2138V10.2124V10.211V10.2097V10.2083V10.2069V10.2055V10.2042V10.2028V10.2014V10.2V10.1987V10.1973V10.1959V10.1945V10.1932V10.1918V10.1904V10.1891V10.1877V10.1863V10.1849V10.1836V10.1822V10.1808V10.1794V10.1781V10.1767V10.1753V10.1739V10.1726V10.1712V10.1698V10.1685V10.1671V10.1657V10.1643V10.163V10.1616V10.1602V10.1588V10.1575V10.1561V10.1547V10.1533V10.152V10.1506V10.1492V10.1479V10.1465V10.1451V10.1437V10.1424V10.141V10.1396V10.1382V10.1369V10.1355V10.1341V10.1327V10.1314V10.13V10.1286V10.1273V10.1259V10.1245V10.1231V10.1218V10.1204V10.119V10.1176V10.1163V10.1149V10.1135V10.1121V10.1108V10.1094V10.108V10.1067V10.1053V10.1039V10.1025V10.1012V10.0998V10.0984V10.097V10.0957V10.0943V10.0929V10.0915V10.0902V10.0888V10.0874V10.0861V10.0847V10.0833V10.0819V10.0806V10.0792V10.0778V10.0764V10.0751V10.0737V10.0723V10.0709V10.0696V10.0682V10.0668V10.0655V10.0641V10.0627V10.0613V10.06V10.0586V10.0572V10.0558V10.0545V10.0531V10.0517V10.0503V10.049V10.0476V10.0462V10.0449V10.0435V10.0421V10.0407V10.0394V10.038V10.0366V10.0352V10.0339V10.0325V10.0311V10.0297V10.0284V10.027V10.0256V10.0243V10.0229V10.0215V10.0201V10.0188V10.0174V10.016V10.0146V10.0133V10.0119V10.0105V10.0092V10.0078V10.0064V10.005V10.0037V10.0023V10.0009V9.99954V9.99816V9.99679V9.99542V9.99404V9.99267V9.9913V9.98992V9.98855V9.98718V9.9858V9.98443V9.98306V9.98168V9.98031V9.97894V9.97756V9.97619V9.97482V9.97344V9.97207V9.9707V9.96933V9.96795V9.96658V9.96521V9.96383V9.96246V9.96109V9.95971V9.95834V9.95697V9.95559V9.95422V9.95285V9.95147V9.9501V9.94873V9.94735V9.94598V9.94461V9.94323V9.94186V9.94049V9.93911V9.93774V9.93637V9.93499V9.93362V9.93225V9.93087V9.9295V9.92813V9.92675V9.92538V9.92401V9.92263V9.92126V9.91989V9.91851V9.91714V9.91577V9.91439V9.91302V9.91165V9.91027V9.9089V9.90753V9.90615V9.90478V9.90341V9.90203V9.90066V9.89929V9.89791V9.89654V9.89517V9.89379V9.89242V9.89105V9.88967V9.8883V9.88693V9.88555V9.88418V9.88281V9.88143V9.88006V9.87869V9.87731V9.87594V9.87457V9.87319V9.87182V9.87045V9.86907V9.8677V9.86633V9.86495V9.86358V9.86221V9.86084V9.85946V9.85809V9.85672V9.85534V9.85397V9.8526V9.85122V9.84985V9.84848V9.8471V9.84573V9.84436V9.84298V9.84161V9.84024V9.83886V9.83749V9.83612V9.83474V9.83337V9.832V9.83062V9.82925V9.82788V9.8265V9.82513V9.82376V9.82238V9.82101V9.81964V9.81826V9.81689V9.81552V9.81414V9.81277V9.8114V9.81002V9.80865V9.80728V9.8059V9.80453V9.80316V9.80178V9.80041V9.79904V9.79766V9.79629V9.79492V9.79354V9.79217V9.7908V9.78942V9.78805V9.78668V9.7853V9.78393V9.78256V9.78118V9.77981V9.77844V9.77706V9.77569V9.77432V9.77294V9.77157V9.7702V9.76882V9.76745V9.76608V9.7647V9.76333V9.76196V9.76058V9.75921V9.75784V9.75646V9.75509V9.75372V9.75235V9.75097V9.7496V9.74823V9.74685V9.74678L0.614865 9.47799C3.81679 5.75911 6.93803 3.99609 9.97771 3.99609C13.0175 3.99609 16.1405 5.75918 19.3461 9.47812Z" fill="currentColor" stroke="currentColor"/>
<path opacity="0.963" fill-rule="evenodd" clip-rule="evenodd" d="M9.62827 5.64502C11.6222 5.59049 13.061 6.44986 13.9447 8.22314C14.6753 10.1897 14.2782 11.8889 12.7533 13.3208C11.2039 14.4695 9.56323 14.6127 7.83139 13.7505C6.19413 12.7088 5.48448 11.2179 5.70249 9.27783C6.06221 7.53791 7.08432 6.38557 8.76889 5.8208C9.05725 5.74361 9.34374 5.68502 9.62827 5.64502ZM9.51108 6.93408C8.44827 7.15666 7.67354 7.7556 7.18686 8.73096C6.60948 10.3843 7.04569 11.6929 8.49546 12.6567C9.72956 13.2501 10.8884 13.1329 11.972 12.3052C13.1631 11.1148 13.3519 9.78014 12.5384 8.30127C11.7962 7.26986 10.7871 6.81412 9.51108 6.93408Z" fill="currentColor"/>
</g>
<defs>
<clipPath id="clip0_8672_40385">
<rect width="20" height="20" fill="currentColor"/>
</clipPath>
</defs>
</svg>
