<svg width="24" height="24" viewBox="0 0 24 24" fill="none" xmlns="http://www.w3.org/2000/svg">
<path fill-rule="evenodd" clip-rule="evenodd" d="M11.9998 5C8.89024 5 6.1646 6.67673 4.29057 8.2301C3.33937 9.01854 2.57208 9.8047 2.04221 10.3937C1.7767 10.6888 1.56927 10.9362 1.42664 11.1119C1.35529 11.1997 1.30004 11.2698 1.26173 11.3191C1.24258 11.3438 1.22765 11.3633 1.21705 11.3772L1.20441 11.3939L1.20055 11.399L1.19874 11.4014C0.93402 11.7562 0.933622 12.2433 1.19834 12.598L1.9998 12C1.19834 12.598 1.19903 12.599 1.19924 12.5992L1.20055 12.601L1.20441 12.6061L1.21705 12.6228C1.22765 12.6367 1.24258 12.6562 1.26173 12.6809C1.30004 12.7302 1.35529 12.8003 1.42664 12.8881C1.56927 13.0638 1.7767 13.3112 2.04221 13.6063C2.57208 14.1953 3.33937 14.9815 4.29057 15.7699C6.1646 17.3233 8.89024 19 11.9998 19C15.1094 19 17.835 17.3233 19.709 15.7699C20.6602 14.9815 21.4275 14.1953 21.9574 13.6063C22.2229 13.3112 22.4303 13.0638 22.573 12.8881C22.6443 12.8003 22.6996 12.7302 22.7379 12.6809C22.757 12.6562 22.772 12.6367 22.7826 12.6228L22.7952 12.6061L22.7991 12.601L22.8009 12.5986C23.0656 12.2438 23.066 11.7567 22.8013 11.402L21.9998 12C22.8013 11.402 22.8006 11.401 22.8004 11.4008L22.7991 11.399L22.7952 11.3939L22.7826 11.3772C22.772 11.3633 22.757 11.3438 22.7379 11.3191C22.6996 11.2698 22.6443 11.1997 22.573 11.1119C22.4303 10.9362 22.2229 10.6888 21.9574 10.3937C21.4275 9.8047 20.6602 9.01854 19.709 8.2301C17.835 6.67673 15.1094 5 11.9998 5ZM21.9998 12L22.8009 12.5986C22.8011 12.5983 22.8013 12.598 21.9998 12ZM1.9998 12L1.19874 11.4014C1.19853 11.4017 1.19834 11.402 1.9998 12ZM3.52909 12.2687C3.44289 12.1729 3.36376 12.083 3.292 12C3.36376 11.917 3.44289 11.8271 3.52909 11.7313C4.01128 11.1953 4.70846 10.4815 5.5669 9.7699C7.31215 8.32327 9.58651 7 11.9998 7C14.4131 7 16.6875 8.32327 18.4327 9.7699C19.2911 10.4815 19.9883 11.1953 20.4705 11.7313C20.5567 11.8271 20.6358 11.917 20.7076 12C20.6358 12.083 20.5567 12.1729 20.4705 12.2687C19.9883 12.8047 19.2911 13.5185 18.4327 14.2301C16.6875 15.6767 14.4131 17 11.9998 17C9.58651 17 7.31215 15.6767 5.5669 14.2301C4.70846 13.5185 4.01128 12.8047 3.52909 12.2687ZM12 8.5C10.067 8.5 8.5 10.067 8.5 12C8.5 13.933 10.067 15.5 12 15.5C13.933 15.5 15.5 13.933 15.5 12C15.5 10.067 13.933 8.5 12 8.5ZM10.5 12C10.5 11.1716 11.1716 10.5 12 10.5C12.8284 10.5 13.5 11.1716 13.5 12C13.5 12.8284 12.8284 13.5 12 13.5C11.1716 13.5 10.5 12.8284 10.5 12Z" fill="#4F4F4F"/>
</svg>
