<svg width="24" height="24" viewBox="0 0 24 24" fill="none" xmlns="http://www.w3.org/2000/svg">
<path fill-rule="evenodd" clip-rule="evenodd" d="M3.70711 2.29289C3.31658 1.90237 2.68342 1.90237 2.29289 2.29289C1.90237 2.68342 1.90237 3.31658 2.29289 3.70711L8.92081 10.335C8.65263 10.8302 8.5 11.3978 8.5 11.9999C8.5 13.9329 10.067 15.4999 12 15.4999C12.6023 15.4999 13.1697 15.3472 13.6649 15.0791L20.2929 21.7071C20.6834 22.0976 21.3166 22.0976 21.7071 21.7071C22.0976 21.3166 22.0976 20.6834 21.7071 20.2929L3.70711 2.29289ZM12.0834 13.4976L10.5023 11.9165C10.5008 11.9441 10.5 11.9719 10.5 11.9999C10.5 12.8283 11.1716 13.4999 12 13.4999C12.028 13.4999 12.0558 13.4991 12.0834 13.4976ZM11.9999 7C11.4101 7 10.8277 7.0788 10.2567 7.22054C9.72072 7.35361 9.17833 7.02695 9.04527 6.49093C8.9122 5.95492 9.23886 5.41252 9.77487 5.27946C10.4865 5.1028 11.2311 5 11.9999 5C15.1095 5 17.8351 6.67673 19.7091 8.2301C20.6603 9.01854 21.4276 9.8047 21.9575 10.3937C22.223 10.6888 22.4304 10.9362 22.5731 11.1119C22.6444 11.1997 22.6997 11.2698 22.738 11.3191C22.7488 11.3331 22.7584 11.3454 22.7665 11.356C22.7727 11.3641 22.7781 11.3712 22.7827 11.3772L22.7953 11.3939L22.7992 11.399L22.8005 11.4008C22.8007 11.401 22.8014 11.402 21.9999 12L22.8012 12.5983L22.8005 12.5993L22.7992 12.601L22.7953 12.6061L22.7827 12.6228C22.7721 12.6367 22.7571 12.6562 22.738 12.6809C22.6997 12.7302 22.6444 12.8003 22.5731 12.8881C22.4304 13.0638 22.223 13.3112 21.9575 13.6063C21.4276 14.1953 20.6603 14.9815 19.7091 15.7699C19.2839 16.1223 18.6535 16.0634 18.3011 15.6382C17.9486 15.213 18.0076 14.5825 18.4328 14.2301C19.2912 13.5185 19.9884 12.8047 20.4706 12.2687C20.5568 12.1729 20.636 12.083 20.7077 12C20.636 11.917 20.5568 11.8271 20.4706 11.7313C19.9884 11.1953 19.2913 10.4815 18.4328 9.7699C16.6876 8.32327 14.4132 7 11.9999 7ZM22.8012 12.5983C23.0659 12.2435 23.0661 11.7567 22.8014 11.402L21.9999 12C22.8014 12.598 22.8013 12.5982 22.8012 12.5983ZM5.69874 8.36183C6.05119 8.78704 5.99221 9.41745 5.567 9.7699C4.70856 10.4815 4.01138 11.1953 3.5292 11.7313C3.443 11.8271 3.36386 11.917 3.2921 12C3.36386 12.083 3.443 12.1729 3.5292 12.2687C4.01138 12.8047 4.70856 13.5185 5.567 14.2301C7.31225 15.6767 9.58662 17 11.9999 17C12.5946 17 13.1818 16.9199 13.7572 16.7759C14.293 16.6419 14.836 16.9676 14.97 17.5034C15.104 18.0391 14.7784 18.5821 14.2426 18.7162C13.5257 18.8955 12.7751 19 11.9999 19C8.89035 19 6.16471 17.3233 4.29067 15.7699C3.33947 14.9815 2.57218 14.1953 2.04232 13.6063C1.7768 13.3112 1.56938 13.0638 1.42674 12.8881C1.35539 12.8003 1.30014 12.7302 1.26184 12.6809C1.24268 12.6562 1.22775 12.6367 1.21716 12.6228L1.20452 12.6061L1.20065 12.601L1.19934 12.5992C1.19914 12.599 1.19844 12.598 1.99991 12L1.19863 11.4017L1.20066 11.399L1.20452 11.3939L1.21716 11.3772C1.22775 11.3633 1.24268 11.3438 1.26184 11.3191C1.30014 11.2698 1.35539 11.1997 1.42675 11.1119C1.56938 10.9362 1.7768 10.6888 2.04232 10.3937C2.57218 9.8047 3.33947 9.01855 4.29067 8.2301C4.71588 7.87765 5.34629 7.93663 5.69874 8.36183ZM1.19863 11.4017C0.933914 11.7565 0.933728 12.2433 1.19844 12.598L1.99991 12C1.19845 11.402 1.19854 11.4018 1.19863 11.4017Z" fill="#828282"/>
</svg>
