<svg width="42" height="42" viewBox="0 0 42 42" fill="none" xmlns="http://www.w3.org/2000/svg">
<rect width="42" height="42" rx="8" fill="#9B51E0"/>
<path d="M30.3926 26.8589C30.0041 26.4764 25.2963 24.6554 24.4421 24.3119C23.5923 23.9744 23.2533 23.0391 23.2533 23.0391C23.2533 23.0391 22.8708 23.2506 22.8708 22.6566C22.8708 22.0619 23.2533 23.0391 23.6358 20.7456C23.6358 20.7456 24.6971 20.4479 24.4863 17.9856H24.2313C24.2313 17.9856 24.8688 15.3531 24.2313 14.4621C23.5916 13.5711 23.3411 12.9771 21.9363 12.5511C20.5338 12.1259 21.0438 12.2106 20.0253 12.2541C19.0053 12.2969 18.1563 12.8489 18.1563 13.1451C18.1563 13.1451 17.5188 13.1879 17.2653 13.4429C17.0103 13.6979 16.5858 14.8859 16.5858 15.1829C16.5858 15.4799 16.7981 17.4779 17.0103 17.9009L16.7576 17.9834C16.5453 20.4464 17.6066 20.7449 17.6066 20.7449C17.9891 23.0384 18.3716 22.0611 18.3716 22.6559C18.3716 23.2499 17.9891 23.0384 17.9891 23.0384C17.9891 23.0384 17.6493 23.9729 16.8003 24.3111C15.9513 24.6509 11.2383 26.4764 10.8551 26.8581C10.4726 27.2481 10.5153 29.0301 10.5153 29.0301H30.7308C30.7308 29.0301 30.7781 27.2466 30.3911 26.8574L30.3926 26.8589ZM25.6413 28.5464H22.2198V27.6089H25.6413V28.5464Z" fill="white"/>
</svg>
