<svg
      width="20"
      height="19"
      viewBox="0 0 20 19"
      fill="none"
      xmlns="http://www.w3.org/2000/svg">
      <path
        d="M4.411 14.25H16.75C17.1478 14.25 17.5294 14.092 17.8107 13.8107C18.092 13.5294 18.25 13.1478 18.25 12.75V3C18.25 2.60218 18.092 2.22064 17.8107 1.93934C17.5294 1.65804 17.1478 1.5 16.75 1.5H3.25C2.85218 1.5 2.47064 1.65804 2.18934 1.93934C1.90804 2.22064 1.75 2.60218 1.75 3V16.38L4.411 14.25ZM4.9375 15.75L1.468 18.525C1.35772 18.6131 1.22483 18.6682 1.0846 18.6841C0.944377 18.7001 0.802504 18.6761 0.675289 18.615C0.548074 18.5539 0.440679 18.4581 0.365448 18.3387C0.290216 18.2193 0.250201 18.0811 0.25 17.94V3C0.25 2.20435 0.56607 1.44129 1.12868 0.87868C1.69129 0.31607 2.45435 0 3.25 0H16.75C17.5456 0 18.3087 0.31607 18.8713 0.87868C19.4339 1.44129 19.75 2.20435 19.75 3V12.75C19.75 13.5456 19.4339 14.3087 18.8713 14.8713C18.3087 15.4339 17.5456 15.75 16.75 15.75H4.9375Z"
        fill="currentColor"
      />
    </svg>