 <svg
      width="24"
      height="25"
      viewBox="0 0 24 25"
      fill="none"
      xmlns="http://www.w3.org/2000/svg">
      <path
        opacity="0.968"
        fillRule="evenodd"
        clipRule="evenodd"
        d="M2.78906 5.44532C8.91408 5.43749 15.0391 5.44532 21.1641 5.46876C21.708 5.58313 21.9893 5.91904 22.0078 6.47657C21.9886 7.03466 21.7073 7.37062 21.1641 7.48438C15.039 7.51565 8.91408 7.51565 2.78906 7.48438C2.24513 7.37001 1.96388 7.0341 1.94531 6.47657C1.97356 5.91773 2.25481 5.57399 2.78906 5.44532Z"
        fill='currentColor'
      />
      <path
        opacity="0.967"
        fillRule="evenodd"
        clipRule="evenodd"
        d="M5.78906 11.4453C9.91411 11.4375 14.0391 11.4453 18.1641 11.4688C18.708 11.5831 18.9893 11.919 19.0078 12.4766C18.9886 13.0347 18.7073 13.3706 18.1641 13.4844C14.0391 13.5156 9.91406 13.5156 5.78906 13.4844C5.24512 13.37 4.96387 13.0341 4.94531 12.4766C4.97358 11.9177 5.25483 11.574 5.78906 11.4453Z"
        fill='currentColor'
      />
      <path
        opacity="0.965"
        fillRule="evenodd"
        clipRule="evenodd"
        d="M8.78906 17.4453C10.9141 17.4375 13.0391 17.4453 15.1641 17.4688C15.8028 17.6127 16.0762 18.0111 15.9844 18.6641C15.8985 19.125 15.625 19.3985 15.1641 19.4844C13.0391 19.5156 10.914 19.5156 8.78906 19.4844C8.24512 19.37 7.96387 19.0341 7.94531 18.4766C7.97358 17.9177 8.25483 17.574 8.78906 17.4453Z"
        fill='currentColor'
      />
    </svg>