<svg width="20" height="20" viewBox="0 0 20 20" fill="none" xmlns="http://www.w3.org/2000/svg">
<path fill-rule="evenodd" clip-rule="evenodd" d="M9.33834 3.74157C10.0372 4.16083 10.8185 4.42393 11.6286 4.51283C12.4388 4.60172 13.2585 4.5143 14.0317 4.25657L15.3483 3.81741L14.2583 7.09157C14.1649 7.37191 14.1737 7.67631 14.2833 7.95074L15.5658 11.1557L13.5058 11.8424C12.9608 12.024 12.383 12.0855 11.8119 12.0228C11.2409 11.9601 10.6901 11.7746 10.1975 11.4791C9.42042 11.0126 8.54253 10.74 7.63793 10.6842C6.73332 10.6283 5.82857 10.7909 5.00001 11.1582V4.15157C5.00011 4.06038 5.02557 3.97101 5.07354 3.89345C5.12152 3.8159 5.19012 3.75321 5.27168 3.71241C6.57751 3.05991 8.04918 2.96824 9.33834 3.74157ZM3.33334 5.83324V4.15157C3.33334 3.33491 3.79501 2.58741 4.52584 2.22157C6.33918 1.31491 8.42084 1.24741 10.1958 2.31241C10.6885 2.60795 11.2392 2.79344 11.8102 2.85616C12.3813 2.91887 12.9591 2.85733 13.5042 2.67574L16.245 1.76241C16.4064 1.70879 16.5795 1.7011 16.7449 1.74022C16.9104 1.77933 17.0617 1.8637 17.182 1.98389C17.3023 2.10408 17.3868 2.25535 17.426 2.4208C17.4652 2.58624 17.4577 2.75934 17.4042 2.92074L15.8875 7.47407L17.4075 11.2749C17.4539 11.3909 17.4761 11.5151 17.4728 11.6399C17.4694 11.7647 17.4406 11.8876 17.3881 12.0009C17.3356 12.1142 17.2605 12.2156 17.1674 12.2988C17.0743 12.382 16.9651 12.4454 16.8467 12.4849L14.0317 13.4232C13.2585 13.681 12.4388 13.7684 11.6286 13.6795C10.8185 13.5906 10.0372 13.3275 9.33834 12.9082C8.76376 12.5634 8.11146 12.3691 7.44184 12.3433C6.77222 12.3175 6.10691 12.4611 5.50751 12.7607L5.00001 13.0149V17.4999C5.00001 17.7209 4.91221 17.9329 4.75593 18.0892C4.59965 18.2454 4.38769 18.3332 4.16668 18.3332C3.94566 18.3332 3.7337 18.2454 3.57742 18.0892C3.42114 17.9329 3.33334 17.7209 3.33334 17.4999V5.83324Z" fill="#FF6A3D"/>
</svg>
