<svg width="22" height="18" viewBox="0 0 22 18" fill="none" xmlns="http://www.w3.org/2000/svg">
<path opacity="0.993" fill-rule="evenodd" clip-rule="evenodd" d="M2.25781 0.726563C4.50786 0.718749 6.75786 0.726563 9.00781 0.750001C9.49949 0.839485 9.90575 1.07386 10.2266 1.45313C13.3828 1.46875 16.5391 1.48438 19.6953 1.5C20.625 1.7422 21.2109 2.32814 21.4531 3.25781C21.4844 7.32033 21.4844 11.3828 21.4531 15.4453C21.2109 16.375 20.625 16.9609 19.6953 17.2031C13.8828 17.2344 8.07031 17.2344 2.25781 17.2031C1.32813 16.9609 0.74219 16.375 0.500001 15.4453C0.46875 11.1328 0.46875 6.82031 0.500001 2.50781C0.750726 1.57743 1.33666 0.983682 2.25781 0.726563ZM2.72656 2.22656C4.66414 2.21874 6.60163 2.22656 8.53906 2.25C8.81366 2.25295 9.0246 2.37014 9.17188 2.60156C9.48364 3.28786 9.84303 3.94411 10.25 4.57031C10.5843 4.89769 10.9828 5.10863 11.4453 5.20313C14.039 5.21874 16.6328 5.23439 19.2266 5.25C19.6563 5.3047 19.8984 5.54686 19.9531 5.97656C19.9844 8.97656 19.9844 11.9766 19.9531 14.9766C19.8984 15.4063 19.6563 15.6484 19.2266 15.7031C13.7266 15.7344 8.22655 15.7344 2.72656 15.7031C2.29687 15.6484 2.05469 15.4063 2 14.9766C1.96875 10.9766 1.96875 6.97655 2 2.97656C2.06309 2.54634 2.30527 2.29636 2.72656 2.22656ZM11.1172 2.97656C13.8204 2.96873 16.5235 2.97656 19.2266 3C19.7143 3.07266 19.9487 3.34608 19.9297 3.82031C19.854 3.78966 19.7758 3.76622 19.6953 3.75C17.1016 3.73439 14.5078 3.71873 11.9141 3.70313C11.4937 3.6345 11.2281 3.3923 11.1172 2.97656Z" fill="#2F80ED"/>
</svg>
