<svg width="32" height="32" viewBox="0 0 32 32" fill="none" xmlns="http://www.w3.org/2000/svg">
<path d="M26.667 8.00004H16.0003L14.1203 6.12004C13.6137 5.61337 12.9337 5.33337 12.227 5.33337H5.33366C3.86699 5.33337 2.68033 6.53337 2.68033 8.00004L2.66699 24C2.66699 25.4667 3.86699 26.6667 5.33366 26.6667H26.667C28.1337 26.6667 29.3337 25.4667 29.3337 24V10.6667C29.3337 9.20004 28.1337 8.00004 26.667 8.00004ZM24.0003 16H21.3337V18.6667H24.0003V21.3334H21.3337V24H18.667V21.3334H21.3337V18.6667H18.667V16H21.3337V13.3334H18.667V10.6667H21.3337V13.3334H24.0003V16Z" fill="#828282"/>
</svg>
