<svg width="48" height="48" viewBox="0 0 48 48" fill="none" xmlns="http://www.w3.org/2000/svg">
<path opacity="0.991" fill-rule="evenodd" clip-rule="evenodd" d="M25.2656 11.9531C17.4844 11.9531 9.70312 11.9531 1.92187 11.9531C1.90625 9.76538 1.92187 7.57791 1.96875 5.39063C2.22069 4.57633 2.76756 4.09196 3.60937 3.9375C9.17187 3.875 14.7344 3.875 20.2969 3.9375C20.935 4.04516 21.4194 4.37328 21.75 4.92188C22.9231 7.26812 24.095 9.61191 25.2656 11.9531Z" fill="#366CFB"/>
<path opacity="0.997" fill-rule="evenodd" clip-rule="evenodd" d="M1.92188 11.9531C9.70313 11.9531 17.4844 11.9531 25.2656 11.9531C31.7032 11.9375 38.1407 11.9531 44.5781 12C45.3177 12.2117 45.7708 12.6961 45.9375 13.4531C46 23.1406 46 32.8282 45.9375 42.5156C45.6856 43.33 45.1387 43.8144 44.2969 43.9688C30.7343 44.0313 17.1719 44.0313 3.60938 43.9688C2.76757 43.8144 2.2207 43.33 1.96875 42.5156C1.92188 32.3282 1.90625 22.1407 1.92188 11.9531Z" fill="#4294FE"/>
</svg>
