<svg width="24" height="24" viewBox="0 0 24 24" fill="none" xmlns="http://www.w3.org/2000/svg">
<g clip-path="url(#clip0_10454_72240)">
<path opacity="0.971" fill-rule="evenodd" clip-rule="evenodd" d="M11.082 1.98047C11.681 1.98047 12.28 1.98047 12.8789 1.98047C16.8192 2.4823 19.6121 4.53959 21.2578 8.15234C21.6288 9.1023 21.8696 10.0789 21.9805 11.082C21.9805 11.668 21.9805 12.2539 21.9805 12.8398C21.8446 14.2288 21.4475 15.5439 20.7891 16.7852C20.6505 17.0429 20.4877 17.2838 20.3008 17.5078C19.9183 17.7088 19.5537 17.6827 19.207 17.4297C19.0258 17.1923 18.9672 16.9254 19.0312 16.6289C20.5682 14.1038 20.8025 11.4605 19.7344 8.69922C18.471 5.9518 16.3551 4.27862 13.3867 3.67969C9.97176 3.24198 7.21785 4.3813 5.125 7.09766C3.41385 9.65953 3.11437 12.3809 4.22656 15.2617C5.25107 17.5623 6.95027 19.1313 9.32422 19.9688C11.975 20.7768 14.462 20.4252 16.7852 18.9141C17.2537 18.7805 17.5988 18.9303 17.8203 19.3633C17.9179 19.6565 17.8789 19.93 17.7031 20.1836C16.2441 21.219 14.623 21.818 12.8398 21.9805C12.2539 21.9805 11.668 21.9805 11.082 21.9805C7.60809 21.5713 4.98439 19.8656 3.21094 16.8633C2.53545 15.6119 2.1253 14.2838 1.98047 12.8789C1.98047 12.28 1.98047 11.681 1.98047 11.082C2.46487 7.2675 4.43102 4.5136 7.87891 2.82031C8.90984 2.38035 9.97754 2.1004 11.082 1.98047Z" fill="#828282"/>
<path opacity="0.979" fill-rule="evenodd" clip-rule="evenodd" d="M11.707 7.41015C12.0048 7.36909 12.2783 7.42769 12.5273 7.58593C13.5234 8.60808 14.5195 9.63019 15.5156 10.6523C15.7839 11.0862 15.7384 11.4833 15.3789 11.8437C15.031 12.0358 14.6924 12.0228 14.3633 11.8047C13.8501 11.2524 13.3228 10.7121 12.7812 10.1836C12.7682 12.1367 12.7552 14.0898 12.7422 16.043C12.4775 16.5436 12.0803 16.6803 11.5508 16.4531C11.3988 16.3517 11.2881 16.215 11.2187 16.043C11.2057 14.0898 11.1927 12.1367 11.1797 10.1836C10.5971 10.7793 10.0046 11.3587 9.40233 11.9219C8.74311 12.094 8.36553 11.8466 8.26951 11.1797C8.2658 10.9825 8.3244 10.8067 8.4453 10.6523C9.44139 9.63019 10.4375 8.60808 11.4336 7.58593C11.5272 7.5264 11.6184 7.4678 11.707 7.41015Z" fill="#828282"/>
</g>
<defs>
<clipPath id="clip0_10454_72240">
<rect width="20" height="20" fill="white" transform="translate(2 2)"/>
</clipPath>
</defs>
</svg>
