<svg width="42" height="42" viewBox="0 0 42 42" fill="none" xmlns="http://www.w3.org/2000/svg">
<rect width="42" height="42" rx="8" fill="#219653"/>
<path d="M27.1776 11.8114C27.2514 11.7684 27.3159 11.7112 27.3676 11.6433C27.4193 11.5753 27.457 11.4978 27.4788 11.4152C27.5005 11.3327 27.5057 11.2466 27.4942 11.162C27.4827 11.0774 27.4546 10.9959 27.4116 10.9222C27.3686 10.8484 27.3115 10.7839 27.2435 10.7322C27.1755 10.6805 27.098 10.6427 27.0155 10.621C26.9329 10.5993 26.8469 10.594 26.7623 10.6056C26.6777 10.6171 26.5962 10.6452 26.5224 10.6882L10.9224 19.7882C10.8243 19.8454 10.7429 19.9274 10.6863 20.026C10.6297 20.1245 10.6 20.2362 10.6 20.3498V28.1498C10.6 29.0117 10.9424 29.8384 11.5519 30.4479C12.1614 31.0574 12.988 31.3998 13.85 31.3998H28.15C29.012 31.3998 29.8386 31.0574 30.4481 30.4479C31.0576 29.8384 31.4 29.0117 31.4 28.1498V20.3498C31.4 20.1774 31.3315 20.0121 31.2096 19.8902C31.0877 19.7683 30.9224 19.6998 30.75 19.6998H30.1V16.4498C30.1 15.9326 29.8946 15.4366 29.5289 15.0709C29.1632 14.7052 28.6672 14.4998 28.15 14.4998H25.55C25.0328 14.4998 24.5368 14.7052 24.1711 15.0709C23.8054 15.4366 23.6 15.9326 23.6 16.4498V17.0998H20.35C19.8328 17.0998 19.3368 17.3052 18.9711 17.6709C18.6054 18.0366 18.4 18.5326 18.4 19.0498V19.6998H13.655L27.1776 11.8114ZM23.6 18.3998V19.6998H19.7V19.0498C19.7 18.8774 19.7685 18.7121 19.8904 18.5902C20.0123 18.4683 20.1776 18.3998 20.35 18.3998H23.6ZM24.9 19.6998V16.4498C24.9 16.2774 24.9685 16.1121 25.0904 15.9902C25.2123 15.8683 25.3776 15.7998 25.55 15.7998H28.15C28.3224 15.7998 28.4877 15.8683 28.6096 15.9902C28.7315 16.1121 28.8 16.2774 28.8 16.4498V19.6998H24.9Z" fill="white"/>
</svg>
