<svg width="42" height="42" viewBox="0 0 42 42" fill="none" xmlns="http://www.w3.org/2000/svg">
<rect width="42" height="42" rx="8" fill="#F2C94C"/>
<path d="M30 15H31V13H30V12H27V13H15V12H12V13H11V15H12V29H11V31H16V29H15V15H20V16H20.5V19.62C20 19.79 19.69 20.25 19.69 20.76C19.69 21.2 19.92 21.6 20.3 21.82V23H20.92C21.26 23 21.54 23.27 21.55 23.61C21.55 23.96 21.28 24.24 20.93 24.24C20.8208 24.2395 20.7137 24.2107 20.619 24.1564C20.5244 24.102 20.4454 24.024 20.39 23.93C20.3078 23.7881 20.1726 23.6847 20.0141 23.6425C19.8556 23.6003 19.6869 23.6228 19.545 23.705C19.4031 23.7872 19.2997 23.9224 19.2575 24.0809C19.2153 24.2394 19.2378 24.4081 19.32 24.55C19.65 25.12 20.26 25.47 20.92 25.47C21.94 25.46 22.76 24.62 22.75 23.6C22.74 22.83 22.26 22.14 21.53 21.88V21.82C22.12 21.5 22.34 20.78 22.03 20.2C21.92 20 21.74 19.81 21.53 19.7V16H22V15H27V29H26V31H31V29H30V15ZM14 24.29V25.71L13 26.71V25.29L14 24.29ZM13 29V28.24L14 27.24V28.66L13.66 29H13ZM13 16.29L14 15.29V16.71L13 17.71V16.29ZM13 19.29L14 18.29V19.71L13 20.71V19.29ZM13 22.29L14 21.29V22.71L13 23.71V22.24V22.29ZM29 24.29V25.71L28 26.71V25.29L29 24.29ZM28 29V28.24L29 27.24V28.66L28.66 29H28ZM28 16.29L29 15.29V16.71L28 17.71V16.29ZM28 19.29L29 18.29V19.71L28 20.71V19.29ZM28 22.29L29 21.29V22.71L28 23.71V22.24V22.29Z" fill="white"/>
</svg>
