<svg width="20" height="20" viewBox="0 0 20 20" fill="none" xmlns="http://www.w3.org/2000/svg">
<path d="M16.4062 16.3281H3.59375C3.50781 16.3281 3.4375 16.3984 3.4375 16.4844V17.6562C3.4375 17.7422 3.50781 17.8125 3.59375 17.8125H16.4062C16.4922 17.8125 16.5625 17.7422 16.5625 17.6562V16.4844C16.5625 16.3984 16.4922 16.3281 16.4062 16.3281ZM16.4062 2.1875H3.59375C3.50781 2.1875 3.4375 2.25781 3.4375 2.34375V3.51562C3.4375 3.60156 3.50781 3.67188 3.59375 3.67188H16.4062C16.4922 3.67188 16.5625 3.60156 16.5625 3.51562V2.34375C16.5625 2.25781 16.4922 2.1875 16.4062 2.1875ZM11.9297 7.38281C12.0469 7.38281 12.1133 7.24609 12.041 7.1543L10.0723 4.66211C10.0592 4.64525 10.0425 4.63159 10.0234 4.6222C10.0043 4.6128 9.98323 4.60792 9.96191 4.60792C9.9406 4.60792 9.91957 4.6128 9.90044 4.6222C9.88131 4.63159 9.86459 4.64525 9.85156 4.66211L7.88281 7.1543C7.86641 7.17515 7.85621 7.2002 7.85339 7.22658C7.85057 7.25296 7.85523 7.2796 7.86685 7.30345C7.87847 7.3273 7.89657 7.34739 7.91909 7.36143C7.9416 7.37547 7.96761 7.38288 7.99414 7.38281H9.29688V12.6172H8.07031C7.95312 12.6172 7.88672 12.7539 7.95898 12.8457L9.92773 15.3359C9.98438 15.4082 10.0937 15.4082 10.1484 15.3359L12.1172 12.8457C12.1895 12.7539 12.125 12.6172 12.0059 12.6172H10.7031V7.38281H11.9297Z" fill="#828282"/>
</svg>
