<svg width="24" height="24" viewBox="0 0 24 24" fill="none" xmlns="http://www.w3.org/2000/svg">
<path d="M16.1666 19.0827L20.3333 11.9993L16.1666 4.91602H7.83329L3.66663 11.9993L7.83329 19.0827H16.1666Z" stroke="#828282" stroke-width="1.5" stroke-linejoin="round"/>
<path d="M12 14.0827C12.5525 14.0827 13.0824 13.8632 13.4731 13.4725C13.8638 13.0818 14.0833 12.5519 14.0833 11.9993C14.0833 11.4468 13.8638 10.9169 13.4731 10.5262C13.0824 10.1355 12.5525 9.91602 12 9.91602C11.4474 9.91602 10.9175 10.1355 10.5268 10.5262C10.1361 10.9169 9.91663 11.4468 9.91663 11.9993C9.91663 12.5519 10.1361 13.0818 10.5268 13.4725C10.9175 13.8632 11.4474 14.0827 12 14.0827Z" stroke="#828282" stroke-width="1.5" stroke-linejoin="round"/>
</svg>
