<svg width="20" height="20" viewBox="0 0 20 20" fill="none" xmlns="http://www.w3.org/2000/svg">
<g clip-path="url(#clip0_8672_40434)">
<path opacity="0.965" fill-rule="evenodd" clip-rule="evenodd" d="M-0.0195312 10.2148C-0.0195312 10.0586 -0.0195312 9.90234 -0.0195312 9.74609C1.46638 7.26433 3.54971 5.47398 6.23047 4.375C8.41586 3.61928 10.6294 3.52813 12.8711 4.10156C13.3878 4.25207 13.8891 4.44086 14.375 4.66797C15.0716 3.97137 15.7682 3.27474 16.4648 2.57812C16.7253 2.44792 16.9857 2.44792 17.2461 2.57812C17.5027 2.8494 17.5483 3.15539 17.3828 3.49609C12.7539 8.125 8.125 12.7539 3.49609 17.3828C2.77862 17.6287 2.44659 17.3748 2.5 16.6211C2.52604 16.569 2.55208 16.5169 2.57812 16.4648C3.17763 15.8718 3.77008 15.2729 4.35547 14.668C2.53997 13.5296 1.08164 12.0452 -0.0195312 10.2148ZM9.94141 4.98047C11.13 4.99555 12.2758 5.2234 13.3789 5.66406C12.9687 6.07422 12.5586 6.48437 12.1484 6.89453C10.9841 6.15031 9.75367 6.0266 8.45703 6.52344C6.82121 7.35312 6.08551 8.68777 6.25 10.5273C6.34266 11.1181 6.5575 11.6585 6.89453 12.1484C6.38672 12.6562 5.87891 13.1641 5.37109 13.6719C3.74327 12.7803 2.41514 11.5498 1.38672 9.98047C2.56748 8.16793 4.13 6.79422 6.07422 5.85937C7.30894 5.30398 8.59801 5.01101 9.94141 4.98047ZM9.94141 7.48047C10.3894 7.49742 10.8061 7.62109 11.1914 7.85156C10.0781 8.96484 8.96484 10.0781 7.85156 11.1914C7.52141 10.618 7.43027 10.0061 7.57812 9.35547C7.85809 8.45051 8.45051 7.85808 9.35547 7.57812C9.55637 7.54539 9.75168 7.51281 9.94141 7.48047Z" fill="currentColor"/>
<path opacity="0.959" fill-rule="evenodd" clip-rule="evenodd" d="M19.9801 9.7461C19.9801 9.90235 19.9801 10.0586 19.9801 10.2149C18.3564 12.9383 16.0387 14.8068 13.027 15.8203C10.9675 16.372 8.91021 16.3655 6.85509 15.8008C6.84927 15.7597 6.85576 15.7206 6.87462 15.6836C7.20177 15.3434 7.54033 15.0179 7.89025 14.707C10.6808 15.3 13.2394 14.7726 15.566 13.125C16.7501 12.247 17.7527 11.1988 18.5738 9.98048C17.7794 8.80185 16.8159 7.77974 15.6832 6.91407C15.9549 6.60321 16.2414 6.30376 16.5426 6.01563C16.5817 5.98958 16.6207 5.98958 16.6598 6.01563C17.9988 7.06118 19.1056 8.30466 19.9801 9.7461Z" fill="currentColor"/>
<path opacity="0.95" fill-rule="evenodd" clip-rule="evenodd" d="M13.5347 9.00391C13.9755 10.516 13.5979 11.8116 12.4019 12.8906C11.4032 13.6676 10.2834 13.915 9.04256 13.6328C9.00541 13.6048 8.99893 13.5722 9.02303 13.5352C9.38111 13.1771 9.73916 12.819 10.0972 12.4609C11.484 12.2721 12.2717 11.4844 12.4605 10.0977C12.8265 9.7382 13.1846 9.37363 13.5347 9.00391Z" fill="currentColor"/>
</g>
<defs>
<clipPath id="clip0_8672_40434">
<rect width="20" height="20" fill="white"/>
</clipPath>
</defs>
</svg>
