<svg width="42" height="42" viewBox="0 0 42 42" fill="none" xmlns="http://www.w3.org/2000/svg">
<rect width="42" height="42" rx="8" fill="#F2994A"/>
<path fill-rule="evenodd" clip-rule="evenodd" d="M23.5443 9.15857V13.3171L23.3957 13.2803C23.2499 13.2442 23.2463 13.2545 23.2056 13.8201C23.1828 14.1373 23.1641 14.7994 23.1641 15.2915C23.1641 15.7836 23.209 16.5037 23.2638 16.8917C23.3186 17.2797 23.4061 17.7787 23.4583 18.0007C23.5104 18.2225 23.6366 18.6613 23.7386 18.9757C23.8407 19.2901 24.1168 19.9244 24.3521 20.3853L24.7799 21.2232L25.0387 21.2419L25.2975 21.2606L25.0882 19.8352C24.973 19.0513 24.8787 18.3677 24.8786 18.3161C24.8784 18.2607 24.9561 18.3118 25.0686 18.4412C25.1731 18.5615 25.4862 18.992 25.7641 19.3978C26.0457 19.8088 26.5202 20.6416 26.8354 21.278C27.2678 22.1508 27.461 22.4736 27.6544 22.646C27.7936 22.77 28.0164 22.9014 28.1495 22.9379C28.2827 22.9743 28.4772 23.0042 28.5818 23.0042C28.6863 23.0042 28.8818 22.9741 29.0161 22.9373C29.1504 22.9005 29.3842 22.7578 29.5355 22.6201C29.6894 22.4801 29.8579 22.2479 29.9178 22.0931C29.9943 21.8957 30.0149 21.7133 29.99 21.4572C29.9655 21.2063 29.8497 20.872 29.6059 20.3479C29.414 19.9353 29.1133 19.338 28.9376 19.0207C28.762 18.7033 28.4411 18.1828 28.2246 17.8641C28.0081 17.5453 27.6164 17.0173 27.3543 16.6907C27.0921 16.364 26.591 15.8127 26.2406 15.4655C25.8903 15.1183 25.3256 14.6177 24.9858 14.3531L24.368 13.8718V9.43596V5H23.9562H23.5443V9.15857ZM18.6279 5.58885C18.4156 5.63667 18.0205 5.76671 17.7498 5.87793C17.3407 6.04597 17.1696 6.16557 16.7351 6.58718C16.3585 6.95259 16.1554 7.21004 16.0085 7.50831C15.8951 7.73824 15.774 8.11691 15.7358 8.3601C15.6875 8.66825 15.6867 8.91581 15.7332 9.19639C15.7695 9.41564 15.7899 9.60513 15.7785 9.61744C15.7671 9.62982 15.5352 9.68008 15.2631 9.7291C14.991 9.77817 14.6889 9.84932 14.5916 9.8872C14.4944 9.92509 14.3732 10.0147 14.3223 10.0864C14.2714 10.1581 14.2298 10.3048 14.2298 10.4125C14.2298 10.5362 14.2899 10.6722 14.3929 10.7819C14.5469 10.9459 14.5776 10.9534 14.9473 10.9174C15.1626 10.8964 15.4703 10.8613 15.6312 10.8395L15.9238 10.7997L15.969 11.0373C15.9938 11.1679 16.1018 11.4523 16.209 11.6692C16.3162 11.8861 16.5349 12.2237 16.695 12.4196C16.8551 12.6154 17.183 12.908 17.4236 13.0696C17.6642 13.2313 17.9707 13.3993 18.1048 13.443C18.2388 13.4866 18.3485 13.5471 18.3485 13.5774C18.3485 13.6077 18.287 13.7144 18.2119 13.8146C18.0829 13.9868 18.0778 14.0406 18.1183 14.7885C18.1419 15.224 18.206 15.8793 18.2609 16.2449C18.3157 16.6104 18.3677 16.9169 18.3764 16.9259C18.3851 16.9349 18.5275 16.8832 18.6929 16.811C18.8582 16.7389 19.2405 16.5953 19.5422 16.4919C19.844 16.3885 20.3406 16.25 20.6458 16.1841C20.9509 16.1182 21.4926 16.0467 21.8497 16.0252L22.4988 15.9861L22.4778 15.1037C22.4663 14.6184 22.4878 13.9681 22.5256 13.6586C22.5634 13.3491 22.6104 13.0378 22.6301 12.9667C22.6591 12.8622 22.6175 12.8159 22.4126 12.7248L22.1594 12.6121L22.4035 12.3073C22.5378 12.1397 22.7211 11.8494 22.8109 11.6622C22.9006 11.4751 23.0197 11.1303 23.0755 10.8961C23.155 10.5622 23.1677 10.3015 23.1345 9.68877C23.1001 9.05354 23.0632 8.84423 22.9375 8.57028C22.8524 8.38492 22.738 8.06264 22.6832 7.85415C22.6284 7.64559 22.5395 7.38934 22.4855 7.28462C22.4315 7.17997 22.2874 6.95878 22.1652 6.79305C22.043 6.62738 21.7877 6.37862 21.5978 6.24021C21.408 6.10186 21.1197 5.93063 20.9573 5.85973C20.7948 5.78884 20.5192 5.69313 20.3447 5.64705C20.1703 5.60098 19.7995 5.54946 19.5207 5.53258C19.2039 5.51345 18.8691 5.53452 18.6279 5.58885ZM17.1169 15.6305C16.91 15.9557 16.5821 16.4319 16.3882 16.6888C16.1943 16.9456 15.7816 17.4181 15.4712 17.7386C15.1359 18.0847 14.6792 18.4715 14.3464 18.6912C13.9762 18.9355 13.6131 19.1148 13.276 19.2199C12.9955 19.3074 12.6728 19.3789 12.5589 19.3789C12.445 19.3789 12.2015 19.423 12.0177 19.4768C11.7872 19.5444 11.5984 19.6587 11.409 19.8456C11.2493 20.0032 11.1061 20.2171 11.0667 20.3572C11.0294 20.4896 10.9994 20.7246 11 20.8793C11.0006 21.034 11.053 21.2732 11.1165 21.4107C11.18 21.5482 11.3484 21.7644 11.4908 21.891C11.6331 22.0177 11.8586 22.1512 11.9917 22.1877C12.1249 22.2241 12.3764 22.2537 12.5507 22.2534C12.7249 22.253 13.1314 22.1977 13.4542 22.1305C13.7768 22.0633 14.2615 21.9216 14.5313 21.8156C14.8011 21.7095 15.2214 21.508 15.4654 21.3677C15.7093 21.2273 16.1099 20.9652 16.3555 20.7851C16.6012 20.6051 17.0503 20.2259 17.3535 19.9427C17.6568 19.6595 17.9049 19.4552 17.9049 19.4886C17.9049 19.5219 18.0048 20.2332 18.127 21.0691C18.2492 21.9048 18.3642 22.6037 18.3827 22.6218C18.4011 22.64 18.7075 22.5617 19.0635 22.4478C19.4195 22.3338 19.7305 22.2227 19.7546 22.2008C19.7787 22.1789 19.6671 21.9499 19.5066 21.692C19.3461 21.4342 19.0635 20.908 18.8785 20.5228C18.6935 20.1377 18.4147 19.4484 18.2587 18.9912C18.1028 18.5339 17.9047 17.8222 17.8184 17.4096C17.7322 16.997 17.6307 16.3922 17.5929 16.0655C17.5551 15.7389 17.5171 15.3743 17.5086 15.2553C17.4934 15.0439 17.4847 15.0522 17.1169 15.6305ZM21.1881 16.5694C20.9899 16.5987 20.6477 16.6678 20.4277 16.7229C20.2076 16.7781 19.7852 16.9097 19.489 17.0154C19.1928 17.121 18.8435 17.2606 18.7128 17.3255C18.5821 17.3904 18.4756 17.4639 18.4759 17.489C18.4764 17.5142 18.5455 17.7738 18.6294 18.0661C18.7134 18.3583 18.8454 18.7803 18.9229 19.0038C19.0002 19.2273 19.0713 19.4195 19.0807 19.4308C19.0901 19.4422 19.4068 19.337 19.7845 19.1972C20.1622 19.0573 20.6891 18.8882 20.9556 18.8213C21.222 18.7544 21.6589 18.6697 21.9264 18.633C22.194 18.5963 22.5249 18.5662 22.6618 18.5662C22.7987 18.5662 22.9107 18.5398 22.9107 18.5075C22.9107 18.4753 22.8674 18.2648 22.8145 18.0397C22.7616 17.8147 22.6827 17.3839 22.6391 17.0825L22.5599 16.5344L22.0541 16.5253C21.7759 16.5202 21.3862 16.5401 21.1881 16.5694ZM21.6896 19.2234C21.4188 19.2683 20.9911 19.3665 20.7391 19.4415C20.4872 19.5166 20.06 19.6637 19.79 19.7686C19.5199 19.8734 19.2989 19.984 19.2989 20.0143C19.2989 20.0446 19.416 20.3008 19.5592 20.5837C19.7024 20.8666 19.9609 21.3271 20.1337 21.6069L20.4479 22.1157L21.2516 21.9022C21.6936 21.7848 22.3789 21.6332 22.7744 21.5653C23.17 21.4975 23.603 21.442 23.7369 21.442C23.8708 21.442 23.9951 21.4185 24.0131 21.3898C24.0311 21.3611 23.894 21.0442 23.7086 20.6858C23.523 20.3272 23.3048 19.8303 23.2236 19.5814L23.0758 19.1288L22.6289 19.1353C22.3831 19.1388 21.9604 19.1784 21.6896 19.2234ZM23.7776 22.0746C23.4704 22.1038 22.8003 22.2112 22.2886 22.3132C21.7769 22.4152 20.902 22.628 20.3444 22.786C19.7868 22.944 19.1524 23.1305 18.9346 23.2004C18.7168 23.2704 18.5386 23.3624 18.5386 23.4049C18.5386 23.4474 18.7025 23.5319 18.9029 23.5927C19.1033 23.6535 19.4953 23.8114 19.7742 23.9436C20.053 24.0758 20.4521 24.3197 20.6612 24.4857C20.8703 24.6517 21.1673 24.9745 21.3211 25.203L21.6006 25.6184L21.8048 25.4863C21.9172 25.4137 22.0611 25.259 22.1246 25.1427C22.1881 25.0263 22.3808 24.8063 22.5527 24.6538C22.7246 24.5012 23.0395 24.281 23.2523 24.1643C23.4652 24.0476 23.8247 23.8906 24.0512 23.8155C24.2777 23.7403 24.689 23.6394 24.9652 23.5914C25.2415 23.5434 25.4782 23.4933 25.4915 23.4803C25.5047 23.4672 25.4712 23.1429 25.417 22.7597C25.3629 22.3764 25.3185 22.0498 25.3185 22.0338C25.3185 22.0177 25.0976 22.0084 24.8274 22.0131C24.5573 22.0177 24.0849 22.0454 23.7776 22.0746ZM17.4055 24.5681C17.0463 24.8482 16.5762 25.2513 16.3607 25.4639C16.1453 25.6764 15.9032 25.9885 15.8228 26.1572C15.7424 26.3261 15.6239 26.6673 15.5596 26.9155C15.4953 27.1636 15.4082 27.6583 15.3662 28.0147C15.3182 28.4217 15.3033 29.0578 15.3262 29.7255C15.3462 30.31 15.4091 31.0399 15.4658 31.3474C15.5226 31.6549 15.6113 32.0066 15.663 32.1289C15.7147 32.2512 15.8482 32.445 15.9597 32.5597C16.0712 32.6743 16.2907 32.8431 16.4475 32.9348C16.6883 33.0755 16.8066 33.1014 17.2079 33.1012C17.5881 33.1011 17.7445 33.0702 17.99 32.9466C18.1587 32.8616 18.3835 32.6947 18.4894 32.5757C18.5953 32.4567 18.7346 32.245 18.799 32.1052C18.867 31.9575 18.9165 31.7052 18.9173 31.5026C18.9181 31.311 18.8731 30.8608 18.8173 30.5023C18.7416 30.0162 18.726 29.636 18.7561 29.0065C18.7783 28.5423 18.813 28.0702 18.8334 27.9574C18.8621 27.7982 18.9717 27.6713 19.3222 27.3916C19.5708 27.1933 20.0664 26.8236 20.4236 26.57C20.7808 26.3165 21.0731 26.0914 21.0731 26.0697C21.0731 26.048 20.9921 25.9051 20.8932 25.7523C20.7942 25.5994 20.5914 25.3548 20.4423 25.2087C20.2934 25.0627 20.0094 24.8461 19.8114 24.7275C19.6135 24.6088 19.2389 24.4282 18.9792 24.3259C18.7194 24.2238 18.406 24.1219 18.2827 24.0995C18.0735 24.0614 18.0148 24.0928 17.4055 24.5681ZM24.8187 24.3518C24.5962 24.3995 24.2682 24.4855 24.0901 24.543C23.9119 24.6006 23.6378 24.7125 23.4809 24.7918C23.3241 24.8711 23.0556 25.0431 22.8843 25.1739C22.713 25.3048 22.4819 25.5425 22.3709 25.7022L22.1689 25.9926L22.2533 26.5462C22.2997 26.8507 22.5224 28.3657 22.7483 29.913C22.9741 31.4603 23.2324 33.3733 23.3222 34.1642C23.412 34.955 23.5275 35.7295 23.5788 35.8854C23.63 36.0412 23.7594 36.2733 23.8663 36.4012C23.9732 36.5291 24.1879 36.7074 24.3435 36.7973C24.537 36.9092 24.7532 36.971 25.0267 36.9927C25.2674 37.0118 25.5253 36.9927 25.6737 36.945C25.8094 36.9013 26.042 36.7837 26.1905 36.6835C26.346 36.5788 26.5402 36.3639 26.6483 36.1771C26.7516 35.9987 26.853 35.74 26.8736 35.6024C26.8942 35.4647 26.838 34.7049 26.7489 33.9141C26.6597 33.1233 26.4994 31.8432 26.3925 31.0696C26.2856 30.2959 26.0288 28.556 25.8217 27.2029C25.6147 25.8499 25.4452 24.6332 25.4452 24.499C25.4452 24.3066 25.4219 24.2563 25.3343 24.2602C25.2734 24.2629 25.0413 24.3042 24.8187 24.3518Z" fill="white"/>
</svg>
