<svg width="42" height="42" viewBox="0 0 42 42" fill="none" xmlns="http://www.w3.org/2000/svg">
<rect width="42" height="42" rx="8" fill="#EB5757"/>
<path fill-rule="evenodd" clip-rule="evenodd" d="M11.375 25.297C11.3748 26.4203 11.7296 27.515 12.3887 28.4245C13.0479 29.3341 13.9776 30.0121 15.0452 30.3616C16.1127 30.7112 17.2634 30.7144 18.3328 30.3708C19.4023 30.0272 20.3358 29.3544 21 28.4485C21.6642 29.3544 22.5977 30.0272 23.6672 30.3708C24.7366 30.7144 25.8873 30.7112 26.9548 30.3616C28.0224 30.0121 28.9521 29.3341 29.6113 28.4245C30.2704 27.515 30.6252 26.4203 30.625 25.297V19.6279L28.865 21.3879L26.8162 23.4339C26.6228 23.6274 26.5141 23.8898 26.5141 24.1634C26.5141 24.4369 26.6228 24.6993 26.8163 24.8928C27.0097 25.0862 27.2721 25.1949 27.5457 25.1949C27.8193 25.1949 28.0817 25.0862 28.2751 24.8928L28.5611 24.6068V25.297C28.5611 25.7259 28.4767 26.1505 28.3125 26.5467C28.1484 26.9429 27.9079 27.3029 27.6046 27.6062C27.3014 27.9094 26.9414 28.15 26.5452 28.3141C26.149 28.4782 25.7243 28.5627 25.2955 28.5627C24.8667 28.5627 24.442 28.4782 24.0458 28.3141C23.6496 28.15 23.2896 27.9094 22.9864 27.6062C22.6831 27.3029 22.4426 26.9429 22.2785 26.5467C22.1143 26.1505 22.0299 25.7259 22.0299 25.297V18.092C22.8137 17.8456 23.4834 17.3267 23.9177 16.6293C24.3521 15.9318 24.5223 15.1019 24.3977 14.2898C24.2731 13.4776 23.8618 12.737 23.2383 12.2019C22.6148 11.6667 21.8203 11.3726 20.9986 11.3726C20.177 11.3726 19.3825 11.6667 18.759 12.2019C18.1355 12.737 17.7242 13.4776 17.5995 14.2898C17.4749 15.1019 17.6452 15.9318 18.0795 16.6293C18.5138 17.3267 19.1835 17.8456 19.9674 18.092V25.297C19.9674 26.1631 19.6233 26.9938 19.0109 27.6062C18.3985 28.2186 17.5678 28.5627 16.7018 28.5627C15.8357 28.5627 15.005 28.2186 14.3926 27.6062C13.7802 26.9938 13.4361 26.1631 13.4361 25.297V24.6068L13.7221 24.8928C13.8165 24.9941 13.9304 25.0754 14.0569 25.1317C14.1834 25.1881 14.3199 25.2184 14.4584 25.2209C14.5969 25.2233 14.7344 25.1978 14.8628 25.146C14.9912 25.0941 15.1079 25.0169 15.2058 24.919C15.3037 24.821 15.3809 24.7044 15.4328 24.576C15.4847 24.4476 15.5101 24.31 15.5077 24.1716C15.5052 24.0331 15.4749 23.8965 15.4186 23.7701C15.3622 23.6436 15.2809 23.5297 15.1796 23.4353L13.135 21.3865L11.375 19.6279V25.297ZM22.375 14.8127C22.375 14.448 22.2301 14.0983 21.9723 13.8404C21.7144 13.5825 21.3647 13.4377 21 13.4377C20.6353 13.4377 20.2856 13.5825 20.0277 13.8404C19.7699 14.0983 19.625 14.448 19.625 14.8127C19.625 15.1773 19.7699 15.5271 20.0277 15.7849C20.2856 16.0428 20.6353 16.1877 21 16.1877C21.3647 16.1877 21.7144 16.0428 21.9723 15.7849C22.2301 15.5271 22.375 15.1773 22.375 14.8127Z" fill="white"/>
</svg>
