<svg width="30" height="30" viewBox="0 0 30 30" fill="none" xmlns="http://www.w3.org/2000/svg">
<path opacity="0.982" fill-rule="evenodd" clip-rule="evenodd" d="M9.11133 2.43162C13.253 2.40467 17.3936 2.43397 21.5332 2.51951C25.2572 3.13832 27.2396 5.33559 27.4805 9.11131C27.5196 13.0176 27.5196 16.9238 27.4805 20.8301C27.4119 23.1061 26.4841 24.9323 24.6973 26.3086C23.5151 27.0437 22.226 27.4343 20.8301 27.4804C16.9238 27.5195 13.0176 27.5195 9.11133 27.4804C6.83438 27.4114 5.00822 26.4837 3.63281 24.6972C2.89767 23.5149 2.50704 22.2258 2.46094 20.8301C2.42187 16.9238 2.42187 13.0176 2.46094 9.11131C2.81309 5.01893 5.02989 2.79237 9.11133 2.43162ZM9.11133 4.36521C13.0176 4.35545 16.9239 4.36521 20.8301 4.39451C23.7581 4.64675 25.3304 6.23857 25.5469 9.1699C25.5957 11.3186 25.586 13.467 25.5176 15.6152C24.4088 14.8012 23.2564 14.7328 22.0606 15.4101C20.1442 17.0727 18.2106 18.7134 16.2598 20.332C14.9252 20.9089 13.7534 20.6745 12.7441 19.6289C12.0421 19.1215 11.2608 18.9457 10.4004 19.1015C10.0471 19.1904 9.71508 19.3271 9.4043 19.5117C7.891 20.5516 6.36756 21.577 4.83399 22.5879C4.57242 21.9936 4.42594 21.3685 4.39453 20.7129C4.35547 16.8652 4.35547 13.0176 4.39453 9.1699C4.62145 6.23799 6.19371 4.6364 9.11133 4.36521Z" fill="#56CCF2"/>
<path opacity="0.977" fill-rule="evenodd" clip-rule="evenodd" d="M11.1035 6.94336C13.0291 7.0558 14.0643 8.07141 14.209 9.99023C14.0559 11.823 13.0598 12.8191 11.2207 12.9785C9.12123 12.7443 8.13492 11.5724 8.26172 9.46289C8.63502 7.96611 9.5823 7.12629 11.1035 6.94336Z" fill="#56CCF2"/>
</svg>
