<svg width="36" height="36" viewBox="0 0 36 36" fill="none" xmlns="http://www.w3.org/2000/svg">
<path d="M18 6C15.6266 6 13.3066 6.70379 11.3332 8.02236C9.35977 9.34094 7.8217 11.2151 6.91345 13.4078C6.0052 15.6005 5.76756 18.0133 6.23058 20.3411C6.6936 22.6689 7.83649 24.8071 9.51472 26.4853C11.193 28.1635 13.3312 29.3064 15.6589 29.7694C17.9867 30.2324 20.3995 29.9948 22.5922 29.0866C24.7849 28.1783 26.6591 26.6402 27.9776 24.6668C29.2962 22.6935 30 20.3734 30 18C30 14.8174 28.7357 11.7652 26.4853 9.51472C24.2349 7.26428 21.1826 6 18 6ZM18 28C16.0222 28 14.0888 27.4135 12.4443 26.3147C10.7998 25.2159 9.51809 23.6541 8.76121 21.8268C8.00433 19.9996 7.8063 17.9889 8.19215 16.0491C8.57801 14.1093 9.53041 12.3275 10.9289 10.9289C12.3275 9.53041 14.1093 8.578 16.0491 8.19215C17.9889 7.8063 19.9996 8.00433 21.8268 8.7612C23.6541 9.51808 25.2159 10.7998 26.3147 12.4443C27.4135 14.0888 28 16.0222 28 18C28 19.3132 27.7414 20.6136 27.2388 21.8268C26.7363 23.0401 25.9997 24.1425 25.0711 25.0711C24.1425 25.9997 23.0401 26.7363 21.8268 27.2388C20.6136 27.7413 19.3132 28 18 28Z" fill="currentColor"/>
<path d="M18.0002 20.0697C17.6554 20.0697 17.3248 19.9328 17.081 19.689C16.8372 19.4452 16.7002 19.1145 16.7002 18.7697V12.7697C16.7002 12.4249 16.8372 12.0943 17.081 11.8505C17.3248 11.6067 17.6554 11.4697 18.0002 11.4697C18.345 11.4697 18.6756 11.6067 18.9194 11.8505C19.1632 12.0943 19.3002 12.4249 19.3002 12.7697V18.7697C19.3002 19.1145 19.1632 19.4452 18.9194 19.689C18.6756 19.9328 18.345 20.0697 18.0002 20.0697Z" fill="currentColor"/>
<path d="M17.9502 24.5195C18.7786 24.5195 19.4502 23.848 19.4502 23.0195C19.4502 22.1911 18.7786 21.5195 17.9502 21.5195C17.1218 21.5195 16.4502 22.1911 16.4502 23.0195C16.4502 23.848 17.1218 24.5195 17.9502 24.5195Z" fill="currentColor"/>
</svg>
