<svg width="42" height="42" viewBox="0 0 42 42" fill="none" xmlns="http://www.w3.org/2000/svg">
<rect width="42" height="42" rx="8" fill="#F2C94C"/>
<g clip-path="url(#clip0_9432_43983)">
<path d="M28.7161 14.3858C28.6375 14.1216 28.4756 13.8898 28.2546 13.7252C28.0335 13.5605 27.7651 13.4718 27.4894 13.4722H13.5106C13.2305 13.472 12.9581 13.5638 12.7354 13.7334C12.5126 13.9031 12.3517 14.1413 12.2775 14.4113L10.4631 21.7777H30.5369L28.7161 14.3858Z" fill="white"/>
<path d="M10.2778 23.0557V27.5279C10.2778 27.8668 10.4124 28.1918 10.652 28.4314C10.8917 28.671 11.2167 28.8057 11.5556 28.8057H29.4444C29.7833 28.8057 30.1083 28.671 30.348 28.4314C30.5876 28.1918 30.7222 27.8668 30.7222 27.5279V23.0557H10.2778ZM28.1667 26.2501H25.6111V24.9723H28.1667V26.2501Z" fill="white"/>
</g>
<defs>
<clipPath id="clip0_9432_43983">
<rect width="23" height="23" fill="white" transform="translate(9 9)"/>
</clipPath>
</defs>
</svg>
