<svg width="42" height="42" viewBox="0 0 42 42" fill="none" xmlns="http://www.w3.org/2000/svg">
<rect width="42" height="42" rx="8" fill="#F2994A"/>
<path d="M29.416 28.6934L24.4844 15.1289L25.2266 13.0781H25.9688C26.2796 13.0781 26.5776 12.9547 26.7974 12.7349C27.0172 12.5151 27.1406 12.2171 27.1406 11.9063C27.1406 11.5954 27.0172 11.2974 26.7974 11.0776C26.5776 10.8578 26.2796 10.7344 25.9688 10.7344H16.5938C16.2829 10.7344 15.9849 10.8578 15.7651 11.0776C15.5453 11.2974 15.4219 11.5954 15.4219 11.9063C15.4208 12.1983 15.5298 12.48 15.727 12.6953C15.9243 12.9106 16.1953 13.0438 16.4863 13.0684L10.8027 28.6934C10.6987 28.9861 10.7141 29.3081 10.8457 29.5896C10.9773 29.8711 11.2145 30.0894 11.5059 30.1973C11.6342 30.2436 11.7698 30.2667 11.9063 30.2656C12.1472 30.2661 12.3824 30.1922 12.5799 30.0542C12.7773 29.9161 12.9274 29.7206 13.0098 29.4941L13.8594 27.1406H17.6191L17.0527 28.6934C16.9487 28.9861 16.9641 29.3081 17.0957 29.5896C17.2273 29.8711 17.4645 30.0894 17.7559 30.1973C17.8842 30.2436 18.0198 30.2667 18.1562 30.2656C18.3972 30.2661 18.6324 30.1922 18.8299 30.0542C19.0273 29.9161 19.1774 29.7206 19.2598 29.4941L20.9688 24.7969H25.5L27.209 29.4941C27.2913 29.7206 27.4414 29.9161 27.6389 30.0542C27.8363 30.1922 28.0716 30.2661 28.3125 30.2656C28.449 30.2667 28.5845 30.2436 28.7129 30.1973C29.0043 30.0894 29.2415 29.8711 29.3731 29.5896C29.5047 29.3081 29.5201 28.9861 29.416 28.6934ZM20.1777 20.1094H16.418L17.2773 17.7656H21.0273L20.1777 20.1094ZM21.877 15.4219H18.127L18.9766 13.0781H22.7363L21.877 15.4219ZM14.7188 24.7969L15.5684 22.4531H19.3281L18.4687 24.7969H14.7188ZM21.8184 22.4531L23.2344 18.5566L24.6504 22.4531H21.8184Z" fill="white"/>
</svg>
