<svg width="42" height="42" viewBox="0 0 42 42" fill="none" xmlns="http://www.w3.org/2000/svg">
<rect width="42" height="42" rx="8" fill="#F2994A"/>
<g clip-path="url(#clip0_32346_15127)">
<path opacity="0.962" fill-rule="evenodd" clip-rule="evenodd" d="M32.9756 17.5947C32.9756 17.7575 32.9756 17.9203 32.9756 18.083C32.9035 18.1957 32.8058 18.2852 32.6826 18.3516C31.576 18.376 30.4692 18.3841 29.3623 18.376C29.3623 19.0921 29.3623 19.8083 29.3623 20.5244C29.0042 20.5244 28.6461 20.5244 28.2881 20.5244C28.2881 19.8083 28.2881 19.0921 28.2881 18.376C26.5791 18.376 24.8701 18.376 23.1611 18.376C23.1693 22.9984 23.1611 27.6208 23.1367 32.2432C23.0224 32.6707 22.7538 32.809 22.3311 32.6582C22.2394 32.5829 22.1661 32.4934 22.1113 32.3896C22.1024 32.0033 22.078 31.6208 22.0381 31.2422C20.7974 30.569 19.5686 29.8773 18.3516 29.167C18.35 30.2769 18.3175 31.3836 18.2539 32.4873C18.0203 32.7527 17.7517 32.7935 17.4482 32.6094C17.373 32.5323 17.316 32.4427 17.2773 32.3408C17.2529 27.6859 17.2448 23.031 17.2529 18.376C16.1299 18.376 15.0068 18.376 13.8838 18.376C13.9062 19.2183 13.5645 19.8612 12.8584 20.3047C12.6698 20.3893 12.4744 20.4544 12.2725 20.5C11.361 20.5326 10.4495 20.5326 9.53809 20.5C8.72043 20.3088 8.1996 19.8125 7.97559 19.0107C7.97559 17.79 7.97559 16.5693 7.97559 15.3486C8.34806 14.2382 9.12931 13.7092 10.3193 13.7617C12.7031 11.927 15.0957 10.104 17.4971 8.29297C17.6924 8.19531 17.8877 8.19531 18.083 8.29297C19.7612 10.1176 21.4214 11.9568 23.0635 13.8105C25.277 13.8268 27.4906 13.8431 29.7041 13.8594C29.7813 13.8939 29.8545 13.9346 29.9238 13.9814C30.9345 15.1952 31.9517 16.3996 32.9756 17.5947ZM17.2041 9.87988C17.2528 11.1899 17.2691 12.5082 17.2529 13.835C15.5113 13.8431 13.7698 13.835 12.0283 13.8105C13.7626 12.507 15.4878 11.1968 17.2041 9.87988ZM18.3271 10.1729C19.4242 11.3759 20.5147 12.5885 21.5986 13.8105C20.5083 13.835 19.4178 13.8431 18.3271 13.835C18.3271 12.6143 18.3271 11.3936 18.3271 10.1729ZM14.5186 14.958C15.4215 14.9093 16.333 14.8931 17.2529 14.9092C17.2609 15.0243 17.2528 15.1382 17.2285 15.251C16.8216 15.723 16.4147 16.195 16.0078 16.667C15.5105 16.0938 15.0141 15.5242 14.5186 14.958ZM19.8896 14.958C20.6135 14.9094 21.3459 14.8931 22.0869 14.9092C22.095 15.2351 22.0869 15.5606 22.0625 15.8857C21.8346 16.1461 21.6068 16.4066 21.3789 16.667C20.8708 16.1023 20.3745 15.5327 19.8896 14.958ZM25.2607 14.958C26.2453 14.9012 27.2381 14.8931 28.2393 14.9336C27.7255 15.4978 27.2291 16.0755 26.75 16.667C26.2419 16.1023 25.7456 15.5327 25.2607 14.958ZM29.46 15.1533C30.0787 15.8442 30.6809 16.5522 31.2666 17.2773C30.0622 17.3099 28.8578 17.3099 27.6533 17.2773C28.2658 16.5755 28.868 15.8675 29.46 15.1533ZM18.6689 15.2021C19.2777 15.8845 19.88 16.5762 20.4756 17.2773C19.8083 17.3099 19.141 17.3099 18.4736 17.2773C18.4289 17.2591 18.3882 17.2347 18.3516 17.2041C18.319 16.667 18.319 16.1299 18.3516 15.5928C18.4695 15.47 18.5752 15.3398 18.6689 15.2021ZM24.04 15.2021C24.6417 15.8692 25.2276 16.5528 25.7979 17.2529C24.9195 17.3018 24.0406 17.318 23.1611 17.3018C23.153 16.9433 23.1611 16.5853 23.1855 16.2275C23.4623 15.8777 23.7471 15.5359 24.04 15.2021ZM13.8838 15.8857C14.2973 16.3402 14.7042 16.8041 15.1045 17.2773C14.6979 17.3018 14.291 17.3099 13.8838 17.3018C13.8838 16.8297 13.8838 16.3578 13.8838 15.8857ZM17.2041 16.9111C17.2516 17.0307 17.2679 17.1609 17.2529 17.3018C17.1378 17.3097 17.0239 17.3016 16.9111 17.2773C17.0378 17.1755 17.1354 17.0534 17.2041 16.9111ZM20.4756 18.4248C21.004 18.3762 21.5411 18.36 22.0869 18.376C22.095 18.6856 22.0869 18.9949 22.0625 19.3037C21.5427 18.991 21.0137 18.698 20.4756 18.4248ZM18.3271 18.4736C19.3981 19.0254 20.456 19.6032 21.501 20.207C20.4655 20.7946 19.4239 21.3724 18.376 21.9404C18.3271 20.7853 18.3109 19.6297 18.3271 18.4736ZM21.9893 21.1592C22.0543 21.7279 22.0869 22.3139 22.0869 22.917C22.0788 23.5029 22.0707 24.0889 22.0625 24.6748C21.0167 24.0746 19.9668 23.4805 18.9131 22.8926C19.9415 22.3134 20.9669 21.7356 21.9893 21.1592ZM18.3271 23.7959C19.3837 24.3894 20.4417 24.9834 21.501 25.5781C20.4515 26.1436 19.4098 26.7213 18.376 27.3115C18.3271 26.1401 18.3109 24.9682 18.3271 23.7959ZM22.0381 26.4814C22.103 27.6454 22.103 28.8172 22.0381 29.9971C20.9902 29.4291 19.9485 28.8513 18.9131 28.2637C19.9658 27.6806 21.0074 27.0865 22.0381 26.4814Z" fill="white"/>
<path opacity="0.981" fill-rule="evenodd" clip-rule="evenodd" d="M27.458 21.501C28.3696 21.4928 29.2811 21.501 30.1924 21.5254C30.7274 21.6372 31.0774 21.9545 31.2422 22.4775C31.2748 23.4704 31.2748 24.4632 31.2422 25.4561C31.0733 25.9992 30.7071 26.3166 30.1436 26.4082C29.2809 26.4408 28.4183 26.4408 27.5557 26.4082C26.9598 26.318 26.5773 25.9843 26.4082 25.4072C26.3756 24.4469 26.3756 23.4867 26.4082 22.5264C26.5594 21.9763 26.9094 21.6345 27.458 21.501Z" fill="white"/>
</g>
<defs>
<clipPath id="clip0_32346_15127">
<rect width="25" height="25" fill="white" transform="translate(8 8)"/>
</clipPath>
</defs>
</svg>
