<svg width="24" height="24" viewBox="0 0 24 24" fill="none" xmlns="http://www.w3.org/2000/svg">
<path fill-rule="evenodd" clip-rule="evenodd" d="M2 3.81818C2 3.33597 2.19156 2.87351 2.53253 2.53253C2.87351 2.19156 3.33597 2 3.81818 2H9.72727C10.2095 2 10.6719 2.19156 11.0129 2.53253C11.3539 2.87351 11.5455 3.33597 11.5455 3.81818V9.72727C11.5455 10.2095 11.3539 10.6719 11.0129 11.0129C10.6719 11.3539 10.2095 11.5455 9.72727 11.5455H7.45455V15.2391C7.45455 15.9591 8.04 16.5455 8.76182 16.5455H12.4545V14.2727C12.4545 13.7905 12.6461 13.3281 12.9871 12.9871C13.3281 12.6461 13.7905 12.4545 14.2727 12.4545H20.1818C20.664 12.4545 21.1265 12.6461 21.4675 12.9871C21.8084 13.3281 22 13.7905 22 14.2727V20.1818C22 20.664 21.8084 21.1265 21.4675 21.4675C21.1265 21.8084 20.664 22 20.1818 22H14.2727C13.7905 22 13.3281 21.8084 12.9871 21.4675C12.6461 21.1265 12.4545 20.664 12.4545 20.1818V17.9091H8.76091C8.0527 17.9089 7.37357 17.6273 6.87288 17.1265C6.37218 16.6256 6.09091 15.9464 6.09091 15.2382V11.5455H3.81818C3.33597 11.5455 2.87351 11.3539 2.53253 11.0129C2.19156 10.6719 2 10.2095 2 9.72727V3.81818ZM3.81818 3.36364C3.69763 3.36364 3.58201 3.41153 3.49677 3.49677C3.41153 3.58201 3.36364 3.69763 3.36364 3.81818V9.72727C3.36364 9.84783 3.41153 9.96344 3.49677 10.0487C3.58201 10.1339 3.69763 10.1818 3.81818 10.1818H9.72727C9.84783 10.1818 9.96344 10.1339 10.0487 10.0487C10.1339 9.96344 10.1818 9.84783 10.1818 9.72727V3.81818C10.1818 3.69763 10.1339 3.58201 10.0487 3.49677C9.96344 3.41153 9.84783 3.36364 9.72727 3.36364H3.81818ZM14.2727 13.8182C14.1522 13.8182 14.0366 13.8661 13.9513 13.9513C13.8661 14.0366 13.8182 14.1522 13.8182 14.2727V20.1818C13.8182 20.3024 13.8661 20.418 13.9513 20.5032C14.0366 20.5885 14.1522 20.6364 14.2727 20.6364H20.1818C20.3024 20.6364 20.418 20.5885 20.5032 20.5032C20.5885 20.418 20.6364 20.3024 20.6364 20.1818V14.2727C20.6364 14.1522 20.5885 14.0366 20.5032 13.9513C20.418 13.8661 20.3024 13.8182 20.1818 13.8182H14.2727Z" fill="#4F4F4F"/>
</svg>
