<svg width="24" height="24" viewBox="0 0 24 24" fill="none" xmlns="http://www.w3.org/2000/svg">
<rect width="24" height="24" rx="12" fill="#2B518E"/>
<path d="M13.0293 10.9706C12.4832 10.4248 11.7428 10.1182 10.9707 10.1182C10.1986 10.1182 9.45815 10.4248 8.9121 10.9706L6.85284 13.0292C6.30677 13.5753 6 14.3159 6 15.0881C6 15.8604 6.30677 16.601 6.85284 17.1471C7.3989 17.6931 8.13952 17.9999 8.91177 17.9999C9.68401 17.9999 10.4246 17.6931 10.9707 17.1471L12 16.1178" stroke="white" stroke-width="1.5" stroke-linecap="round" stroke-linejoin="round"/>
<path d="M10.9707 13.0293C11.5168 13.5751 12.2572 13.8817 13.0293 13.8817C13.8014 13.8817 14.5418 13.5751 15.0879 13.0293L17.1472 10.9707C17.6932 10.4246 18 9.68401 18 8.91177C18 8.13952 17.6932 7.3989 17.1472 6.85284C16.6011 6.30677 15.8605 6 15.0882 6C14.316 6 13.5754 6.30677 13.0293 6.85284L12 7.88213" stroke="white" stroke-width="1.5" stroke-linecap="round" stroke-linejoin="round"/>
</svg>
