<svg width="22" height="18" viewBox="0 0 22 18" fill="none" xmlns="http://www.w3.org/2000/svg">
<path d="M11 3H21.5V4.5H11V3ZM11 13.5H21.5V15H11V13.5ZM6.5 7.5H2C1.6023 7.4996 1.221 7.34144 0.939778 7.06022C0.65856 6.779 0.500397 6.3977 0.5 6V1.5C0.500397 1.1023 0.65856 0.720997 0.939778 0.439779C1.221 0.15856 1.6023 0.000397108 2 0H6.5C6.8977 0.000397108 7.279 0.15856 7.56022 0.439779C7.84144 0.720997 7.9996 1.1023 8 1.5V6C7.9996 6.3977 7.84144 6.779 7.56022 7.06022C7.279 7.34144 6.8977 7.4996 6.5 7.5ZM2 1.5V6H6.50075L6.5 1.5H2ZM6.5 18H2C1.6023 17.9996 1.221 17.8414 0.939778 17.5602C0.65856 17.279 0.500397 16.8977 0.5 16.5V12C0.500397 11.6023 0.65856 11.221 0.939778 10.9398C1.221 10.6586 1.6023 10.5004 2 10.5H6.5C6.8977 10.5004 7.279 10.6586 7.56022 10.9398C7.84144 11.221 7.9996 11.6023 8 12V16.5C7.9996 16.8977 7.84144 17.279 7.56022 17.5602C7.279 17.8414 6.8977 17.9996 6.5 18ZM2 12V16.5H6.50075L6.5 12H2Z" fill="currentColor"/>
</svg>
