<svg width="24" height="24" viewBox="0 0 24 24" fill="none" xmlns="http://www.w3.org/2000/svg">
<g clip-path="url(#clip0_9903_47917)">
<path opacity="0.963" fill-rule="evenodd" clip-rule="evenodd" d="M4.99218 4.42969C5.54558 4.42843 5.85805 4.70185 5.92968 5.25C5.9 5.40783 5.8453 5.55624 5.76561 5.69532C3.20003 8.28586 2.45003 11.3327 3.51561 14.8359C3.99592 16.1565 4.74589 17.2971 5.76561 18.2578C5.98677 18.7157 5.90085 19.0986 5.5078 19.4063C5.24216 19.5 4.97657 19.5 4.71093 19.4063C2.30335 17.1069 1.23304 14.2866 1.49999 10.9453C1.79205 8.47857 2.81548 6.37697 4.5703 4.64063C4.70268 4.54319 4.8433 4.47287 4.99218 4.42969Z" fill="#828282"/>
<path opacity="0.961" fill-rule="evenodd" clip-rule="evenodd" d="M18.7266 4.47649C18.9228 4.47155 19.1103 4.51061 19.2891 4.59368C22.0338 7.31379 23.0104 10.5716 22.2188 14.3671C21.729 16.3242 20.7524 17.9883 19.2891 19.3593C18.9086 19.5458 18.5571 19.5067 18.2344 19.2421C18.0156 18.8984 18.0156 18.5546 18.2344 18.2109C20.479 15.992 21.3228 13.3202 20.7656 10.1952C20.4998 9.03888 20.031 7.97636 19.3594 7.00774C18.9708 6.50965 18.5645 6.02529 18.1406 5.55461C18.0197 5.01466 18.2151 4.65529 18.7266 4.47649Z" fill="#828282"/>
<path opacity="0.961" fill-rule="evenodd" clip-rule="evenodd" d="M8.46095 6.72666C9.10899 6.71059 9.41368 7.02305 9.37501 7.66416C9.34102 7.77896 9.29415 7.88837 9.23438 7.99229C7.4987 9.78005 7.07682 11.8426 7.96876 14.1798C8.27982 14.8801 8.71735 15.4895 9.28126 16.0079C9.51704 16.4169 9.46234 16.7841 9.1172 17.1095C8.77815 17.2778 8.45002 17.2621 8.13282 17.0626C6.22065 15.1219 5.57223 12.8172 6.18751 10.1485C6.55496 8.88943 7.20343 7.80348 8.13282 6.89073C8.24649 6.83387 8.3559 6.77921 8.46095 6.72666Z" fill="#828282"/>
<path opacity="0.96" fill-rule="evenodd" clip-rule="evenodd" d="M15.0234 6.72662C15.3129 6.68645 15.5785 6.74116 15.8203 6.89069C17.9493 9.11336 18.504 11.6837 17.4844 14.6016C17.0953 15.6073 16.4938 16.4589 15.6797 17.1563C15.1291 17.3639 14.7463 17.1999 14.5312 16.6641C14.4896 16.4498 14.5209 16.2467 14.625 16.0547C16.4541 14.2218 16.8916 12.0968 15.9375 9.67975C15.6085 9.00691 15.171 8.41314 14.625 7.8985C14.3993 7.38016 14.5321 6.9895 15.0234 6.72662Z" fill="#828282"/>
<path opacity="0.966" fill-rule="evenodd" clip-rule="evenodd" d="M11.6016 10.4764C12.9365 10.3972 13.5537 11.0222 13.4531 12.3514C13.1552 13.2391 12.538 13.6063 11.6016 13.453C10.7139 13.1551 10.3466 12.5379 10.5 11.6014C10.657 11.0148 11.0242 10.6398 11.6016 10.4764Z" fill="#828282"/>
</g>
<defs>
<clipPath id="clip0_9903_47917">
<rect width="24" height="24" fill="white"/>
</clipPath>
</defs>
</svg>
