<svg width="20" height="20" viewBox="0 0 20 20" fill="none" xmlns="http://www.w3.org/2000/svg">
<path d="M16.6667 10.0001C16.6667 9.08091 15.9192 8.33341 15 8.33341H14.1667V5.83341C14.1667 3.53591 12.2975 1.66675 10 1.66675C7.70251 1.66675 5.83334 3.53591 5.83334 5.83341V8.33341H5.00001C4.08084 8.33341 3.33334 9.08091 3.33334 10.0001V16.6667C3.33334 17.5859 4.08084 18.3334 5.00001 18.3334H15C15.9192 18.3334 16.6667 17.5859 16.6667 16.6667V10.0001ZM7.50001 5.83341C7.50001 4.45508 8.62168 3.33341 10 3.33341C11.3783 3.33341 12.5 4.45508 12.5 5.83341V8.33341H7.50001V5.83341Z" fill="currentColor"/>
</svg>
