<svg width="18" height="18" viewBox="0 0 18 18" fill="none" xmlns="http://www.w3.org/2000/svg">
<path d="M9 15.75C12.7279 15.75 15.75 12.7279 15.75 9C15.75 5.27208 12.7279 2.25 9 2.25C5.27208 2.25 2.25 5.27208 2.25 9C2.25 12.7279 5.27208 15.75 9 15.75Z" stroke="#BDBDBD" stroke-width="1.5" stroke-linecap="round" stroke-linejoin="round"/>
<path d="M8.62486 2.25C7.57014 3.03123 6.71317 4.04876 6.12268 5.22097C5.53219 6.39318 5.22461 7.68746 5.22461 9C5.22461 10.3125 5.53219 11.6068 6.12268 12.779C6.71317 13.9512 7.57014 14.9688 8.62486 15.75M9.37486 2.25C10.4296 3.03123 11.2865 4.04876 11.877 5.22097C12.4675 6.39318 12.7751 7.68746 12.7751 9C12.7751 10.3125 12.4675 11.6068 11.877 12.779C11.2865 13.9512 10.4296 14.9688 9.37486 15.75M8.99986 2.25V15.75" stroke="#BDBDBD" stroke-width="1.5" stroke-linecap="round" stroke-linejoin="round"/>
</svg>
