<svg width="24" height="24" viewBox="0 0 24 24" fill="none" xmlns="http://www.w3.org/2000/svg">
<g clip-path="url(#clip0_8672_40457)">
<path d="M22.2073 4.90034L16.6673 6.627V9.33367H15.334V6.86034L9.33399 3.78701V6.00034H8.00066V3.51367L1.55399 6.18034C1.49008 6.20637 1.43519 6.25054 1.39609 6.30741C1.35699 6.36427 1.33541 6.43134 1.33399 6.50034V20.3003C1.33362 20.3591 1.34789 20.417 1.37552 20.4688C1.40315 20.5206 1.44327 20.5648 1.49224 20.5972C1.54122 20.6296 1.5975 20.6493 1.65601 20.6545C1.71452 20.6597 1.7734 20.6503 1.82732 20.627L8.00066 18.0803V15.3337H9.33399V18.3537L15.334 21.427V18.667H16.6673V21.1937L22.4207 19.3937C22.4927 19.3708 22.5556 19.3255 22.6 19.2643C22.6444 19.2031 22.668 19.1293 22.6673 19.0537V5.24034C22.6678 5.18454 22.6551 5.12941 22.6302 5.07947C22.6053 5.02954 22.5689 4.98621 22.524 4.95304C22.4791 4.91987 22.4271 4.8978 22.372 4.88864C22.317 4.87948 22.2605 4.88349 22.2073 4.90034ZM9.33399 14.0003H8.00066V11.3337H9.33399V14.0003ZM9.33399 10.0003H8.00066V7.33367H9.33399V10.0003ZM16.6673 17.3337H15.334V14.667H16.6673V17.3337ZM16.6673 13.3337H15.334V10.667H16.6673V13.3337Z" fill="currentColor"/>
</g>
<defs>
<clipPath id="clip0_8672_40457">
<rect width="24" height="24" fill="currentColor"/>
</clipPath>
</defs>
</svg>
