<svg
      width="20"
      height="20"
      viewBox="0 0 20 20"
      fill="none"
      xmlns="http://www.w3.org/2000/svg">
      <g clipPath="url(#clip0_14668_78139)">
        <path
          opacity="0.964"
          fill-rule="evenodd"
          clip-rule="evenodd"
          d="M15.0585 -0.0195312C15.4231 -0.0195312 15.7877 -0.0195312 16.1523 -0.0195312C18.3007 0.384114 19.5768 1.66016 19.9804 3.80859C19.9804 4.1341 19.9804 4.45965 19.9804 4.78516C19.801 5.52262 19.521 6.22574 19.1406 6.89453C18.2305 8.40828 17.1823 9.82102 15.996 11.1328C15.7356 11.263 15.4752 11.263 15.2148 11.1328C14.0905 9.9057 13.0944 8.58406 12.2265 7.16797C11.7787 6.4234 11.4532 5.62914 11.2499 4.78516C11.125 2.90594 11.8607 1.48016 13.457 0.507812C13.9685 0.248295 14.5024 0.0725137 15.0585 -0.0195312ZM15.1367 1.26953C16.69 1.15707 17.8033 1.79509 18.4765 3.18359C18.7102 3.77036 18.7493 4.36934 18.5937 4.98047C18.2259 5.89867 17.7571 6.75805 17.1874 7.55859C16.6962 8.26457 16.1688 8.94164 15.6054 9.58984C14.5153 8.33594 13.5843 6.96875 12.8124 5.48828C12.2198 3.93301 12.6039 2.67652 13.9648 1.71875C14.3383 1.50984 14.7289 1.36011 15.1367 1.26953ZM15.4101 3.76953C16.0845 3.76003 16.3124 4.07254 16.0937 4.70703C15.8495 4.96137 15.5695 5.00691 15.2538 4.84375C14.9995 4.59957 14.954 4.31961 15.1171 4.00391C15.1997 3.90153 15.2974 3.82341 15.4101 3.76953Z"
          fill="#56CCF2"
        />
        <path
          opacity="0.965"
          fill-rule="evenodd"
          clip-rule="evenodd"
          d="M15.2145 2.48102C16.3731 2.36636 17.1218 2.86115 17.4606 3.9654C17.5942 5.12477 17.1059 5.87345 15.9957 6.21149C14.8364 6.34513 14.0877 5.85684 13.7496 4.74665C13.6209 3.58347 14.1092 2.82826 15.2145 2.48102Z"
          fill="#56CCF2"
        />
        <path
          opacity="0.983"
          fill-rule="evenodd"
          clip-rule="evenodd"
          d="M19.9805 9.1211C19.9805 11.7774 19.9805 14.4336 19.9805 17.0899C19.8966 17.2583 19.7664 17.382 19.5898 17.4609C17.4979 18.2904 15.4146 19.1302 13.3398 19.9805C13.1836 19.9805 13.0273 19.9805 12.8711 19.9805C10.878 19.1536 8.87277 18.3463 6.85547 17.5586C4.83816 18.3463 2.83295 19.1536 0.839844 19.9805C0.683594 19.9805 0.527344 19.9805 0.371094 19.9805C0.201823 19.8893 0.0716145 19.7591 -0.0195312 19.5899C-0.0195312 15.6836 -0.0195312 11.7774 -0.0195312 7.8711C0.0643242 7.70271 0.194533 7.57899 0.371094 7.50001C2.45443 6.66669 4.53777 5.83333 6.62109 5.00001C6.77734 4.97396 6.93359 4.97396 7.08984 5.00001C8.32371 5.50243 9.5607 5.99724 10.8008 6.48438C11.2289 6.68368 11.3525 7.00267 11.1719 7.44142C10.9535 7.73122 10.6736 7.81587 10.332 7.69532C9.38523 7.31626 8.44121 6.93216 7.5 6.54298C7.48047 9.83724 7.47395 13.1315 7.48047 16.4258C9.14715 17.0768 10.8138 17.7279 12.4805 18.3789C12.4739 16.1263 12.4805 13.8737 12.5 11.6211C12.7396 11.2086 13.0716 11.1109 13.4961 11.3281C13.5979 11.4038 13.6695 11.5015 13.7109 11.6211C13.7305 13.8737 13.737 16.1263 13.7305 18.3789C15.3889 17.7436 17.0425 17.0925 18.6914 16.4258C18.7239 13.991 18.7435 11.5561 18.75 9.1211C18.8596 8.84817 19.0614 8.71798 19.3555 8.73048C19.6529 8.72274 19.8613 8.85294 19.9805 9.1211ZM6.19141 6.54298C6.23043 9.83067 6.24348 13.1249 6.23047 16.4258C4.56379 17.0768 2.89714 17.7279 1.23047 18.3789C1.21745 15.0975 1.23047 11.8163 1.26953 8.53517C2.92032 7.88536 4.56094 7.2213 6.19141 6.54298Z"
          fill="white"
        />
      </g>
      <defs>
        <clipPath id="clip0_14668_78139">
          <rect width="20" height="20" fill="white" />
        </clipPath>
      </defs>
    </svg>