<svg width="42" height="42" viewBox="0 0 42 42" fill="none" xmlns="http://www.w3.org/2000/svg">
<rect width="42" height="42" rx="8" fill="#2F80ED"/>
<path d="M32.4208 25.9956C31.525 25.8956 30.6667 25.5581 30.0083 25.0414C29.4208 24.5789 28.5833 24.5706 28 25.0414C26.4208 26.3081 23.5333 26.3081 21.9292 24.9789C21.3667 24.5123 20.5542 24.5998 19.9833 25.0539C18.4 26.3081 15.5292 26.3039 13.9333 24.9831C13.3708 24.5164 12.5458 24.6123 11.9708 25.0664C11.325 25.5748 10.4708 25.9039 9.56667 25.9998C9.2375 26.0331 9 26.3248 9 26.6539V27.9956C9 28.3748 9.31667 28.6956 9.69583 28.6623C10.8958 28.5581 12.0333 28.1873 13.0042 27.5831C15.3583 29.0248 18.7125 29.0039 21.0042 27.5831C23.3583 29.0248 26.7125 29.0039 29.0042 27.5831C29.975 28.1748 31.125 28.5539 32.3 28.6581C32.6792 28.6914 32.9958 28.3706 32.9958 27.9914V26.6748C33 26.3414 32.7583 26.0331 32.4208 25.9956ZM32.4208 19.9956C31.525 19.8956 30.6667 19.5581 30.0083 19.0414C29.4208 18.5789 28.5833 18.5706 28 19.0414C26.4208 20.3081 23.5333 20.3081 21.9292 18.9789C21.3667 18.5123 20.5542 18.5998 19.9833 19.0539C18.4 20.3081 15.5292 20.3039 13.9333 18.9831C13.3708 18.5164 12.5458 18.6123 11.9708 19.0664C11.325 19.5748 10.4708 19.9039 9.56667 19.9998C9.2375 20.0331 9 20.3248 9 20.6539V21.9956C9 22.3748 9.31667 22.6956 9.69583 22.6623C10.8958 22.5581 12.0333 22.1873 13.0042 21.5831C15.3583 23.0248 18.7125 23.0039 21.0042 21.5831C23.3583 23.0248 26.7125 23.0039 29.0042 21.5831C29.975 22.1748 31.125 22.5539 32.3 22.6581C32.6792 22.6914 32.9958 22.3706 32.9958 21.9914V20.6748C33 20.3414 32.7583 20.0331 32.4208 19.9956ZM32.4208 13.9956C31.525 13.8914 30.6667 13.5581 30.0083 13.0414C29.4208 12.5789 28.5833 12.5706 28 13.0414C26.4208 14.3081 23.5333 14.3081 21.9292 12.9789C21.3667 12.5123 20.5542 12.5998 19.9833 13.0539C18.4 14.3081 15.5292 14.3039 13.9333 12.9831C13.3708 12.5164 12.5458 12.6123 11.9708 13.0664C11.325 13.5748 10.4708 13.9039 9.56667 13.9998C9.2375 14.0331 9 14.3248 9 14.6539V15.9956C9 16.3748 9.31667 16.6956 9.69583 16.6623C10.8958 16.5581 12.0333 16.1873 13.0042 15.5831C15.3583 17.0248 18.7125 17.0039 21.0042 15.5831C23.3583 17.0248 26.7125 17.0039 29.0042 15.5831C29.975 16.1748 31.125 16.5539 32.3 16.6581C32.6792 16.6914 32.9958 16.3706 32.9958 15.9914V14.6748C33 14.3414 32.7583 14.0331 32.4208 13.9956Z" fill="white"/>
</svg>
