<svg width="42" height="42" viewBox="0 0 42 42" fill="none" xmlns="http://www.w3.org/2000/svg">
<rect width="42" height="42" rx="8" fill="#F2C94C"/>
<path d="M21 9.75C16.4531 9.75 12.75 13.4531 12.75 18V27.683C12.7491 28.8839 13.2205 30.0371 14.0625 30.8934C14.4754 31.3221 14.9705 31.6631 15.5182 31.8962C16.0658 32.1293 16.6548 32.2496 17.25 32.25C18.9778 32.25 20.3991 31.5178 21.4744 30.0741C21.6844 29.7928 21.922 29.3831 22.1972 28.9092C22.9153 27.6731 23.8983 25.9809 25.1583 25.1245C26.3663 24.3037 27.3722 23.2711 28.0645 22.1377C28.852 20.8566 29.25 19.4644 29.25 18C29.25 13.4531 25.5492 9.75 21 9.75ZM25.5 18.375C25.3011 18.375 25.1103 18.296 24.9697 18.1553C24.829 18.0147 24.75 17.8239 24.75 17.625C24.75 15.7641 23.0677 14.25 21 14.25C18.9323 14.25 17.25 15.7641 17.25 17.625V19.0509C18.5245 18.6834 19.9875 18.7359 20.2631 18.75C20.6747 18.7539 21.0773 18.8707 21.4272 19.0875C21.777 19.3044 22.0607 19.6131 22.2472 19.98C22.4338 20.3468 22.5162 20.7579 22.4854 21.1683C22.4546 21.5788 22.3118 21.9729 22.0725 22.3078C22.0584 22.327 22.0439 22.3458 22.028 22.3641C21.2522 23.2547 20.3405 24.4959 20.2252 24.9422C20.1713 25.1308 20.0456 25.2908 19.8751 25.3879C19.7046 25.4849 19.5029 25.5113 19.3132 25.4614C19.1235 25.4115 18.9609 25.2892 18.8602 25.1209C18.7596 24.9525 18.729 24.7513 18.7748 24.5606C19.0331 23.5791 20.5059 21.8325 20.8683 21.413C20.9429 21.2999 20.9855 21.1687 20.9915 21.0333C20.9975 20.8979 20.9667 20.7635 20.9025 20.6442C20.8382 20.5249 20.7428 20.4253 20.6264 20.3559C20.5101 20.2865 20.3771 20.2499 20.2416 20.25H20.2003C19.4222 20.2083 18.0492 20.2875 17.25 20.6395V23.25C17.25 23.4489 17.171 23.6397 17.0303 23.7803C16.8897 23.921 16.6989 24 16.5 24C16.3011 24 16.1103 23.921 15.9697 23.7803C15.829 23.6397 15.75 23.4489 15.75 23.25V17.625C15.75 14.9367 18.105 12.75 21 12.75C23.895 12.75 26.25 14.9367 26.25 17.625C26.25 17.8239 26.171 18.0147 26.0303 18.1553C25.8897 18.296 25.6989 18.375 25.5 18.375Z" fill="white"/>
</svg>
