<svg width="42" height="42" viewBox="0 0 42 42" fill="none" xmlns="http://www.w3.org/2000/svg">
<rect width="42" height="42" rx="8" fill="#F2C94C"/>
<path fill-rule="evenodd" clip-rule="evenodd" d="M20.8285 13.4423C20.9402 13.4079 21.0598 13.4079 21.1715 13.4423L28.7548 15.7756C28.8741 15.8123 28.9785 15.8863 29.0526 15.9867C29.1267 16.087 29.1667 16.2085 29.1667 16.3333V16.9166H29.75C30.5236 16.9166 31.2654 17.2239 31.8124 17.7709C32.3594 18.3179 32.6667 19.0598 32.6667 19.8333V22.1666C32.6667 22.9402 32.3594 23.6821 31.8124 24.229C31.2654 24.776 30.5236 25.0833 29.75 25.0833H28.3173C27.6471 26.1141 26.636 26.8765 25.4608 27.2376L21.1715 28.5576C21.0597 28.592 20.9403 28.592 20.8285 28.5576L16.5393 27.2376C15.364 26.8765 14.3529 26.1141 13.6827 25.0833H12.25C11.4765 25.0833 10.7346 24.776 10.1876 24.229C9.64062 23.6821 9.33333 22.9402 9.33333 22.1666V19.8333C9.33333 19.0598 9.64062 18.3179 10.1876 17.7709C10.7346 17.2239 11.4765 16.9166 12.25 16.9166H12.8333V16.3333C12.8333 16.2085 12.8733 16.087 12.9474 15.9867C13.0215 15.8863 13.1259 15.8123 13.2452 15.7756L20.8285 13.4423ZM12.8333 22.2197C12.8333 22.8089 12.9313 23.3806 13.1145 23.9166H12.25C11.7859 23.9166 11.3408 23.7323 11.0126 23.4041C10.6844 23.0759 10.5 22.6308 10.5 22.1666V19.8333C10.5 19.3692 10.6844 18.9241 11.0126 18.5959C11.3408 18.2677 11.7859 18.0833 12.25 18.0833H12.8333V22.2197ZM28.8855 23.9166H29.75C30.2141 23.9166 30.6593 23.7323 30.9874 23.4041C31.3156 23.0759 31.5 22.6308 31.5 22.1666V19.8333C31.5 19.3692 31.3156 18.9241 30.9874 18.5959C30.6593 18.2677 30.2141 18.0833 29.75 18.0833H29.1667V22.2197C29.1667 22.8089 29.0687 23.3806 28.8855 23.9166ZM24.5 19.25H17.5V18.0833H24.5V19.25ZM24.5 22.75H17.5V21.5833H24.5V22.75Z" fill="white"/>
</svg>
