<svg width="42" height="42" viewBox="0 0 42 42" fill="none" xmlns="http://www.w3.org/2000/svg">
<rect width="42" height="42" rx="8" fill="#F2C94C"/>
<path d="M29.8905 21.3357C29.8905 18.3501 27.7434 15.7977 25.0429 14.7263L23.2233 17.7631V13.5973C23.2233 13.2668 22.949 13.002 22.6052 13.002H19.3966C19.0528 13.002 18.7785 13.2668 18.7785 13.5973V17.7624L16.9589 14.7273C14.2583 15.7977 12.1113 18.3491 12.1113 21.3357L12.1109 23.7162H29.8901L29.8905 21.3357ZM30.9565 25.1124C30.8697 24.9149 30.6683 24.7877 30.4461 24.7877H11.5557C11.4473 24.7878 11.3412 24.8185 11.2506 24.8759C11.16 24.9334 11.0887 25.015 11.0456 25.111C10.9577 25.3077 10.9989 25.5359 11.1519 25.6916C11.2442 25.7854 13.501 28.002 20.9696 28.002C28.4383 28.002 30.6961 25.7858 30.8176 25.6917C31.0017 25.5343 31.0433 25.3066 30.9565 25.1124Z" fill="white"/>
</svg>
