<svg width="42" height="42" viewBox="0 0 42 42" fill="none" xmlns="http://www.w3.org/2000/svg">
<rect width="42" height="42" rx="8" fill="#9B51E0"/>
<path fill-rule="evenodd" clip-rule="evenodd" d="M18.3203 4.50544C18.3438 5.33088 18.3902 6.76138 18.4234 7.68441C18.4565 8.60744 18.503 9.71533 18.5266 10.1464C18.5677 10.8933 18.5637 10.932 18.442 10.971C18.3717 10.9936 18.1719 11.1501 17.9979 11.3188C17.8239 11.4876 17.6072 11.7554 17.5164 11.9141C17.4256 12.0729 17.3058 12.3605 17.2501 12.5534C17.1944 12.7462 17.1489 13.1249 17.1489 13.395C17.1489 13.6651 17.1918 14.0525 17.2442 14.2558C17.2965 14.4591 17.4096 14.7657 17.4955 14.937C17.5814 15.1084 17.778 15.3802 17.9325 15.5409C18.0903 15.7051 18.4066 15.9277 18.6546 16.0489C19.0668 16.2506 19.1439 16.2659 19.8298 16.2806L20.5638 16.2964L20.7193 16.6701C20.8368 16.9526 20.8749 17.1619 20.8757 17.5279C20.8762 17.7942 20.8421 18.1137 20.7999 18.2379C20.7577 18.3622 20.6356 18.5583 20.5285 18.6737C20.4214 18.7891 20.2483 18.9283 20.1438 18.9829C20.0393 19.0376 19.7729 19.0993 19.5517 19.1202C19.2442 19.1493 19.0952 19.1321 18.9184 19.0472C18.7913 18.9862 18.6127 18.8375 18.5217 18.7168C18.4306 18.596 18.2459 18.3009 18.1113 18.061C17.9767 17.821 17.8275 17.6247 17.7799 17.6247C17.7322 17.6247 17.6497 17.7119 17.5966 17.8184C17.5317 17.9485 17.5 18.2025 17.5001 18.5929C17.5001 19.0889 17.5253 19.2282 17.6721 19.5452C17.7667 19.7494 17.9908 20.0733 18.1701 20.265L18.4959 20.6134L16.8589 23.1533C15.9586 24.5502 15.1887 25.7281 15.1482 25.7708C15.1077 25.8136 14.7585 25.8775 14.3723 25.9129C13.9862 25.9484 13.2968 26.0073 12.8404 26.0439C12.384 26.0805 11.6182 26.144 11.1386 26.185L10.2665 26.2595L10.2272 26.7186C10.2055 26.9712 10.1719 27.341 10.1524 27.5403L10.1171 27.9028L10.6331 27.933C10.9169 27.9497 11.16 27.9753 11.1734 27.9901C11.1868 28.0048 11.2101 28.3582 11.2253 28.7753L11.2529 29.5338L10.9296 29.5345C10.7519 29.5349 10.5023 29.5526 10.3753 29.5738L10.1441 29.6125L10.0721 30.2532C10.0324 30.6056 10 31.0073 10 31.146C10 31.2846 10.0236 31.4128 10.0525 31.4309C10.0814 31.4489 10.2753 31.4921 10.4834 31.5269C10.6915 31.5617 11.3787 31.6798 12.0106 31.7892C12.6426 31.8987 13.4612 32.0453 13.8298 32.115C14.1984 32.1846 15.0888 32.3455 15.8085 32.4724C16.5282 32.5993 17.2894 32.7298 17.5 32.7625C17.7106 32.7951 18.1271 32.8657 18.4255 32.9193C18.7239 32.973 19.004 33.0175 19.0479 33.0182C19.0918 33.0188 19.1277 33.0608 19.1277 33.1116C19.1277 33.1622 19.1728 33.2494 19.2279 33.3052C19.2831 33.361 19.4052 33.4027 19.4992 33.3978L19.6702 33.3891L19.5106 33.3594C19.4229 33.343 19.3152 33.2999 19.2713 33.2634C19.2274 33.227 19.1915 33.1049 19.1915 32.9921C19.1915 32.8793 19.226 32.7521 19.2681 32.7095C19.3102 32.6669 19.3748 32.6329 19.4117 32.634C19.4485 32.6351 19.4285 32.6655 19.367 32.7018C19.2998 32.7414 19.2553 32.8449 19.2553 32.9618C19.2553 33.076 19.2819 33.1395 19.3197 33.1158C19.3551 33.0937 19.4417 33.094 19.5121 33.1166C19.586 33.1404 19.6223 33.1899 19.598 33.2338C19.5657 33.2919 19.5748 33.292 19.6367 33.2341C19.6813 33.1926 19.7573 33.1739 19.8057 33.1926C19.8621 33.2146 19.8936 33.181 19.8936 33.0987C19.8936 33.0282 19.9413 32.9307 19.9996 32.882C20.096 32.8015 20.0979 32.8059 20.0215 32.9301C19.9752 33.0053 19.9551 33.1137 19.9769 33.1711C19.9987 33.2286 20.0575 33.2594 20.1081 33.2398C20.1586 33.2202 20.2188 33.2352 20.242 33.2731C20.2661 33.3126 20.2334 33.3421 20.1655 33.3421C20.1002 33.3421 20.0088 33.3057 19.9622 33.2614C19.894 33.1963 19.8832 33.1994 19.9066 33.2775C19.9225 33.3308 19.9995 33.3838 20.0776 33.3954C20.1558 33.407 20.2613 33.3817 20.312 33.3391C20.3784 33.2834 20.4275 33.2812 20.4871 33.3313C20.5327 33.3695 20.6835 33.3978 20.8222 33.3942C20.961 33.3905 21.872 33.5254 22.8468 33.6938L24.6191 34L25.8149 33.8013C26.4726 33.692 27.8867 33.457 28.9574 33.2789C30.0282 33.1009 30.9258 32.955 30.9521 32.955C30.9785 32.9548 31 32.3992 31 31.7201V30.4853L30.6968 30.524C30.53 30.5452 30.092 30.5674 29.7234 30.5732C29.2573 30.5805 29.0551 30.5615 29.0596 30.5106C29.0631 30.4703 29.0702 29.9902 29.0755 29.4437L29.0851 28.4501L29.8458 28.4271C30.2641 28.4145 30.6266 28.3838 30.6512 28.3588C30.6759 28.3339 30.7197 27.9563 30.7486 27.5197C30.7775 27.0831 30.8194 26.5444 30.8418 26.3225C30.8729 26.0148 30.8623 25.9131 30.7977 25.8942C30.7509 25.8806 29.8654 25.7615 28.8298 25.6297L26.9468 25.3901L24.3849 22.7671L21.823 20.1441L21.9986 19.8849C22.0952 19.7423 22.2355 19.497 22.3103 19.3396C22.3852 19.1823 22.492 18.8338 22.5477 18.5651C22.6171 18.2298 22.6359 17.9348 22.6077 17.6247C22.5851 17.3762 22.5228 16.9986 22.4694 16.7856C22.416 16.5726 22.2864 16.1893 22.1815 15.9337L21.9909 15.4691L22.2446 15.1269C22.3841 14.9387 22.5415 14.6786 22.5943 14.549C22.6471 14.4194 22.7227 14.1022 22.7623 13.8441C22.8159 13.4952 22.8157 13.2825 22.762 13.0147C22.7222 12.8167 22.6037 12.4706 22.4986 12.2458C22.3758 11.9831 22.1713 11.7026 21.9263 11.4609L21.5451 11.0848L21.6153 9.80415C21.654 9.09981 21.7133 8.02974 21.7472 7.42622C21.7811 6.8227 21.8373 5.79155 21.8722 5.13478C21.9071 4.47801 21.9535 3.729 21.9755 3.47036L22.0154 3L21.3535 3.01853L20.6915 3.03699L20.6474 3.8761C20.6231 4.33762 20.5734 5.2671 20.5369 5.94163C20.5003 6.61615 20.4397 7.79253 20.4021 8.5558C20.3645 9.31908 20.3188 10.0959 20.3006 10.2821C20.2675 10.6202 20.2673 10.6205 20.054 10.6048L19.8404 10.5891L19.802 10.1049C19.7809 9.83869 19.7351 8.99634 19.7004 8.23306C19.6656 7.46979 19.609 6.24984 19.5746 5.52207C19.5401 4.79429 19.4939 3.93019 19.4718 3.60178L19.4316 3.00471H18.8545H18.2774L18.3203 4.50544ZM19.1754 12.8785C19.2186 12.9483 19.3476 13.0546 19.4621 13.1147C19.5783 13.1756 19.8252 13.2259 20.0213 13.2285C20.2626 13.2318 20.4612 13.1888 20.6568 13.0907C20.8719 12.9829 20.9533 12.9674 20.9909 13.0273C21.0182 13.0708 21.041 13.2669 21.0416 13.4632C21.0422 13.6863 21.0045 13.8749 20.941 13.9666C20.8852 14.0472 20.6959 14.2279 20.5204 14.3682C20.2787 14.5614 20.1447 14.6229 19.9677 14.6219C19.8392 14.6211 19.6169 14.5666 19.4737 14.5009C19.3305 14.4351 19.1526 14.3032 19.0784 14.2078C19.0041 14.1124 18.9097 13.9308 18.8684 13.8044C18.827 13.6775 18.8104 13.4484 18.8314 13.2934C18.8524 13.1389 18.9058 12.9537 18.9501 12.8819C18.9944 12.8101 19.0456 12.7514 19.0638 12.7514C19.082 12.7514 19.1323 12.8086 19.1754 12.8785ZM20.2417 21.1368C20.2589 21.1932 20.4177 21.9946 20.5949 22.9176C20.7719 23.8407 20.9451 24.7177 20.9797 24.8665C21.0143 25.0154 21.0426 25.1969 21.0426 25.2699C21.0426 25.3804 21.0024 25.4026 20.8032 25.4021C20.6716 25.4017 20.0529 25.4491 19.4284 25.5072C18.8039 25.5653 18.2755 25.5953 18.2543 25.5738C18.233 25.5523 18.3609 25.1201 18.5383 24.6135C18.7158 24.1068 18.9761 23.3582 19.1169 22.9499C19.2577 22.5416 19.4646 21.9399 19.5766 21.6128L19.7804 21.0179L19.9956 21.0261C20.1314 21.0313 20.2221 21.0721 20.2417 21.1368ZM23.4279 23.4928C24.1956 24.3336 24.813 25.0324 24.7998 25.0458C24.7866 25.0592 24.3738 25.1014 23.8825 25.1396C23.3913 25.1778 22.8385 25.227 22.6543 25.2488C22.3709 25.2823 22.3191 25.2722 22.3191 25.1832C22.3191 25.1253 22.075 24.2057 21.7766 23.1398C21.4782 22.0738 21.234 21.1729 21.234 21.1377C21.234 21.1026 21.4136 21.2741 21.633 21.519C21.8524 21.7638 22.6601 22.6521 23.4279 23.4928ZM18.234 22.7885C18.234 22.8063 18.2197 22.8208 18.2021 22.8208C18.1846 22.8208 18.1702 22.8063 18.1702 22.7885C18.1702 22.7708 18.1846 22.7563 18.2021 22.7563C18.2197 22.7563 18.234 22.7708 18.234 22.7885ZM17.6843 24.2085C17.4198 24.9153 17.1757 25.5458 17.142 25.6095C17.0972 25.694 17.0047 25.7255 16.8006 25.7255H16.5205L17.3251 24.3064C17.7676 23.526 18.1377 22.8956 18.1475 22.9054C18.1573 22.9153 17.9489 23.5017 17.6843 24.2085ZM26.49 25.7582C27.0747 25.8472 28.0342 25.9929 28.6223 26.082C29.2103 26.171 29.7848 26.2611 29.8989 26.2823C30.0644 26.313 30.1064 26.3519 30.1064 26.4749C30.1064 26.5597 30.0705 26.6289 30.0266 26.6287C29.9827 26.6285 29.5734 26.5737 29.117 26.5071C28.6606 26.4404 28.0287 26.3519 27.7128 26.3103C27.3968 26.2687 26.8367 26.1959 26.4681 26.1486C26.0995 26.1013 25.779 26.0812 25.7558 26.1038C25.7327 26.1265 25.6937 26.4241 25.6691 26.7651L25.6245 27.3852L25.9346 27.4253C26.1051 27.4474 26.4771 27.4844 26.7612 27.5075L27.2777 27.5496L27.3203 29.52C27.3438 30.6037 27.3537 31.4998 27.3422 31.5114C27.3307 31.523 26.9786 31.5777 26.5596 31.6328C26.1406 31.688 25.6902 31.7504 25.5585 31.7713L25.3191 31.8095V32.2923C25.3191 32.7607 25.3234 32.774 25.4628 32.7389C25.5418 32.7189 25.9798 32.6437 26.4362 32.5718C26.8926 32.4998 27.7973 32.3536 28.4468 32.2469C29.0963 32.1401 29.721 32.0366 29.8351 32.0168C30.0214 31.9844 30.0426 31.9584 30.0426 31.7618C30.0426 31.5513 30.0345 31.5441 29.8351 31.5744C29.721 31.5917 29.2543 31.66 28.7979 31.7261C28.3415 31.7921 27.9587 31.8369 27.9473 31.8254C27.9358 31.814 27.8965 30.7781 27.8598 29.5234C27.8215 28.2085 27.7672 27.2256 27.7317 27.2029C27.6979 27.1813 27.3279 27.1273 26.9096 27.083C26.172 27.005 26.1489 26.9979 26.1489 26.8481C26.1489 26.7632 26.1637 26.6937 26.1817 26.6937C26.1998 26.6937 26.8964 26.7817 27.7296 26.8893C28.5629 26.9969 29.3596 27.1004 29.5 27.1193C29.6404 27.1382 29.8199 27.1669 29.8989 27.1831C29.9833 27.2004 30.0426 27.26 30.0426 27.3276C30.0426 27.4314 30.0004 27.4379 29.6117 27.3942C29.3748 27.3675 29.0201 27.3443 28.8235 27.3424L28.4662 27.3391L28.4206 29.3075C28.3956 30.39 28.3945 31.3077 28.4182 31.3465C28.4432 31.3873 28.5461 31.4016 28.6616 31.3803C28.7716 31.3599 29.1489 31.3131 29.5 31.2764C29.8511 31.2395 30.2029 31.1949 30.2819 31.1772C30.4226 31.1456 30.4255 31.1569 30.4255 31.7259C30.4255 32.2752 30.4177 32.3087 30.2819 32.3413C30.2029 32.3602 29.4346 32.5074 28.5745 32.6684C27.7144 32.8295 26.727 33.0147 26.3804 33.08C26.0339 33.1453 25.7256 33.2382 25.6953 33.2866C25.6587 33.3448 25.6399 33.2929 25.6393 33.1323C25.6385 32.9432 25.6139 32.8913 25.5266 32.8953C25.4599 32.8984 25.447 32.9135 25.4947 32.933C25.5386 32.9509 25.5745 33.0202 25.5745 33.087C25.5745 33.1538 25.517 33.2395 25.4468 33.2775C25.3303 33.3406 25.3191 33.3266 25.3191 33.1184C25.3191 32.9422 25.2937 32.8914 25.2074 32.8953C25.1407 32.8984 25.1279 32.9135 25.1755 32.933C25.2194 32.9509 25.2553 33.0324 25.2553 33.114C25.2553 33.2048 25.2089 33.2747 25.1359 33.294C25.0319 33.3215 25.0113 33.2753 24.9763 32.9371C24.9542 32.7234 24.9362 32.2496 24.9362 31.8843V31.2199L25.2074 31.1833C25.3567 31.1631 25.7762 31.1178 26.1397 31.0825C26.5033 31.0472 26.8264 31.0184 26.8578 31.0184C26.8898 31.0184 26.9149 30.3357 26.9149 29.4672C26.9149 28.2841 26.8959 27.9094 26.8351 27.8882C26.7913 27.8729 26.4318 27.8348 26.0365 27.8034C25.6411 27.7721 25.3007 27.7293 25.2801 27.7084C25.2594 27.6876 25.2634 27.2038 25.289 26.6334C25.3146 26.063 25.3561 25.5964 25.3813 25.5964C25.4065 25.5964 25.9054 25.6692 26.49 25.7582ZM22.5016 26.3548C22.5344 26.488 22.6805 27.1632 22.8263 27.8555C22.9721 28.5478 23.189 29.5644 23.3083 30.1147C23.4275 30.665 23.5865 31.4056 23.6616 31.7607C23.7366 32.1157 23.8251 32.5139 23.8582 32.6455C23.8919 32.7796 23.9527 32.8765 23.9964 32.8658C24.0394 32.8554 24.0529 32.8591 24.0266 32.8739C24.0003 32.8888 23.9787 32.9833 23.9787 33.0839C23.9787 33.1844 24.0081 33.2815 24.0441 33.2996C24.0801 33.3176 24.0729 33.3249 24.0282 33.3158C23.9834 33.3066 23.9287 33.2144 23.9065 33.1109C23.8706 32.9432 23.8654 32.9397 23.8586 33.0788C23.8544 33.1648 23.8986 33.2882 23.9567 33.3531C24.0261 33.4308 24.0357 33.4712 23.9844 33.4712C23.9416 33.4712 23.8438 33.4368 23.7671 33.3948C23.6904 33.3528 23.5225 33.3258 23.394 33.3348C23.2242 33.3466 23.1413 33.319 23.0908 33.2336C23.0249 33.1223 23.0178 33.1221 22.9543 33.2291C22.9174 33.2912 22.8169 33.3421 22.7309 33.3421C22.6449 33.3421 22.5745 33.317 22.5745 33.2865C22.5745 33.2559 22.6463 33.2447 22.734 33.2617C22.8766 33.2893 22.8936 33.2712 22.8936 33.0914C22.8936 32.9807 22.8658 32.8902 22.8318 32.8902C22.7978 32.8902 22.7865 32.9338 22.8067 32.9871C22.8269 33.0403 22.8117 33.0839 22.7728 33.0839C22.7339 33.0839 22.7021 33.0386 22.7021 32.9832C22.7021 32.9228 22.6723 32.9013 22.6274 32.9293C22.5766 32.961 22.5664 32.9402 22.5952 32.8642C22.6185 32.8027 22.5962 32.5437 22.5457 32.2888C22.4951 32.0338 22.3652 31.3459 22.2571 30.7602C22.1489 30.1744 22.0192 29.4918 21.9688 29.2433C21.9183 28.9948 21.8314 28.5446 21.7755 28.2428C21.7197 27.941 21.6179 27.3895 21.5492 27.0171C21.4806 26.6447 21.4084 26.289 21.3888 26.2264C21.3566 26.124 21.4068 26.1127 21.8975 26.1127H22.4419L22.5016 26.3548ZM15.5026 26.4876L15.7393 26.5323L14.5278 28.7897C13.8614 30.0312 13.2915 31.0721 13.2612 31.1028C13.2306 31.1337 12.9918 31.1345 12.7236 31.1045L12.2411 31.0506L13.5621 28.7433C14.8407 26.5099 14.8891 26.4361 15.0745 26.4394C15.1798 26.4414 15.3725 26.463 15.5026 26.4876ZM20.3395 28.1944C20.3391 28.2388 20.3224 28.3363 20.3026 28.411C20.2703 28.5328 20.2156 28.5482 19.7769 28.559C19.5076 28.5657 18.6122 28.5981 17.7872 28.6313C16.9622 28.6644 16.1929 28.6923 16.0776 28.6931C15.8954 28.6944 15.8764 28.6798 15.9329 28.5817C15.9686 28.5196 16.0386 28.4162 16.0884 28.3521C16.1665 28.2515 16.3316 28.2283 17.2863 28.1843C17.8954 28.1563 18.8317 28.1289 19.367 28.1235C20.1088 28.116 20.3402 28.1329 20.3395 28.1944ZM18.234 30.2786C19.3048 30.3696 20.3815 30.4643 20.6266 30.4891L21.0725 30.5342L21.1146 30.7924C21.1378 30.9344 21.1474 31.0607 21.1361 31.073C21.1247 31.0853 20.1152 30.9608 18.8928 30.7965C17.6704 30.6321 16.4691 30.4697 16.2234 30.4355C15.9777 30.4013 15.7156 30.3659 15.641 30.3569C15.5265 30.3432 15.5141 30.3167 15.5618 30.188C15.6141 30.0467 15.6429 30.0383 15.9528 30.0742C16.1367 30.0956 17.1633 30.1876 18.234 30.2786ZM19.7367 32.7009C19.7598 32.7387 19.7686 32.7799 19.7563 32.7924C19.7439 32.8049 19.6781 32.7739 19.61 32.7236C19.5065 32.647 19.5033 32.632 19.5904 32.632C19.6477 32.632 19.7136 32.663 19.7367 32.7009ZM21.1527 33.1634C21.1384 33.2794 21.1265 33.2001 21.1262 32.9871C21.1258 32.774 21.1374 32.6791 21.152 32.7761C21.1666 32.8731 21.1668 33.0474 21.1527 33.1634ZM21.4818 32.7544C21.3533 32.8596 21.3413 32.9026 21.3961 33.061C21.4419 33.1933 21.5089 33.251 21.6341 33.2656C21.7301 33.2769 21.8085 33.2551 21.8085 33.2172C21.8085 33.1794 21.8407 33.1484 21.8801 33.1484C21.9297 33.1484 21.9272 33.1784 21.8723 33.2452C21.8286 33.2985 21.7266 33.3421 21.6457 33.3421C21.5647 33.3421 21.4534 33.2964 21.3981 33.2407C21.343 33.1848 21.2979 33.0813 21.2979 33.0105C21.2979 32.9397 21.3276 32.8256 21.3639 32.7569C21.4003 32.6882 21.4753 32.632 21.5306 32.632C21.605 32.632 21.5923 32.6639 21.4818 32.7544ZM21.843 32.7009C21.8662 32.7387 21.8751 32.7794 21.8628 32.7912C21.8505 32.803 21.8034 32.772 21.7581 32.7223C21.7128 32.6727 21.704 32.632 21.7384 32.632C21.7728 32.632 21.8199 32.663 21.843 32.7009ZM22.1101 33.1634C22.0959 33.2794 22.0839 33.2001 22.0836 32.9871C22.0832 32.774 22.0949 32.6791 22.1095 32.7761C22.124 32.8731 22.1243 33.0474 22.1101 33.1634ZM22.383 32.6643C22.383 32.6821 22.3686 32.6966 22.3511 32.6966C22.3335 32.6966 22.3191 32.6821 22.3191 32.6643C22.3191 32.6466 22.3335 32.632 22.3511 32.632C22.3686 32.632 22.383 32.6466 22.383 32.6643ZM20.3111 32.8946C20.3343 32.9324 20.3432 32.973 20.3309 32.9849C20.3186 32.9967 20.2715 32.9657 20.2262 32.916C20.1809 32.8663 20.172 32.8257 20.2065 32.8257C20.2409 32.8257 20.288 32.8567 20.3111 32.8946ZM20.5862 32.9463C20.5453 33.0126 20.5297 33.1142 20.5518 33.1722C20.5737 33.2301 20.6477 33.2775 20.7161 33.2775C20.7845 33.2775 20.855 33.2478 20.8729 33.2114C20.8907 33.175 20.8979 33.1822 20.8889 33.2275C20.8798 33.2727 20.8231 33.3195 20.7629 33.3313C20.7027 33.343 20.6118 33.3177 20.5608 33.2749C20.5098 33.2321 20.4681 33.1484 20.4681 33.0889C20.4681 33.0293 20.5026 32.9457 20.5447 32.9031C20.5868 32.8605 20.6301 32.8257 20.6409 32.8257C20.6518 32.8257 20.6271 32.8799 20.5862 32.9463ZM20.8856 32.8946C20.9088 32.9324 20.9176 32.973 20.9053 32.9849C20.8931 32.9967 20.846 32.9657 20.8007 32.916C20.7554 32.8663 20.7465 32.8257 20.781 32.8257C20.8154 32.8257 20.8625 32.8567 20.8856 32.8946ZM22.3642 33.2291C22.349 33.309 22.3365 33.2436 22.3365 33.0839C22.3365 32.9241 22.349 32.8587 22.3642 32.9386C22.3794 33.0186 22.3794 33.1492 22.3642 33.2291ZM24.266 32.8902C24.2877 32.9257 24.291 32.9548 24.2735 32.9548C24.2559 32.9548 24.2238 32.9257 24.2021 32.8902C24.1804 32.8547 24.177 32.8257 24.1946 32.8257C24.2121 32.8257 24.2443 32.8547 24.266 32.8902ZM24.5691 32.8684C24.5253 32.8864 24.4894 32.9833 24.4894 33.0839C24.4894 33.1844 24.5188 33.2815 24.5548 33.2996C24.5908 33.3176 24.5836 33.325 24.5388 33.3161C24.4941 33.307 24.448 33.2345 24.4364 33.1548C24.4249 33.0752 24.4311 32.9685 24.4504 32.9178C24.4696 32.8671 24.5222 32.828 24.5672 32.8308C24.6312 32.8348 24.6316 32.8429 24.5691 32.8684ZM24.8404 33.0839C24.8404 33.2052 24.8035 33.3115 24.7558 33.3275C24.6856 33.3512 24.6855 33.3328 24.7551 33.22C24.8247 33.1074 24.8247 33.0603 24.7551 32.9477C24.6855 32.8349 24.6856 32.8165 24.7558 32.8402C24.8035 32.8563 24.8404 32.9625 24.8404 33.0839ZM23.0263 32.9343C23.0236 32.9762 23.1074 33.0726 23.2128 33.1484C23.3181 33.2243 23.4043 33.2545 23.4043 33.2157C23.4043 33.177 23.3354 33.1188 23.2514 33.0865C23.1673 33.0541 23.0834 32.9895 23.0649 32.9428C23.0429 32.8872 23.0296 32.8842 23.0263 32.9343ZM23.1489 32.9225C23.1489 32.9403 23.1633 32.9548 23.1809 32.9548C23.1984 32.9548 23.2128 32.9403 23.2128 32.9225C23.2128 32.9048 23.1984 32.8902 23.1809 32.8902C23.1633 32.8902 23.1489 32.9048 23.1489 32.9225ZM23.2979 32.9333C23.3213 32.9569 23.3596 32.9569 23.383 32.9333C23.4064 32.9096 23.3872 32.8902 23.3404 32.8902C23.2936 32.8902 23.2745 32.9096 23.2979 32.9333ZM22.5532 33.1269C22.5298 33.1506 22.5106 33.1312 22.5106 33.0839C22.5106 33.0366 22.5298 33.0172 22.5532 33.0408C22.5766 33.0645 22.5766 33.1032 22.5532 33.1269ZM20.3192 33.256C20.2957 33.2796 20.2766 33.2603 20.2766 33.213C20.2766 33.1657 20.2957 33.1463 20.3192 33.1699C20.3425 33.1936 20.3425 33.2323 20.3192 33.256ZM23.1489 33.2452C23.1489 33.263 23.1633 33.2775 23.1809 33.2775C23.1984 33.2775 23.2128 33.263 23.2128 33.2452C23.2128 33.2275 23.1984 33.213 23.1809 33.213C23.1633 33.213 23.1489 33.2275 23.1489 33.2452ZM24.2979 33.2414C24.2979 33.2571 24.2647 33.2906 24.2241 33.3159C24.1785 33.3445 24.1678 33.3337 24.1961 33.2875C24.2211 33.2465 24.2542 33.213 24.2697 33.213C24.2852 33.213 24.2979 33.2258 24.2979 33.2414ZM22.5745 33.5034C22.5745 33.5212 22.5601 33.5357 22.5426 33.5357C22.525 33.5357 22.5106 33.5212 22.5106 33.5034C22.5106 33.4857 22.525 33.4712 22.5426 33.4712C22.5601 33.4712 22.5745 33.4857 22.5745 33.5034Z" fill="white"/>
</svg>
