<svg width="42" height="42" viewBox="0 0 42 42" fill="none" xmlns="http://www.w3.org/2000/svg">
<rect width="42" height="42" rx="8" fill="#F2C94C"/>
<g clip-path="url(#clip0_9432_44009)">
<path d="M30 26.5382C30 26.1535 29.8654 25.8266 29.5962 25.5574L26.5962 22.5574C26.3269 22.2882 26 22.1535 25.6154 22.1535C25.2115 22.1535 24.8654 22.3074 24.5769 22.6151C24.6058 22.6439 24.6971 22.7329 24.851 22.8819C25.0048 23.0309 25.1082 23.1343 25.1611 23.192C25.2139 23.2497 25.2861 23.341 25.3774 23.466C25.4688 23.591 25.5313 23.7136 25.5649 23.8338C25.5986 23.954 25.6154 24.0862 25.6154 24.2305C25.6154 24.6151 25.4808 24.942 25.2115 25.2112C24.9423 25.4805 24.6154 25.6151 24.2308 25.6151C24.0865 25.6151 23.9543 25.5983 23.8341 25.5646C23.7139 25.531 23.5913 25.4685 23.4663 25.3771C23.3413 25.2858 23.25 25.2136 23.1923 25.1608C23.1346 25.1079 23.0313 25.0045 22.8822 24.8507C22.7332 24.6968 22.6442 24.6055 22.6154 24.5766C22.2981 24.8747 22.1394 25.2257 22.1394 25.6295C22.1394 26.0141 22.274 26.341 22.5433 26.6103L25.5144 29.5959C25.774 29.8555 26.101 29.9853 26.4952 29.9853C26.8798 29.9853 27.2067 29.8603 27.476 29.6103L29.5962 27.5045C29.8654 27.2353 30 26.9132 30 26.5382ZM19.8606 16.3699C19.8606 15.9853 19.726 15.6584 19.4567 15.3891L16.4856 12.4035C16.2163 12.1343 15.8894 11.9997 15.5048 11.9997C15.1298 11.9997 14.8029 12.1295 14.524 12.3891L12.4038 14.4949C12.1346 14.7641 12 15.0862 12 15.4612C12 15.8459 12.1346 16.1728 12.4038 16.442L15.4038 19.442C15.6635 19.7016 15.9904 19.8314 16.3846 19.8314C16.7885 19.8314 17.1346 19.6824 17.4231 19.3843C17.3942 19.3555 17.3029 19.2665 17.149 19.1175C16.9952 18.9684 16.8918 18.8651 16.8389 18.8074C16.7861 18.7497 16.7139 18.6584 16.6226 18.5334C16.5313 18.4084 16.4688 18.2858 16.4351 18.1656C16.4014 18.0454 16.3846 17.9132 16.3846 17.7689C16.3846 17.3843 16.5192 17.0574 16.7885 16.7882C17.0577 16.5189 17.3846 16.3843 17.7692 16.3843C17.9135 16.3843 18.0457 16.4011 18.1659 16.4348C18.2861 16.4684 18.4087 16.5309 18.5337 16.6223C18.6587 16.7136 18.75 16.7858 18.8077 16.8386C18.8654 16.8915 18.9688 16.9949 19.1178 17.1487C19.2668 17.3026 19.3558 17.3939 19.3846 17.4228C19.7019 17.1247 19.8606 16.7737 19.8606 16.3699ZM32.7692 26.5382C32.7692 27.692 32.3606 28.668 31.5433 29.466L29.4231 31.5718C28.625 32.3699 27.649 32.7689 26.4952 32.7689C25.3317 32.7689 24.351 32.3603 23.5529 31.543L20.5817 28.5574C19.7837 27.7593 19.3846 26.7834 19.3846 25.6295C19.3846 24.4468 19.8077 23.442 20.6538 22.6151L19.3846 21.3459C18.5577 22.192 17.5577 22.6151 16.3846 22.6151C15.2308 22.6151 14.25 22.2112 13.4423 21.4035L10.4423 18.4035C9.63462 17.5959 9.23077 16.6151 9.23077 15.4612C9.23077 14.3074 9.63942 13.3314 10.4567 12.5334L12.5769 10.4276C13.375 9.62951 14.351 9.23047 15.5048 9.23047C16.6683 9.23047 17.649 9.63912 18.4471 10.4564L21.4183 13.442C22.2163 14.2401 22.6154 15.216 22.6154 16.3699C22.6154 17.5526 22.1923 18.5574 21.3462 19.3843L22.6154 20.6535C23.4423 19.8074 24.4423 19.3843 25.6154 19.3843C26.7692 19.3843 27.75 19.7882 28.5577 20.5959L31.5577 23.5959C32.3654 24.4035 32.7692 25.3843 32.7692 26.5382Z" fill="white"/>
</g>
<defs>
<clipPath id="clip0_9432_44009">
<rect width="24" height="24" fill="white" transform="translate(9 9)"/>
</clipPath>
</defs>
</svg>
