<svg width="42" height="42" viewBox="0 0 42 42" fill="none" xmlns="http://www.w3.org/2000/svg">
<rect width="42" height="42" rx="8" fill="#F2C94C"/>
<path d="M12.9479 21.7085C12.9479 21.4681 13.0434 21.2376 13.2133 21.0677C13.3833 20.8977 13.6138 20.8022 13.8542 20.8022H27.1458C27.3862 20.8022 27.6167 20.8977 27.7866 21.0677C27.9566 21.2376 28.0521 21.4681 28.0521 21.7085V23.521C28.0528 24.173 27.8191 24.8034 27.3938 25.2975C26.9684 25.7916 26.3797 26.1164 25.7349 26.2127C25.0901 26.309 24.4322 26.1704 23.881 25.8222C23.3299 25.4739 22.9222 24.9392 22.7324 24.3155C22.4726 23.4624 21.6691 22.6147 20.5 22.6147C19.3309 22.6147 18.528 23.4624 18.2676 24.3155C18.0778 24.9392 17.6701 25.4739 17.119 25.8222C16.5678 26.1704 15.9099 26.309 15.2651 26.2127C14.6203 26.1164 14.0315 25.7916 13.6062 25.2975C13.1809 24.8034 12.9472 24.173 12.9479 23.521V21.7085Z" fill="white"/>
<path fill-rule="evenodd" clip-rule="evenodd" d="M16.2708 11.4375C11.9329 11.4375 8.41666 14.9537 8.41666 19.2917C8.41674 19.988 8.65729 20.6629 9.09764 21.2024C9.53799 21.7418 10.1511 22.1126 10.8333 22.2521V23.5208C10.8325 24.6797 11.2481 25.8002 12.0044 26.6783C12.7606 27.5563 13.8071 28.1335 14.9532 28.3045C16.0994 28.4756 17.2688 28.2291 18.2485 27.6101C19.2281 26.9911 19.9528 26.0407 20.2903 24.9322C20.3086 24.8703 20.3443 24.8149 20.3931 24.7727C20.4223 24.7458 20.4603 24.7304 20.5 24.7292C20.5302 24.7292 20.5664 24.7394 20.6069 24.7727C20.6492 24.8077 20.6885 24.8633 20.7096 24.9322C21.0472 26.0407 21.7719 26.9911 22.7515 27.6101C23.7312 28.2291 24.9006 28.4756 26.0467 28.3045C27.1929 28.1335 28.2394 27.5563 28.9956 26.6783C29.7519 25.8002 30.1674 24.6797 30.1667 23.5208V22.2521C30.8489 22.1126 31.462 21.7418 31.9023 21.2024C32.3427 20.6629 32.5832 19.988 32.5833 19.2917C32.5833 14.9537 29.0671 11.4375 24.7292 11.4375H16.2708ZM30.0893 21.0262C30.4613 20.9131 30.787 20.6835 31.0185 20.3712C31.25 20.0589 31.375 19.6804 31.375 19.2917C31.375 15.6214 28.3995 12.6458 24.7292 12.6458H16.2708C12.6005 12.6458 9.62499 15.6214 9.62499 19.2917C9.62492 19.6804 9.74986 20.0589 9.98137 20.3713C10.2129 20.6836 10.5387 20.9132 10.9107 21.0262C11.065 20.3612 11.44 19.7681 11.9745 19.3434C12.509 18.9188 13.1715 18.6876 13.8542 18.6875H27.1458C27.8285 18.6876 28.491 18.9188 29.0255 19.3434C29.56 19.7681 29.935 20.3612 30.0893 21.0262ZM13.8542 19.8958C13.3735 19.8958 12.9124 20.0868 12.5725 20.4267C12.2326 20.7666 12.0417 21.2276 12.0417 21.7083V23.5208C12.0408 24.3901 12.3523 25.2307 12.9195 25.8895C13.4866 26.5482 14.2716 26.9813 15.1313 27.1096C15.991 27.238 16.8683 27.0532 17.6031 26.5888C18.3379 26.1245 18.8815 25.4115 19.1346 24.5799C19.3037 24.0241 19.8112 23.5208 20.5 23.5208C21.1893 23.5208 21.6962 24.0247 21.8654 24.5799C22.1185 25.4115 22.662 26.1245 23.3969 26.5888C24.1317 27.0532 25.0089 27.238 25.8687 27.1096C26.7284 26.9813 27.5134 26.5482 28.0805 25.8895C28.6476 25.2307 28.9592 24.3901 28.9583 23.5208V21.7083C28.9583 21.2276 28.7674 20.7666 28.4275 20.4267C28.0875 20.0868 27.6265 19.8958 27.1458 19.8958H13.8542Z" fill="white"/>
</svg>
