<svg width="42" height="42" viewBox="0 0 42 42" fill="none" xmlns="http://www.w3.org/2000/svg">
<rect width="42" height="42" rx="8" fill="#219653"/>
<path d="M28.0287 17.5559L25.974 29.8225C25.9418 29.9985 25.8491 30.1577 25.7119 30.2725C25.5746 30.3873 25.4016 30.4505 25.2227 30.4512H15.7773C15.5984 30.4505 15.4254 30.3873 15.2882 30.2725C15.151 30.1577 15.0582 29.9985 15.026 29.8225L12.9713 17.5559C12.9536 17.4467 12.9598 17.335 12.9893 17.2284C13.0189 17.1218 13.0711 17.0229 13.1425 16.9384C13.2139 16.8539 13.3027 16.7859 13.4028 16.739C13.503 16.692 13.6121 16.6673 13.7227 16.6665H27.262C27.3739 16.6651 27.4847 16.6882 27.5868 16.7341C27.6888 16.7801 27.7795 16.8478 27.8526 16.9326C27.9256 17.0173 27.9793 17.117 28.0097 17.2247C28.0401 17.3324 28.0466 17.4454 28.0287 17.5559ZM28.9333 14.3665C28.9333 14.5699 28.8526 14.7649 28.7088 14.9087C28.565 15.0524 28.37 15.1332 28.1667 15.1332H12.8333C12.63 15.1332 12.435 15.0524 12.2912 14.9087C12.1475 14.7649 12.0667 14.5699 12.0667 14.3665C12.0667 14.1632 12.1475 13.9682 12.2912 13.8244C12.435 13.6806 12.63 13.5999 12.8333 13.5999H16.6667V11.2999C16.6667 11.0965 16.7475 10.9015 16.8912 10.7578C17.035 10.614 17.23 10.5332 17.4333 10.5332H23.5667C23.77 10.5332 23.965 10.614 24.1088 10.7578C24.2526 10.9015 24.3333 11.0965 24.3333 11.2999V13.5999H28.1667C28.37 13.5999 28.565 13.6806 28.7088 13.8244C28.8526 13.9682 28.9333 14.1632 28.9333 14.3665ZM22.8 13.5999V12.0665H18.2V13.5999H22.8Z" fill="white"/>
</svg>
