<svg width="300" height="300" viewBox="0 0 300 300" fill="none" xmlns="http://www.w3.org/2000/svg">
<g clip-path="url(#clip0_21434_37300)">
<path opacity="0.961" fill-rule="evenodd" clip-rule="evenodd" d="M299.707 34.8633C299.707 105.762 299.707 176.66 299.707 247.559C298.018 251.49 295.088 254.127 290.918 255.469C221.777 255.664 152.637 255.86 83.4961 256.055C79.0037 260.547 74.5119 265.039 70.0195 269.531C60.7143 274.744 52.4133 273.474 45.1172 265.723C43.0389 262.711 41.9647 259.39 41.8945 255.762C30.76 255.86 19.6272 255.762 8.49609 255.469C4.32578 254.127 1.3961 251.49 -0.292969 247.559C-0.292969 176.66 -0.292969 105.762 -0.292969 34.8633C1.47452 30.6571 4.59952 28.0203 9.08203 26.9531C79.9805 26.5625 150.879 26.5625 221.777 26.9531C224.736 27.7932 226.103 29.7463 225.879 32.8125C226.056 35.5849 224.884 37.538 222.363 38.6719C152.051 38.9648 81.7383 39.0625 11.4258 38.9648C11.4258 50.4883 11.4258 62.0115 11.4258 73.5352C103.613 73.5352 195.801 73.5352 287.988 73.5352C287.988 62.0115 287.988 50.4883 287.988 38.9648C280.174 39.0625 272.361 38.9648 264.551 38.6719C259.75 35.4086 259.359 31.6976 263.379 27.5391C272.323 26.5907 281.308 26.3954 290.332 26.9531C294.814 28.0203 297.939 30.6571 299.707 34.8633ZM11.4258 85.8398C103.613 85.8398 195.801 85.8398 287.988 85.8398C287.988 138.379 287.988 190.918 287.988 243.457C224.121 243.555 160.253 243.457 96.3867 243.164C102.938 236.515 109.579 229.972 116.309 223.535C140.627 235.993 164.454 235.114 187.793 220.898C209.787 204.732 219.455 182.955 216.797 155.566C211.801 127.327 195.687 108.674 168.457 99.6094C140.342 92.901 116.612 100.225 97.2656 121.582C83.7475 138.968 79.2551 158.499 83.7891 180.176C85.6096 186.616 87.7576 192.865 90.2344 198.926C75.4881 213.672 60.7424 228.418 45.9961 243.164C34.4743 243.457 22.9509 243.555 11.4258 243.457C11.4258 190.918 11.4258 138.379 11.4258 85.8398ZM144.434 109.277C170.813 108.642 189.66 120.165 200.977 143.848C210.253 172.829 202.343 195.779 177.246 212.695C150.446 225.616 126.911 221.222 106.641 199.512C93.815 182.512 91.0805 163.958 98.4375 143.848C107.515 123.922 122.847 112.398 144.434 109.277ZM97.5586 208.887C100.153 211.377 102.887 213.819 105.762 216.211C91.3084 230.664 76.8557 245.117 62.4023 259.57C55.717 260.892 53.2755 258.255 55.0781 251.66C69.3562 237.48 83.5166 223.222 97.5586 208.887Z" fill="url(#paint0_linear_21434_37300)"/>
<path opacity="0.885" fill-rule="evenodd" clip-rule="evenodd" d="M241.699 26.6602C248.551 26.7769 250.798 30.0973 248.437 36.6211C246.447 38.7906 244.006 39.4743 241.113 38.6719C237.826 36.7518 236.752 33.9197 237.89 30.1758C238.732 28.452 240.001 27.2801 241.699 26.6602Z" fill="url(#paint1_linear_21434_37300)"/>
<path opacity="0.878" fill-rule="evenodd" clip-rule="evenodd" d="M27.2457 50.0977C33.3975 49.9035 35.8389 52.8332 34.5699 58.8867C32.8597 62.124 30.223 63.1981 26.6598 62.1094C23.3733 60.1893 22.2991 57.3573 23.4371 53.6133C24.2786 51.8895 25.5481 50.7177 27.2457 50.0977Z" fill="url(#paint2_linear_21434_37300)"/>
<path opacity="0.944" fill-rule="evenodd" clip-rule="evenodd" d="M50.6834 50.0977C70.4108 50 90.1375 50.0977 109.863 50.3906C113.703 51.9902 114.972 54.8222 113.672 58.8867C112.933 60.6024 111.664 61.6764 109.863 62.1094C89.9412 62.5002 70.0194 62.5002 50.0975 62.1094C47.5768 60.9756 46.405 59.0227 46.5819 56.25C46.4599 53.158 47.8271 51.1072 50.6834 50.0977Z" fill="url(#paint3_linear_21434_37300)"/>
<path opacity="0.941" fill-rule="evenodd" clip-rule="evenodd" d="M130.371 140.918C132.498 140.719 134.451 141.207 136.23 142.383C140.633 146.883 145.125 151.278 149.707 155.566C154.288 151.278 158.781 146.883 163.183 142.383C166.442 140.273 169.47 140.566 172.265 143.262C173.437 145.801 173.437 148.34 172.265 150.879C167.676 155.469 163.086 160.059 158.496 164.649C163.086 169.238 167.676 173.828 172.265 178.418C174.419 186.224 171.587 189.251 163.769 187.5C159.171 182.804 154.483 178.214 149.707 173.731C144.93 178.214 140.243 182.804 135.644 187.5C127.827 189.251 124.994 186.224 127.148 178.418C131.738 173.828 136.328 169.238 140.918 164.649C135.919 159.846 131.134 154.865 126.562 149.707C125.311 145.576 126.581 142.647 130.371 140.918Z" fill="url(#paint4_linear_21434_37300)"/>
</g>
<defs>
<linearGradient id="paint0_linear_21434_37300" x1="299.707" y1="26.6433" x2="181.074" y2="184.359" gradientUnits="userSpaceOnUse">
<stop stop-color="#F1F1F5"/>
<stop offset="1" stop-color="#CFCED8"/>
</linearGradient>
<linearGradient id="paint1_linear_21434_37300" x1="249.344" y1="26.6602" x2="243.161" y2="33.1597" gradientUnits="userSpaceOnUse">
<stop stop-color="#F1F1F5"/>
<stop offset="1" stop-color="#CFCED8"/>
</linearGradient>
<linearGradient id="paint2_linear_21434_37300" x1="34.8954" y1="50.0886" x2="28.6619" y2="56.5927" gradientUnits="userSpaceOnUse">
<stop stop-color="#F1F1F5"/>
<stop offset="1" stop-color="#CFCED8"/>
</linearGradient>
<linearGradient id="paint3_linear_21434_37300" x1="114.165" y1="50.061" x2="112.148" y2="62.1108" gradientUnits="userSpaceOnUse">
<stop stop-color="#F1F1F5"/>
<stop offset="1" stop-color="#CFCED8"/>
</linearGradient>
<linearGradient id="paint4_linear_21434_37300" x1="173.144" y1="140.875" x2="149.589" y2="166.525" gradientUnits="userSpaceOnUse">
<stop stop-color="#F1F1F5"/>
<stop offset="1" stop-color="#CFCED8"/>
</linearGradient>
<clipPath id="clip0_21434_37300">
<rect width="300" height="300" fill="white"/>
</clipPath>
</defs>
</svg>
