<svg width="27" height="35" viewBox="0 0 27 35" fill="none" xmlns="http://www.w3.org/2000/svg">
<path d="M23.25 12H21.625V8.75C21.625 4.265 17.985 0.625 13.5 0.625C9.015 0.625 5.375 4.265 5.375 8.75V12H3.75C1.9625 12 0.5 13.4625 0.5 15.25V31.5C0.5 33.2875 1.9625 34.75 3.75 34.75H23.25C25.0375 34.75 26.5 33.2875 26.5 31.5V15.25C26.5 13.4625 25.0375 12 23.25 12ZM8.625 8.75C8.625 6.0525 10.8025 3.875 13.5 3.875C16.1975 3.875 18.375 6.0525 18.375 8.75V12H8.625V8.75ZM23.25 31.5H3.75V15.25H23.25V31.5ZM13.5 26.625C15.2875 26.625 16.75 25.1625 16.75 23.375C16.75 21.5875 15.2875 20.125 13.5 20.125C11.7125 20.125 10.25 21.5875 10.25 23.375C10.25 25.1625 11.7125 26.625 13.5 26.625Z" fill="#828282"/>
</svg>
