<svg width="40" height="40" viewBox="0 0 40 40" fill="none" xmlns="http://www.w3.org/2000/svg">
<rect width="40" height="40" rx="8" fill="#F2994A"/>
<path opacity="0.993" fill-rule="evenodd" clip-rule="evenodd" d="M11.2578 11.7256C13.5079 11.7178 15.7579 11.7256 18.0078 11.749C18.4995 11.8385 18.9058 12.0729 19.2266 12.4521C22.3828 12.4678 25.5391 12.4834 28.6953 12.499C29.625 12.7412 30.2109 13.3272 30.4531 14.2568C30.4844 18.3194 30.4844 22.3818 30.4531 26.4443C30.2109 27.374 29.625 27.9599 28.6953 28.2021C22.8828 28.2334 17.0703 28.2334 11.2578 28.2021C10.3281 27.9599 9.74219 27.374 9.5 26.4443C9.46875 22.1318 9.46875 17.8193 9.5 13.5068C9.75073 12.5765 10.3367 11.9827 11.2578 11.7256ZM11.7266 13.2256C13.6641 13.2178 15.6016 13.2256 17.5391 13.249C17.8137 13.252 18.0246 13.3692 18.1719 13.6006C18.4836 14.2869 18.843 14.9431 19.25 15.5693C19.5843 15.8967 19.9828 16.1076 20.4453 16.2021C23.039 16.2178 25.6328 16.2334 28.2266 16.249C28.6563 16.3037 28.8984 16.5459 28.9531 16.9756C28.9844 19.9756 28.9844 22.9756 28.9531 25.9756C28.8984 26.4053 28.6563 26.6474 28.2266 26.7021C22.7266 26.7334 17.2265 26.7334 11.7266 26.7021C11.2969 26.6474 11.0547 26.4053 11 25.9756C10.9687 21.9756 10.9687 17.9756 11 13.9756C11.0631 13.5454 11.3053 13.2954 11.7266 13.2256ZM20.1172 13.9756C22.8204 13.9678 25.5235 13.9756 28.2266 13.999C28.7143 14.0717 28.9487 14.3451 28.9297 14.8193C28.854 14.7887 28.7758 14.7652 28.6953 14.749C26.1016 14.7334 23.5078 14.7178 20.9141 14.7021C20.4937 14.6335 20.2281 14.3913 20.1172 13.9756Z" fill="white"/>
</svg>
