<svg width="40" height="40" viewBox="0 0 40 40" fill="none" xmlns="http://www.w3.org/2000/svg">
<rect width="40" height="40" rx="8" fill="#9B51E0"/>
<path d="M11.7081 25.5099L19.2918 29.814C19.5072 29.9359 19.7514 30 20 30C20.2485 30 20.4927 29.9359 20.7081 29.814L28.2919 25.5099C28.5069 25.3874 28.6854 25.2115 28.8097 24.9999C28.934 24.7884 28.9996 24.5484 29 24.3041V15.6958C28.9996 15.4515 28.934 15.2116 28.8097 15C28.6855 14.7884 28.5069 14.6126 28.2919 14.4901L20.7081 10.1859C20.4927 10.0641 20.2485 10 20 10C19.7515 10 19.5073 10.0641 19.2919 10.1859L11.7081 14.4901C11.4931 14.6126 11.3145 14.7884 11.1903 15C11.066 15.2116 11.0004 15.4515 11 15.6958V24.3042C11.0004 24.5485 11.066 24.7884 11.1903 25C11.3145 25.2116 11.4931 25.3874 11.7081 25.5099ZM20.7081 11.7936L27.5837 15.6958V23.4131L20.7081 19.5929V11.7936ZM19.9977 20.7974L26.9531 24.6621L20.0001 28.6082L13.0446 24.6608L19.9977 20.7974ZM12.4163 15.6958L19.2918 11.7936V19.5902L12.4163 23.4106V15.6958Z" fill="white"/>
</svg>
