<svg width="40" height="40" viewBox="0 0 40 40" fill="none" xmlns="http://www.w3.org/2000/svg">
<rect width="40" height="40" rx="8" fill="#EB5757"/>
<path d="M12.5234 26.6562C12.5234 27.0711 12.8586 27.4062 13.2734 27.4062H26.7266C27.1414 27.4062 27.4766 27.0711 27.4766 26.6562V21.1953C27.4766 17.0656 24.1297 13.7188 20 13.7188C15.8703 13.7188 12.5234 17.0656 12.5234 21.1953V26.6562ZM14.2109 21.1953C14.2109 17.9984 16.8031 15.4062 20 15.4062C23.1969 15.4062 25.7891 17.9984 25.7891 21.1953V25.7188H17.4687V21.7109C17.4687 21.582 17.3633 21.4766 17.2344 21.4766H16.2031C16.0742 21.4766 15.9687 21.582 15.9687 21.7109V25.7188H14.2109V21.1953ZM13.0836 15.2773L14.0117 14.3492C14.0844 14.2766 14.0844 14.157 14.0117 14.0844L12.4203 12.493C12.3851 12.4581 12.3375 12.4385 12.2879 12.4385C12.2383 12.4385 12.1907 12.4581 12.1554 12.493L11.2273 13.4211C11.1924 13.4563 11.1729 13.5039 11.1729 13.5535C11.1729 13.6031 11.1924 13.6507 11.2273 13.6859L12.8187 15.2773C12.8914 15.35 13.0086 15.35 13.0836 15.2773ZM28.7773 13.4211L27.8492 12.493C27.814 12.4581 27.7664 12.4385 27.7168 12.4385C27.6672 12.4385 27.6196 12.4581 27.5844 12.493L25.993 14.0844C25.9581 14.1196 25.9385 14.1672 25.9385 14.2168C25.9385 14.2664 25.9581 14.314 25.993 14.3492L26.9211 15.2773C26.9937 15.35 27.1133 15.35 27.1859 15.2773L28.7773 13.6859C28.85 13.6109 28.85 13.4938 28.7773 13.4211ZM27.5 28.9062H12.5C12.0851 28.9062 11.75 29.2414 11.75 29.6562V30.2188C11.75 30.3219 11.8344 30.4062 11.9375 30.4062H28.0625C28.1656 30.4062 28.25 30.3219 28.25 30.2188V29.6562C28.25 29.2414 27.9148 28.9062 27.5 28.9062ZM19.3437 12.2188H20.6562C20.7594 12.2188 20.8437 12.1344 20.8437 12.0312V9.78125C20.8437 9.67812 20.7594 9.59375 20.6562 9.59375H19.3437C19.2406 9.59375 19.1562 9.67812 19.1562 9.78125V12.0312C19.1562 12.1344 19.2406 12.2188 19.3437 12.2188Z" fill="white"/>
</svg>
