<svg width="40" height="40" viewBox="0 0 40 40" fill="none" xmlns="http://www.w3.org/2000/svg">
<rect width="40" height="40" rx="8" fill="#27AE60"/>
<path d="M12.8 14.6C13.2774 14.6 13.7352 14.4104 14.0728 14.0728C14.4104 13.7352 14.6 13.2774 14.6 12.8C14.6 12.3226 14.4104 11.8648 14.0728 11.5272C13.7352 11.1896 13.2774 11 12.8 11C12.3226 11 11.8648 11.1896 11.5272 11.5272C11.1896 11.8648 11 12.3226 11 12.8C11 13.2774 11.1896 13.7352 11.5272 14.0728C11.8648 14.4104 12.3226 14.6 12.8 14.6V14.6ZM13.7 28.1C14.4161 28.1 15.1028 27.8155 15.6092 27.3092C16.1155 26.8028 16.4 26.1161 16.4 25.4C16.4 24.6839 16.1155 23.9972 15.6092 23.4908C15.1028 22.9845 14.4161 22.7 13.7 22.7C12.9839 22.7 12.2972 22.9845 11.7908 23.4908C11.2845 23.9972 11 24.6839 11 25.4C11 26.1161 11.2845 26.8028 11.7908 27.3092C12.2972 27.8155 12.9839 28.1 13.7 28.1V28.1ZM26.3 29C27.0161 29 27.7028 28.7155 28.2092 28.2092C28.7155 27.7028 29 27.0161 29 26.3C29 25.5839 28.7155 24.8972 28.2092 24.3908C27.7028 23.8845 27.0161 23.6 26.3 23.6C25.5839 23.6 24.8972 23.8845 24.3908 24.3908C23.8845 24.8972 23.6 25.5839 23.6 26.3C23.6 27.0161 23.8845 27.7028 24.3908 28.2092C24.8972 28.7155 25.5839 29 26.3 29ZM19.1 21.8C20.0548 21.8 20.9705 21.4207 21.6456 20.7456C22.3207 20.0705 22.7 19.1548 22.7 18.2C22.7 17.2452 22.3207 16.3295 21.6456 15.6544C20.9705 14.9793 20.0548 14.6 19.1 14.6C18.1452 14.6 17.2295 14.9793 16.5544 15.6544C15.8793 16.3295 15.5 17.2452 15.5 18.2C15.5 19.1548 15.8793 20.0705 16.5544 20.7456C17.2295 21.4207 18.1452 21.8 19.1 21.8V21.8ZM24.5 14.6C24.9774 14.6 25.4352 14.4104 25.7728 14.0728C26.1104 13.7352 26.3 13.2774 26.3 12.8C26.3 12.3226 26.1104 11.8648 25.7728 11.5272C25.4352 11.1896 24.9774 11 24.5 11C24.0226 11 23.5648 11.1896 23.2272 11.5272C22.8896 11.8648 22.7 12.3226 22.7 12.8C22.7 13.2774 22.8896 13.7352 23.2272 14.0728C23.5648 14.4104 24.0226 14.6 24.5 14.6V14.6Z" stroke="white" stroke-width="1.5" stroke-linecap="round" stroke-linejoin="round"/>
<path d="M15.4994 23.1504L17.2994 21.3504M14.1494 14.1504L15.9494 15.9504L14.1494 14.1504ZM22.6994 14.6004L21.7994 15.5004L22.6994 14.6004ZM24.4994 24.2754L21.7994 20.9004L24.4994 24.2754Z" stroke="white" stroke-width="1.5" stroke-linecap="round" stroke-linejoin="round"/>
</svg>
