<svg width="40" height="40" viewBox="0 0 40 40" fill="none" xmlns="http://www.w3.org/2000/svg">
<rect width="40" height="40" rx="8" fill="#F2C94C"/>
<path opacity="0.96" fill-rule="evenodd" clip-rule="evenodd" d="M21.7813 13.0091C22.8821 12.9246 23.3969 13.4275 23.3258 14.5177C22.0807 18.2532 20.8354 21.9888 19.5903 25.7243C19.2551 26.2928 18.7642 26.4963 18.1176 26.3349C17.4757 26.0448 17.2242 25.554 17.3633 24.8623C18.6085 21.1267 19.8537 17.3912 21.0989 13.6556C21.2717 13.3749 21.4991 13.1594 21.7813 13.0091Z" fill="white"/>
<path opacity="0.958" fill-rule="evenodd" clip-rule="evenodd" d="M14.6694 14.8047C15.8971 14.9614 16.2682 15.6079 15.7829 16.7443C14.8001 17.7151 13.8303 18.6969 12.8735 19.6896C13.8303 20.6823 14.8001 21.6641 15.7829 22.6349C16.2638 23.6846 15.9406 24.3311 14.8131 24.5746C14.5578 24.5347 14.3183 24.4509 14.0947 24.3231C12.7896 23.0181 11.4846 21.7131 10.1796 20.408C9.94014 19.9291 9.94014 19.4502 10.1796 18.9712C11.4846 17.6662 12.7896 16.3612 14.0947 15.0561C14.2857 14.9499 14.4772 14.8661 14.6694 14.8047Z" fill="white"/>
<path opacity="0.958" fill-rule="evenodd" clip-rule="evenodd" d="M25.7328 14.8047C26.0395 14.8215 26.3269 14.9053 26.5949 15.0561C27.8999 16.3612 29.2049 17.6662 30.51 18.9712C30.7494 19.4502 30.7494 19.9291 30.51 20.408C29.2049 21.7131 27.8999 23.0181 26.5949 24.3231C25.5663 24.8026 24.9198 24.4913 24.6553 23.3892C24.6894 23.1208 24.7732 22.8694 24.9067 22.6349C25.8895 21.6641 26.8593 20.6823 27.8161 19.6896C26.8593 18.6969 25.8895 17.7151 24.9067 16.7443C24.4376 15.7677 24.713 15.1212 25.7328 14.8047Z" fill="white"/>
</svg>
