<svg width="24" height="24" viewBox="0 0 24 24" fill="none" xmlns="http://www.w3.org/2000/svg">
<g clip-path="url(#clip0_9899_46996)">
<path d="M4.5 5.25V18.75C4.5 18.9489 4.42098 19.1397 4.28033 19.2803C4.13968 19.421 3.94891 19.5 3.75 19.5C3.55109 19.5 3.36032 19.421 3.21967 19.2803C3.07902 19.1397 3 18.9489 3 18.75V5.25C3 5.05109 3.07902 4.86032 3.21967 4.71967C3.36032 4.57902 3.55109 4.5 3.75 4.5C3.94891 4.5 4.13968 4.57902 4.28033 4.71967C4.42098 4.86032 4.5 5.05109 4.5 5.25V5.25ZM12.375 10.3594L10.5 10.9688V9C10.5 8.80109 10.421 8.61032 10.2803 8.46967C10.1397 8.32902 9.94891 8.25 9.75 8.25C9.55109 8.25 9.36032 8.32902 9.21967 8.46967C9.07902 8.61032 9 8.80109 9 9V10.9688L7.125 10.3594C7.03213 10.3274 6.93377 10.3145 6.83579 10.3213C6.73781 10.3282 6.64222 10.3547 6.55473 10.3994C6.46723 10.444 6.38962 10.5058 6.32652 10.5811C6.26343 10.6563 6.21615 10.7436 6.1875 10.8375C6.15541 10.931 6.14236 11.03 6.14913 11.1286C6.15589 11.2272 6.18233 11.3235 6.22689 11.4118C6.27145 11.5 6.33323 11.5784 6.40858 11.6424C6.48393 11.7064 6.57133 11.7547 6.66562 11.7844L8.54062 12.3937L7.37812 13.9875C7.32001 14.0674 7.27826 14.1581 7.25528 14.2542C7.2323 14.3503 7.22854 14.45 7.24422 14.5476C7.2599 14.6452 7.29471 14.7387 7.34665 14.8227C7.39859 14.9068 7.46664 14.9798 7.54688 15.0375C7.70914 15.1525 7.91001 15.1992 8.10635 15.1676C8.30268 15.1361 8.4788 15.0288 8.59687 14.8688L9.75 13.275L10.9031 14.8688C11.0212 15.0288 11.1973 15.1361 11.3937 15.1676C11.59 15.1992 11.7909 15.1525 11.9531 15.0375C12.0334 14.9798 12.1014 14.9068 12.1533 14.8227C12.2053 14.7387 12.2401 14.6452 12.2558 14.5476C12.2715 14.45 12.2677 14.3503 12.2447 14.2542C12.2217 14.1581 12.18 14.0674 12.1219 13.9875L10.9594 12.3937L12.8344 11.7844C12.9287 11.7547 13.0161 11.7064 13.0914 11.6424C13.1668 11.5784 13.2285 11.5 13.2731 11.4118C13.3177 11.3235 13.3441 11.2272 13.3509 11.1286C13.3576 11.03 13.3446 10.931 13.3125 10.8375C13.2839 10.7436 13.2366 10.6563 13.1735 10.5811C13.1104 10.5058 13.0328 10.444 12.9453 10.3994C12.8578 10.3547 12.7622 10.3282 12.6642 10.3213C12.5662 10.3145 12.4679 10.3274 12.375 10.3594V10.3594ZM22.3125 10.8375C22.2839 10.7436 22.2366 10.6563 22.1735 10.5811C22.1104 10.5058 22.0328 10.444 21.9453 10.3994C21.8578 10.3547 21.7622 10.3282 21.6642 10.3213C21.5662 10.3145 21.4679 10.3274 21.375 10.3594L19.5 10.9688V9C19.5 8.80109 19.421 8.61032 19.2803 8.46967C19.1397 8.32902 18.9489 8.25 18.75 8.25C18.5511 8.25 18.3603 8.32902 18.2197 8.46967C18.079 8.61032 18 8.80109 18 9V10.9688L16.125 10.3594C16.0321 10.3274 15.9338 10.3145 15.8358 10.3213C15.7378 10.3282 15.6422 10.3547 15.5547 10.3994C15.4672 10.444 15.3896 10.5058 15.3265 10.5811C15.2634 10.6563 15.2161 10.7436 15.1875 10.8375C15.1554 10.931 15.1424 11.03 15.1491 11.1286C15.1559 11.2272 15.1823 11.3235 15.2269 11.4118C15.2715 11.5 15.3332 11.5784 15.4086 11.6424C15.4839 11.7064 15.5713 11.7547 15.6656 11.7844L17.5406 12.3937L16.3781 13.9875C16.32 14.0674 16.2783 14.1581 16.2553 14.2542C16.2323 14.3503 16.2285 14.45 16.2442 14.5476C16.2599 14.6452 16.2947 14.7387 16.3467 14.8227C16.3986 14.9068 16.4666 14.9798 16.5469 15.0375C16.7091 15.1525 16.91 15.1992 17.1063 15.1676C17.3027 15.1361 17.4788 15.0288 17.5969 14.8688L18.75 13.275L19.9031 14.8688C20.0212 15.0288 20.1973 15.1361 20.3937 15.1676C20.59 15.1992 20.7909 15.1525 20.9531 15.0375C21.0334 14.9798 21.1014 14.9068 21.1533 14.8227C21.2053 14.7387 21.2401 14.6452 21.2558 14.5476C21.2715 14.45 21.2677 14.3503 21.2447 14.2542C21.2217 14.1581 21.18 14.0674 21.1219 13.9875L19.9594 12.3937L21.8344 11.7844C21.9287 11.7547 22.0161 11.7064 22.0914 11.6424C22.1668 11.5784 22.2285 11.5 22.2731 11.4118C22.3177 11.3235 22.3441 11.2272 22.3509 11.1286C22.3576 11.03 22.3446 10.931 22.3125 10.8375V10.8375Z" fill="#828282"/>
</g>
<defs>
<clipPath id="clip0_9899_46996">
<rect width="24" height="24" fill="white"/>
</clipPath>
</defs>
</svg>
