<svg width="24" height="24" viewBox="0 0 24 24" fill="none" xmlns="http://www.w3.org/2000/svg">
<g clip-path="url(#clip0_14088_74177)">
<path d="M10 16C10.2833 16 10.521 15.904 10.713 15.712C10.905 15.52 11.0007 15.2827 11 15V8.975C11 8.69167 10.904 8.45833 10.712 8.275C10.52 8.09167 10.2827 8 10 8C9.71667 8 9.479 8.096 9.287 8.288C9.095 8.48 8.99933 8.71733 9 9V15.025C9 15.3083 9.096 15.5417 9.288 15.725C9.48 15.9083 9.71733 16 10 16ZM14 16C14.2833 16 14.521 15.904 14.713 15.712C14.905 15.52 15.0007 15.2827 15 15V8.975C15 8.69167 14.904 8.45833 14.712 8.275C14.52 8.09167 14.2827 8 14 8C13.7167 8 13.479 8.096 13.287 8.288C13.095 8.48 12.9993 8.71733 13 9V15.025C13 15.3083 13.096 15.5417 13.288 15.725C13.48 15.9083 13.7173 16 14 16ZM12 22C10.6167 22 9.31667 21.7373 8.1 21.212C6.88333 20.6867 5.825 19.9743 4.925 19.075C4.025 18.175 3.31267 17.1167 2.788 15.9C2.26333 14.6833 2.00067 13.3833 2 12C2 10.6167 2.26267 9.31667 2.788 8.1C3.31333 6.88333 4.02567 5.825 4.925 4.925C5.825 4.025 6.88333 3.31267 8.1 2.788C9.31667 2.26333 10.6167 2.00067 12 2C13.3833 2 14.6833 2.26267 15.9 2.788C17.1167 3.31333 18.175 4.02567 19.075 4.925C19.975 5.825 20.6877 6.88333 21.213 8.1C21.7383 9.31667 22.0007 10.6167 22 12C22 13.3833 21.7373 14.6833 21.212 15.9C20.6867 17.1167 19.9743 18.175 19.075 19.075C18.175 19.975 17.1167 20.6877 15.9 21.213C14.6833 21.7383 13.3833 22.0007 12 22ZM12 20C14.2167 20 16.1043 19.221 17.663 17.663C19.2217 16.105 20.0007 14.2173 20 12C20 9.78333 19.221 7.89567 17.663 6.337C16.105 4.77833 14.2173 3.99933 12 4C9.78333 4 7.89567 4.779 6.337 6.337C4.77833 7.895 3.99933 9.78267 4 12C4 14.2167 4.779 16.1043 6.337 17.663C7.895 19.2217 9.78267 20.0007 12 20Z" fill="#828282"/>
</g>
<defs>
<clipPath id="clip0_14088_74177">
<rect width="24" height="24" fill="white"/>
</clipPath>
</defs>
</svg>
