<svg width="36" height="37" viewBox="0 0 36 37" fill="none" xmlns="http://www.w3.org/2000/svg">
<g clip-path="url(#clip0_30459_20113)">
<g clip-path="url(#clip1_30459_20113)">
<path opacity="0.999" fill-rule="evenodd" clip-rule="evenodd" d="M8.54291 0.464844C12.6679 0.464844 16.7929 0.464844 20.9179 0.464844C20.8946 3.26587 20.918 6.05493 20.9882 8.83203C21.1542 9.70116 21.6698 10.2168 22.5351 10.3789C25.3242 10.4726 28.1132 10.4726 30.9023 10.3789C30.9492 14.0351 30.9726 17.7031 30.9726 21.3828C30.9831 25.2399 30.948 29.0954 30.8671 32.9492C30.3976 34.8133 29.2374 35.9851 27.3867 36.4648C21.1054 36.4648 14.8241 36.4648 8.54291 36.4648C6.69212 35.9851 5.53197 34.8133 5.06244 32.9492C4.98136 28.1227 4.9462 23.2946 4.95697 18.4648C4.9462 13.6351 4.98136 8.807 5.06244 3.98047C5.53197 2.11645 6.69212 0.944573 8.54291 0.464844Z" fill="#F15642"/>
<path fill-rule="evenodd" clip-rule="evenodd" d="M20.9179 0.464844C20.9648 0.464844 21.0116 0.464844 21.0585 0.464844C21.0585 0.488281 21.0585 0.511719 21.0585 0.535156C20.9883 3.28881 20.9649 6.05444 20.9882 8.83203C20.918 6.05493 20.8946 3.26587 20.9179 0.464844Z" fill="#F56956"/>
<path fill-rule="evenodd" clip-rule="evenodd" d="M21.0585 0.535156C24.3398 3.76953 27.5976 7.02734 30.832 10.3086C28.0783 10.3788 25.3127 10.4023 22.5351 10.3789C21.6698 10.2168 21.1542 9.70116 20.9882 8.83203C20.9649 6.05444 20.9883 3.28881 21.0585 0.535156Z" fill="#FE9486"/>
<path fill-rule="evenodd" clip-rule="evenodd" d="M30.832 10.3086C30.8789 10.3086 30.9023 10.332 30.9023 10.3789C28.1133 10.4726 25.3242 10.4726 22.5352 10.3789C25.3128 10.4022 28.0784 10.3788 30.832 10.3086Z" fill="#F66F5D"/>
<path fill-rule="evenodd" clip-rule="evenodd" d="M11.2148 17.5492C12.1098 17.5196 13.0004 17.5548 13.8867 17.6546C14.6515 17.9506 15.1085 18.5014 15.2578 19.307C15.4526 21.491 14.4565 22.452 12.2695 22.1898C12.2695 23.0335 12.2695 23.8773 12.2695 24.721C11.918 24.721 11.5664 24.721 11.2148 24.721C11.2148 22.3304 11.2148 19.9398 11.2148 17.5492Z" fill="#FFFBFA"/>
<path fill-rule="evenodd" clip-rule="evenodd" d="M18.457 17.6219C17.707 17.6219 16.9571 17.6219 16.207 17.6219C16.207 19.9656 16.207 22.3094 16.207 24.6531C16.9336 24.6531 17.6602 24.6531 18.3867 24.6531C17.6494 24.723 16.8993 24.7465 16.1367 24.7234C16.1367 22.3328 16.1367 19.9422 16.1367 17.5516C16.9227 17.5285 17.6962 17.5519 18.457 17.6219Z" fill="#FBD7D2"/>
<path fill-rule="evenodd" clip-rule="evenodd" d="M18.457 17.6211C19.3669 17.7927 19.9177 18.3318 20.1094 19.2383C20.1563 20.4805 20.1563 21.7226 20.1094 22.9648C19.9148 23.9212 19.3406 24.4837 18.3867 24.6523C17.6602 24.6523 16.9336 24.6523 16.207 24.6523C16.207 22.3086 16.207 19.9648 16.207 17.6211C16.9571 17.6211 17.707 17.6211 18.457 17.6211Z" fill="#FEFDFD"/>
<path fill-rule="evenodd" clip-rule="evenodd" d="M24.7148 17.6219C23.6133 17.6219 22.5117 17.6219 21.4102 17.6219C21.4102 19.9657 21.4102 22.3095 21.4102 24.6532C21.7383 24.6532 22.0664 24.6532 22.3945 24.6532C22.0567 24.7226 21.7051 24.7461 21.3398 24.7235C21.3398 22.3329 21.3398 19.9422 21.3398 17.5516C22.4771 17.5284 23.6021 17.5519 24.7148 17.6219Z" fill="#FBD0CA"/>
<path fill-rule="evenodd" clip-rule="evenodd" d="M24.7148 17.6211C24.7148 17.9258 24.7148 18.2305 24.7148 18.5352C23.9414 18.5352 23.168 18.5352 22.3945 18.5352C22.3945 19.2383 22.3945 19.9414 22.3945 20.6445C23.0849 20.7144 23.7881 20.7378 24.5039 20.7148C24.5039 20.9961 24.5039 21.2773 24.5039 21.5586C23.7881 21.5356 23.0849 21.559 22.3945 21.6289C22.3945 22.6367 22.3945 23.6446 22.3945 24.6523C22.0664 24.6523 21.7383 24.6523 21.4102 24.6523C21.4102 22.3086 21.4102 19.9648 21.4102 17.6211C22.5117 17.6211 23.6133 17.6211 24.7148 17.6211Z" fill="#FEFEFE"/>
<path fill-rule="evenodd" clip-rule="evenodd" d="M12.2695 18.5364C13.961 18.3645 14.5587 19.0911 14.0625 20.7161C13.9312 20.9988 13.7085 21.1511 13.3945 21.1731C13.0203 21.2082 12.6453 21.2199 12.2695 21.2082C12.2695 20.3176 12.2695 19.427 12.2695 18.5364Z" fill="#F15743"/>
<path fill-rule="evenodd" clip-rule="evenodd" d="M17.1914 18.5356C17.5437 18.5239 17.8953 18.5357 18.2461 18.5708C18.6723 18.6454 18.9418 18.8915 19.0547 19.3091C19.1016 20.5044 19.1016 21.6997 19.0547 22.895C18.9258 23.3051 18.6562 23.5747 18.2461 23.7036C17.8953 23.7387 17.5437 23.7504 17.1914 23.7387C17.1914 22.0043 17.1914 20.27 17.1914 18.5356Z" fill="#F15743"/>
<path fill-rule="evenodd" clip-rule="evenodd" d="M22.3945 20.6445C23.1211 20.6445 23.8477 20.6445 24.5742 20.6445C24.5742 20.9727 24.5742 21.3008 24.5742 21.6289C23.8477 21.6289 23.1211 21.6289 22.3945 21.6289C23.0849 21.559 23.7881 21.5356 24.5039 21.5586C24.5039 21.2773 24.5039 20.9961 24.5039 20.7148C23.7881 20.7378 23.0849 20.7144 22.3945 20.6445Z" fill="#F9BDB5"/>
</g>
</g>
<defs>
<clipPath id="clip0_30459_20113">
<rect width="36" height="36" fill="white" transform="translate(0 0.5)"/>
</clipPath>
<clipPath id="clip1_30459_20113">
<rect width="36" height="36" fill="white" transform="translate(0 0.5)"/>
</clipPath>
</defs>
</svg>
