<svg width="42" height="42" viewBox="0 0 42 42" fill="none" xmlns="http://www.w3.org/2000/svg">
<rect width="42" height="42" rx="8" fill="rgba(255, 106, 61, 1)"/>
<path opacity="0.937" fill-rule="evenodd" clip-rule="evenodd" d="M10.0356 9.75272C12.029 9.6922 12.8811 10.6422 12.5919 12.6025C11.9413 13.852 10.9494 14.2292 9.61647 13.734C8.47356 12.9403 8.20811 11.9206 8.82022 10.6747C9.1435 10.2529 9.54858 9.94558 10.0356 9.75272Z" fill="white"/>
<path opacity="0.942" fill-rule="evenodd" clip-rule="evenodd" d="M12.7176 12.6025C13.3883 12.7553 13.8772 13.1464 14.1843 13.7759C14.6854 14.6363 14.9647 15.5583 15.0225 16.5418C14.9651 16.7561 14.8394 16.9098 14.6453 17.0028C14.3939 17.0587 14.1424 17.0587 13.891 17.0028C13.5836 16.8492 13.2764 16.6954 12.969 16.5418C12.922 17.2054 12.922 17.848 12.969 18.4696C12.6959 17.6921 12.4305 16.9098 12.1728 16.1227C11.7874 15.3857 11.2705 15.274 10.6222 15.7875C10.49 15.96 10.4062 16.1556 10.3707 16.3742C10.7284 17.7127 11.1614 19.0259 11.6699 20.3135C12.3683 20.7047 13.0668 21.0958 13.7653 21.4869C14.0578 22.9905 14.3232 24.4992 14.5615 26.013C14.4427 27.7455 14.317 29.4777 14.1843 31.2096C13.7416 31.9916 13.113 32.1731 12.2985 31.7544C12.121 31.6093 11.9953 31.4277 11.9213 31.2096C11.9238 29.5873 11.9937 27.9669 12.1308 26.3483C11.9857 25.142 11.804 23.9407 11.586 22.7442C11.0081 22.4739 10.5611 22.0548 10.245 21.4869C9.45788 19.5963 9.23434 17.6406 9.57446 15.6198C9.87084 14.7498 10.4715 14.2749 11.3765 14.195C11.9091 14.2812 12.412 14.4348 12.8852 14.656C12.614 14.3157 12.3346 13.9945 12.047 13.6921C12.3333 13.3718 12.5567 13.0086 12.7176 12.6025Z" fill="white"/>
<path opacity="0.927" fill-rule="evenodd" clip-rule="evenodd" d="M10.9576 15.6198C11.3212 15.565 11.6426 15.6488 11.9214 15.8713C12.3178 16.9485 12.681 18.0381 13.0111 19.1401C14.0095 19.6462 15.0013 20.1631 15.9865 20.6907C16.366 21.0596 16.4219 21.4786 16.1541 21.9479C15.8988 22.1301 15.6194 22.186 15.316 22.1156C14.1219 21.4976 12.9346 20.869 11.7538 20.2297C11.3295 19.0687 10.9384 17.8953 10.5804 16.7094C10.4713 16.2586 10.597 15.8954 10.9576 15.6198Z" fill="white"/>
<path d="M32.625 16.25H31.0417V14.125H29.4584V16.25H21.5417V14.125H19.9584V16.25H18.375C18.1651 16.25 17.9637 16.3246 17.8152 16.4575C17.6668 16.5903 17.5834 16.7705 17.5834 16.9583V21.9167C17.5834 22.1045 17.6668 22.2847 17.8152 22.4175C17.9637 22.5504 18.1651 22.625 18.375 22.625H19.9584V26.875H21.5417V22.625H29.4584V26.875H31.0417V22.625H32.625C32.835 22.625 33.0364 22.5504 33.1848 22.4175C33.3333 22.2847 33.4167 22.1045 33.4167 21.9167V16.9583C33.4167 16.7705 33.3333 16.5903 33.1848 16.4575C33.0364 16.3246 32.835 16.25 32.625 16.25ZM19.4992 21.2083L21.761 17.6667H23.5842L21.3224 21.2083H19.4992ZM25.7193 17.6667H27.5425L25.2807 21.2083H23.4575L25.7193 17.6667ZM29.6777 17.6667H31.5009L29.2391 21.2083H27.4159L29.6777 17.6667Z" fill="white"/>
</svg>
