<svg width="18" height="22" viewBox="0 0 18 22" fill="none" xmlns="http://www.w3.org/2000/svg">
<path d="M16.9834 9.41318L3.47594 1.15099C3.19267 0.978304 2.86865 0.883866 2.53696 0.877318C2.20526 0.870771 1.87777 0.952347 1.58791 1.11372C1.29804 1.2751 1.05618 1.51049 0.887018 1.79588C0.717852 2.08127 0.627437 2.40643 0.625 2.73818V19.2626C0.627437 19.5943 0.717852 19.9195 0.887018 20.2049C1.05618 20.4902 1.29804 20.7256 1.58791 20.887C1.87777 21.0484 2.20526 21.13 2.53696 21.1234C2.86865 21.1169 3.19267 21.0224 3.47594 20.8497L16.9834 12.5876C17.2558 12.4218 17.4809 12.1887 17.6371 11.9107C17.7934 11.6327 17.8754 11.3192 17.8754 11.0004C17.8754 10.6815 17.7934 10.368 17.6371 10.09C17.4809 9.81207 17.2558 9.57898 16.9834 9.41318ZM2.875 18.5801V3.42068L15.265 11.0004L2.875 18.5801Z" fill="#2F80ED"/>
</svg>
