<svg width="24" height="24" viewBox="0 0 24 24" fill="none" xmlns="http://www.w3.org/2000/svg">
<g clip-path="url(#clip0_10352_62946)">
<path d="M10.5 3C10.1022 3 9.72065 3.15804 9.43934 3.43934C9.15804 3.72064 9 4.10218 9 4.5V4.54725L5.20275 6.9375C4.98733 6.81855 4.74605 6.75418 4.5 6.75C4.10218 6.75 3.72064 6.90804 3.43934 7.18934C3.15804 7.47065 3 7.85218 3 8.25C3 8.8035 3.3015 9.27825 3.75 9.53925V18.21C3.3015 18.471 3 18.945 3 19.4992C3 19.8971 3.15804 20.2786 3.43934 20.5599C3.72064 20.8412 4.10218 20.9992 4.5 20.9992C5.0535 20.9992 5.52825 20.6977 5.78925 20.2492H15.21C15.471 20.6977 15.945 20.9992 16.4993 20.9992C16.8971 20.9992 17.2786 20.8412 17.5599 20.5599C17.8412 20.2786 17.9993 19.8971 17.9993 19.4992C17.9993 19.2007 17.9168 18.9135 17.7645 18.6787L19.5938 15C19.9584 14.976 20.3018 14.8201 20.5598 14.5613C20.8178 14.3026 20.9728 13.9587 20.9957 13.594C21.0187 13.2293 20.9081 12.8688 20.6846 12.5797C20.4611 12.2906 20.14 12.0928 19.7813 12.0233L18.3518 7.73475C18.5888 7.46775 18.75 7.13325 18.75 6.75C18.75 6.35218 18.592 5.97064 18.3107 5.68934C18.0294 5.40804 17.6478 5.25 17.25 5.25C16.866 5.25 16.5323 5.41125 16.2653 5.64825L11.9775 4.1955C11.9056 3.85704 11.7196 3.55356 11.4506 3.33592C11.1816 3.11827 10.846 2.99967 10.5 3V3ZM11.4848 5.625L15.7733 7.03125C15.888 7.635 16.3658 8.112 16.9688 8.22675L18.3983 12.492C18.1439 12.7662 18.0018 13.126 18 13.5C18 13.8105 18.0968 14.1037 18.258 14.3437L16.4063 18C16.1605 18.0166 15.9228 18.0937 15.7141 18.2246C15.5055 18.3555 15.3326 18.536 15.2108 18.75H5.79C5.66002 18.5263 5.47388 18.3404 5.25 18.2107V9.54C5.6985 9.279 6 8.805 6 8.25075V8.2035L9.79725 5.81325C10.0073 5.92425 10.245 6.00075 10.5 6.00075C10.878 6.00075 11.22 5.8575 11.4848 5.62575V5.625Z" fill="#828282"/>
</g>
<defs>
<clipPath id="clip0_10352_62946">
<rect width="24" height="24" fill="white"/>
</clipPath>
</defs>
</svg>
