<svg width="42" height="42" viewBox="0 0 42 42" fill="none" xmlns="http://www.w3.org/2000/svg">
<rect width="42" height="42" rx="8" fill="#F2994A"/>
<path d="M21 11.375C19.0964 11.375 17.2355 11.9395 15.6526 12.9971C14.0698 14.0547 12.8362 15.5579 12.1077 17.3167C11.3792 19.0754 11.1886 21.0107 11.5599 22.8777C11.9313 24.7448 12.848 26.4598 14.1941 27.8059C15.5402 29.152 17.2552 30.0687 19.1223 30.4401C20.9893 30.8114 22.9246 30.6208 24.6833 29.8923C26.4421 29.1638 27.9453 27.9302 29.0029 26.3474C30.0605 24.7645 30.625 22.9036 30.625 21C30.6221 18.4482 29.6071 16.0017 27.8027 14.1973C25.9983 12.3929 23.5518 11.3779 21 11.375ZM21 29.25C18.812 29.25 16.7135 28.3808 15.1664 26.8336C13.6192 25.2865 12.75 23.188 12.75 21C12.75 18.812 13.6192 16.7135 15.1664 15.1664C16.7135 13.6192 18.812 12.75 21 12.75V21L26.8307 26.8307C26.066 27.5981 25.1573 28.2068 24.1567 28.622C23.1561 29.0372 22.0833 29.2506 21 29.25Z" fill="white"/>
</svg>
