<svg width="28" height="29" viewBox="0 0 28 29" fill="none" xmlns="http://www.w3.org/2000/svg">
<rect y="0.5" width="28" height="28" rx="8" fill="#2F80ED"/>
<g clip-path="url(#clip0_19873_39341)">
<path opacity="0.99" fill-rule="evenodd" clip-rule="evenodd" d="M18.5156 5.98438C19.5781 5.98438 20.6406 5.98438 21.7031 5.98438C21.7496 6.02511 21.8017 6.06157 21.8594 6.09375C21.8968 6.15673 21.9384 6.21402 21.9844 6.26563C21.9844 7.32813 21.9844 8.39063 21.9844 9.45313C21.9144 9.60106 21.7998 9.70003 21.6406 9.75C20.6198 9.77084 19.599 9.77084 18.5781 9.75C18.3854 9.70313 18.2656 9.58334 18.2188 9.39063C18.1979 8.36979 18.1979 7.34896 18.2188 6.32813C18.2687 6.16894 18.3677 6.05435 18.5156 5.98438Z" fill="white"/>
<path opacity="0.99" fill-rule="evenodd" clip-rule="evenodd" d="M11.2344 6.92188C12.2865 6.91667 13.3386 6.92188 14.3906 6.9375C14.5446 6.99771 14.6436 7.10709 14.6875 7.26563C14.7084 8.29688 14.7084 9.32813 14.6875 10.3594C14.6406 10.5313 14.5313 10.6406 14.3594 10.6875C13.3281 10.7083 12.2969 10.7083 11.2656 10.6875C11.1071 10.6436 10.9977 10.5446 10.9375 10.3906C10.9167 9.33853 10.9167 8.28646 10.9375 7.23438C11.0007 7.09313 11.0997 6.98896 11.2344 6.92188Z" fill="white"/>
<path opacity="0.995" fill-rule="evenodd" clip-rule="evenodd" d="M16.5156 21.9844C13.099 21.9844 9.68228 21.9844 6.26562 21.9844C6.21916 21.9436 6.16708 21.9072 6.10938 21.875C6.07198 21.812 6.03032 21.7547 5.98438 21.7031C5.98438 18.2865 5.98438 14.8698 5.98438 11.4531C6.05435 11.3052 6.16894 11.2062 6.32812 11.1563C7.34896 11.1354 8.36979 11.1354 9.39062 11.1563C9.57291 11.2135 9.69272 11.3334 9.75 11.5156C9.76562 12.5677 9.77084 13.6198 9.76562 14.6719C10.8177 14.6667 11.8698 14.6719 12.9219 14.6875C13.1042 14.7448 13.224 14.8646 13.2812 15.0469C13.2969 16.0989 13.3021 17.151 13.2969 18.2031C14.349 18.1979 15.4011 18.2031 16.4531 18.2188C16.6354 18.276 16.7552 18.3959 16.8125 18.5781C16.8333 19.599 16.8333 20.6198 16.8125 21.6406C16.7625 21.7998 16.6636 21.9144 16.5156 21.9844Z" fill="white"/>
<path opacity="0.983" fill-rule="evenodd" clip-rule="evenodd" d="M16.8906 12.3281C17.9324 12.3229 18.974 12.3281 20.0156 12.3438C20.1906 12.4041 20.2999 12.5239 20.3438 12.7031C20.3646 13.7135 20.3646 14.724 20.3438 15.7344C20.3018 15.9183 20.1924 16.038 20.0156 16.0938C18.974 16.1146 17.9323 16.1146 16.8906 16.0938C16.7041 16.0279 16.5948 15.8977 16.5625 15.7031C16.5417 14.7135 16.5417 13.724 16.5625 12.7344C16.6093 12.5472 16.7186 12.4117 16.8906 12.3281Z" fill="white"/>
</g>
<defs>
<clipPath id="clip0_19873_39341">
<rect width="16" height="16" fill="white" transform="translate(6 6)"/>
</clipPath>
</defs>
</svg>
