<svg width="24" height="24" viewBox="0 0 24 24" fill="none" xmlns="http://www.w3.org/2000/svg">
<g clip-path="url(#clip0_10352_63242)">
<path opacity="0.994" fill-rule="evenodd" clip-rule="evenodd" d="M3.29883 1.66577C8.11133 1.65861 12.9238 1.66577 17.7363 1.68726C17.7936 1.7159 17.8509 1.74455 17.9082 1.77319C19.3334 3.19833 20.7585 4.62345 22.1836 6.04859C22.2123 6.10586 22.2409 6.16318 22.2695 6.22046C22.2982 11.033 22.2982 15.8455 22.2695 20.658C22.0475 21.5102 21.5104 22.0473 20.6582 22.2693C14.8717 22.2979 9.0853 22.2979 3.29883 22.2693C2.44662 22.0473 1.90951 21.5102 1.6875 20.658C1.65885 14.8715 1.65885 9.08506 1.6875 3.29858C1.91733 2.44573 2.45444 1.90146 3.29883 1.66577ZM3.72852 3.04077C5.10352 3.04077 6.47852 3.04077 7.85352 3.04077C7.84634 4.53043 7.85352 6.02001 7.875 7.50952C8.01108 8.04663 8.34766 8.38321 8.88477 8.51929C10.9473 8.54795 13.0098 8.54795 15.0723 8.51929C15.6094 8.38321 15.946 8.04663 16.082 7.50952C16.1035 6.02001 16.1107 4.53043 16.1035 3.04077C16.4619 3.03362 16.8199 3.04079 17.1777 3.06226C18.4167 4.30119 19.6556 5.54014 20.8945 6.77905C20.9232 11.2621 20.9232 15.7452 20.8945 20.2283C20.8753 20.5319 20.7249 20.7396 20.4434 20.8513C19.9157 20.9112 19.3857 20.9327 18.8535 20.9158C18.8607 19.1683 18.8535 17.4209 18.832 15.6736C18.61 14.8214 18.0729 14.2843 17.2207 14.0623C13.7259 14.0336 10.2311 14.0336 6.73633 14.0623C5.88413 14.2843 5.34702 14.8214 5.125 15.6736C5.10352 17.4209 5.09635 19.1683 5.10352 20.9158C4.57129 20.9327 4.04135 20.9112 3.51367 20.8513C3.23209 20.7396 3.0817 20.5319 3.0625 20.2283C3.03385 14.7283 3.03385 9.22827 3.0625 3.72827C3.12033 3.33392 3.34234 3.10476 3.72852 3.04077ZM9.22852 3.04077C11.0619 3.04077 12.8952 3.04077 14.7285 3.04077C14.7285 4.41577 14.7285 5.79077 14.7285 7.16577C12.8952 7.16577 11.0619 7.16577 9.22852 7.16577C9.22852 5.79077 9.22852 4.41577 9.22852 3.04077ZM7.16602 15.4158C10.3744 15.4086 13.5827 15.4158 16.791 15.4373C17.1849 15.4874 17.4069 15.7094 17.457 16.1033C17.4785 17.7074 17.4857 19.3115 17.4785 20.9158C13.8119 20.9158 10.1452 20.9158 6.47852 20.9158C6.47134 19.3115 6.47852 17.7074 6.5 16.1033C6.55784 15.7089 6.77986 15.4798 7.16602 15.4158Z" fill="#828282"/>
</g>
<defs>
<clipPath id="clip0_10352_63242">
<rect width="22" height="22" fill="white" transform="translate(1 1)"/>
</clipPath>
</defs>
</svg>
