<svg width="80" height="80" viewBox="0 0 80 80" fill="none" xmlns="http://www.w3.org/2000/svg">
<g clip-path="url(#clip0_21843_167462)">
<path opacity="0.971" fill-rule="evenodd" clip-rule="evenodd" d="M47.1094 -0.078125C49.1927 -0.078125 51.2761 -0.078125 53.3594 -0.078125C66.0491 1.85558 74.5125 8.88683 78.75 21.0156C79.2544 22.8359 79.645 24.6588 79.9219 26.4844C79.9219 28.5677 79.9219 30.6511 79.9219 32.7344C79.3514 37.1797 77.9191 41.3464 75.625 45.2344C74.61 46.2711 73.3861 46.6097 71.9531 46.25C70.2447 45.463 69.5936 44.1348 70 42.2656C74.098 35.1233 74.6188 27.7275 71.5625 20.0781C67.1675 11.3427 60.0581 6.7073 50.2344 6.17188C41.6323 6.53237 34.9917 10.2824 30.3125 17.4219C25.625 25.5469 25.625 33.6719 30.3125 41.7969C36.2383 50.5111 44.4414 54.0788 54.9219 52.5C56.8213 52.0925 58.6442 51.4675 60.3906 50.625C62.9837 49.9919 64.442 50.9816 64.7656 53.5938C64.8545 54.718 64.438 55.6033 63.5156 56.25C56.8592 59.4808 49.932 60.21 42.7344 58.4375C39.9281 57.6672 37.2719 56.5475 34.7656 55.0781C30.4016 60.7186 25.9484 66.2916 21.4062 71.7969C19.3489 73.8542 17.2917 75.9114 15.2344 77.9688C13.9375 78.878 12.5313 79.5289 11.0156 79.9219C9.8698 79.9219 8.72395 79.9219 7.57812 79.9219C3.51562 78.8802 0.963542 76.3281 -0.078125 72.2656C-0.078125 71.1198 -0.078125 69.9739 -0.078125 68.8281C0.314439 67.3131 0.965481 65.9069 1.875 64.6094C3.98438 62.5 6.09375 60.3906 8.20312 58.2812C13.6788 53.7948 19.1997 49.3678 24.7656 45C20.3595 37.433 19.3439 29.4381 21.7188 21.0156C25.9561 8.88695 34.4197 1.8557 47.1094 -0.078125ZM28.5156 50.2344C29.0586 50.4378 29.3972 50.8023 29.5312 51.3281C25.1634 56.8941 20.7364 62.4148 16.25 67.8906C14.5573 69.5833 12.8646 71.2761 11.1719 72.9688C9.08456 74.1028 7.49602 73.608 6.40625 71.4844C6.20295 70.4809 6.3592 69.5434 6.875 68.6719C8.9368 66.558 11.0462 64.5006 13.2031 62.5C18.2897 58.3709 23.3937 54.2823 28.5156 50.2344Z" fill="url(#paint0_linear_21843_167462)"/>
<path opacity="0.965" fill-rule="evenodd" clip-rule="evenodd" d="M49.1407 12.4221C55.4802 12.1939 60.5583 14.5897 64.375 19.6096C65.0272 20.6012 65.6002 21.6427 66.0938 22.7346C66.6925 25.0015 65.8854 26.4859 63.6719 27.1877C62.3633 27.3245 61.2955 26.8818 60.4688 25.8596C58.2599 21.0548 54.484 18.6329 49.1407 18.594C47.3825 17.7591 46.7315 16.379 47.1875 14.4534C47.5552 13.487 48.2063 12.8099 49.1407 12.4221Z" fill="url(#paint1_linear_21843_167462)"/>
</g>
<defs>
<linearGradient id="paint0_linear_21843_167462" x1="79.9219" y1="-0.0781274" x2="39.9219" y2="43.533" gradientUnits="userSpaceOnUse">
<stop stop-color="#F1F1F5"/>
<stop offset="1" stop-color="#CFCED8"/>
</linearGradient>
<linearGradient id="paint1_linear_21843_167462" x1="66.285" y1="12.4072" x2="59.2842" y2="22.3259" gradientUnits="userSpaceOnUse">
<stop stop-color="#F1F1F5"/>
<stop offset="1" stop-color="#CFCED8"/>
</linearGradient>
<clipPath id="clip0_21843_167462">
<rect width="80" height="80" fill="white"/>
</clipPath>
</defs>
</svg>
