<svg width="90" height="90" viewBox="0 0 90 90" fill="none" xmlns="http://www.w3.org/2000/svg">
<g clip-path="url(#clip0_17687_109251)">
<path opacity="0.956" fill-rule="evenodd" clip-rule="evenodd" d="M32.0801 -0.0878906C35.5957 -0.0878906 39.1113 -0.0878906 42.627 -0.0878906C50.0811 0.324947 57.2882 1.93628 64.2481 4.74609C67.8205 6.26875 70.8381 8.5246 73.3008 11.5137C74.0681 12.7017 74.5954 13.9908 74.8828 15.3809C75.0574 27.4656 74.9988 39.5358 74.707 51.5918C73.9603 52.4876 73.0521 52.6927 71.9824 52.207C71.6523 51.9358 71.3886 51.6136 71.1914 51.2402C71.1621 48.6016 71.0742 45.9649 70.9277 43.3301C67.1801 46.3467 62.9613 48.4852 58.2715 49.7461C44.5771 53.3127 30.8661 53.3714 17.1387 49.9219C12.2412 48.6302 7.81736 46.433 3.86719 43.3301C3.74999 47.2558 3.74999 51.1817 3.86719 55.1074C4.3884 56.9387 5.41378 58.4328 6.94336 59.5898C8.37381 60.6667 9.89726 61.6043 11.5137 62.4023C13.6608 63.3036 15.8288 64.1533 18.0176 64.9512C18.9991 66.0925 18.9406 67.1764 17.8418 68.2031C17.0833 68.5362 16.3216 68.5362 15.5566 68.2031C11.2429 66.9401 7.34639 64.9186 3.86719 62.1387C3.69854 66.3077 3.75713 70.4677 4.04297 74.6191C4.7983 76.3124 5.94088 77.6893 7.4707 78.75C10.7525 80.8611 14.2681 82.5017 18.0176 83.6719C18.9522 84.5169 19.0986 85.4837 18.457 86.5723C18.0097 86.9757 17.4823 87.2102 16.875 87.2754C12.2124 86.0715 7.96435 84.05 4.13086 81.2109C2.02333 79.4329 0.617073 77.2356 -0.0878906 74.6191C-0.0878906 54.7559 -0.0878906 34.8926 -0.0878906 15.0293C0.533334 12.9972 1.58802 11.2101 3.07617 9.66797C6.77236 6.4713 10.9911 4.18614 15.7324 2.8125C21.105 1.27279 26.5542 0.305997 32.0801 -0.0878906ZM33.1348 3.7793C41.2372 3.41177 49.2059 4.26138 57.041 6.32812C60.9195 7.41806 64.4938 9.11728 67.7637 11.4258C69.5728 12.79 70.686 14.5771 71.1035 16.7871C70.686 18.9972 69.5728 20.7842 67.7637 22.1484C64.4938 24.457 60.9195 26.1561 57.041 27.2461C44.9111 30.3699 32.7236 30.6042 20.4785 27.9492C16.0237 26.9341 11.8635 25.2348 7.99805 22.8516C2.37305 18.8086 2.37305 14.7656 7.99805 10.7227C13.0469 7.70138 18.4961 5.73848 24.3457 4.83398C27.2911 4.38977 30.2208 4.03821 33.1348 3.7793ZM3.7793 24.5215C8.25483 28.019 13.2939 30.392 18.8965 31.6406C28.6559 33.786 38.4996 34.2547 48.4277 33.0469C55.4368 32.2729 61.9993 30.1635 68.1152 26.7188C69.0979 26.0077 70.0647 25.2752 71.0156 24.5215C71.1329 28.3301 71.1329 32.1386 71.0156 35.9473C70.6101 37.8411 69.6433 39.3938 68.1152 40.6055C63.8842 43.6391 59.1966 45.6899 54.0527 46.7578C41.9834 49.3908 29.9716 49.1563 18.0176 46.0547C14.3951 45.0046 10.9966 43.4812 7.82227 41.4844C6.49688 40.452 5.3543 39.2509 4.39453 37.8809C4.16844 37.3702 3.99266 36.8429 3.86719 36.2988C3.7793 32.3735 3.75001 28.4477 3.7793 24.5215Z" fill="url(#paint0_linear_17687_109251)"/>
<path opacity="0.967" fill-rule="evenodd" clip-rule="evenodd" d="M89.9121 60.3809C89.9121 63.7793 89.9121 67.1778 89.9121 70.5762C89.6037 71.4275 89.1936 72.2479 88.6817 73.0372C89.1936 73.8264 89.6037 74.6468 89.9121 75.4981C89.9121 78.8965 89.9121 82.295 89.9121 85.6934C89.6019 86.6641 89.1039 87.543 88.418 88.3301C87.6094 89.0554 86.7013 89.5827 85.6934 89.9122C66.0059 89.9122 46.3184 89.9122 26.6309 89.9122C25.1009 89.4089 23.8998 88.4715 23.0274 87.0997C22.817 86.6446 22.6412 86.1757 22.5 85.6934C22.3828 82.295 22.3828 78.8965 22.5 75.4981C22.7386 74.6109 23.1195 73.7906 23.6426 73.0372C23.1195 72.2838 22.7386 71.4634 22.5 70.5762C22.3828 67.1778 22.3828 63.7793 22.5 60.3809C23.0567 58.1836 24.4336 56.8067 26.6309 56.25C46.3184 56.1328 66.0059 56.1328 85.6934 56.25C86.6978 56.4947 87.5767 56.9635 88.3301 57.6563C89.0554 58.4649 89.5827 59.373 89.9121 60.3809ZM27.5098 60.0293C46.6114 60 65.713 60.0293 84.8145 60.1172C85.3125 60.3809 85.6934 60.7618 85.9571 61.2598C86.0743 64.1308 86.0743 67.0021 85.9571 69.8731C85.6584 70.5244 85.1603 70.9053 84.4629 71.0157C65.5958 71.1329 46.7285 71.1329 27.8614 71.0157C27.164 70.9053 26.6659 70.5244 26.3672 69.8731C26.25 67.0021 26.25 64.1308 26.3672 61.2598C26.665 60.7574 27.0459 60.3473 27.5098 60.0293ZM27.8614 74.9707C46.7287 74.9414 65.5958 74.9707 84.4629 75.0586C85.1603 75.169 85.6584 75.5499 85.9571 76.2012C86.0743 79.0723 86.0743 81.9435 85.9571 84.8145C85.6934 85.3125 85.3125 85.6934 84.8145 85.9571C65.7129 86.0743 46.6114 86.0743 27.5098 85.9571C27.0118 85.6934 26.6309 85.3125 26.3672 84.8145C26.25 81.9435 26.25 79.0723 26.3672 76.2012C26.6952 75.548 27.1932 75.1377 27.8614 74.9707Z" fill="url(#paint1_linear_17687_109251)"/>
<path opacity="0.903" fill-rule="evenodd" clip-rule="evenodd" d="M31.3768 63.5449C33.1895 63.6298 33.922 64.5673 33.5741 66.3574C32.9981 67.3434 32.1485 67.6656 31.0253 67.3242C29.937 66.6937 29.6148 65.7856 30.0585 64.5996C30.4292 64.1387 30.8687 63.7871 31.3768 63.5449Z" fill="url(#paint2_linear_17687_109251)"/>
<path opacity="0.959" fill-rule="evenodd" clip-rule="evenodd" d="M65.1269 63.5449C70.4007 63.5156 75.6741 63.5449 80.9472 63.6328C82.334 64.1579 82.7734 65.1247 82.2656 66.5332C81.9943 66.8633 81.6721 67.127 81.2988 67.3242C75.791 67.4415 70.2831 67.4415 64.7753 67.3242C63.5289 66.5283 63.2946 65.5028 64.0722 64.2481C64.3869 63.9289 64.7384 63.6945 65.1269 63.5449Z" fill="url(#paint3_linear_17687_109251)"/>
<path opacity="0.903" fill-rule="evenodd" clip-rule="evenodd" d="M31.0253 78.6621C33.0449 78.4257 33.8946 79.3046 33.5741 81.2988C32.4752 82.8334 31.3034 82.8921 30.0585 81.4746C29.6275 80.2656 29.9497 79.3281 31.0253 78.6621Z" fill="url(#paint4_linear_17687_109251)"/>
<path opacity="0.959" fill-rule="evenodd" clip-rule="evenodd" d="M64.7755 78.6621C70.2836 78.6328 75.7913 78.6621 81.2989 78.75C82.5454 79.546 82.7797 80.5715 82.002 81.8262C81.7153 82.1421 81.3638 82.3472 80.9473 82.4414C75.6739 82.5587 70.4005 82.5587 65.127 82.4414C63.7403 81.9164 63.3008 80.9496 63.8087 79.541C64.1128 79.2067 64.435 78.9137 64.7755 78.6621Z" fill="url(#paint5_linear_17687_109251)"/>
</g>
<defs>
<linearGradient id="paint0_linear_17687_109251" x1="74.9808" y1="-0.0878932" x2="31.2291" y2="40.9007" gradientUnits="userSpaceOnUse">
<stop stop-color="#F1F1F5"/>
<stop offset="1" stop-color="#CFCED8"/>
</linearGradient>
<linearGradient id="paint1_linear_17687_109251" x1="89.9121" y1="56.1621" x2="77.0761" y2="84.1517" gradientUnits="userSpaceOnUse">
<stop stop-color="#F1F1F5"/>
<stop offset="1" stop-color="#CFCED8"/>
</linearGradient>
<linearGradient id="paint2_linear_17687_109251" x1="33.6581" y1="63.5449" x2="31.6983" y2="65.6168" gradientUnits="userSpaceOnUse">
<stop stop-color="#F1F1F5"/>
<stop offset="1" stop-color="#CFCED8"/>
</linearGradient>
<linearGradient id="paint3_linear_17687_109251" x1="82.4698" y1="63.5339" x2="81.7603" y2="67.2928" gradientUnits="userSpaceOnUse">
<stop stop-color="#F1F1F5"/>
<stop offset="1" stop-color="#CFCED8"/>
</linearGradient>
<linearGradient id="paint4_linear_17687_109251" x1="33.64" y1="78.6245" x2="31.7006" y2="80.6818" gradientUnits="userSpaceOnUse">
<stop stop-color="#F1F1F5"/>
<stop offset="1" stop-color="#CFCED8"/>
</linearGradient>
<linearGradient id="paint5_linear_17687_109251" x1="82.4502" y1="78.6511" x2="81.7407" y2="82.4099" gradientUnits="userSpaceOnUse">
<stop stop-color="#F1F1F5"/>
<stop offset="1" stop-color="#CFCED8"/>
</linearGradient>
<clipPath id="clip0_17687_109251">
<rect width="90" height="90" fill="white"/>
</clipPath>
</defs>
</svg>
