<svg width="24" height="24" viewBox="0 0 24 24" fill="none" xmlns="http://www.w3.org/2000/svg">
<g clip-path="url(#clip0_11361_48922)">
<path d="M14.079 1.5C14.2378 1.50001 14.3925 1.55041 14.5208 1.64394C14.6491 1.73748 14.7444 1.86933 14.793 2.0205L15.618 4.584C15.9645 4.7535 16.296 4.944 16.6125 5.1585L19.2465 4.5915C19.4018 4.55834 19.5636 4.57534 19.7087 4.64003C19.8537 4.70473 19.9744 4.81379 20.0535 4.9515L22.1325 8.55C22.2119 8.68763 22.2455 8.84693 22.2285 9.0049C22.2116 9.16288 22.1448 9.31139 22.038 9.429L20.2305 11.424C20.2568 11.8065 20.2568 12.1905 20.2305 12.573L22.038 14.571C22.1448 14.6886 22.2116 14.8371 22.2285 14.9951C22.2455 15.1531 22.2119 15.3124 22.1325 15.45L20.0535 19.05C19.9742 19.1874 19.8534 19.2962 19.7084 19.3606C19.5634 19.425 19.4017 19.4418 19.2465 19.4085L16.6125 18.8415C16.2975 19.0545 15.9645 19.2465 15.6195 19.416L14.793 21.9795C14.7444 22.1307 14.6491 22.2625 14.5208 22.3561C14.3925 22.4496 14.2378 22.5 14.079 22.5H9.92101C9.76222 22.5 9.60753 22.4496 9.47922 22.3561C9.35091 22.2625 9.2556 22.1307 9.20701 21.9795L8.38351 19.4175C8.03794 19.2485 7.70462 19.0555 7.38601 18.84L4.75351 19.4085C4.59821 19.4417 4.43639 19.4247 4.29136 19.36C4.14634 19.2953 4.02559 19.1862 3.94651 19.0485L1.86751 15.45C1.78812 15.3124 1.7545 15.1531 1.77148 14.9951C1.78846 14.8371 1.85518 14.6886 1.96201 14.571L3.76951 12.573C3.74333 12.1914 3.74333 11.8086 3.76951 11.427L1.96201 9.429C1.85518 9.31139 1.78846 9.16288 1.77148 9.0049C1.7545 8.84693 1.78812 8.68763 1.86751 8.55L3.94651 4.95C4.02581 4.81256 4.14665 4.70381 4.29166 4.63939C4.43667 4.57497 4.59837 4.55821 4.75351 4.5915L7.38601 5.16C7.70401 4.9455 8.03701 4.752 8.38351 4.5825L9.20851 2.0205C9.25694 1.86982 9.3518 1.73832 9.47951 1.64482C9.60722 1.55133 9.76124 1.50064 9.91951 1.5H14.0775H14.079ZM13.53 3H10.47L9.61801 5.6505L9.04351 5.931C8.76109 6.06921 8.48845 6.22657 8.22751 6.402L7.69651 6.762L4.97251 6.174L3.44251 8.826L5.31001 10.893L5.26501 11.529C5.24346 11.8426 5.24346 12.1574 5.26501 12.471L5.31001 13.107L3.43951 15.174L4.97101 17.826L7.69501 17.2395L8.22601 17.598C8.48695 17.7734 8.75959 17.9308 9.04201 18.069L9.61651 18.3495L10.47 21H13.533L14.388 18.348L14.961 18.069C15.2431 17.9311 15.5153 17.7737 15.7755 17.598L16.305 17.2395L19.0305 17.826L20.5605 15.174L18.6915 13.107L18.7365 12.471C18.7581 12.1569 18.7581 11.8416 18.7365 11.5275L18.6915 10.8915L20.562 8.826L19.0305 6.174L16.305 6.759L15.7755 6.402C15.5153 6.22622 15.2431 6.06884 14.961 5.931L14.388 5.652L13.5315 3H13.53ZM12 7.5C13.1935 7.5 14.3381 7.97411 15.182 8.81802C16.0259 9.66193 16.5 10.8065 16.5 12C16.5 13.1935 16.0259 14.3381 15.182 15.182C14.3381 16.0259 13.1935 16.5 12 16.5C10.8065 16.5 9.66194 16.0259 8.81803 15.182C7.97412 14.3381 7.50001 13.1935 7.50001 12C7.50001 10.8065 7.97412 9.66193 8.81803 8.81802C9.66194 7.97411 10.8065 7.5 12 7.5ZM12 9C11.2044 9 10.4413 9.31607 9.87869 9.87868C9.31608 10.4413 9.00001 11.2044 9.00001 12C9.00001 12.7956 9.31608 13.5587 9.87869 14.1213C10.4413 14.6839 11.2044 15 12 15C12.7957 15 13.5587 14.6839 14.1213 14.1213C14.6839 13.5587 15 12.7956 15 12C15 11.2044 14.6839 10.4413 14.1213 9.87868C13.5587 9.31607 12.7957 9 12 9Z" fill="#828282"/>
</g>
<defs>
<clipPath id="clip0_11361_48922">
<rect width="24" height="24" fill="white"/>
</clipPath>
</defs>
</svg>
