 <svg
      width="19"
      height="18"
      viewBox="0 0 19 18"
      fill="none"
      xmlns="http://www.w3.org/2000/svg">
      <path
        d="M17.7844 9.53437L13.8469 13.4719C13.7029 13.6095 13.5117 13.6867 13.3125 13.6875C13.1638 13.6873 13.0185 13.6428 12.8951 13.5598C12.7717 13.4768 12.6758 13.3589 12.6195 13.2213C12.5632 13.0836 12.5492 12.9323 12.5791 12.7867C12.609 12.641 12.6815 12.5075 12.7875 12.4031L15.4406 9.75H6.75C6.55109 9.75 6.36032 9.67098 6.21967 9.53033C6.07902 9.38968 6 9.19891 6 9C6 8.80109 6.07902 8.61032 6.21967 8.46967C6.36032 8.32902 6.55109 8.25 6.75 8.25H15.4406L12.7875 5.59687C12.6458 5.45639 12.5657 5.26537 12.5648 5.06581C12.5639 4.86626 12.6423 4.67454 12.7828 4.53281C12.9233 4.39109 13.1143 4.31097 13.3139 4.31009C13.5134 4.30921 13.7051 4.38764 13.8469 4.52813L17.7844 8.46563C17.9252 8.60782 18.0042 8.79986 18.0042 9C18.0042 9.20014 17.9252 9.39218 17.7844 9.53437ZM6.75 16.5H1.5V1.5H6.75C6.94891 1.5 7.13968 1.42098 7.28033 1.28033C7.42098 1.13968 7.5 0.948912 7.5 0.75C7.5 0.551088 7.42098 0.360322 7.28033 0.21967C7.13968 0.0790178 6.94891 0 6.75 0H1.5C1.10218 0 0.720644 0.158035 0.43934 0.43934C0.158035 0.720644 0 1.10218 0 1.5V16.5C0 16.8978 0.158035 17.2794 0.43934 17.5607C0.720644 17.842 1.10218 18 1.5 18H6.75C6.94891 18 7.13968 17.921 7.28033 17.7803C7.42098 17.6397 7.5 17.4489 7.5 17.25C7.5 17.0511 7.42098 16.8603 7.28033 16.7197C7.13968 16.579 6.94891 16.5 6.75 16.5Z"
        fill="currentColor"
      />
    </svg>