<svg
  width="20"
  height="18"
  viewBox="0 0 20 18"
  fill="none"
  xmlns="http://www.w3.org/2000/svg">
  <path
    d="M9.70547 0.948334C9.7959 0.900183 9.89677 0.875 9.99922 0.875C10.1017 0.875 10.2025 0.900183 10.293 0.948334L19.668 5.94833C19.7678 6.00168 19.8513 6.08114 19.9095 6.17822C19.9677 6.27531 19.9984 6.38639 19.9984 6.49958C19.9984 6.61278 19.9677 6.72385 19.9095 6.82094C19.8513 6.91803 19.7678 6.99749 19.668 7.05083L10.293 12.0508C10.2025 12.099 10.1017 12.1242 9.99922 12.1242C9.89677 12.1242 9.7959 12.099 9.70547 12.0508L0.330469 7.05083C0.230628 6.99749 0.14715 6.91803 0.0889465 6.82094C0.030743 6.72385 0 6.61278 0 6.49958C0 6.38639 0.030743 6.27531 0.0889465 6.17822C0.14715 6.08114 0.230628 6.00168 0.330469 5.94833L9.70547 0.948334Z"
    fill="currentColor"
  />
  <path
    d="M2.65547 9.70703L0.330469 10.947C0.230628 11.0004 0.14715 11.0798 0.0889465 11.1769C0.030743 11.274 0 11.3851 0 11.4983C0 11.6115 0.030743 11.7226 0.0889465 11.8196C0.14715 11.9167 0.230628 11.9962 0.330469 12.0495L9.70547 17.0495C9.7959 17.0977 9.89677 17.1229 9.99922 17.1229C10.1017 17.1229 10.2025 17.0977 10.293 17.0495L19.668 12.0495C19.7678 11.9962 19.8513 11.9167 19.9095 11.8196C19.9677 11.7226 19.9984 11.6115 19.9984 11.4983C19.9984 11.3851 19.9677 11.274 19.9095 11.1769C19.8513 11.0798 19.7678 11.0004 19.668 10.947L17.343 9.70703L10.8805 13.152C10.6092 13.2965 10.3066 13.372 9.99922 13.372C9.69188 13.372 9.38925 13.2965 9.11797 13.152L2.65547 9.70703Z"
    fill="currentColor"
  />
</svg>