<svg width="42" height="42" viewBox="0 0 42 42" fill="none" xmlns="http://www.w3.org/2000/svg">
<rect width="42" height="42" rx="8" fill="#9B51E0"/>
<path d="M20.9997 12.75C15.6142 12.75 11.25 16.1789 11.25 20.4107C11.25 22.2371 12.0647 23.9096 13.4206 25.2244C12.9445 27.0803 11.3521 28.7344 11.333 28.7528C11.2495 28.8375 11.2268 28.9627 11.2757 29.0732C11.2914 29.1837 11.4328 29.25 11.5542 29.25C14.0797 29.25 15.9723 28.0788 16.9092 27.3566C18.1546 27.8099 19.5372 28.0714 20.9997 28.0714C26.3852 28.0714 30.75 24.6425 30.75 20.4107C30.75 16.1789 26.3852 12.75 20.9997 12.75ZM17.6214 21.5856C17.4919 22.2927 16.8216 22.7679 15.8618 22.7679C15.7012 22.7677 15.5409 22.7554 15.3823 22.731C15.1001 22.6868 14.7843 22.5763 14.5059 22.4769C14.1893 22.3664 13.9704 22.0106 14.0835 21.7046C14.1966 21.3985 14.4869 21.1878 14.806 21.3278C15.0718 21.4198 15.3594 21.5285 15.6013 21.5649C16.037 21.6298 16.3912 21.5525 16.4217 21.383C16.4618 21.1653 16.0088 21.0738 15.4863 20.9285C15.0246 20.7985 13.7998 20.4509 14.015 19.2344C14.1697 18.3733 15.0551 17.9118 16.224 18.0893C16.4489 18.1227 16.6978 18.194 16.932 18.2723C17.2498 18.3782 17.4188 18.7143 17.3093 19.0214C17.2025 19.3316 16.8559 19.4936 16.5359 19.3868C16.3705 19.3316 16.1955 19.2786 16.0374 19.2545C15.61 19.1935 15.2482 19.2694 15.2185 19.4352C15.18 19.6446 15.5761 19.7294 15.9875 19.8435C16.635 20.024 17.8423 20.3555 17.6214 21.5856ZM23.4373 22.1786C23.4373 22.5043 23.1648 22.7679 22.8279 22.7679C22.4911 22.7679 22.2185 22.5027 22.2185 22.1786V20.4107L21.4876 21.3532C21.2567 21.6501 20.743 21.6501 20.5118 21.3532L19.781 20.4107V22.1786C19.781 22.5043 19.5084 22.7679 19.1716 22.7679C18.8347 22.7679 18.5622 22.5027 18.5622 22.1786V18.6429C18.5622 18.3896 18.73 18.1972 18.9788 18.0838C19.2264 18.0066 19.501 18.0859 19.6595 18.2897L20.9997 20.0166L22.34 18.2882C22.4983 18.0845 22.7742 18.0064 23.0206 18.0823C23.2697 18.1641 23.4373 18.3887 23.4373 18.6429V22.1786ZM27.9811 21.5856C27.8516 22.2927 27.1813 22.7679 26.2215 22.7679C26.0609 22.7677 25.9005 22.7554 25.7419 22.731C25.4277 22.685 25.1112 22.5745 24.8324 22.4767C24.5158 22.3662 24.2969 22.0104 24.41 21.7043C24.5232 21.3983 24.8134 21.2197 25.1326 21.329C25.3984 21.421 25.686 21.5297 25.9278 21.5662C26.3635 21.6295 26.7193 21.5523 26.749 21.3843C26.7891 21.1665 26.3361 21.0751 25.8135 20.9298C25.3519 20.7998 24.1271 20.4521 24.3422 19.2356C24.4958 18.3745 25.3801 17.913 26.5513 18.0905C26.7762 18.1239 27.0251 18.1953 27.2593 18.2736C27.5771 18.3794 27.7461 18.7155 27.6366 19.0227C27.5271 19.33 27.1819 19.4945 26.8619 19.3875C26.6965 19.3323 26.5215 19.2793 26.3634 19.2552C25.9372 19.1942 25.5742 19.2701 25.5445 19.4359C25.5397 19.6446 25.9358 19.7294 26.3471 19.8435C26.9946 20.024 28.202 20.3555 27.9811 21.5856Z" fill="white"/>
</svg>
