<svg width="24" height="24" viewBox="0 0 24 24" fill="none" xmlns="http://www.w3.org/2000/svg">
<path d="M19.707 14.707C19.8468 14.5671 19.942 14.389 19.9806 14.195C20.0192 14.0011 19.9993 13.8 19.9237 13.6173C19.848 13.4346 19.7199 13.2785 19.5555 13.1686C19.391 13.0587 19.1978 13 19 13H12V15H16.586L12.293 19.293C12.1532 19.4329 12.058 19.611 12.0194 19.805C11.9808 19.9989 12.0007 20.2 12.0763 20.3827C12.152 20.5654 12.2801 20.7215 12.4445 20.8314C12.609 20.9413 12.8022 21 13 21H20V19H15.414L19.707 14.707ZM7 3.99H5V15.99H2L6 19.99L10 15.99H7V3.99ZM17 3H15C14.583 3 14.21 3.259 14.063 3.649L11.313 10.982H13.45L14.193 9H17.806L18.549 10.981H20.686L17.936 3.648C17.8644 3.45761 17.7364 3.29359 17.5692 3.17781C17.402 3.06203 17.2034 3 17 3ZM14.943 7L15.693 5H16.306L17.056 7H14.943Z" fill="#2F80ED"/>
<path d="M19.707 14.707C19.8468 14.5671 19.942 14.389 19.9806 14.195C20.0192 14.0011 19.9993 13.8 19.9237 13.6173C19.848 13.4346 19.7199 13.2785 19.5555 13.1686C19.391 13.0587 19.1978 13 19 13H12V15H16.586L12.293 19.293C12.1532 19.4329 12.058 19.611 12.0194 19.805C11.9808 19.9989 12.0007 20.2 12.0763 20.3827C12.152 20.5654 12.2801 20.7215 12.4445 20.8314C12.609 20.9413 12.8022 21 13 21H20V19H15.414L19.707 14.707ZM7 3.99H5V15.99H2L6 19.99L10 15.99H7V3.99Z" fill="black"/>
</svg>
