<svg width="58" height="24" viewBox="0 0 58 24" fill="none" xmlns="http://www.w3.org/2000/svg">
<rect x="1" y="1" width="56" height="22" rx="3" stroke="#BDBDBD" stroke-width="2"/>
<path d="M17.7617 13.8027C17.7617 13.627 17.7344 13.4707 17.6797 13.334C17.6289 13.1973 17.5371 13.0723 17.4043 12.959C17.2715 12.8457 17.084 12.7363 16.8418 12.6309C16.6035 12.5215 16.2988 12.4102 15.9277 12.2969C15.5215 12.1719 15.1465 12.0332 14.8027 11.8809C14.4629 11.7246 14.166 11.5449 13.9121 11.3418C13.6582 11.1348 13.4609 10.8984 13.3203 10.6328C13.1797 10.3633 13.1094 10.0527 13.1094 9.70117C13.1094 9.35352 13.1816 9.03711 13.3262 8.75195C13.4746 8.4668 13.6836 8.2207 13.9531 8.01367C14.2266 7.80273 14.5488 7.64062 14.9199 7.52734C15.291 7.41016 15.7012 7.35156 16.1504 7.35156C16.7832 7.35156 17.3281 7.46875 17.7852 7.70312C18.2461 7.9375 18.5996 8.25195 18.8457 8.64648C19.0957 9.04102 19.2207 9.47656 19.2207 9.95312H17.7617C17.7617 9.67188 17.7012 9.42383 17.5801 9.20898C17.4629 8.99023 17.2832 8.81836 17.041 8.69336C16.8027 8.56836 16.5 8.50586 16.1328 8.50586C15.7852 8.50586 15.4961 8.55859 15.2656 8.66406C15.0352 8.76953 14.8633 8.91211 14.75 9.0918C14.6367 9.27148 14.5801 9.47461 14.5801 9.70117C14.5801 9.86133 14.6172 10.0078 14.6914 10.1406C14.7656 10.2695 14.8789 10.3906 15.0312 10.5039C15.1836 10.6133 15.375 10.7168 15.6055 10.8145C15.8359 10.9121 16.1074 11.0059 16.4199 11.0957C16.8926 11.2363 17.3047 11.3926 17.6562 11.5645C18.0078 11.7324 18.3008 11.9238 18.5352 12.1387C18.7695 12.3535 18.9453 12.5977 19.0625 12.8711C19.1797 13.1406 19.2383 13.4473 19.2383 13.791C19.2383 14.1504 19.166 14.4746 19.0215 14.7637C18.877 15.0488 18.6699 15.293 18.4004 15.4961C18.1348 15.6953 17.8145 15.8496 17.4395 15.959C17.0684 16.0645 16.6543 16.1172 16.1973 16.1172C15.7871 16.1172 15.3828 16.0625 14.9844 15.9531C14.5898 15.8438 14.2305 15.6777 13.9062 15.4551C13.582 15.2285 13.3242 14.9473 13.1328 14.6113C12.9414 14.2715 12.8457 13.875 12.8457 13.4219H14.3164C14.3164 13.6992 14.3633 13.9355 14.457 14.1309C14.5547 14.3262 14.6895 14.4863 14.8613 14.6113C15.0332 14.7324 15.2324 14.8223 15.459 14.8809C15.6895 14.9395 15.9355 14.9688 16.1973 14.9688C16.541 14.9688 16.8281 14.9199 17.0586 14.8223C17.293 14.7246 17.4688 14.5879 17.5859 14.4121C17.7031 14.2363 17.7617 14.0332 17.7617 13.8027ZM21.8164 10.8789V18.4375H20.4043V9.66016H21.7051L21.8164 10.8789ZM25.9473 12.7715V12.8945C25.9473 13.3555 25.8926 13.7832 25.7832 14.1777C25.6777 14.5684 25.5195 14.9102 25.3086 15.2031C25.1016 15.4922 24.8457 15.7168 24.541 15.877C24.2363 16.0371 23.8848 16.1172 23.4863 16.1172C23.0918 16.1172 22.7461 16.0449 22.4492 15.9004C22.1562 15.752 21.9082 15.543 21.7051 15.2734C21.502 15.0039 21.3379 14.6875 21.2129 14.3242C21.0918 13.957 21.0059 13.5547 20.9551 13.1172V12.6426C21.0059 12.1777 21.0918 11.7559 21.2129 11.377C21.3379 10.998 21.502 10.6719 21.7051 10.3984C21.9082 10.125 22.1562 9.91406 22.4492 9.76562C22.7422 9.61719 23.084 9.54297 23.4746 9.54297C23.873 9.54297 24.2266 9.62109 24.5352 9.77734C24.8438 9.92969 25.1035 10.1484 25.3145 10.4336C25.5254 10.7148 25.6836 11.0547 25.7891 11.4531C25.8945 11.8477 25.9473 12.2871 25.9473 12.7715ZM24.5352 12.8945V12.7715C24.5352 12.4785 24.5078 12.207 24.4531 11.957C24.3984 11.7031 24.3125 11.4805 24.1953 11.2891C24.0781 11.0977 23.9277 10.9492 23.7441 10.8438C23.5645 10.7344 23.3477 10.6797 23.0938 10.6797C22.8438 10.6797 22.6289 10.7227 22.4492 10.8086C22.2695 10.8906 22.1191 11.0059 21.998 11.1543C21.877 11.3027 21.7832 11.4766 21.7168 11.6758C21.6504 11.8711 21.6035 12.084 21.5762 12.3145V13.4512C21.623 13.7324 21.7031 13.9902 21.8164 14.2246C21.9297 14.459 22.0898 14.6465 22.2969 14.7871C22.5078 14.9238 22.7773 14.9922 23.1055 14.9922C23.3594 14.9922 23.5762 14.9375 23.7559 14.8281C23.9355 14.7188 24.082 14.5684 24.1953 14.377C24.3125 14.1816 24.3984 13.957 24.4531 13.7031C24.5078 13.4492 24.5352 13.1797 24.5352 12.8945ZM30.7227 14.7285V11.7051C30.7227 11.4785 30.6816 11.2832 30.5996 11.1191C30.5176 10.9551 30.3926 10.8281 30.2246 10.7383C30.0605 10.6484 29.8535 10.6035 29.6035 10.6035C29.373 10.6035 29.1738 10.6426 29.0059 10.7207C28.8379 10.7988 28.707 10.9043 28.6133 11.0371C28.5195 11.1699 28.4727 11.3203 28.4727 11.4883H27.0664C27.0664 11.2383 27.127 10.9961 27.248 10.7617C27.3691 10.5273 27.5449 10.3184 27.7754 10.1348C28.0059 9.95117 28.2812 9.80664 28.6016 9.70117C28.9219 9.5957 29.2812 9.54297 29.6797 9.54297C30.1562 9.54297 30.5781 9.62305 30.9453 9.7832C31.3164 9.94336 31.6074 10.1855 31.8184 10.5098C32.0332 10.8301 32.1406 11.2324 32.1406 11.7168V14.5352C32.1406 14.8242 32.1602 15.084 32.1992 15.3145C32.2422 15.541 32.3027 15.7383 32.3809 15.9062V16H30.9336C30.8672 15.8477 30.8145 15.6543 30.7754 15.4199C30.7402 15.1816 30.7227 14.9512 30.7227 14.7285ZM30.9277 12.1445L30.9395 13.0176H29.9258C29.6641 13.0176 29.4336 13.043 29.2344 13.0938C29.0352 13.1406 28.8691 13.2109 28.7363 13.3047C28.6035 13.3984 28.5039 13.5117 28.4375 13.6445C28.3711 13.7773 28.3379 13.9277 28.3379 14.0957C28.3379 14.2637 28.377 14.418 28.4551 14.5586C28.5332 14.6953 28.6465 14.8027 28.7949 14.8809C28.9473 14.959 29.1309 14.998 29.3457 14.998C29.6348 14.998 29.8867 14.9395 30.1016 14.8223C30.3203 14.7012 30.4922 14.5547 30.6172 14.3828C30.7422 14.207 30.8086 14.041 30.8164 13.8848L31.2734 14.5117C31.2266 14.6719 31.1465 14.8438 31.0332 15.0273C30.9199 15.2109 30.7715 15.3867 30.5879 15.5547C30.4082 15.7188 30.1914 15.8535 29.9375 15.959C29.6875 16.0645 29.3984 16.1172 29.0703 16.1172C28.6562 16.1172 28.2871 16.0352 27.9629 15.8711C27.6387 15.7031 27.3848 15.4785 27.2012 15.1973C27.0176 14.9121 26.9258 14.5898 26.9258 14.2305C26.9258 13.8945 26.9883 13.5977 27.1133 13.3398C27.2422 13.0781 27.4297 12.8594 27.6758 12.6836C27.9258 12.5078 28.2305 12.375 28.5898 12.2852C28.9492 12.1914 29.3594 12.1445 29.8203 12.1445H30.9277ZM36.207 14.9922C36.4375 14.9922 36.6445 14.9473 36.8281 14.8574C37.0156 14.7637 37.166 14.6348 37.2793 14.4707C37.3965 14.3066 37.4609 14.1172 37.4727 13.9023H38.8027C38.7949 14.3125 38.6738 14.6855 38.4395 15.0215C38.2051 15.3574 37.8945 15.625 37.5078 15.8242C37.1211 16.0195 36.6934 16.1172 36.2246 16.1172C35.7402 16.1172 35.3184 16.0352 34.959 15.8711C34.5996 15.7031 34.3008 15.4727 34.0625 15.1797C33.8242 14.8867 33.6445 14.5488 33.5234 14.166C33.4062 13.7832 33.3477 13.373 33.3477 12.9355V12.7305C33.3477 12.293 33.4062 11.8828 33.5234 11.5C33.6445 11.1133 33.8242 10.7734 34.0625 10.4805C34.3008 10.1875 34.5996 9.95898 34.959 9.79492C35.3184 9.62695 35.7383 9.54297 36.2188 9.54297C36.7266 9.54297 37.1719 9.64453 37.5547 9.84766C37.9375 10.0469 38.2383 10.3262 38.457 10.6855C38.6797 11.041 38.7949 11.4551 38.8027 11.9277H37.4727C37.4609 11.6934 37.4023 11.4824 37.2969 11.2949C37.1953 11.1035 37.0508 10.9512 36.8633 10.8379C36.6797 10.7246 36.459 10.668 36.2012 10.668C35.916 10.668 35.6797 10.7266 35.4922 10.8438C35.3047 10.957 35.1582 11.1133 35.0527 11.3125C34.9473 11.5078 34.8711 11.7285 34.8242 11.9746C34.7812 12.2168 34.7598 12.4688 34.7598 12.7305V12.9355C34.7598 13.1973 34.7812 13.4512 34.8242 13.6973C34.8672 13.9434 34.9414 14.1641 35.0469 14.3594C35.1562 14.5508 35.3047 14.7051 35.4922 14.8223C35.6797 14.9355 35.918 14.9922 36.207 14.9922ZM42.6816 16.1172C42.2129 16.1172 41.7891 16.041 41.4102 15.8887C41.0352 15.7324 40.7148 15.5156 40.4492 15.2383C40.1875 14.9609 39.9863 14.6348 39.8457 14.2598C39.7051 13.8848 39.6348 13.4805 39.6348 13.0469V12.8125C39.6348 12.3164 39.707 11.8672 39.8516 11.4648C39.9961 11.0625 40.1973 10.7188 40.4551 10.4336C40.7129 10.1445 41.0176 9.92383 41.3691 9.77148C41.7207 9.61914 42.1016 9.54297 42.5117 9.54297C42.9648 9.54297 43.3613 9.61914 43.7012 9.77148C44.041 9.92383 44.3223 10.1387 44.5449 10.416C44.7715 10.6895 44.9395 11.0156 45.0488 11.3945C45.1621 11.7734 45.2188 12.1914 45.2188 12.6484V13.252H40.3203V12.2383H43.8242V12.127C43.8164 11.873 43.7656 11.6348 43.6719 11.4121C43.582 11.1895 43.4434 11.0098 43.2559 10.873C43.0684 10.7363 42.8184 10.668 42.5059 10.668C42.2715 10.668 42.0625 10.7188 41.8789 10.8203C41.6992 10.918 41.5488 11.0605 41.4277 11.248C41.3066 11.4355 41.2129 11.6621 41.1465 11.9277C41.084 12.1895 41.0527 12.4844 41.0527 12.8125V13.0469C41.0527 13.3242 41.0898 13.582 41.1641 13.8203C41.2422 14.0547 41.3555 14.2598 41.5039 14.4355C41.6523 14.6113 41.832 14.75 42.043 14.8516C42.2539 14.9492 42.4941 14.998 42.7637 14.998C43.1035 14.998 43.4062 14.9297 43.6719 14.793C43.9375 14.6562 44.168 14.4629 44.3633 14.2129L45.1074 14.9336C44.9707 15.1328 44.793 15.3242 44.5742 15.5078C44.3555 15.6875 44.0879 15.834 43.7715 15.9473C43.459 16.0605 43.0957 16.1172 42.6816 16.1172Z" fill="#BDBDBD"/>
</svg>
