<svg width="20" height="20" viewBox="0 0 20 20" fill="none" xmlns="http://www.w3.org/2000/svg">
<path opacity="0.99" fill-rule="evenodd" clip-rule="evenodd" d="M3.14453 1.62099C3.63348 1.58835 3.96551 1.79669 4.14063 2.24599C4.16016 6.76419 4.16668 11.2824 4.16016 15.8007C8.6784 15.7942 13.1966 15.8007 17.7148 15.8202C18.1168 15.9528 18.3252 16.2327 18.3398 16.6601C18.3115 17.0487 18.1162 17.3156 17.7539 17.4608C12.8581 17.4869 7.96223 17.4869 3.06641 17.4608C2.77344 17.3762 2.58464 17.1874 2.5 16.8944C2.47396 11.9986 2.47396 7.10275 2.5 2.20693C2.62493 1.90594 2.83977 1.71062 3.14453 1.62099Z" fill="#2F80ED"/>
<path opacity="0.987" fill-rule="evenodd" clip-rule="evenodd" d="M16.5039 1.62091C16.968 1.58264 17.287 1.77796 17.4609 2.20685C17.487 5.99591 17.487 9.78498 17.4609 13.574C17.2695 14.0313 16.9244 14.2201 16.4258 14.1404C16.1198 14.0428 15.918 13.841 15.8203 13.535C15.7943 9.77197 15.7943 6.00892 15.8203 2.24591C15.9321 1.90614 16.1599 1.6978 16.5039 1.62091Z" fill="#2F80ED"/>
<path opacity="0.966" fill-rule="evenodd" clip-rule="evenodd" d="M9.82423 4.121C10.3481 4.09232 10.6801 4.3267 10.8203 4.82412C10.8464 7.70174 10.8464 10.5793 10.8203 13.4569C10.6665 14.0008 10.3084 14.2286 9.7461 14.1405C9.40681 14.0356 9.20497 13.8077 9.14063 13.4569C9.11458 10.5793 9.11458 7.70174 9.14063 4.82412C9.21931 4.43951 9.44716 4.20514 9.82423 4.121Z" fill="#2F80ED"/>
<path opacity="0.985" fill-rule="evenodd" clip-rule="evenodd" d="M13.1055 5.80074C13.62 5.73547 13.965 5.94383 14.1406 6.42574C14.1667 8.79554 14.1667 11.1653 14.1406 13.5351C13.9308 14.073 13.5467 14.2618 12.9883 14.1015C12.7411 14.0046 12.5784 13.8288 12.5 13.5742C12.474 11.1784 12.474 8.7825 12.5 6.38668C12.5978 6.08117 12.7996 5.88586 13.1055 5.80074Z" fill="#2F80ED"/>
<path opacity="0.981" fill-rule="evenodd" clip-rule="evenodd" d="M6.42579 8.30077C6.92395 8.24026 7.26903 8.43558 7.46095 8.88671C7.487 10.4492 7.487 12.0117 7.46095 13.5742C7.26946 14.0315 6.92442 14.2203 6.42579 14.1406C6.11981 14.043 5.91798 13.8411 5.82032 13.5351C5.79427 11.9987 5.79427 10.4622 5.82032 8.92577C5.92521 8.61913 6.12704 8.41077 6.42579 8.30077Z" fill="#2F80ED"/>
</svg>
