<svg width="90" height="90" viewBox="0 0 90 90" fill="none" xmlns="http://www.w3.org/2000/svg">
<g clip-path="url(#clip0_18068_120229)">
<path fill-rule="evenodd" clip-rule="evenodd" d="M45 3.75C22.2188 3.75 3.75 22.2188 3.75 45C3.75 67.7812 22.2188 86.25 45 86.25C67.7812 86.25 86.25 67.7812 86.25 45C86.25 22.2188 67.7812 3.75 45 3.75ZM62.88 38.025C63.2092 37.6487 63.4599 37.2103 63.6172 36.7356C63.7745 36.261 63.8353 35.7597 63.796 35.2612C63.7567 34.7627 63.6181 34.2771 63.3884 33.833C63.1587 33.3888 62.8424 32.9951 62.4583 32.675C62.0742 32.3549 61.6299 32.1149 61.1516 31.969C60.6733 31.8231 60.1707 31.7744 59.6733 31.8256C59.1759 31.8768 58.6938 32.0271 58.2553 32.2674C57.8168 32.5077 57.4308 32.8333 57.12 33.225L40.995 52.5713L32.6512 44.2238C31.944 43.5407 30.9967 43.1627 30.0135 43.1712C29.0303 43.1798 28.0897 43.5742 27.3944 44.2694C26.6992 44.9647 26.3048 45.9053 26.2962 46.8885C26.2877 47.8717 26.6657 48.819 27.3488 49.5262L38.5988 60.7763C38.9672 61.1445 39.4084 61.4319 39.8941 61.6202C40.3798 61.8085 40.8994 61.8936 41.4198 61.8699C41.9402 61.8463 42.4499 61.7145 42.9165 61.4829C43.3832 61.2514 43.7964 60.9251 44.13 60.525L62.88 38.025Z" fill="#27AE60"/>
</g>
<defs>
<clipPath id="clip0_18068_120229">
<rect width="90" height="90" fill="white"/>
</clipPath>
</defs>
</svg>
