<svg
  width="20"
  height="20"
  viewBox="0 0 20 20"
  fill="none"
  xmlns="http://www.w3.org/2000/svg">
  <path
    d="M3.33325 1.66699V6.66699H1.66659V1.66699H3.33325ZM1.66659 18.3337H3.33325V13.3337H1.66659V18.3337ZM4.16659 10.0003C4.16659 9.67069 4.06884 9.34846 3.8857 9.07438C3.70257 8.80029 3.44227 8.58667 3.13773 8.46053C2.83318 8.33438 2.49807 8.30137 2.17477 8.36568C1.85147 8.42999 1.5545 8.58873 1.32141 8.82181C1.08832 9.0549 0.929586 9.35187 0.865277 9.67517C0.800969 9.99848 0.833974 10.3336 0.96012 10.6381C1.08627 10.9427 1.29989 11.203 1.57397 11.3861C1.84805 11.5692 2.17028 11.667 2.49992 11.667C3.42492 11.667 4.16659 10.9253 4.16659 10.0003ZM19.9999 5.00033V15.0003C19.9999 15.9253 19.2583 16.667 18.3333 16.667H8.33325C7.89122 16.667 7.4673 16.4914 7.15474 16.1788C6.84218 15.8663 6.66659 15.4424 6.66659 15.0003V11.667L4.99992 10.0003L6.66659 8.33366V5.00033C6.66659 4.5583 6.84218 4.13437 7.15474 3.82181C7.4673 3.50925 7.89122 3.33366 8.33325 3.33366H18.3333C19.2583 3.33366 19.9999 4.07533 19.9999 5.00033ZM15.8333 10.8337H9.16659V12.5003H15.8333V10.8337ZM17.4999 7.50033H9.16659V9.16699H17.4999V7.50033Z"
    fill="currentColor"
  />
</svg>