<svg width="28" height="29" viewBox="0 0 28 29" fill="none" xmlns="http://www.w3.org/2000/svg">
<rect y="0.626953" width="28" height="28" rx="8" fill="#2F80ED"/>
<path d="M17.513 11.113C17.0962 10.6941 16.6006 10.3619 16.0549 10.1353C15.5091 9.90877 14.9239 9.79242 14.333 9.79297V14.293L11.153 17.473C12.908 19.228 15.758 19.228 17.5205 17.473C17.9382 17.0552 18.2694 16.5591 18.4951 16.0132C18.7208 15.4673 18.8366 14.8822 18.8359 14.2914C18.8352 13.7007 18.718 13.1158 18.491 12.5704C18.264 12.025 17.9317 11.5298 17.513 11.113ZM14.333 6.79297C10.193 6.79297 6.83301 10.153 6.83301 14.293C6.83301 18.433 10.193 21.793 14.333 21.793C18.473 21.793 21.833 18.433 21.833 14.293C21.833 10.153 18.473 6.79297 14.333 6.79297ZM14.333 20.293C11.018 20.293 8.33301 17.608 8.33301 14.293C8.33301 10.978 11.018 8.29297 14.333 8.29297C17.648 8.29297 20.333 10.978 20.333 14.293C20.333 17.608 17.648 20.293 14.333 20.293Z" fill="white"/>
</svg>
