<svg width="24" height="24" viewBox="0 0 24 24" fill="none" xmlns="http://www.w3.org/2000/svg">
<g clip-path="url(#clip0_9899_47014)">
<path d="M8.04167 3.8H7.83333C7.94792 3.8 8.04167 3.71 8.04167 3.6V3.8H15.9583V3.6C15.9583 3.71 16.0521 3.8 16.1667 3.8H15.9583V5.6H17.8333V3.6C17.8333 2.7175 17.0859 2 16.1667 2H7.83333C6.91406 2 6.16667 2.7175 6.16667 3.6V5.6H8.04167V3.8ZM21.1667 5.6H2.83333C2.3724 5.6 2 5.9575 2 6.4V7.2C2 7.31 2.09375 7.4 2.20833 7.4H3.78125L4.42448 20.475C4.46615 21.3275 5.20052 22 6.08854 22H17.9115C18.8021 22 19.5339 21.33 19.5755 20.475L20.2187 7.4H21.7917C21.9062 7.4 22 7.31 22 7.2V6.4C22 5.9575 21.6276 5.6 21.1667 5.6ZM17.7109 20.2H6.28906L5.65885 7.4H18.3411L17.7109 20.2Z" fill="#828282"/>
</g>
<defs>
<clipPath id="clip0_9899_47014">
<rect width="24" height="24" fill="white"/>
</clipPath>
</defs>
</svg>
