<svg width="25" height="24" viewBox="0 0 25 24" fill="none" xmlns="http://www.w3.org/2000/svg">
<g clip-path="url(#clip0_18401_121967)">
<path d="M16.25 9H18.125C18.6223 9 19.0992 9.19754 19.4508 9.54917C19.8025 9.90081 20 10.3777 20 10.875V19.875C20 20.3723 19.8025 20.8492 19.4508 21.2008C19.0992 21.5525 18.6223 21.75 18.125 21.75H6.875C6.37772 21.75 5.90081 21.5525 5.54917 21.2008C5.19754 20.8492 5 20.3723 5 19.875V10.875C5 10.3777 5.19754 9.90081 5.54917 9.54917C5.90081 9.19754 6.37772 9 6.875 9H8.75M16.25 6L12.5 2.25L8.75 6M12.5 15.0469V2.25" stroke="#2F80ED" stroke-width="1.5" stroke-linecap="round" stroke-linejoin="round"/>
</g>
<defs>
<clipPath id="clip0_18401_121967">
<rect width="24" height="24" fill="white" transform="translate(0.5)"/>
</clipPath>
</defs>
</svg>
