<svg width="20" height="20" viewBox="0 0 20 20" fill="none" xmlns="http://www.w3.org/2000/svg">
<path d="M3.3335 5C3.3335 6.38083 6.3185 7.5 10.0002 7.5C13.6818 7.5 16.6668 6.38083 16.6668 5C16.6668 3.61917 13.6818 2.5 10.0002 2.5C6.3185 2.5 3.3335 3.61917 3.3335 5Z" stroke="#27AE60" stroke-width="1.5" stroke-linecap="round" stroke-linejoin="round"/>
<path d="M3.3335 5V10C3.3335 11.3808 6.3185 12.5 10.0002 12.5C10.301 12.5 10.5968 12.4925 10.8877 12.4783M16.6668 10.8333V5" stroke="#27AE60" stroke-width="1.5" stroke-linecap="round" stroke-linejoin="round"/>
<path d="M3.3335 10V15C3.3335 16.3808 6.3185 17.5 10.0002 17.5M13.3335 18.3333L17.5002 14.1667M17.5002 14.1667V17.9167M17.5002 14.1667H13.7502" stroke="#27AE60" stroke-width="1.5" stroke-linecap="round" stroke-linejoin="round"/>
</svg>
