<svg width="30" height="30" viewBox="0 0 30 30" fill="none" xmlns="http://www.w3.org/2000/svg">
<path opacity="0.981" fill-rule="evenodd" clip-rule="evenodd" d="M9.28711 3.13476C10.4982 3.125 11.7091 3.13476 12.9199 3.16406C14.7168 4.96094 16.5137 6.75779 18.3105 8.55469C16.9629 8.59377 15.6152 8.59377 14.2676 8.55469C12.4992 6.79605 10.7414 5.02849 8.99414 3.25195C9.09908 3.21271 9.19676 3.17364 9.28711 3.13476Z" fill="#EB5757"/>
<path opacity="0.987" fill-rule="evenodd" clip-rule="evenodd" d="M15.9082 3.19335C17.4803 3.12517 19.0623 3.11541 20.6543 3.16405C23.3866 3.40174 25.2909 4.7787 26.3672 7.29491C26.5116 7.7162 26.619 8.14587 26.6895 8.58397C24.8925 8.59376 23.0956 8.58397 21.2988 8.55468C19.5097 6.75573 17.7128 4.96865 15.9082 3.19335Z" fill="#EB5757"/>
<path opacity="0.994" fill-rule="evenodd" clip-rule="evenodd" d="M6.5332 3.89646C6.61365 3.88728 6.69182 3.89705 6.76758 3.92576C8.30156 5.45 9.825 6.98318 11.3379 8.52537C8.64287 8.58396 5.94756 8.60348 3.25195 8.58396C3.62413 6.50992 4.71789 4.9474 6.5332 3.89646Z" fill="#EB5757"/>
<path opacity="0.993" fill-rule="evenodd" clip-rule="evenodd" d="M3.13477 10.6348C11.0254 10.6348 18.916 10.6348 26.8066 10.6348C26.8164 13.9747 26.8066 17.3145 26.7773 20.6543C26.468 23.7244 24.8371 25.7068 21.8848 26.6016C21.4603 26.6984 21.0306 26.757 20.5957 26.7773C16.8457 26.8164 13.0957 26.8164 9.3457 26.7773C7.29557 26.6557 5.64519 25.7866 4.39453 24.1699C3.6472 23.1195 3.23705 21.9476 3.16406 20.6543C3.13477 17.3145 3.125 13.9747 3.13477 10.6348ZM12.5098 13.1543C12.7255 13.1446 12.9403 13.1544 13.1543 13.1836C15.1276 14.2206 17.0709 15.3046 18.9844 16.4355C19.3659 17.0681 19.2584 17.6053 18.6621 18.0469C16.8754 19.0086 15.098 19.9851 13.3301 20.9766C12.6427 21.2293 12.1447 21.0242 11.8359 20.3613C11.7969 18.1934 11.7969 16.0254 11.8359 13.8574C11.9542 13.5146 12.1788 13.2803 12.5098 13.1543Z" fill="#EB5757"/>
</svg>
