<svg width="24" height="24" viewBox="0 0 24 24" fill="none" xmlns="http://www.w3.org/2000/svg">
<path d="M3.70814 17.5099L11.2918 21.814C11.5072 21.9359 11.7514 22 12 22C12.2485 22 12.4927 21.9359 12.7081 21.814L20.2919 17.5099C20.5069 17.3874 20.6854 17.2115 20.8097 16.9999C20.934 16.7884 20.9996 16.5484 21 16.3041V7.69584C20.9996 7.45153 20.934 7.2116 20.8097 7.00002C20.6855 6.78844 20.5069 6.61262 20.2919 6.49011L12.7081 2.18595C12.4927 2.06412 12.2485 2 12 2C11.7515 2 11.5073 2.06412 11.2919 2.18595L3.70814 6.49011C3.4931 6.61261 3.31454 6.78844 3.19027 7.00002C3.06601 7.2116 3.0004 7.45153 3 7.69584V16.3042C3.0004 16.5485 3.06601 16.7884 3.19027 17C3.31454 17.2116 3.4931 17.3874 3.70814 17.5099V17.5099ZM12.7081 3.7936L19.5837 7.69584V15.4131L12.7081 11.5929V3.7936ZM11.9977 12.7974L18.9531 16.6621L12.0001 20.6082L5.04456 16.6608L11.9977 12.7974ZM4.41627 7.69584L11.2918 3.7936V11.5902L4.41627 15.4106V7.69584Z" fill="#4F4F4F"/>
</svg>
