<svg width="24" height="24" viewBox="0 0 24 24" fill="none" xmlns="http://www.w3.org/2000/svg">
<g clip-path="url(#clip0_34201_19286)">
<path d="M20.2205 17.0273L13.7271 5.06734C13.5552 4.75148 13.3013 4.48782 12.9922 4.30411C12.683 4.1204 12.3301 4.02344 11.9705 4.02344C11.6108 4.02344 11.2579 4.1204 10.9487 4.30411C10.6396 4.48782 10.3857 4.75148 10.2138 5.06734L3.71379 17.0273C3.54365 17.3327 3.45653 17.6773 3.46111 18.0269C3.46568 18.3764 3.56179 18.7187 3.73985 19.0195C3.91792 19.3203 4.17171 19.5692 4.47595 19.7413C4.78018 19.9135 5.12422 20.0029 5.47378 20.0007H18.4605C18.8071 20.001 19.148 19.9112 19.4495 19.74C19.751 19.5689 20.0029 19.3223 20.1803 19.0245C20.3578 18.7267 20.4548 18.3879 20.4619 18.0412C20.4689 17.6946 20.3857 17.3521 20.2205 17.0473V17.0273ZM10.9738 8.49401C10.9738 8.22879 11.0791 7.97444 11.2667 7.7869C11.4542 7.59936 11.7086 7.49401 11.9738 7.49401C12.239 7.49401 12.4934 7.59936 12.6809 7.7869C12.8684 7.97444 12.9738 8.22879 12.9738 8.49401V13.0873C12.9738 13.3526 12.8684 13.6069 12.6809 13.7944C12.4934 13.982 12.239 14.0873 11.9738 14.0873C11.7086 14.0873 11.4542 13.982 11.2667 13.7944C11.0791 13.6069 10.9738 13.3526 10.9738 13.0873V8.49401ZM12.0005 17.5007C11.7737 17.5007 11.552 17.4334 11.3634 17.3074C11.1748 17.1814 11.0279 17.0023 10.9411 16.7928C10.8543 16.5833 10.8316 16.3527 10.8758 16.1303C10.9201 15.9079 11.0293 15.7036 11.1896 15.5432C11.35 15.3828 11.5543 15.2736 11.7767 15.2294C11.9992 15.1851 12.2297 15.2078 12.4393 15.2946C12.6488 15.3814 12.8279 15.5284 12.9539 15.717C13.0799 15.9055 13.1471 16.1272 13.1471 16.354C13.1471 16.6581 13.0263 16.9498 12.8113 17.1648C12.5962 17.3799 12.3046 17.5007 12.0005 17.5007Z" fill="#EB5757"/>
</g>
<defs>
<clipPath id="clip0_34201_19286">
<rect width="24" height="24" fill="white"/>
</clipPath>
</defs>
</svg>
