<svg width="42" height="42" viewBox="0 0 42 42" fill="none" xmlns="http://www.w3.org/2000/svg">
<rect width="42" height="42" rx="8" fill="#00E676"/>
<g clip-path="url(#clip0_3271_12235)">
<path d="M15.343 29.5527L15.7353 29.7466C17.3703 30.7162 19.2013 31.1687 21.0325 31.1687C26.7873 31.1687 31.4958 26.5147 31.4958 20.8265C31.4958 18.1117 30.384 15.4615 28.4222 13.5224C26.4603 11.5832 23.8444 10.4844 21.0325 10.4844C15.2776 10.4844 10.569 15.1383 10.6345 20.8912C10.6345 22.8303 11.223 24.7049 12.2039 26.3208L12.4655 26.7087L11.4192 30.5223L15.343 29.5527Z" fill="#00E676"/>
<path d="M29.5343 12.4905C27.3109 10.2282 24.2373 9 21.0983 9C14.4279 9 9.06544 14.365 9.13078 20.8934C9.13078 22.9619 9.71934 24.9657 10.7003 26.7756L9 32.9162L15.3434 31.3003C17.1091 32.2699 19.0709 32.7224 21.0329 32.7224C27.6379 32.7224 33.0004 27.3573 33.0004 20.8289C33.0004 17.6616 31.7578 14.6882 29.5344 12.4905H29.5343ZM21.0983 30.7186C19.3326 30.7186 17.5669 30.2662 16.0627 29.3613L15.6704 29.1673L11.8775 30.1369L12.8584 26.4525L12.5968 26.0646C9.71934 21.4754 11.0927 15.3992 15.8012 12.5551C20.5097 9.71101 26.5915 11.0684 29.469 15.7224C32.3464 20.3764 30.973 26.3878 26.2646 29.2319C24.7604 30.2015 22.9294 30.7185 21.0983 30.7185V30.7186ZM26.8531 23.5438L26.1337 23.2206C26.1337 23.2206 25.0875 22.7681 24.4335 22.4449C24.3681 22.4449 24.3027 22.3802 24.2373 22.3802C24.0411 22.3802 23.9103 22.4449 23.7795 22.5096C23.7795 22.5096 23.7142 22.5742 22.7986 23.6084C22.7332 23.7377 22.6024 23.8023 22.4716 23.8023H22.4062C22.3408 23.8023 22.21 23.7377 22.1446 23.6731L21.8176 23.5438C21.0982 23.2206 20.4443 22.8327 19.9211 22.3156C19.7903 22.1864 19.5941 22.0571 19.4633 21.9278C19.0056 21.4754 18.5478 20.9582 18.2209 20.3765L18.1554 20.2472C18.0901 20.1825 18.0901 20.1179 18.0247 19.9887C18.0247 19.8594 18.0247 19.7301 18.0901 19.6655C18.0901 19.6655 18.3517 19.3422 18.5478 19.1484C18.6787 19.019 18.744 18.8252 18.8748 18.6959C19.0056 18.502 19.071 18.2434 19.0056 18.0495C18.9402 17.7263 18.1554 15.981 17.9593 15.5932C17.8284 15.3993 17.6978 15.3347 17.5015 15.27H16.7822C16.6513 15.27 16.5206 15.3347 16.3897 15.3347L16.3243 15.3993C16.1935 15.464 16.0628 15.5932 15.932 15.6578C15.8012 15.7872 15.7358 15.9164 15.605 16.0457C15.1472 16.6275 14.8856 17.3385 14.8856 18.0495C14.8856 18.5665 15.0164 19.0837 15.2126 19.5362L15.2781 19.7301C15.8666 20.9582 16.6513 22.0571 17.6978 23.0267L17.9593 23.2852C18.1554 23.4791 18.3517 23.6084 18.4824 23.8023C19.8558 24.9658 21.4252 25.8061 23.1909 26.2586C23.3872 26.3232 23.6487 26.3232 23.8449 26.3879H24.4988C24.8258 26.3879 25.2182 26.2586 25.4798 26.1293C25.676 26.0001 25.8068 26.0001 25.9375 25.8708L26.0684 25.7414C26.1992 25.6122 26.33 25.5476 26.4608 25.4183C26.5915 25.2891 26.7223 25.1598 26.7878 25.0304C26.9185 24.7719 26.9839 24.4487 27.0493 24.1256V23.6731C27.0493 23.6731 26.9839 23.6084 26.8531 23.5438Z" fill="white"/>
</g>
<defs>
<clipPath id="clip0_3271_12235">
<rect width="24" height="24" fill="white" transform="translate(9 9)"/>
</clipPath>
</defs>
</svg>
