<svg width="20" height="20" viewBox="0 0 20 20" fill="none" xmlns="http://www.w3.org/2000/svg">
<path d="M3.67187 16.4062L3.67187 3.59375C3.67187 3.50781 3.60156 3.4375 3.51562 3.4375L2.34375 3.4375C2.25781 3.4375 2.1875 3.50781 2.1875 3.59375L2.1875 16.4062C2.1875 16.4922 2.25781 16.5625 2.34375 16.5625L3.51562 16.5625C3.60156 16.5625 3.67187 16.4922 3.67187 16.4062ZM17.8125 16.4062L17.8125 3.59375C17.8125 3.50781 17.7422 3.4375 17.6562 3.4375L16.4844 3.4375C16.3984 3.4375 16.3281 3.50781 16.3281 3.59375L16.3281 16.4062C16.3281 16.4922 16.3984 16.5625 16.4844 16.5625L17.6562 16.5625C17.7422 16.5625 17.8125 16.4922 17.8125 16.4062ZM12.6172 11.9297C12.6172 12.0469 12.7539 12.1133 12.8457 12.041L15.3379 10.0723C15.3548 10.0592 15.3684 10.0425 15.3778 10.0234C15.3872 10.0043 15.3921 9.98323 15.3921 9.96191C15.3921 9.9406 15.3872 9.91957 15.3778 9.90044C15.3684 9.88131 15.3548 9.86459 15.3379 9.85156L12.8457 7.88281C12.8249 7.86641 12.7998 7.85621 12.7734 7.85339C12.747 7.85057 12.7204 7.85523 12.6966 7.86685C12.6727 7.87847 12.6526 7.89657 12.6386 7.91909C12.6245 7.9416 12.6171 7.96761 12.6172 7.99414L12.6172 9.29687L7.38281 9.29687L7.38281 8.07031C7.38281 7.95312 7.24609 7.88672 7.1543 7.95898L4.66406 9.92773C4.5918 9.98437 4.5918 10.0937 4.66406 10.1484L7.1543 12.1172C7.24609 12.1895 7.38281 12.125 7.38281 12.0059L7.38281 10.7031L12.6172 10.7031L12.6172 11.9297Z" fill="#828282"/>
</svg>
