<svg width="24" height="24" viewBox="0 0 24 24" fill="none" xmlns="http://www.w3.org/2000/svg">
<path d="M12 3V9M12 3C11.621 3 11.315 3.35 10.705 4.048L9 6M12 3C12.38 3 12.684 3.35 13.295 4.048L15 6M3 12H9M3 12C3 12.379 3.35 12.685 4.048 13.295L6 15M3 12C3 11.62 3.35 11.316 4.048 10.705L6 9M21 12H15M21 12C21 11.621 20.65 11.315 19.952 10.705L18 9M21 12C21 12.38 20.65 12.684 19.952 13.295L18 15M12 21V14.5M12 21C12.379 21 12.685 20.65 13.295 19.952L15 18M12 21C11.62 21 11.316 20.65 10.705 19.952L9 18" stroke="currentColor" stroke-width="1.5" stroke-linecap="round" stroke-linejoin="round"/>
</svg>
